<svg viewBox="0 0 330 200" xmlns="http://www.w3.org/2000/svg"><g><g><g><g><g><line x1="51.5625" y1="177" x2="46.5625" y2="177" style="visibility: inherit;" fill="rgb(0, 0, 0)" stroke="rgb(204, 204, 204)" stroke-width="1px"></line><line x1="51.5625" y1="154.87499999999997" x2="46.5625" y2="154.87499999999997" style="visibility: inherit;" fill="rgb(0, 0, 0)" stroke="rgb(204, 204, 204)" stroke-width="1px"></line><line x1="51.5625" y1="132.74999999999997" x2="46.5625" y2="132.74999999999997" style="visibility: inherit;" fill="rgb(0, 0, 0)" stroke="rgb(204, 204, 204)" stroke-width="1px"></line><line x1="51.5625" y1="110.62499999999996" x2="46.5625" y2="110.62499999999996" style="visibility: inherit;" fill="rgb(0, 0, 0)" stroke="rgb(204, 204, 204)" stroke-width="1px"></line><line x1="51.5625" y1="88.50000000000006" x2="46.5625" y2="88.50000000000006" style="visibility: inherit;" fill="rgb(0, 0, 0)" stroke="rgb(204, 204, 204)" stroke-width="1px"></line><line x1="51.5625" y1="66.37500000000004" x2="46.5625" y2="66.37500000000004" style="visibility: inherit;" fill="rgb(0, 0, 0)" stroke="rgb(204, 204, 204)" stroke-width="1px"></line><line x1="51.5625" y1="44.25000000000004" x2="46.5625" y2="44.25000000000004" style="visibility: inherit;" fill="rgb(0, 0, 0)" stroke="rgb(204, 204, 204)" stroke-width="1px"></line><line x1="51.5625" y1="22.12500000000002" x2="46.5625" y2="22.12500000000002" style="visibility: inherit;" fill="rgb(0, 0, 0)" stroke="rgb(204, 204, 204)" stroke-width="1px"></line><line x1="51.5625" y1="0" x2="46.5625" y2="0" style="visibility: inherit;" fill="rgb(0, 0, 0)" stroke="rgb(204, 204, 204)" stroke-width="1px"></line></g><g transform="translate(41.5625, 0)"><text x="0" y="177" dx="0em" dy="0.3em" style="text-anchor: end; visibility: hidden; font-family: Roboto, sans-serif; font-size: 12px; font-weight: 200;" fill="rgb(33, 33, 33)" stroke="none" stroke-width="1px">0.74</text><text x="0" y="154.87499999999997" dx="0em" dy="0.3em" style="text-anchor: end; visibility: inherit; font-family: Roboto, sans-serif; font-size: 12px; font-weight: 200;" fill="rgb(33, 33, 33)" stroke="none" stroke-width="1px">0.76</text><text x="0" y="132.74999999999997" dx="0em" dy="0.3em" style="text-anchor: end; visibility: hidden; font-family: Roboto, sans-serif; font-size: 12px; font-weight: 200;" fill="rgb(33, 33, 33)" stroke="none" stroke-width="1px">0.78</text><text x="0" y="110.62499999999996" dx="0em" dy="0.3em" style="text-anchor: end; visibility: inherit; font-family: Roboto, sans-serif; font-size: 12px; font-weight: 200;" fill="rgb(33, 33, 33)" stroke="none" stroke-width="1px">0.8</text><text x="0" y="88.50000000000006" dx="0em" dy="0.3em" style="text-anchor: end; visibility: hidden; font-family: Roboto, sans-serif; font-size: 12px; font-weight: 200;" fill="rgb(33, 33, 33)" stroke="none" stroke-width="1px">0.82</text><text x="0" y="66.37500000000004" dx="0em" dy="0.3em" style="text-anchor: end; visibility: inherit; font-family: Roboto, sans-serif; font-size: 12px; font-weight: 200;" fill="rgb(33, 33, 33)" stroke="none" stroke-width="1px">0.84</text><text x="0" y="44.25000000000004" dx="0em" dy="0.3em" style="text-anchor: end; visibility: hidden; font-family: Roboto, sans-serif; font-size: 12px; font-weight: 200;" fill="rgb(33, 33, 33)" stroke="none" stroke-width="1px">0.86</text><text x="0" y="22.12500000000002" dx="0em" dy="0.3em" style="text-anchor: end; visibility: inherit; font-family: Roboto, sans-serif; font-size: 12px; font-weight: 200;" fill="rgb(33, 33, 33)" stroke="none" stroke-width="1px">0.88</text><text x="0" y="0" dx="0em" dy="0.3em" style="text-anchor: end; visibility: hidden; font-family: Roboto, sans-serif; font-size: 12px; font-weight: 200;" fill="rgb(33, 33, 33)" stroke="none" stroke-width="1px">0.9</text></g><line x1="51.5625" y1="0" x2="51.5625" y2="177" fill="rgb(0, 0, 0)" stroke="rgb(204, 204, 204)" stroke-width="1px"></line></g></g><g transform="translate(51, 0)" clip-path="url(#clip_0)"><clipPath id="clip_0"><rect width="278" height="177"></rect></clipPath><g><g><g><line x1="0" y1="0" x2="0" y2="177" fill="rgb(0, 0, 0)" stroke="rgb(66, 66, 66)" stroke-width="1px" opacity="0.25"></line><line x1="34.8046875" y1="0" x2="34.8046875" y2="177" fill="rgb(0, 0, 0)" stroke="rgb(66, 66, 66)" stroke-width="1px" opacity="0.25"></line><line x1="69.609375" y1="0" x2="69.609375" y2="177" fill="rgb(0, 0, 0)" stroke="rgb(66, 66, 66)" stroke-width="1px" opacity="0.25"></line><line x1="104.4140625" y1="0" x2="104.4140625" y2="177" fill="rgb(0, 0, 0)" stroke="rgb(66, 66, 66)" stroke-width="1px" opacity="0.25"></line><line x1="139.21875" y1="0" x2="139.21875" y2="177" fill="rgb(0, 0, 0)" stroke="rgb(66, 66, 66)" stroke-width="1px" opacity="0.25"></line><line x1="174.0234375" y1="0" x2="174.0234375" y2="177" fill="rgb(0, 0, 0)" stroke="rgb(66, 66, 66)" stroke-width="1px" opacity="0.25"></line><line x1="208.828125" y1="0" x2="208.828125" y2="177" fill="rgb(0, 0, 0)" stroke="rgb(66, 66, 66)" stroke-width="1px" opacity="0.25"></line><line x1="243.6328125" y1="0" x2="243.6328125" y2="177" fill="rgb(0, 0, 0)" stroke="rgb(66, 66, 66)" stroke-width="1px" opacity="0.25"></line><line x1="278.4375" y1="0" x2="278.4375" y2="177" fill="rgb(0, 0, 0)" stroke="rgb(66, 66, 66)" stroke-width="1px" opacity="0.25"></line></g><g><line x1="0" y1="177" x2="278.4375" y2="177" fill="rgb(0, 0, 0)" stroke="rgb(66, 66, 66)" stroke-width="1px" opacity="0.25"></line><line x1="0" y1="154.87499999999997" x2="278.4375" y2="154.87499999999997" fill="rgb(0, 0, 0)" stroke="rgb(66, 66, 66)" stroke-width="1px" opacity="0.25"></line><line x1="0" y1="132.74999999999997" x2="278.4375" y2="132.74999999999997" fill="rgb(0, 0, 0)" stroke="rgb(66, 66, 66)" stroke-width="1px" opacity="0.25"></line><line x1="0" y1="110.62499999999996" x2="278.4375" y2="110.62499999999996" fill="rgb(0, 0, 0)" stroke="rgb(66, 66, 66)" stroke-width="1px" opacity="0.25"></line><line x1="0" y1="88.50000000000006" x2="278.4375" y2="88.50000000000006" fill="rgb(0, 0, 0)" stroke="rgb(66, 66, 66)" stroke-width="1px" opacity="0.25"></line><line x1="0" y1="66.37500000000004" x2="278.4375" y2="66.37500000000004" fill="rgb(0, 0, 0)" stroke="rgb(66, 66, 66)" stroke-width="1px" opacity="0.25"></line><line x1="0" y1="44.25000000000004" x2="278.4375" y2="44.25000000000004" fill="rgb(0, 0, 0)" stroke="rgb(66, 66, 66)" stroke-width="1px" opacity="0.25"></line><line x1="0" y1="22.12500000000002" x2="278.4375" y2="22.12500000000002" fill="rgb(0, 0, 0)" stroke="rgb(66, 66, 66)" stroke-width="1px" opacity="0.25"></line><line x1="0" y1="0" x2="278.4375" y2="0" fill="rgb(0, 0, 0)" stroke="rgb(66, 66, 66)" stroke-width="1px" opacity="0.25"></line></g></g></g><g><g><line x1="0" y1="995.6249999999999" x2="278.4375" y2="995.6249999999999" fill="rgb(0, 0, 0)" stroke="rgb(153, 153, 153)" stroke-width="1.5px"></line></g></g><g><g><line x1="34.8046875" y1="0" x2="34.8046875" y2="177" fill="rgb(0, 0, 0)" stroke="rgb(153, 153, 153)" stroke-width="1.5px"></line></g></g><g><g><g><g><g><path stroke="rgb(255, 112, 67)" stroke-width="2px" d="M34.8046875,165.19655875861645L35.50078125,165.1965587586163L36.196875,165.1965587586163L36.89296875,165.1965587586163L37.589062500000004,165.19655875861645L38.28515625,165.1965587586163L38.98125,165.19655875861645L39.67734375,165.1965587586163L40.373437499999994,165.19655875861645L41.06953125,165.1965587586163L41.765625,165.19655875861645L42.461718749999996,165.1965587586163L43.1578125,165.19655875861645L43.85390625,165.19655875861645L44.550000000000004,165.19655875861645L45.24609375,165.19655875861645L45.9421875,165.19655875861645L46.638281250000006,165.19655875861645L47.334375,165.19655875861645L48.03046875,165.1965587586163L48.7265625,165.1965587586163L49.422656249999996,165.1965587586163L50.11875,165.19655875861645L50.81484375,165.1965587586163L51.5109375,165.1965587586162L52.20703125,165.1965587586163L52.903125,165.1965587586163L53.59921875,165.1965587586163L54.2953125,165.1965587586163L54.991406250000004,165.1965587586163L55.6875,165.1965587586163L56.38359375,165.19655875861645L57.0796875,165.19655875861645L57.775781249999994,165.1965587586163L58.471875,165.19655875861645L59.16796875,165.19655875861645L59.864062499999996,165.1965587586163L60.56015625,165.1965587586163L61.25625,165.19655875861645L61.952343750000004,165.1965587586163L62.6484375,165.19655875861645L63.34453125,165.1965587586163L64.040625,165.1965587586163L64.73671875000001,165.1965587586163L65.4328125,165.1965587586163L66.12890625,165.1965587586163L66.825,165.1965587586163L67.52109374999999,165.19655875861645L68.2171875,165.19655875861645L68.91328125,165.19655875861645L69.609375,165.19655875861645L70.30546875,165.19655875861645L71.0015625,165.1965587586163L71.69765625000001,165.1965587586163L72.39375,165.1965587586163L73.08984375,165.19655875861645L73.7859375,165.14612965285772L74.48203125,165.01496122777448L75.17812500000001,164.73446462452395L75.87421875000001,164.2634865278004L76.5703125,163.70343408787227L77.26640625,163.06472248914227L77.9625,162.07613526035763L78.65859375,160.67582710533995L79.3546875,159.07891550034083L80.05078125,157.03614713770025L80.74687499999999,154.49885461939496L81.44296874999999,151.63963305481155L82.1390625,148.91514875011364L82.83515625,145.59047649810742L83.53125,142.08224609798202L84.22734375,138.61522087637198L84.92343749999999,134.61798759808303L85.61953125,131.46294729417667L86.315625,128.2582916111117L87.01171875,124.82207115235119L87.7078125,121.47392192925327L88.40390625,118.3551964428742L89.10000000000001,115.70201988617892L89.79609375,113.45429820180125L90.4921875,111.04625834441286L91.18828125,108.26458837637956L91.884375,106.14156619339977L92.58046875000001,104.28760716694474L93.27656250000001,102.19149493800327L93.97265625,100.40413736478529L94.66875,98.82724713788058L95.36484375,97.72977293435113L96.0609375,96.69291186871162L96.75703125,95.56634592140938L97.453125,94.41114522293344L98.14921874999999,93.84415031835512L98.84531249999999,93.30215782740754L99.54140625,92.80038133751776L100.2375,92.4993154435839L100.93359375,92.2934613543443L101.6296875,92.04382338629318L102.32578124999999,91.76794146601048L103.021875,91.29970580401229L103.71796875,90.91787982024078L104.4140625,90.3104340615113L105.11015625,89.92072567833901L105.80625,89.71214157637026L106.50234375000001,89.1581854659085L107.1984375,88.85102635251069L107.89453125,88.54063174501995L108.590625,88.25348401889761L109.28671875,87.95506986871706L109.98281250000001,87.54901127752868L110.67890625000001,87.38104615650902L111.375,87.10371246363111L112.07109375,86.65984666601051L112.7671875,86.36831263455888L113.46328125,85.91592663379389L114.159375,85.79583510072152L114.85546875,85.52198463267761L115.55156249999999,85.18111973158528L116.24765624999999,84.72434976191533L116.94375,84.37461774642003L117.63984375,84.21523401793685L118.3359375,83.86735275183233L119.03203125,83.68386492010418L119.72812499999999,83.49810218737396L120.42421875,83.26051903322863L121.1203125,82.91617359254079L121.81640625,82.65911084731405L122.5125,82.65623964262006L123.20859375,82.32659585709567L123.90468750000001,81.97746951839434L124.60078125,81.71753823435961L125.296875,81.4859094302455L125.99296875,81.04425201300374L126.6890625,80.77925756265869L127.38515625000001,80.49413537794439L128.08125,80.02038193234257L128.77734375,79.78658534579553L129.47343750000002,79.41929729278725L130.16953125,79.12325442728907L130.865625,78.97084326086943L131.56171874999998,78.65238645993773L132.2578125,78.33518686487139L132.95390625,78.01874159332424L133.65,77.77844532463739L134.34609375,77.48292749603866L135.04218749999998,77.17949128437208L135.73828125,76.7956340091715L136.434375,76.56531964405121L137.13046875,76.09923633732633L137.8265625,75.87001545905014L138.52265625,75.73248293208438L139.21875,75.32206872825236L139.91484375,74.84881010487327L140.6109375,74.28738934895186L141.30703125,73.92529596746434L142.003125,73.43060073173326L142.69921875,73.20945362398787L143.39531250000002,72.90018436401937L144.09140624999998,72.48761270695847L144.7875,72.11394419821457L145.48359374999998,71.81407305927497L146.1796875,71.30625568825849L146.87578125,70.90065430402079L147.571875,70.63207892059864L148.26796875,70.39526365685221L148.9640625,70.0009234695897L149.66015625,69.68864932353881L150.35625000000002,69.65262490329506L151.05234375,69.40400015006878L151.74843750000002,68.95214516335972L152.44453124999998,68.52969210394772L153.140625,68.35189030199386L153.83671875,67.9425290860482L154.5328125,67.46990225540083L155.22890625,66.98453060881192L155.925,66.59242303428591L156.62109375,66.20581842218365L157.3171875,65.8224892124804L158.01328125,65.39072251351307L158.709375,65.13166249413271L159.40546875,64.59784993898256L160.1015625,64.37847336752053L160.79765625000002,63.918926361935284L161.49374999999998,63.84499370678472L162.18984375,63.34661391153456L162.88593749999998,63.04758603438453L163.58203125,62.61591827907989L164.278125,62.1046929719379L164.97421875,61.697046826024724L165.6703125,61.2002344845175L166.36640625,60.574226016905286L167.0625,60.24907641715205L167.75859375000002,59.675636488833405L168.4546875,59.180232464455656L169.15078125000002,58.857775496949635L169.84687499999998,58.43726484031082L170.54296875,58.0084038260614L171.2390625,57.52407711643186L171.93515625,57.15781105696091L172.63125,56.5344603248771L173.32734375,56.26136084725471L174.0234375,55.64345458346617L174.71953125,54.84390517591244L175.415625,54.51554197382218L176.11171875,54.36895315832674L176.8078125,53.650398671548245L177.50390625,53.09316684002917L178.20000000000002,52.58224674579641L178.89609374999998,51.897344520790334L179.5921875,51.36027767127931L180.28828124999998,50.962367527879294L180.984375,50.39572675418679L181.68046875,49.980072256278L182.3765625,49.52888400933202L183.07265625,48.930249998456546L183.76875,48.091834836892176L184.46484375,47.71491125446069L185.16093750000002,46.9590404940934L185.85703125,46.833439100580854L186.55312500000002,46.05180703329892L187.24921874999998,45.3306031389705L187.9453125,45.2005609371466L188.64140625,44.76940000046511L189.3375,44.25845240944159L190.03359375,43.90145474906888L190.7296875,43.20799502275076L191.42578125,42.71624915326647L192.121875,42.11852149680271L192.81796875,41.709429422110425L193.5140625,41.2621786290945L194.21015625,40.79205898013964L194.90625,40.50998719076657L195.60234375000002,40.063278535249005L196.29843749999998,39.921352481390265L196.99453125,39.55875764223654L197.69062499999998,38.811484127835804L198.38671875,38.26223543262263L199.0828125,37.503880566214264L199.77890625,37.124537680062545L200.475,36.29157167882502L201.17109375,35.53954104906794L201.8671875,35.618039282122176L202.56328125000002,35.28676167843273L203.259375,34.70964494775252L203.95546875000002,34.18682028907844L204.65156249999998,33.84788456593944L205.34765625,33.49318306466932L206.04375,33.28036216390724L206.73984375,32.67343486841078L207.4359375,32.38494852480622L208.13203125,31.808265622242327L208.828125,31.613595948090637L209.52421875,31.093229422253607L210.2203125,30.402632963229664L210.91640625,30.11440060232253L211.6125,29.58832557019103L212.30859375,29.121340483525465L213.00468750000002,28.916819465219387L213.70078124999998,28.415756685769214L214.396875,27.888108917019167L215.09296874999998,27.924655871356375L215.7890625,27.542992947557526L216.48515625,27.339209746157465L217.18125,26.762919623157572L217.87734375,26.341475515664335L218.5734375,26.16427908486174L219.26953125,25.654396505034157L219.96562500000002,25.323226029203077L220.66171875,24.922754570559164L221.35781250000002,24.909481796452695L222.05390624999998,24.44747155477364L222.75,24.04416627031426L223.44609375,23.701272138010612L224.1421875,23.596446620256277L224.83828125,23.63443589617651L225.534375,22.799618163167555L226.23046875,22.777988653456536L226.9265625,22.613670880243355L227.62265625,22.08627456703503L228.31875,21.921176846496536L229.01484375,21.393312564892934L229.7109375,21.379274130703923L230.40703125000002,20.992500901723965L231.10312499999998,20.407301348748952L231.79921875,20.131851650657158L232.49531249999998,20.11792189918867L233.19140625,19.22673819686727L233.8875,18.5911433889017L234.58359375,18.310671090695102L235.2796875,18.091932230957028L235.97578125,17.405784126381718L236.671875,17.09497985020913L237.36796875000002,16.656272630546393L238.0640625,16.418262851628036L238.76015625000002,16.073661436076517L239.45624999999998,15.63989048566556L240.15234375,15.581423463619602L240.8484375,15.092323048232217L241.54453125,15.00063197214498L242.240625,14.819518187040618L242.93671875,14.584724401470751" style="fill: none;" fill="none"></path></g></g></g></g><g opacity="0.2"><g><g><g><path stroke="rgb(255, 112, 67)" stroke-width="2px" d="M34.8046875,165.19655875861645L35.50078125,165.19655875861645L36.196875,165.19655875861645L36.89296875,165.19655875861645L37.589062500000004,165.19655875861645L38.28515625,165.19655875861645L38.98125,165.19655875861645L39.67734375,165.19655875861645L40.373437499999994,165.19655875861645L41.06953125,165.19655875861645L41.765625,165.19655875861645L42.461718749999996,165.19655875861645L43.1578125,165.19655875861645L43.85390625,165.19655875861645L44.550000000000004,165.19655875861645L45.24609375,165.19655875861645L45.9421875,165.19655875861645L46.638281250000006,165.19655875861645L47.334375,165.19655875861645L48.03046875,165.19655875861645L48.7265625,165.19655875861645L49.422656249999996,165.19655875861645L50.11875,165.19655875861645L50.81484375,165.19655875861645L51.5109375,165.19655875861645L52.20703125,165.19655875861645L52.903125,165.19655875861645L53.59921875,165.19655875861645L54.2953125,165.19655875861645L54.991406250000004,165.19655875861645L55.6875,165.19655875861645L56.38359375,165.19655875861645L57.0796875,165.19655875861645L57.775781249999994,165.19655875861645L58.471875,165.19655875861645L59.16796875,165.19655875861645L59.864062499999996,165.19655875861645L60.56015625,165.19655875861645L61.25625,165.19655875861645L61.952343750000004,165.19655875861645L62.6484375,165.19655875861645L63.34453125,165.19655875861645L64.040625,165.19655875861645L64.73671875000001,165.19655875861645L65.4328125,165.19655875861645L66.12890625,165.19655875861645L66.825,165.19655875861645L67.52109374999999,165.19655875861645L68.2171875,165.19655875861645L68.91328125,165.19655875861645L69.609375,165.19655875861645L70.30546875,165.19655875861645L71.0015625,165.19655875861645L71.69765625000001,165.19655875861645L72.39375,165.19655875861645L73.08984375,165.19655875861645L73.7859375,165.07048599421978L74.48203125,164.81820859014988L75.17812500000001,164.31371971964836L75.87421875000001,163.55701938271523L76.5703125,162.86335542798042L77.26640625,162.1066550910473L77.9625,160.59325441718102L78.65859375,158.57536487281322L79.3546875,156.6835480928421L80.05078125,153.9719945937395L80.74687499999999,150.69291584193707L81.44296874999999,147.3508007079363L82.1390625,144.82842229306698L82.83515625,140.6034681200981L83.53125,136.81990049779415L84.22734375,133.41468304395676L84.92343749999999,128.62213768064976L85.61953125,126.73038683831692L86.315625,123.45130808651447L87.01171875,119.66774046421051L87.7078125,116.4516980946064L88.40390625,113.67710821330547L89.10000000000001,111.72225505113602L89.79609375,110.0827156752348L90.4921875,107.43419855833054L91.18828125,104.09208342432976L91.884375,102.95703291893005L92.58046875000001,101.50666862726212L93.27656250000001,99.04732659459114L93.97265625,97.72310100495815L94.66875,96.4619117975235L95.36484375,96.08356162905693L96.0609375,95.13762027025223L96.75703125,93.87649700045586L97.453125,92.67834417521954L98.14921874999999,92.99365796148777L98.84531249999999,92.48916909098625L99.54140625,92.04771660268307L100.2375,92.04771660268307L100.93359375,91.98468022048473L101.6296875,91.6693664342165L102.32578124999999,91.35411858558655L103.021875,90.59735231101513L103.71796875,90.34514084458351L104.4140625,89.39926542341709L105.11015625,89.33616310358047L105.80625,89.39926542341709L106.50234375000001,88.32725130021572L107.1984375,88.39028768241405L107.89453125,88.0750398337841L108.590625,87.8227624297142L109.28671875,87.50744864344597L109.98281250000001,86.93992339074612L110.67890625000001,87.1290984749794L111.375,86.6877119243145L112.07109375,85.9940479695797L112.7671875,85.93101158738136L113.46328125,85.23734763264656L114.159375,85.61569780111313L114.85546875,85.11120893061161L115.55156249999999,84.66982237994671L116.24765624999999,84.03919480741024L116.94375,83.85001972317696L117.63984375,83.9761584252119L118.3359375,83.34553085267544L119.03203125,83.40863317251205L119.72812499999999,83.21945808827877L120.42421875,82.90414430201054L121.1203125,82.39965543150902L121.81640625,82.27351672947407L122.5125,82.65193283557892L123.20859375,81.83213017880917L123.90468750000001,81.4537800103426L124.60078125,81.32764130830765L125.296875,81.13846622407436L125.99296875,80.38176588714123L126.6890625,80.38176588714123L127.38515625000001,80.066452100873L128.08125,79.30975176393986L128.77734375,79.43589046597481L129.47343750000002,78.86836521327496L130.16953125,78.67919012904167L130.865625,78.74222651124L131.56171874999998,78.17470125854015L132.2578125,77.85938747227192L132.95390625,77.54407368600368L133.65,77.41800092160702L134.34609375,77.03965075314045L135.04218749999998,76.72433696687222L135.73828125,76.2198480963707L136.434375,76.2198480963707L137.13046875,75.40011137723924L137.8265625,75.52618414163591L138.52265625,75.52618414163591L139.21875,74.70644742250444L139.91484375,74.13892216980459L140.6109375,73.44525821506979L141.30703125,73.38215589523317L142.003125,72.68855787813665L142.69921875,72.87773296236993L143.39531250000002,72.43628047406675L144.09140624999998,71.8687552213669L144.7875,71.55344143509866L145.48359374999998,71.36426635086538L146.1796875,70.54452963173391L146.87578125,70.29225222766401L147.571875,70.22921584546567L148.26796875,70.04004076123239L148.9640625,69.40941318869592L149.66015625,69.22023810446264L150.35625000000002,69.5985882729292L151.05234375,69.03106302022935L151.74843750000002,68.27436268329622L152.44453124999998,67.89601251482965L153.140625,68.08518759906293L153.83671875,67.3284872621298L154.5328125,66.76096200942995L155.22890625,66.25647313892843L155.925,66.00426167249681L156.62109375,65.62591150403024L157.3171875,65.24749539792539L158.01328125,64.74307246506216L158.709375,64.74307246506216L159.40546875,63.79713110625746L160.1015625,64.04940851032735L160.79765625000002,63.22960585355761L161.49374999999998,63.734094724059126L162.18984375,62.59904421865942L162.88593749999998,62.59904421865942L163.58203125,61.968416646122954L164.278125,61.33785501122477L164.97421875,61.08557760715487L165.6703125,60.45501597225668L166.36640625,59.63521331548693L167.0625,59.76135201752188L167.75859375000002,58.81547659635546L168.4546875,58.43712642788889L169.15078125000002,58.37409004569056L169.84687499999998,57.80649885535242L170.54296875,57.36511230468752L171.2390625,56.79758705198767L171.93515625,56.608411967754385L172.63125,55.59943422675135L173.32734375,55.85171163082125L174.0234375,54.71659518778326L174.71953125,53.64458106458189L175.415625,54.02299717068674L176.11171875,54.14906993508341L176.8078125,52.57256694138052L177.50390625,52.25731909275057L178.20000000000002,51.815866604447386L178.89609374999998,50.869991183280966L179.5921875,50.55467739701273L180.28828124999998,50.36550231277945L180.984375,49.54576559364798L181.68046875,49.356590509414694L182.3765625,48.852101638913176L183.07265625,48.03229898214342L183.76875,46.834212094545386L184.46484375,47.14952588081362L185.16093750000002,45.82523435354235L185.85703125,46.6450370103121L186.55312500000002,44.87935893237593L187.24921874999998,44.24879729747774L187.9453125,45.00549763441088L188.64140625,44.12265859544279L189.3375,43.492031022906325L190.03359375,43.36595825850966L190.7296875,42.16780543327334L191.42578125,41.97863034904005L192.121875,41.22193001210692L192.81796875,41.09579131007197L193.5140625,40.59130243957045L194.21015625,40.08687950670721L194.90625,40.08687950670721L195.60234375000002,39.39321555197241L196.29843749999998,39.70846340060236L196.99453125,39.01486538350584L197.69062499999998,37.69057385623457L198.38671875,37.438362389802954L199.0828125,36.366348266601584L199.77890625,36.55552335083487L200.475,35.042122676968596L201.17109375,34.41149510443213L201.8671875,35.7357866317034L202.56328125000002,34.789845272898695L203.259375,33.843969851732275L203.95546875000002,33.402583301067374L204.65156249999998,33.33948098123076L205.34765625,32.96113081276419L206.04375,32.96113081276419L206.73984375,31.76304392516615L207.4359375,31.952219009399435L208.13203125,30.9432412683964L208.828125,31.321591436862967L209.52421875,30.312679633498213L210.2203125,29.36673827469351L210.91640625,29.682052060961745L211.6125,28.79921302199366L212.30859375,28.42086285352709L213.00468750000002,28.610037937760374L213.70078124999998,27.664162516593954L214.396875,27.096637263894102L215.09296874999998,27.97947630286219L215.7890625,26.970498561859152L216.48515625,27.033534944057486L217.18125,25.898484438657782L217.87734375,25.709309354424498L218.5734375,25.898484438657782L219.26953125,24.889572635293028L219.96562500000002,24.82647031545641L220.66171875,24.322047382593176L221.35781250000002,24.889572635293028L222.05390624999998,23.75445619225504L222.75,23.43920834362509L223.44609375,23.18693093955519L224.1421875,23.43920834362509L224.83828125,23.691419810056708L225.534375,21.547391563653967L226.23046875,22.745544388890288L226.9265625,22.36719422042372L227.62265625,21.29518009722235L228.31875,21.673530265688917L229.01484375,20.601516142487547L229.7109375,21.358216479420683L230.40703125000002,20.412341058254263L231.10312499999998,19.529502019286177L231.79921875,19.71867710351946L232.49531249999998,20.09702727198603L233.19140625,17.889962643384955L233.8875,17.637751176953337L234.58359375,17.889962643384955L235.2796875,17.763823941350005L235.97578125,16.376561969518683L236.671875,16.6287734359503L237.36796875000002,15.998211801052113L238.0640625,16.06124818325045L238.76015625000002,15.556759312748929L239.45624999999998,14.989234060049077L240.15234375,15.493722930550595L240.8484375,14.35867242515089L241.54453125,14.863095358014126L242.240625,14.547847509384175L242.93671875,14.23253372311594" style="fill: none;" fill="none"></path></g></g></g></g></g></g><g transform="translate(51, 177)" clip-path="url(#clip_1)"><clipPath id="clip_1"><rect width="278" height="23"></rect></clipPath><g><g><line x1="0" y1="0" x2="0" y2="5" style="visibility: inherit;" fill="rgb(0, 0, 0)" stroke="rgb(204, 204, 204)" stroke-width="1px"></line><line x1="34.8046875" y1="0" x2="34.8046875" y2="5" style="visibility: inherit;" fill="rgb(0, 0, 0)" stroke="rgb(204, 204, 204)" stroke-width="1px"></line><line x1="69.609375" y1="0" x2="69.609375" y2="5" style="visibility: inherit;" fill="rgb(0, 0, 0)" stroke="rgb(204, 204, 204)" stroke-width="1px"></line><line x1="104.4140625" y1="0" x2="104.4140625" y2="5" style="visibility: inherit;" fill="rgb(0, 0, 0)" stroke="rgb(204, 204, 204)" stroke-width="1px"></line><line x1="139.21875" y1="0" x2="139.21875" y2="5" style="visibility: inherit;" fill="rgb(0, 0, 0)" stroke="rgb(204, 204, 204)" stroke-width="1px"></line><line x1="174.0234375" y1="0" x2="174.0234375" y2="5" style="visibility: inherit;" fill="rgb(0, 0, 0)" stroke="rgb(204, 204, 204)" stroke-width="1px"></line><line x1="208.828125" y1="0" x2="208.828125" y2="5" style="visibility: inherit;" fill="rgb(0, 0, 0)" stroke="rgb(204, 204, 204)" stroke-width="1px"></line><line x1="243.6328125" y1="0" x2="243.6328125" y2="5" style="visibility: inherit;" fill="rgb(0, 0, 0)" stroke="rgb(204, 204, 204)" stroke-width="1px"></line><line x1="278.4375" y1="0" x2="278.4375" y2="5" style="visibility: inherit;" fill="rgb(0, 0, 0)" stroke="rgb(204, 204, 204)" stroke-width="1px"></line></g><g transform="translate(0, 8)"><text x="0" y="0" dx="0em" dy="0.95em" style="text-anchor: middle; visibility: hidden; font-family: Roboto, sans-serif; font-size: 12px; font-weight: 200;" fill="rgb(33, 33, 33)" stroke="none" stroke-width="1px">-50</text><text x="34.8046875" y="0" dx="0em" dy="0.95em" style="text-anchor: middle; visibility: inherit; font-family: Roboto, sans-serif; font-size: 12px; font-weight: 200;" fill="rgb(33, 33, 33)" stroke="none" stroke-width="1px">0</text><text x="69.609375" y="0" dx="0em" dy="0.95em" style="text-anchor: middle; visibility: inherit; font-family: Roboto, sans-serif; font-size: 12px; font-weight: 200;" fill="rgb(33, 33, 33)" stroke="none" stroke-width="1px">50</text><text x="104.4140625" y="0" dx="0em" dy="0.95em" style="text-anchor: middle; visibility: inherit; font-family: Roboto, sans-serif; font-size: 12px; font-weight: 200;" fill="rgb(33, 33, 33)" stroke="none" stroke-width="1px">100</text><text x="139.21875" y="0" dx="0em" dy="0.95em" style="text-anchor: middle; visibility: inherit; font-family: Roboto, sans-serif; font-size: 12px; font-weight: 200;" fill="rgb(33, 33, 33)" stroke="none" stroke-width="1px">150</text><text x="174.0234375" y="0" dx="0em" dy="0.95em" style="text-anchor: middle; visibility: inherit; font-family: Roboto, sans-serif; font-size: 12px; font-weight: 200;" fill="rgb(33, 33, 33)" stroke="none" stroke-width="1px">200</text><text x="208.828125" y="0" dx="0em" dy="0.95em" style="text-anchor: middle; visibility: inherit; font-family: Roboto, sans-serif; font-size: 12px; font-weight: 200;" fill="rgb(33, 33, 33)" stroke="none" stroke-width="1px">250</text><text x="243.6328125" y="0" dx="0em" dy="0.95em" style="text-anchor: middle; visibility: inherit; font-family: Roboto, sans-serif; font-size: 12px; font-weight: 200;" fill="rgb(33, 33, 33)" stroke="none" stroke-width="1px">300</text><text x="278.4375" y="0" dx="0em" dy="0.95em" style="text-anchor: middle; visibility: hidden; font-family: Roboto, sans-serif; font-size: 12px; font-weight: 200;" fill="rgb(33, 33, 33)" stroke="none" stroke-width="1px">350</text></g><line x1="0" y1="0" x2="278.4375" y2="0" fill="rgb(0, 0, 0)" stroke="rgb(204, 204, 204)" stroke-width="1px"></line></g></g></g></g></svg>