<svg viewBox="0 0 330 200" xmlns="http://www.w3.org/2000/svg"><g><g><g><g><g><line x1="51.5625" y1="177" x2="46.5625" y2="177" style="visibility: inherit;" fill="rgb(0, 0, 0)" stroke="rgb(204, 204, 204)" stroke-width="1px"></line><line x1="51.5625" y1="154.87499999999997" x2="46.5625" y2="154.87499999999997" style="visibility: inherit;" fill="rgb(0, 0, 0)" stroke="rgb(204, 204, 204)" stroke-width="1px"></line><line x1="51.5625" y1="132.74999999999997" x2="46.5625" y2="132.74999999999997" style="visibility: inherit;" fill="rgb(0, 0, 0)" stroke="rgb(204, 204, 204)" stroke-width="1px"></line><line x1="51.5625" y1="110.62499999999996" x2="46.5625" y2="110.62499999999996" style="visibility: inherit;" fill="rgb(0, 0, 0)" stroke="rgb(204, 204, 204)" stroke-width="1px"></line><line x1="51.5625" y1="88.50000000000006" x2="46.5625" y2="88.50000000000006" style="visibility: inherit;" fill="rgb(0, 0, 0)" stroke="rgb(204, 204, 204)" stroke-width="1px"></line><line x1="51.5625" y1="66.37500000000004" x2="46.5625" y2="66.37500000000004" style="visibility: inherit;" fill="rgb(0, 0, 0)" stroke="rgb(204, 204, 204)" stroke-width="1px"></line><line x1="51.5625" y1="44.25000000000004" x2="46.5625" y2="44.25000000000004" style="visibility: inherit;" fill="rgb(0, 0, 0)" stroke="rgb(204, 204, 204)" stroke-width="1px"></line><line x1="51.5625" y1="22.12500000000002" x2="46.5625" y2="22.12500000000002" style="visibility: inherit;" fill="rgb(0, 0, 0)" stroke="rgb(204, 204, 204)" stroke-width="1px"></line><line x1="51.5625" y1="0" x2="46.5625" y2="0" style="visibility: inherit;" fill="rgb(0, 0, 0)" stroke="rgb(204, 204, 204)" stroke-width="1px"></line></g><g transform="translate(41.5625, 0)"><text x="0" y="177" dx="0em" dy="0.3em" style="text-anchor: end; visibility: hidden; font-family: Roboto, sans-serif; font-size: 12px; font-weight: 200;" fill="rgb(33, 33, 33)" stroke="none" stroke-width="1px">0.74</text><text x="0" y="154.87499999999997" dx="0em" dy="0.3em" style="text-anchor: end; visibility: inherit; font-family: Roboto, sans-serif; font-size: 12px; font-weight: 200;" fill="rgb(33, 33, 33)" stroke="none" stroke-width="1px">0.76</text><text x="0" y="132.74999999999997" dx="0em" dy="0.3em" style="text-anchor: end; visibility: hidden; font-family: Roboto, sans-serif; font-size: 12px; font-weight: 200;" fill="rgb(33, 33, 33)" stroke="none" stroke-width="1px">0.78</text><text x="0" y="110.62499999999996" dx="0em" dy="0.3em" style="text-anchor: end; visibility: inherit; font-family: Roboto, sans-serif; font-size: 12px; font-weight: 200;" fill="rgb(33, 33, 33)" stroke="none" stroke-width="1px">0.8</text><text x="0" y="88.50000000000006" dx="0em" dy="0.3em" style="text-anchor: end; visibility: hidden; font-family: Roboto, sans-serif; font-size: 12px; font-weight: 200;" fill="rgb(33, 33, 33)" stroke="none" stroke-width="1px">0.82</text><text x="0" y="66.37500000000004" dx="0em" dy="0.3em" style="text-anchor: end; visibility: inherit; font-family: Roboto, sans-serif; font-size: 12px; font-weight: 200;" fill="rgb(33, 33, 33)" stroke="none" stroke-width="1px">0.84</text><text x="0" y="44.25000000000004" dx="0em" dy="0.3em" style="text-anchor: end; visibility: hidden; font-family: Roboto, sans-serif; font-size: 12px; font-weight: 200;" fill="rgb(33, 33, 33)" stroke="none" stroke-width="1px">0.86</text><text x="0" y="22.12500000000002" dx="0em" dy="0.3em" style="text-anchor: end; visibility: inherit; font-family: Roboto, sans-serif; font-size: 12px; font-weight: 200;" fill="rgb(33, 33, 33)" stroke="none" stroke-width="1px">0.88</text><text x="0" y="0" dx="0em" dy="0.3em" style="text-anchor: end; visibility: hidden; font-family: Roboto, sans-serif; font-size: 12px; font-weight: 200;" fill="rgb(33, 33, 33)" stroke="none" stroke-width="1px">0.9</text></g><line x1="51.5625" y1="0" x2="51.5625" y2="177" fill="rgb(0, 0, 0)" stroke="rgb(204, 204, 204)" stroke-width="1px"></line></g></g><g transform="translate(51, 0)" clip-path="url(#clip_0)"><clipPath id="clip_0"><rect width="278" height="177"></rect></clipPath><g><g><g><line x1="0" y1="0" x2="0" y2="177" fill="rgb(0, 0, 0)" stroke="rgb(66, 66, 66)" stroke-width="1px" opacity="0.25"></line><line x1="18.5625" y1="0" x2="18.5625" y2="177" fill="rgb(0, 0, 0)" stroke="rgb(66, 66, 66)" stroke-width="1px" opacity="0.25"></line><line x1="37.125" y1="0" x2="37.125" y2="177" fill="rgb(0, 0, 0)" stroke="rgb(66, 66, 66)" stroke-width="1px" opacity="0.25"></line><line x1="55.6875" y1="0" x2="55.6875" y2="177" fill="rgb(0, 0, 0)" stroke="rgb(66, 66, 66)" stroke-width="1px" opacity="0.25"></line><line x1="74.25" y1="0" x2="74.25" y2="177" fill="rgb(0, 0, 0)" stroke="rgb(66, 66, 66)" stroke-width="1px" opacity="0.25"></line><line x1="92.8125" y1="0" x2="92.8125" y2="177" fill="rgb(0, 0, 0)" stroke="rgb(66, 66, 66)" stroke-width="1px" opacity="0.25"></line><line x1="111.375" y1="0" x2="111.375" y2="177" fill="rgb(0, 0, 0)" stroke="rgb(66, 66, 66)" stroke-width="1px" opacity="0.25"></line><line x1="129.9375" y1="0" x2="129.9375" y2="177" fill="rgb(0, 0, 0)" stroke="rgb(66, 66, 66)" stroke-width="1px" opacity="0.25"></line><line x1="148.5" y1="0" x2="148.5" y2="177" fill="rgb(0, 0, 0)" stroke="rgb(66, 66, 66)" stroke-width="1px" opacity="0.25"></line><line x1="167.0625" y1="0" x2="167.0625" y2="177" fill="rgb(0, 0, 0)" stroke="rgb(66, 66, 66)" stroke-width="1px" opacity="0.25"></line><line x1="185.625" y1="0" x2="185.625" y2="177" fill="rgb(0, 0, 0)" stroke="rgb(66, 66, 66)" stroke-width="1px" opacity="0.25"></line><line x1="204.18749999999997" y1="0" x2="204.18749999999997" y2="177" fill="rgb(0, 0, 0)" stroke="rgb(66, 66, 66)" stroke-width="1px" opacity="0.25"></line><line x1="222.75" y1="0" x2="222.75" y2="177" fill="rgb(0, 0, 0)" stroke="rgb(66, 66, 66)" stroke-width="1px" opacity="0.25"></line><line x1="241.3125" y1="0" x2="241.3125" y2="177" fill="rgb(0, 0, 0)" stroke="rgb(66, 66, 66)" stroke-width="1px" opacity="0.25"></line><line x1="259.875" y1="0" x2="259.875" y2="177" fill="rgb(0, 0, 0)" stroke="rgb(66, 66, 66)" stroke-width="1px" opacity="0.25"></line><line x1="278.4375" y1="0" x2="278.4375" y2="177" fill="rgb(0, 0, 0)" stroke="rgb(66, 66, 66)" stroke-width="1px" opacity="0.25"></line></g><g><line x1="0" y1="177" x2="278.4375" y2="177" fill="rgb(0, 0, 0)" stroke="rgb(66, 66, 66)" stroke-width="1px" opacity="0.25"></line><line x1="0" y1="154.87499999999997" x2="278.4375" y2="154.87499999999997" fill="rgb(0, 0, 0)" stroke="rgb(66, 66, 66)" stroke-width="1px" opacity="0.25"></line><line x1="0" y1="132.74999999999997" x2="278.4375" y2="132.74999999999997" fill="rgb(0, 0, 0)" stroke="rgb(66, 66, 66)" stroke-width="1px" opacity="0.25"></line><line x1="0" y1="110.62499999999996" x2="278.4375" y2="110.62499999999996" fill="rgb(0, 0, 0)" stroke="rgb(66, 66, 66)" stroke-width="1px" opacity="0.25"></line><line x1="0" y1="88.50000000000006" x2="278.4375" y2="88.50000000000006" fill="rgb(0, 0, 0)" stroke="rgb(66, 66, 66)" stroke-width="1px" opacity="0.25"></line><line x1="0" y1="66.37500000000004" x2="278.4375" y2="66.37500000000004" fill="rgb(0, 0, 0)" stroke="rgb(66, 66, 66)" stroke-width="1px" opacity="0.25"></line><line x1="0" y1="44.25000000000004" x2="278.4375" y2="44.25000000000004" fill="rgb(0, 0, 0)" stroke="rgb(66, 66, 66)" stroke-width="1px" opacity="0.25"></line><line x1="0" y1="22.12500000000002" x2="278.4375" y2="22.12500000000002" fill="rgb(0, 0, 0)" stroke="rgb(66, 66, 66)" stroke-width="1px" opacity="0.25"></line><line x1="0" y1="0" x2="278.4375" y2="0" fill="rgb(0, 0, 0)" stroke="rgb(66, 66, 66)" stroke-width="1px" opacity="0.25"></line></g></g></g><g><g><line x1="0" y1="995.6249999999999" x2="278.4375" y2="995.6249999999999" fill="rgb(0, 0, 0)" stroke="rgb(153, 153, 153)" stroke-width="1.5px"></line></g></g><g><g><line x1="18.5625" y1="0" x2="18.5625" y2="177" fill="rgb(0, 0, 0)" stroke="rgb(153, 153, 153)" stroke-width="1.5px"></line></g></g><g><g><g><g><g><path stroke="rgb(255, 112, 67)" stroke-width="2px" d="M19.490625,186.12437389791L20.41875,175.47911225533002L21.346874999999997,170.75367406750217L22.275000000000002,168.34340545677793L23.203125,167.02306497184833L24.13125,166.27142127352218L25.059375,165.83413147819107L25.9875,165.57650612032282L26.915625,165.4236026266845L27.84375,165.33245439636107L28.771875,165.27797755704157L29.700000000000003,165.24536744660404L30.628125,165.22582866000215L31.55625,165.21411519195104L32.484375,165.207090636913L33.4125,165.2028771723955L34.340625,165.20034955017866L35.268750000000004,165.19883314114986L36.196875,165.19792335487324L37.125,165.19737750439626L38.053124999999994,165.19705000177365L38.98125,165.19685350295893L39.909375000000004,165.19673560466322L40.8375,165.19666486604336L41.765625,165.19662242300032L42.693749999999994,165.1965969572205L43.621875,165.19658167776942L44.550000000000004,165.1965725101049L45.478125,165.19656700950816L46.40625,165.19656370915106L47.334375,165.19656172893698L48.2625,165.19656054080852L49.190625,165.19655982793185L50.11875,165.19655940020576L51.04687499999999,165.19655914357003L51.975,165.1965589895885L52.903125,165.1965588971997L53.83125,165.1965588417665L54.759375,165.19655880850638L55.6875,165.19655878855048L56.615625,165.19655877657678L57.54375,165.17134421650604L58.471875,165.10575999964564L59.400000000000006,165.0159803637727L60.328125,164.91165710143787L61.25625,164.74815218240923L62.184374999999996,164.49870916360598L63.1125,164.197703284939L64.040625,163.71441962296558L64.96875,163.12176929100934L65.896875,162.3878289233697L66.825,161.4429890198127L67.753125,160.19502839938366L68.68125,158.76522172388684L69.609375,156.6461616986818L70.53750000000001,154.36577431761128L71.465625,151.98859052302143L72.39375,149.32631877924L73.32187499999999,146.44253878512973L74.25,143.57719390820864L75.17812500000001,140.01666524548168L76.10624999999999,136.6191456528831L77.034375,132.91586678101606L77.9625,129.43272343798859L78.890625,125.72852579667783L79.81875000000001,122.16913478323607L80.74687499999999,118.64619864075637L81.675,115.34693096905521L82.603125,112.333178072152L83.53125,109.28896486698224L84.45937500000001,106.47872650586746L85.38749999999999,103.68274753667818L86.315625,101.29888892399022L87.24375,99.01096245781629L88.171875,97.08327541432406L89.10000000000001,95.42218750525488L90.02812499999999,93.82017449026691L90.95625,92.228365483793L91.884375,90.44090970928211L92.8125,88.78829052790843L93.740625,87.3679133698037L94.66875,86.26343604592628L95.596875,85.27285496394717L96.525,84.27491521835853L97.453125,83.62572226524675L98.38125,83.23620649337965L99.309375,82.95204154944544L100.2375,82.50407700119094L101.165625,82.23529827223823L102.09374999999999,81.79656545297271L103.021875,81.50811120853399L103.95,81.13324311367018L104.878125,80.78219674224471L105.80625,80.34455881830938L106.73437500000001,80.00630603025489L107.6625,79.75289887660819L108.590625,79.29817444964688L109.51875,79.15146530797749L110.446875,78.83642972189593L111.375,78.42039826916698L112.303125,78.27166398410228L113.23125,77.93019875910419L114.159375,77.59919410959799L115.0875,77.14834029087966L116.015625,76.85261344676937L116.94375,76.80130285481056L117.871875,76.54350639855525L118.80000000000001,76.3888285248021L119.72812499999999,75.8672161512697L120.65625,75.50379324633622L121.584375,75.23528402256213L122.5125,74.92283842091099L123.44062500000001,74.60927192046847L124.36874999999999,74.32022105857496L125.296875,74.07112050774559L126.225,73.745105556982L127.153125,73.37291559120258L128.08125,73.2000570925488L129.009375,72.94500192597006L129.9375,72.66584331151537L130.865625,72.27133804176268L131.79375,71.88329481252443L132.721875,71.49912880759494L133.65,71.11728913725055L134.578125,70.63593430602928L135.50625,70.44803236892449L136.434375,70.25962117296828L137.3625,69.91953797925926L138.290625,69.53893344276801L139.21875,69.28535616799381L140.146875,69.18363890888808L141.07500000000002,68.71904383207873L142.003125,68.44028678599314L142.93125,68.07123701014113L143.85937500000003,67.84980714462989L144.7875,67.46472457136387L145.715625,67.3597741668562L146.64374999999998,67.06979382307166L147.571875,66.7192509965351L148.5,66.40801433898515L149.428125,66.12038775788251L150.35625000000002,65.72080170814108L151.284375,65.4305945974821L152.21249999999998,65.07991571082087L153.140625,64.97039296539675L154.06875,64.72812469787618L154.996875,64.53230825654995L155.925,64.26347832436764L156.853125,63.90038481685764L157.78125,63.40506313045765L158.709375,63.0322000849244L159.63750000000002,62.73281222391107L160.565625,62.780189608383075L161.49374999999998,62.35459583690633L162.421875,61.84698854500573L163.35,61.31541406878539L164.278125,60.59290466170746L165.20625,60.083728983767244L166.134375,59.80343812988246L167.0625,59.38303896359235L167.99062500000002,58.878548434803626L168.91875000000002,58.50018408383715L169.84687499999998,58.14703995875001L170.77499999999998,57.80905434424574L171.703125,57.42968198022186L172.63125,57.252514042621485L173.559375,56.69219307790137L174.4875,56.63343970590789L175.415625,56.24507844218L176.34375,55.96160620312911L177.27187500000002,55.135707109338185L178.20000000000002,54.48882758567694L179.12812499999998,54.075458943545605L180.05624999999998,53.953563272774076L180.984375,53.4516202210305L181.9125,52.77210422151801L182.840625,52.36439462181048L183.76875,52.27110892937248L184.696875,51.96291285995042L185.625,51.57619967009668L186.55312500000002,51.29371627537038L187.48125,50.94767161826861L188.40937499999998,50.66437479031422L189.3375,50.29260114534096L190.265625,49.842526857277136L191.19375,49.295016702544885L192.121875,49.042180643398964L193.05,48.76435349340395L193.978125,48.16885155412654L194.90625,47.88722042425335L195.83437500000002,47.415561611556186L196.7625,47.233477285565826L197.69062499999998,46.92243114177099L198.61875,46.28175687827887L199.546875,45.72079769991765L200.475,45.18242664470036L201.40312500000002,44.85940401156996L202.33125,44.36291029691839L203.259375,43.98934403443427L204.18749999999997,43.689534243250435L205.115625,42.97995813268692L206.04375,42.45330150472093L206.97187499999998,42.11209297506199L207.9,41.806483270693995L208.828125,41.2447409045512L209.75625,40.806810898292916L210.68437500000002,40.417927380030605L211.6125,40.134141788259285L212.540625,39.68643122635788L213.46875000000003,39.26646482183034L214.396875,38.636108435592014L215.325,38.157010017276455L216.25312499999998,37.54162990357919L217.18125,37.04630269590887L218.109375,36.471640789412604L219.0375,36.17729912632886L219.96562500000002,35.44576296469087L220.89375,35.03205582058738L221.82187499999998,34.884742495753194L222.75,34.493647991024105L223.678125,33.7545156052128L224.60625,33.437161688233374L225.534375,32.8683991695791L226.4625,32.52714165838654L227.390625,31.994466088963158L228.31875,31.800986261816394L229.24687500000002,31.331762749941124L230.175,30.949344056243337L231.10312499999998,30.61900825345198L232.03125,30.420806771777134L232.959375,30.074849406636897L233.8875,29.99340050206013L234.815625,29.868861125620747L235.74375,29.567127398677204L236.671875,29.33563168169712L237.60000000000002,28.818384083042506L238.52812500000002,28.65937559123634L239.45624999999998,28.109950293992778L240.38437499999998,27.90642063015392L241.3125,27.83473193760924L242.240625,27.413368553615793L243.16875,27.36234607142041L244.096875,27.256062548409936L245.025,26.940041405589007L245.953125,26.573874099630565L246.88125000000002,26.303718235241487L247.80937500000002,25.83894458183486L248.73749999999998,25.610535870604828L249.66562499999998,25.372579682238822L250.59375,25.154135935525865L251.521875,24.695174999845488L252.45,24.520683025009923L253.378125,24.340317806415236L254.30625,23.803293025977805L255.234375,23.808999220423306L256.1625,23.509742802317415L257.090625,23.48152901884042L258.01875,23.489815301633524L258.94687500000003,23.419117037616193L259.875,23.30102804551251L260.803125,22.826583553848966L261.73125,22.441032272278164L262.659375,22.209701503335882L263.5875,21.89434842170441L264.515625,22.05824581325738L265.44375,21.90435959422996L266.371875,21.812027862813547" style="fill: none;" fill="none"></path></g></g></g></g><g opacity="0.2"><g><g><g><path stroke="rgb(255, 112, 67)" stroke-width="2px" d="M18.5625,221.0040657967329L19.490625,165.19655875861645L20.41875,165.25966107845306L21.346874999999997,165.19655875861645L22.275000000000002,165.19655875861645L23.203125,165.19655875861645L24.13125,165.19655875861645L25.059375,165.19655875861645L25.9875,165.19655875861645L26.915625,165.19655875861645L27.84375,165.19655875861645L28.771875,165.19655875861645L29.700000000000003,165.19655875861645L30.628125,165.19655875861645L31.55625,165.19655875861645L32.484375,165.19655875861645L33.4125,165.19655875861645L34.340625,165.19655875861645L35.268750000000004,165.19655875861645L36.196875,165.19655875861645L37.125,165.19655875861645L38.053124999999994,165.19655875861645L38.98125,165.19655875861645L39.909375000000004,165.19655875861645L40.8375,165.19655875861645L41.765625,165.19655875861645L42.693749999999994,165.19655875861645L43.621875,165.19655875861645L44.550000000000004,165.19655875861645L45.478125,165.19655875861645L46.40625,165.19655875861645L47.334375,165.19655875861645L48.2625,165.19655875861645L49.190625,165.19655875861645L50.11875,165.19655875861645L51.04687499999999,165.19655875861645L51.975,165.19655875861645L52.903125,165.19655875861645L53.83125,165.19655875861645L54.759375,165.19655875861645L55.6875,165.19655875861645L56.615625,165.19655875861645L57.54375,165.1335223764181L58.471875,165.00738367438316L59.400000000000006,164.8813109099865L60.328125,164.75517220795155L61.25625,164.50289480388165L62.184374999999996,164.12454463541508L63.1125,163.7461944669485L64.040625,162.98949413001537L64.96875,162.23279379308224L65.896875,161.28691837191582L66.825,160.02572916448116L67.753125,158.32308746874332L68.68125,156.62051171064377L69.609375,153.46757166087627L70.53750000000001,150.94519324600697L71.465625,148.42281483113766L72.39375,145.3329111635685L73.32187499999999,142.1168687939644L74.25,139.27917659282684L75.17812500000001,134.6758722513914L76.10624999999999,131.52286626398563L77.034375,127.3609484732151L77.9625,124.20800842344761L78.890625,120.17222933471203L79.81875000000001,116.83004826307297L80.74687499999999,113.36179442703724L81.675,110.39802946150303L82.603125,107.8125487267971L83.53125,104.72264505922794L84.45937500000001,102.26336896419525L85.38749999999999,99.48877908289433L86.315625,97.72310100495815L87.24375,95.57907275855541L88.171875,94.19174484908581L89.10000000000001,92.93055564165115L90.02812499999999,91.41715496778488L90.95625,89.840651974082L91.884375,87.75972604751587L92.8125,86.30936175584793L93.740625,85.23734763264656L94.66875,84.60672006011009L95.596875,83.78698334097862L96.525,82.77800559997559L97.453125,82.65193283557892L98.38125,82.65193283557892L99.309375,82.52579413354397L100.2375,81.83213017880917L101.165625,81.83213017880917L102.09374999999999,81.13846622407436L103.021875,81.07542984187603L103.95,80.57094097137451L104.878125,80.25562718510628L105.80625,79.68810193240643L106.73437500000001,79.49892684817314L107.6625,79.37278814613819L108.590625,78.61608780920506L109.51875,78.93140159547329L110.446875,78.36387634277344L111.375,77.79635109007359L112.303125,78.0485625565052L113.23125,77.41800092160702L114.159375,77.10268713533878L115.0875,76.47205956280231L116.015625,76.40902318060398L116.94375,76.72433696687222L117.871875,76.15681171417236L118.80000000000001,76.15681171417236L119.72812499999999,75.08479759097101L120.65625,74.95865888893606L121.584375,74.8325201869011L122.5125,74.45417001843454L123.44062500000001,74.13892216980459L124.36874999999999,73.88664476573469L125.296875,73.6974696815014L126.225,73.2560831308365L127.153125,72.81463064253332L128.08125,72.94076934456827L129.009375,72.5624191761017L129.9375,72.24710538983346L130.865625,71.67958013713361L131.79375,71.30122996866704L132.721875,70.92287980020048L133.65,70.54452963173391L134.578125,69.91390205919744L135.50625,70.16617946326734L136.434375,69.97700437903406L137.3625,69.40941318869592L138.290625,68.96802663803102L139.21875,68.90499025583269L140.146875,69.03106302022935L141.07500000000002,68.0221512168646L142.003125,68.0221512168646L142.93125,67.51766234636308L143.85937500000003,67.51766234636308L144.7875,66.8871007114649L145.715625,67.20234856009485L146.64374999999998,66.634823307395L147.571875,66.1934367567301L148.5,65.9411593526602L149.428125,65.68894788622858L150.35625000000002,65.12142263352872L151.284375,64.99528393149377L152.21249999999998,64.55389738082887L153.140625,64.80610884726049L154.06875,64.36472229659559L154.996875,64.23858359456064L155.925,63.86023342609408L156.853125,63.35574455559256L157.78125,62.662080600857756L158.709375,62.47290551662447L159.63750000000002,62.28373043239119L160.565625,62.85125568509104L161.49374999999998,61.716205179691336L162.421875,61.08557760715487L163.35,60.518052354455016L164.278125,59.50914055109026L165.20625,59.31996546685698L166.134375,59.38300184905531L167.0625,58.752440214157126L167.99062500000002,58.12181264162066L168.91875000000002,57.93263755738737L169.84687499999998,57.61732377111914L170.77499999999998,57.30207592248919L171.703125,56.860623434186L172.63125,56.98676213622095L173.559375,55.85171163082125L174.4875,56.54530964791777L175.415625,55.662536546587965L176.34375,55.536397844553015L177.27187500000002,53.89685846865179L178.20000000000002,53.518508300185225L179.12812499999998,53.45540598034861L180.05624999999998,53.77071976661684L180.984375,52.69870564341547L181.9125,51.75283022224905L182.840625,51.75283022224905L183.76875,52.13118039071562L184.696875,51.500618755817435L185.625,50.996129885315916L186.55312500000002,50.869991183280966L187.48125,50.428604632616064L188.40937499999998,50.23942954838278L189.3375,49.73494067788126L190.265625,49.16741542518141L191.19375,48.47375147044661L192.121875,48.66292655467989L193.05,48.34761276841166L193.978125,47.27559864521029L194.90625,47.46477372944357L195.83437500000002,46.708073392510435L196.7625,46.960350796580336L197.69062499999998,46.45586192607882L198.61875,45.32074548304083L199.546875,44.87935893237593L200.475,44.37487006187441L201.40312500000002,44.37487006187441L202.33125,43.618169724941275L203.259375,43.42899464070799L204.18749999999997,43.23981955647471L205.115625,41.91559396684172L206.04375,41.66331656277182L206.97187499999998,41.600280180573485L207.9,41.34806871414187L208.828125,40.402127355337164L209.75625,40.14991588890555L210.68437500000002,39.83460210263731L211.6125,39.70846340060236L212.540625,39.01486538350584L213.46875000000003,38.636515215039275L214.396875,37.69057385623457L215.325,37.438362389802954L216.25312499999998,36.6185597330332L217.18125,36.30331188440325L218.109375,35.60964792966845L219.0375,35.7357866317034L219.96562500000002,34.348458722233794L220.89375,34.41149510443213L221.82187499999998,34.66377250850203L222.75,33.90700623393061L223.678125,32.645817026495955L224.60625,32.96113081276419L225.534375,32.01525539159777L226.4625,32.01525539159777L227.390625,31.195452734828017L228.31875,31.51076652109625L229.24687500000002,30.627927482128165L230.175,30.375716015696547L231.10312499999998,30.12350454926493L232.03125,30.12350454926493L232.959375,29.555913358926794L233.8875,29.87122714519503L234.815625,29.682052060961745L235.74375,29.114526808261893L236.671875,28.988388106226942L237.60000000000002,28.042512685060522L238.52812500000002,28.42086285352709L239.45624999999998,27.285812348127386L240.38437499999998,27.60112613439562L241.3125,27.727198898792288L242.240625,26.781323477625868L243.16875,27.285812348127386L244.096875,27.096637263894102L245.025,26.466009691357634L245.953125,26.024623140692732L246.88125000000002,25.898484438657782L247.80937500000002,25.141784101724646L248.73749999999998,25.267922803759596L249.66562499999998,25.015645399689696L250.59375,24.82647031545641L251.521875,24.006733596324942L252.45,24.25894506275656L253.378125,24.069769978523276L254.30625,22.997755855321905L255.234375,23.817558512091658L256.1625,23.060858175158522L257.090625,23.43920834362509L258.01875,23.502244725823424L258.94687500000003,23.31306964159014L259.875,23.123894557356856L260.803125,22.11491681635382L261.73125,21.8627053499222L262.659375,21.8627053499222L263.5875,21.4213187992573L264.515625,22.304091900587103L265.44375,21.673530265688917L266.371875,21.673530265688917" style="fill: none;" fill="none"></path></g></g></g></g></g></g><g transform="translate(51, 177)" clip-path="url(#clip_1)"><clipPath id="clip_1"><rect width="278" height="23"></rect></clipPath><g><g><line x1="0" y1="0" x2="0" y2="5" style="visibility: inherit;" fill="rgb(0, 0, 0)" stroke="rgb(204, 204, 204)" stroke-width="1px"></line><line x1="18.5625" y1="0" x2="18.5625" y2="5" style="visibility: inherit;" fill="rgb(0, 0, 0)" stroke="rgb(204, 204, 204)" stroke-width="1px"></line><line x1="37.125" y1="0" x2="37.125" y2="5" style="visibility: inherit;" fill="rgb(0, 0, 0)" stroke="rgb(204, 204, 204)" stroke-width="1px"></line><line x1="55.6875" y1="0" x2="55.6875" y2="5" style="visibility: inherit;" fill="rgb(0, 0, 0)" stroke="rgb(204, 204, 204)" stroke-width="1px"></line><line x1="74.25" y1="0" x2="74.25" y2="5" style="visibility: inherit;" fill="rgb(0, 0, 0)" stroke="rgb(204, 204, 204)" stroke-width="1px"></line><line x1="92.8125" y1="0" x2="92.8125" y2="5" style="visibility: inherit;" fill="rgb(0, 0, 0)" stroke="rgb(204, 204, 204)" stroke-width="1px"></line><line x1="111.375" y1="0" x2="111.375" y2="5" style="visibility: inherit;" fill="rgb(0, 0, 0)" stroke="rgb(204, 204, 204)" stroke-width="1px"></line><line x1="129.9375" y1="0" x2="129.9375" y2="5" style="visibility: inherit;" fill="rgb(0, 0, 0)" stroke="rgb(204, 204, 204)" stroke-width="1px"></line><line x1="148.5" y1="0" x2="148.5" y2="5" style="visibility: inherit;" fill="rgb(0, 0, 0)" stroke="rgb(204, 204, 204)" stroke-width="1px"></line><line x1="167.0625" y1="0" x2="167.0625" y2="5" style="visibility: inherit;" fill="rgb(0, 0, 0)" stroke="rgb(204, 204, 204)" stroke-width="1px"></line><line x1="185.625" y1="0" x2="185.625" y2="5" style="visibility: inherit;" fill="rgb(0, 0, 0)" stroke="rgb(204, 204, 204)" stroke-width="1px"></line><line x1="204.18749999999997" y1="0" x2="204.18749999999997" y2="5" style="visibility: inherit;" fill="rgb(0, 0, 0)" stroke="rgb(204, 204, 204)" stroke-width="1px"></line><line x1="222.75" y1="0" x2="222.75" y2="5" style="visibility: inherit;" fill="rgb(0, 0, 0)" stroke="rgb(204, 204, 204)" stroke-width="1px"></line><line x1="241.3125" y1="0" x2="241.3125" y2="5" style="visibility: inherit;" fill="rgb(0, 0, 0)" stroke="rgb(204, 204, 204)" stroke-width="1px"></line><line x1="259.875" y1="0" x2="259.875" y2="5" style="visibility: inherit;" fill="rgb(0, 0, 0)" stroke="rgb(204, 204, 204)" stroke-width="1px"></line><line x1="278.4375" y1="0" x2="278.4375" y2="5" style="visibility: inherit;" fill="rgb(0, 0, 0)" stroke="rgb(204, 204, 204)" stroke-width="1px"></line></g><g transform="translate(0, 8)"><text x="0" y="0" dx="0em" dy="0.95em" style="text-anchor: middle; visibility: hidden; font-family: Roboto, sans-serif; font-size: 12px; font-weight: 200;" fill="rgb(33, 33, 33)" stroke="none" stroke-width="1px">-20</text><text x="18.5625" y="0" dx="0em" dy="0.95em" style="text-anchor: middle; visibility: inherit; font-family: Roboto, sans-serif; font-size: 12px; font-weight: 200;" fill="rgb(33, 33, 33)" stroke="none" stroke-width="1px">0</text><text x="37.125" y="0" dx="0em" dy="0.95em" style="text-anchor: middle; visibility: hidden; font-family: Roboto, sans-serif; font-size: 12px; font-weight: 200;" fill="rgb(33, 33, 33)" stroke="none" stroke-width="1px">20</text><text x="55.6875" y="0" dx="0em" dy="0.95em" style="text-anchor: middle; visibility: inherit; font-family: Roboto, sans-serif; font-size: 12px; font-weight: 200;" fill="rgb(33, 33, 33)" stroke="none" stroke-width="1px">40</text><text x="74.25" y="0" dx="0em" dy="0.95em" style="text-anchor: middle; visibility: hidden; font-family: Roboto, sans-serif; font-size: 12px; font-weight: 200;" fill="rgb(33, 33, 33)" stroke="none" stroke-width="1px">60</text><text x="92.8125" y="0" dx="0em" dy="0.95em" style="text-anchor: middle; visibility: inherit; font-family: Roboto, sans-serif; font-size: 12px; font-weight: 200;" fill="rgb(33, 33, 33)" stroke="none" stroke-width="1px">80</text><text x="111.375" y="0" dx="0em" dy="0.95em" style="text-anchor: middle; visibility: hidden; font-family: Roboto, sans-serif; font-size: 12px; font-weight: 200;" fill="rgb(33, 33, 33)" stroke="none" stroke-width="1px">100</text><text x="129.9375" y="0" dx="0em" dy="0.95em" style="text-anchor: middle; visibility: inherit; font-family: Roboto, sans-serif; font-size: 12px; font-weight: 200;" fill="rgb(33, 33, 33)" stroke="none" stroke-width="1px">120</text><text x="148.5" y="0" dx="0em" dy="0.95em" style="text-anchor: middle; visibility: hidden; font-family: Roboto, sans-serif; font-size: 12px; font-weight: 200;" fill="rgb(33, 33, 33)" stroke="none" stroke-width="1px">140</text><text x="167.0625" y="0" dx="0em" dy="0.95em" style="text-anchor: middle; visibility: inherit; font-family: Roboto, sans-serif; font-size: 12px; font-weight: 200;" fill="rgb(33, 33, 33)" stroke="none" stroke-width="1px">160</text><text x="185.625" y="0" dx="0em" dy="0.95em" style="text-anchor: middle; visibility: hidden; font-family: Roboto, sans-serif; font-size: 12px; font-weight: 200;" fill="rgb(33, 33, 33)" stroke="none" stroke-width="1px">180</text><text x="204.18749999999997" y="0" dx="0em" dy="0.95em" style="text-anchor: middle; visibility: inherit; font-family: Roboto, sans-serif; font-size: 12px; font-weight: 200;" fill="rgb(33, 33, 33)" stroke="none" stroke-width="1px">200</text><text x="222.75" y="0" dx="0em" dy="0.95em" style="text-anchor: middle; visibility: hidden; font-family: Roboto, sans-serif; font-size: 12px; font-weight: 200;" fill="rgb(33, 33, 33)" stroke="none" stroke-width="1px">220</text><text x="241.3125" y="0" dx="0em" dy="0.95em" style="text-anchor: middle; visibility: inherit; font-family: Roboto, sans-serif; font-size: 12px; font-weight: 200;" fill="rgb(33, 33, 33)" stroke="none" stroke-width="1px">240</text><text x="259.875" y="0" dx="0em" dy="0.95em" style="text-anchor: middle; visibility: hidden; font-family: Roboto, sans-serif; font-size: 12px; font-weight: 200;" fill="rgb(33, 33, 33)" stroke="none" stroke-width="1px">260</text><text x="278.4375" y="0" dx="0em" dy="0.95em" style="text-anchor: middle; visibility: hidden; font-family: Roboto, sans-serif; font-size: 12px; font-weight: 200;" fill="rgb(33, 33, 33)" stroke="none" stroke-width="1px">280</text></g><line x1="0" y1="0" x2="278.4375" y2="0" fill="rgb(0, 0, 0)" stroke="rgb(204, 204, 204)" stroke-width="1px"></line></g></g></g></g></svg>