<svg viewBox="0 0 330 200" xmlns="http://www.w3.org/2000/svg"><g><g><g><g><g><line x1="51.5625" y1="177" x2="46.5625" y2="177" style="visibility: inherit;" fill="rgb(0, 0, 0)" stroke="rgb(204, 204, 204)" stroke-width="1px"></line><line x1="51.5625" y1="163.3846153846154" x2="46.5625" y2="163.3846153846154" style="visibility: inherit;" fill="rgb(0, 0, 0)" stroke="rgb(204, 204, 204)" stroke-width="1px"></line><line x1="51.5625" y1="149.76923076923075" x2="46.5625" y2="149.76923076923075" style="visibility: inherit;" fill="rgb(0, 0, 0)" stroke="rgb(204, 204, 204)" stroke-width="1px"></line><line x1="51.5625" y1="136.15384615384613" x2="46.5625" y2="136.15384615384613" style="visibility: inherit;" fill="rgb(0, 0, 0)" stroke="rgb(204, 204, 204)" stroke-width="1px"></line><line x1="51.5625" y1="122.53846153846149" x2="46.5625" y2="122.53846153846149" style="visibility: inherit;" fill="rgb(0, 0, 0)" stroke="rgb(204, 204, 204)" stroke-width="1px"></line><line x1="51.5625" y1="108.92307692307685" x2="46.5625" y2="108.92307692307685" style="visibility: inherit;" fill="rgb(0, 0, 0)" stroke="rgb(204, 204, 204)" stroke-width="1px"></line><line x1="51.5625" y1="95.30769230769225" x2="46.5625" y2="95.30769230769225" style="visibility: inherit;" fill="rgb(0, 0, 0)" stroke="rgb(204, 204, 204)" stroke-width="1px"></line><line x1="51.5625" y1="81.69230769230762" x2="46.5625" y2="81.69230769230762" style="visibility: inherit;" fill="rgb(0, 0, 0)" stroke="rgb(204, 204, 204)" stroke-width="1px"></line><line x1="51.5625" y1="68.07692307692312" x2="46.5625" y2="68.07692307692312" style="visibility: inherit;" fill="rgb(0, 0, 0)" stroke="rgb(204, 204, 204)" stroke-width="1px"></line><line x1="51.5625" y1="54.4615384615385" x2="46.5625" y2="54.4615384615385" style="visibility: inherit;" fill="rgb(0, 0, 0)" stroke="rgb(204, 204, 204)" stroke-width="1px"></line><line x1="51.5625" y1="40.846153846153875" x2="46.5625" y2="40.846153846153875" style="visibility: inherit;" fill="rgb(0, 0, 0)" stroke="rgb(204, 204, 204)" stroke-width="1px"></line><line x1="51.5625" y1="27.23076923076925" x2="46.5625" y2="27.23076923076925" style="visibility: inherit;" fill="rgb(0, 0, 0)" stroke="rgb(204, 204, 204)" stroke-width="1px"></line><line x1="51.5625" y1="13.615384615384626" x2="46.5625" y2="13.615384615384626" style="visibility: inherit;" fill="rgb(0, 0, 0)" stroke="rgb(204, 204, 204)" stroke-width="1px"></line><line x1="51.5625" y1="0" x2="46.5625" y2="0" style="visibility: inherit;" fill="rgb(0, 0, 0)" stroke="rgb(204, 204, 204)" stroke-width="1px"></line></g><g transform="translate(41.5625, 0)"><text x="0" y="177" dx="0em" dy="0.3em" style="text-anchor: end; visibility: hidden; font-family: Roboto, sans-serif; font-size: 12px; font-weight: 200;" fill="rgb(33, 33, 33)" stroke="none" stroke-width="1px">0.74</text><text x="0" y="163.3846153846154" dx="0em" dy="0.3em" style="text-anchor: end; visibility: inherit; font-family: Roboto, sans-serif; font-size: 12px; font-weight: 200;" fill="rgb(33, 33, 33)" stroke="none" stroke-width="1px">0.75</text><text x="0" y="149.76923076923075" dx="0em" dy="0.3em" style="text-anchor: end; visibility: hidden; font-family: Roboto, sans-serif; font-size: 12px; font-weight: 200;" fill="rgb(33, 33, 33)" stroke="none" stroke-width="1px">0.76</text><text x="0" y="136.15384615384613" dx="0em" dy="0.3em" style="text-anchor: end; visibility: inherit; font-family: Roboto, sans-serif; font-size: 12px; font-weight: 200;" fill="rgb(33, 33, 33)" stroke="none" stroke-width="1px">0.77</text><text x="0" y="122.53846153846149" dx="0em" dy="0.3em" style="text-anchor: end; visibility: hidden; font-family: Roboto, sans-serif; font-size: 12px; font-weight: 200;" fill="rgb(33, 33, 33)" stroke="none" stroke-width="1px">0.78</text><text x="0" y="108.92307692307685" dx="0em" dy="0.3em" style="text-anchor: end; visibility: inherit; font-family: Roboto, sans-serif; font-size: 12px; font-weight: 200;" fill="rgb(33, 33, 33)" stroke="none" stroke-width="1px">0.79</text><text x="0" y="95.30769230769225" dx="0em" dy="0.3em" style="text-anchor: end; visibility: hidden; font-family: Roboto, sans-serif; font-size: 12px; font-weight: 200;" fill="rgb(33, 33, 33)" stroke="none" stroke-width="1px">0.8</text><text x="0" y="81.69230769230762" dx="0em" dy="0.3em" style="text-anchor: end; visibility: inherit; font-family: Roboto, sans-serif; font-size: 12px; font-weight: 200;" fill="rgb(33, 33, 33)" stroke="none" stroke-width="1px">0.81</text><text x="0" y="68.07692307692312" dx="0em" dy="0.3em" style="text-anchor: end; visibility: hidden; font-family: Roboto, sans-serif; font-size: 12px; font-weight: 200;" fill="rgb(33, 33, 33)" stroke="none" stroke-width="1px">0.82</text><text x="0" y="54.4615384615385" dx="0em" dy="0.3em" style="text-anchor: end; visibility: inherit; font-family: Roboto, sans-serif; font-size: 12px; font-weight: 200;" fill="rgb(33, 33, 33)" stroke="none" stroke-width="1px">0.83</text><text x="0" y="40.846153846153875" dx="0em" dy="0.3em" style="text-anchor: end; visibility: hidden; font-family: Roboto, sans-serif; font-size: 12px; font-weight: 200;" fill="rgb(33, 33, 33)" stroke="none" stroke-width="1px">0.84</text><text x="0" y="27.23076923076925" dx="0em" dy="0.3em" style="text-anchor: end; visibility: inherit; font-family: Roboto, sans-serif; font-size: 12px; font-weight: 200;" fill="rgb(33, 33, 33)" stroke="none" stroke-width="1px">0.85</text><text x="0" y="13.615384615384626" dx="0em" dy="0.3em" style="text-anchor: end; visibility: hidden; font-family: Roboto, sans-serif; font-size: 12px; font-weight: 200;" fill="rgb(33, 33, 33)" stroke="none" stroke-width="1px">0.86</text><text x="0" y="0" dx="0em" dy="0.3em" style="text-anchor: end; visibility: hidden; font-family: Roboto, sans-serif; font-size: 12px; font-weight: 200;" fill="rgb(33, 33, 33)" stroke="none" stroke-width="1px">0.87</text></g><line x1="51.5625" y1="0" x2="51.5625" y2="177" fill="rgb(0, 0, 0)" stroke="rgb(204, 204, 204)" stroke-width="1px"></line></g></g><g transform="translate(51, 0)" clip-path="url(#clip_0)"><clipPath id="clip_0"><rect width="278" height="177"></rect></clipPath><g><g><g><line x1="0" y1="0" x2="0" y2="177" fill="rgb(0, 0, 0)" stroke="rgb(66, 66, 66)" stroke-width="1px" opacity="0.25"></line><line x1="34.8046875" y1="0" x2="34.8046875" y2="177" fill="rgb(0, 0, 0)" stroke="rgb(66, 66, 66)" stroke-width="1px" opacity="0.25"></line><line x1="69.609375" y1="0" x2="69.609375" y2="177" fill="rgb(0, 0, 0)" stroke="rgb(66, 66, 66)" stroke-width="1px" opacity="0.25"></line><line x1="104.4140625" y1="0" x2="104.4140625" y2="177" fill="rgb(0, 0, 0)" stroke="rgb(66, 66, 66)" stroke-width="1px" opacity="0.25"></line><line x1="139.21875" y1="0" x2="139.21875" y2="177" fill="rgb(0, 0, 0)" stroke="rgb(66, 66, 66)" stroke-width="1px" opacity="0.25"></line><line x1="174.0234375" y1="0" x2="174.0234375" y2="177" fill="rgb(0, 0, 0)" stroke="rgb(66, 66, 66)" stroke-width="1px" opacity="0.25"></line><line x1="208.828125" y1="0" x2="208.828125" y2="177" fill="rgb(0, 0, 0)" stroke="rgb(66, 66, 66)" stroke-width="1px" opacity="0.25"></line><line x1="243.6328125" y1="0" x2="243.6328125" y2="177" fill="rgb(0, 0, 0)" stroke="rgb(66, 66, 66)" stroke-width="1px" opacity="0.25"></line><line x1="278.4375" y1="0" x2="278.4375" y2="177" fill="rgb(0, 0, 0)" stroke="rgb(66, 66, 66)" stroke-width="1px" opacity="0.25"></line></g><g><line x1="0" y1="177" x2="278.4375" y2="177" fill="rgb(0, 0, 0)" stroke="rgb(66, 66, 66)" stroke-width="1px" opacity="0.25"></line><line x1="0" y1="163.3846153846154" x2="278.4375" y2="163.3846153846154" fill="rgb(0, 0, 0)" stroke="rgb(66, 66, 66)" stroke-width="1px" opacity="0.25"></line><line x1="0" y1="149.76923076923075" x2="278.4375" y2="149.76923076923075" fill="rgb(0, 0, 0)" stroke="rgb(66, 66, 66)" stroke-width="1px" opacity="0.25"></line><line x1="0" y1="136.15384615384613" x2="278.4375" y2="136.15384615384613" fill="rgb(0, 0, 0)" stroke="rgb(66, 66, 66)" stroke-width="1px" opacity="0.25"></line><line x1="0" y1="122.53846153846149" x2="278.4375" y2="122.53846153846149" fill="rgb(0, 0, 0)" stroke="rgb(66, 66, 66)" stroke-width="1px" opacity="0.25"></line><line x1="0" y1="108.92307692307685" x2="278.4375" y2="108.92307692307685" fill="rgb(0, 0, 0)" stroke="rgb(66, 66, 66)" stroke-width="1px" opacity="0.25"></line><line x1="0" y1="95.30769230769225" x2="278.4375" y2="95.30769230769225" fill="rgb(0, 0, 0)" stroke="rgb(66, 66, 66)" stroke-width="1px" opacity="0.25"></line><line x1="0" y1="81.69230769230762" x2="278.4375" y2="81.69230769230762" fill="rgb(0, 0, 0)" stroke="rgb(66, 66, 66)" stroke-width="1px" opacity="0.25"></line><line x1="0" y1="68.07692307692312" x2="278.4375" y2="68.07692307692312" fill="rgb(0, 0, 0)" stroke="rgb(66, 66, 66)" stroke-width="1px" opacity="0.25"></line><line x1="0" y1="54.4615384615385" x2="278.4375" y2="54.4615384615385" fill="rgb(0, 0, 0)" stroke="rgb(66, 66, 66)" stroke-width="1px" opacity="0.25"></line><line x1="0" y1="40.846153846153875" x2="278.4375" y2="40.846153846153875" fill="rgb(0, 0, 0)" stroke="rgb(66, 66, 66)" stroke-width="1px" opacity="0.25"></line><line x1="0" y1="27.23076923076925" x2="278.4375" y2="27.23076923076925" fill="rgb(0, 0, 0)" stroke="rgb(66, 66, 66)" stroke-width="1px" opacity="0.25"></line><line x1="0" y1="13.615384615384626" x2="278.4375" y2="13.615384615384626" fill="rgb(0, 0, 0)" stroke="rgb(66, 66, 66)" stroke-width="1px" opacity="0.25"></line><line x1="0" y1="0" x2="278.4375" y2="0" fill="rgb(0, 0, 0)" stroke="rgb(66, 66, 66)" stroke-width="1px" opacity="0.25"></line></g></g></g><g><g><line x1="0" y1="1184.5384615384614" x2="278.4375" y2="1184.5384615384614" fill="rgb(0, 0, 0)" stroke="rgb(153, 153, 153)" stroke-width="1.5px"></line></g></g><g><g><line x1="34.8046875" y1="0" x2="34.8046875" y2="177" fill="rgb(0, 0, 0)" stroke="rgb(153, 153, 153)" stroke-width="1.5px"></line></g></g><g><g><g><g><g><path stroke="rgb(255, 112, 67)" stroke-width="2px" d="M38.28515625,177.59902285913915L38.98125,171.3742345630018L39.67734375,167.75278944737278L40.373437499999994,165.61924756307528L41.06953125,164.35296690409103L41.765625,163.59811664911737L42.461718749999996,163.14696300735716L43.1578125,162.87690016476404L43.85390625,162.715088377569L44.550000000000004,162.61808249699803L45.24609375,162.5599081677462L45.9421875,162.52501407540848L46.638281250000006,162.5040814004886L47.334375,162.49152315620938L48.03046875,162.48398869941886L48.7265625,162.4794682016503L49.422656249999996,162.47675596645618L50.11875,162.47512864818728L50.81484375,162.47415226545073L51.5109375,162.47356643876992L52.20703125,162.4732149438274L52.903125,162.47300404724547L53.59921875,162.47287750943457L54.2953125,162.47280158679766L54.991406250000004,162.4727560332334L55.6875,162.4727287011013L56.38359375,162.47271230182446L57.0796875,162.47270246225915L57.775781249999994,162.47269655852028L58.471875,162.47269301627705L59.16796875,162.47269089093126L59.864062499999996,162.47268961572368L60.56015625,162.47268885059907L61.25625,162.4726883915245L61.952343750000004,162.4726881160796L62.6484375,162.47268795081288L63.34453125,162.47268785165252L64.040625,162.47268779215656L64.73671875000001,162.47268775645895L65.4328125,162.47268773504047L66.12890625,162.47268772218922L66.825,162.47268771447847L67.52109374999999,162.47268770985218L68.2171875,162.47268770707612L68.91328125,162.47268770541064L69.609375,162.4726877044113L70.30546875,162.47268770381194L71.0015625,162.47268770345204L71.69765625000001,162.47268770323618L72.39375,162.47268770310663L73.08984375,162.47268770302892L73.7859375,162.47268770298237L74.48203125,162.4726877029544L75.17812500000001,162.47268770293763L75.87421875000001,162.44165440707627L76.5703125,162.39200113370788L77.26640625,162.3311434122287L77.9625,162.23256218763837L78.65859375,162.17341345288403L79.3546875,162.07582515872204L80.05078125,161.92413983306358L80.74687499999999,161.61579818188878L81.44296874999999,161.24452849286183L82.1390625,160.587138229492L82.83515625,159.7581080831231L83.53125,158.98126048621214L84.22734375,158.01845688640924L84.92343749999999,156.913013927413L85.61953125,155.7219873529008L86.315625,154.0449821591253L87.01171875,151.73492615460614L87.7078125,149.2623051962076L88.40390625,146.78531007624875L89.10000000000001,144.42988856597313L89.79609375,141.68171701409557L90.4921875,138.66682967979895L91.18828125,135.92657378761106L91.884375,132.91643584912825L92.58046875000001,129.86859925109397L93.27656250000001,126.51868148663296L93.97265625,122.92548089221918L94.66875,119.4346418898588L95.36484375,115.81895514440868L96.0609375,112.50088914974855L96.75703125,109.45452795472336L97.453125,106.44702399446669L98.14921874999999,102.99714016765962L98.84531249999999,99.6233569833214L99.54140625,96.88506157528201L100.2375,94.1244636789197L100.93359375,91.90931084613638L101.6296875,89.43156519907622L102.32578124999999,87.23089231340374L103.021875,85.32062872957617L103.71796875,83.73984212932616L104.4140625,82.10841042919766L105.11015625,80.91222095334045L105.80625,79.35631612537716L106.50234375000001,78.11231042365823L107.1984375,76.74504631595784L107.89453125,75.58319175054515L108.590625,73.76845835975885L109.28671875,72.27605563279168L109.98281250000001,71.31851494330174L110.67890625000001,70.49562677797637L111.375,69.536232132976L112.07109375,68.71223159434425L112.7671875,67.69007047205075L113.46328125,67.04574050282329L114.159375,66.59704346797719L114.85546875,66.17259384459912L115.55156249999999,65.73165937225019L116.24765624999999,65.43606539298929L116.94375,65.28974230128432L117.63984375,65.17091515040977L118.3359375,65.28588355820712L119.03203125,65.19963320041504L119.72812499999999,65.11684968988828L120.42421875,64.72568348277966L121.1203125,64.49098375851452L121.81640625,64.07076687647243L122.5125,64.16013284803977L123.20859375,64.12062008181911L123.90468750000001,63.97271431546766L124.60078125,63.821904263953854L125.296875,63.886617173909585L125.99296875,63.55291552323901L126.6890625,63.570024988616595L127.38515625000001,63.26982786290219L128.08125,62.965543942460954L128.77734375,63.06237063767941L129.47343750000002,62.65480490900528L130.16953125,62.47233206350387L130.865625,62.42494740951249L131.56171874999998,62.14815286548616L132.2578125,61.64061249988452L132.95390625,61.42922062968434L133.65,61.05402175593282L134.34609375,60.704704325062835L135.04218749999998,60.21571681905795L135.73828125,59.92232431545495L136.434375,59.59108987242917L137.13046875,59.14398545498227L137.8265625,58.90675610036548L138.52265625,58.45398814426096L139.21875,58.244393962301324L139.91484375,58.0565708614225L140.6109375,57.81967889427615L141.30703125,57.39814666650529L142.003125,56.92792933566923L142.69921875,56.676832233019155L143.39531250000002,56.339909273107054L144.09140624999998,55.95149079883771L144.7875,55.811572063437275L145.48359374999998,55.54135612387507L146.1796875,55.348160802679566L146.87578125,55.01494561578876L147.571875,54.81501650365441L148.26796875,54.5398276339032L148.9640625,54.219515371188464L149.66015625,53.96522896025012L150.35625000000002,53.998921812009115L151.05234375,53.67764142227204L151.74843750000002,53.51590648428135L152.44453124999998,53.38783222563532L153.140625,53.06262391881637L153.83671875,52.681234236402915L154.5328125,52.2351024327814L155.22890625,51.84322524398937L155.925,51.51496658155316L156.62109375,50.94548198744745L157.3171875,50.75902263345448L158.01328125,50.522981376046125L158.709375,50.25715851498214L159.40546875,50.15976385165329L160.1015625,49.790864248714904L160.79765625000002,49.38325978862994L161.49374999999998,49.04556476341797L162.18984375,48.93608009745184L162.88593749999998,48.715190357008176L163.58203125,48.27219370780092L164.278125,48.09952806743756L164.97421875,47.90279633405861L165.6703125,47.59849259570919L166.36640625,47.38487705684793L167.0625,47.0393772777513L167.75859375000002,46.614779416119674L168.4546875,46.2047892966702L169.15078125000002,46.08296087001308L169.84687499999998,45.575235364065236L170.54296875,45.332699113806186L171.2390625,45.404507819430755L171.93515625,45.0439978887035L172.63125,44.76559287695749L173.32734375,44.536483278206894L174.0234375,44.3990175189566L174.71953125,43.850843855994945L175.415625,43.42880730905689L176.11171875,43.20665113835208L176.8078125,42.949159329310135L177.50390625,42.856763297194426L178.20000000000002,42.335663932120084L178.89609374999998,42.14716995808791L179.5921875,41.84780887534668L180.28828124999998,41.41982847407037L180.984375,41.13200693745313L181.68046875,40.77304931716069L182.3765625,40.37141004666328L183.07265625,40.40982353184782L183.76875,40.091375522166146L184.46484375,39.86927342050565L185.16093750000002,39.54974746118722L185.85703125,39.171767187274206L186.55312500000002,38.85184667376526L187.24921874999998,38.44256390987997L187.9453125,38.16596095569735L188.64140625,37.875801076568706L189.3375,37.329175752447505L190.03359375,37.12539866459384L190.7296875,36.816867713559525L191.42578125,36.69381573464209L192.121875,36.557917955588465L192.81796875,36.10381742990597L193.5140625,36.11078662358588L194.21015625,35.866604388162436L194.90625,35.502764591128226L195.60234375000002,35.25342741705628L196.29843749999998,35.041726059303635L196.99453125,34.4800767946984L197.69062499999998,34.14308723593533L198.38671875,34.00299255398699L199.0828125,33.7637043423475L199.77890625,33.30970107202924L200.475,33.09939816314787L201.17109375,32.5075222104075L201.8671875,32.02823099375081L202.56328125000002,31.957954257930414L203.259375,31.667456926413056L203.95546875000002,31.213729018413087L204.65156249999998,30.9104589777616L205.34765625,30.604331308358205L206.04375,30.141257659233077L206.73984375,29.863413469758182L207.4359375,29.448343204441713L208.13203125,29.168235287793685L208.828125,28.565574549458038L209.52421875,28.483375153939722L210.2203125,28.434055516628725L210.91640625,27.690438236805406L211.6125,27.523664916394388L212.30859375,27.17523717251626L213.00468750000002,26.624684425396957L213.70078124999998,26.418550883744405L214.396875,25.891275604650907L215.09296874999998,25.51281138388516L215.7890625,25.00633580394278L216.48515625,24.5782848109649L217.18125,24.073090463546553L217.87734375,23.863106204256518L218.5734375,23.457718601199467L219.26953125,23.276585092674797L219.96562500000002,22.919541235928456L220.66171875,22.70531492188065L221.35781250000002,22.51468008014255L222.05390624999998,22.24506777262918L222.75,21.990168038960135L223.44609375,21.61993020458523L224.1421875,21.36675420810874L224.83828125,21.21484861022292L225.534375,20.96847384902096L226.23046875,20.820648992299716L226.9265625,20.700920782415608L227.62265625,20.44278669655654L228.31875,20.00850919755807L229.01484375,19.654810348998055L229.7109375,19.07006164321803L230.40703125000002,19.02967522469092L231.10312499999998,18.7570796219432L231.79921875,18.189927106192485L232.49531249999998,17.942767945903146L233.19140625,17.48404210639498L233.8875,16.867310501897578L234.58359375,16.559370592508586L235.2796875,16.343540889417344L235.97578125,16.058844126698382L236.671875,15.577563264126018L237.36796875000002,15.257761450731314L238.0640625,14.56915285943138L238.76015625000002,14.000756302180914L239.45624999999998,13.535552722818146L240.15234375,12.977033527717447L240.8484375,12.362524963174002L241.54453125,12.397382516943452L242.240625,11.921602007548572L242.93671875,11.543001352750679" style="fill: none;" fill="none"></path></g></g></g></g><g opacity="0.2"><g><g><g><path stroke="rgb(255, 112, 67)" stroke-width="2px" d="M35.50078125,207.4097765592428L36.196875,162.23985683001004L36.89296875,162.47268770291254L37.589062500000004,162.47268770291254L38.28515625,162.47268770291254L38.98125,162.47268770291254L39.67734375,162.47268770291254L40.373437499999994,162.47268770291254L41.06953125,162.47268770291254L41.765625,162.47268770291254L42.461718749999996,162.47268770291254L43.1578125,162.47268770291254L43.85390625,162.47268770291254L44.550000000000004,162.47268770291254L45.24609375,162.47268770291254L45.9421875,162.47268770291254L46.638281250000006,162.47268770291254L47.334375,162.47268770291254L48.03046875,162.47268770291254L48.7265625,162.47268770291254L49.422656249999996,162.47268770291254L50.11875,162.47268770291254L50.81484375,162.47268770291254L51.5109375,162.47268770291254L52.20703125,162.47268770291254L52.903125,162.47268770291254L53.59921875,162.47268770291254L54.2953125,162.47268770291254L54.991406250000004,162.47268770291254L55.6875,162.47268770291254L56.38359375,162.47268770291254L57.0796875,162.47268770291254L57.775781249999994,162.47268770291254L58.471875,162.47268770291254L59.16796875,162.47268770291254L59.864062499999996,162.47268770291254L60.56015625,162.47268770291254L61.25625,162.47268770291254L61.952343750000004,162.47268770291254L62.6484375,162.47268770291254L63.34453125,162.47268770291254L64.040625,162.47268770291254L64.73671875000001,162.47268770291254L65.4328125,162.47268770291254L66.12890625,162.47268770291254L66.825,162.47268770291254L67.52109374999999,162.47268770291254L68.2171875,162.47268770291254L68.91328125,162.47268770291254L69.609375,162.47268770291254L70.30546875,162.47268770291254L71.0015625,162.47268770291254L71.69765625000001,162.47268770291254L72.39375,162.47268770291254L73.08984375,162.47268770291254L73.7859375,162.47268770291254L74.48203125,162.47268770291254L75.17812500000001,162.47268770291254L75.87421875000001,162.39510446328381L76.5703125,162.3175212236551L77.26640625,162.23985683001004L77.9625,162.0846903507526L78.65859375,162.0846903507526L79.3546875,161.92944271747882L80.05078125,161.69661184457632L80.74687499999999,161.15328570512625L81.44296874999999,160.68762395932123L82.1390625,159.60105283443744L82.83515625,158.51456286356998L83.53125,157.81598909084613L84.22734375,156.5742514867049L84.92343749999999,155.25484948891858L85.61953125,153.9354474911323L86.315625,151.5294743684622L87.01171875,148.26984214782715L87.7078125,145.55337375860947L88.40390625,143.06981739631067L89.10000000000001,140.8967563005594L89.79609375,137.5594596862793L90.4921875,134.14449867835413L91.18828125,131.81618994932907L91.884375,128.4012289414039L92.58046875000001,125.29684435404263L93.27656250000001,121.49380483994118L93.97265625,117.5356800005986L94.66875,114.19838338631848L95.36484375,110.39542502623337L96.0609375,107.52379015775827L96.75703125,104.88498616218567L97.453125,101.93576805408182L98.14921874999999,97.82231442744913L98.84531249999999,94.56268220681409L99.54140625,92.77761846322278L100.2375,89.98356683437639L100.93359375,88.58658159696138L101.6296875,85.71494672848627L102.32578124999999,83.92988298489496L103.021875,82.45523335383488L103.71796875,81.36866222895108L104.4140625,79.66126287900484L105.11015625,79.11793673955476L105.80625,77.02245888343224L106.50234375000001,76.24630187107965L107.1984375,74.6941501544072L107.89453125,73.84040990242589L108.590625,71.04635827357953L109.28671875,70.03745154234079L109.98281250000001,69.882203909067L110.67890625000001,69.26129452998822L111.375,68.0971401654757L112.07109375,67.47623078639691L112.7671875,66.15682878861058L113.46328125,66.07924554898187L114.159375,65.9239979157081L114.85546875,65.5359194095318L115.55156249999999,65.0702576637268L116.24765624999999,64.99267442409808L116.94375,65.0702576637268L117.63984375,64.99267442409808L118.3359375,65.45833616990308L119.03203125,65.0702576637268L119.72812499999999,64.99267442409808L120.42421875,64.13893417211679L121.1203125,64.13893417211679L121.81640625,63.44044155340928L122.5125,64.29418180539056L123.20859375,64.06135093248807L123.90468750000001,63.75085566594049L124.60078125,63.59568918668305L125.296875,63.983686538843L125.99296875,63.05236304723298L126.6890625,63.59568918668305L127.38515625000001,62.81953217433049L128.08125,62.509118061799256L128.77734375,63.20761068050678L129.47343750000002,62.04345631599426L130.16953125,62.198622795251694L130.865625,62.353870428525475L131.56171874999998,61.732961049446686L132.2578125,60.87930195148174L132.95390625,61.11213282438424L133.65,60.49122344530545L134.34609375,60.180728178757875L135.04218749999998,59.48223556005036L135.73828125,59.48223556005036L136.434375,59.094238207890434L137.13046875,58.473328828811646L137.8265625,58.55091206844036L138.52265625,57.77483621010412L139.21875,57.93000268936157L139.91484375,57.77483621010412L140.6109375,57.464340943556564L141.30703125,56.76584832484905L142.003125,56.22260333941533L142.69921875,56.300186579044045L143.39531250000002,55.83452483323903L144.09140624999998,55.36886308743402L144.7875,55.60169396033653L145.48359374999998,55.136032214531525L146.1796875,55.05836782088646L146.87578125,54.515122835452736L147.571875,54.515122835452736L148.26796875,54.12704432927644L148.9640625,53.73904697711651L149.66015625,53.58379934384271L150.35625000000002,54.04946108964772L151.05234375,53.195720837666435L151.74843750000002,53.27330407729515L152.44453124999998,53.195720837666435L153.140625,52.57481145858765L153.83671875,52.10914971278264L154.5328125,51.56590472734891L155.22890625,51.25540946080133L155.925,51.022578587898835L156.62109375,50.09125509628881L157.3171875,50.479333602465104L158.01328125,50.16891948993389L158.709375,49.858424223386315L159.40546875,50.013671856660096L160.1015625,49.237514844307526L160.79765625000002,48.77185309850251L161.49374999999998,48.53902222560002L162.18984375,48.77185309850251L162.88593749999998,48.38385574634258L163.58203125,47.60769873399L164.278125,47.84052960689251L164.97421875,47.60769873399L165.6703125,47.142036988185005L166.36640625,47.06445374855627L167.0625,46.521127609106195L167.75859375000002,45.977882623672485L168.4546875,45.58980411749619L169.15078125000002,45.900218230027406L169.84687499999998,44.81364710514362L170.54296875,44.968894738417404L171.2390625,45.51222087786748L171.93515625,44.50323299261239L172.63125,44.34798535933861L173.32734375,44.19281888008118L174.0234375,44.19281888008118L174.71953125,43.028583361552315L175.415625,42.795752488649796L176.11171875,42.87341688229486L176.8078125,42.5629216157473L177.50390625,42.71816924902108L178.20000000000002,41.55401488450856L178.89609374999998,41.864428997039795L179.5921875,41.39876725123479L180.28828124999998,40.77785787215599L180.984375,40.700274632527275L181.68046875,40.23461288672227L182.3765625,39.76895114091725L183.07265625,40.467443759624764L183.76875,39.61370350764348L184.46484375,39.536120268014756L185.16093750000002,39.07045852220975L185.85703125,38.60479677640473L186.55312500000002,38.37196590350224L187.24921874999998,37.82863976405217L187.9453125,37.75105652442345L188.64140625,37.44056125787587L189.3375,36.50923776626587L190.03359375,36.819733032813424L190.7296875,36.354071287008416L191.42578125,36.50923776626587L192.121875,36.354071287008416L192.81796875,35.422666641382065L193.5140625,36.12124041410592L194.21015625,35.50033103502713L194.90625,34.95700489557706L195.60234375000002,34.87942165594834L196.29843749999998,34.72417402267456L196.99453125,33.63760289779076L197.69062499999998,33.63760289779076L198.38671875,33.79285053106454L199.0828125,33.404772024888246L199.77890625,32.62869616655202L200.475,32.7839437998258L201.17109375,31.619708281296933L201.8671875,31.30929416876572L202.56328125000002,31.85253915419945L203.259375,31.231710929137005L203.95546875000002,30.533137156413154L204.65156249999998,30.455553916784417L205.34765625,30.145139804253205L206.04375,29.446647185545697L206.73984375,29.446647185545697L207.4359375,28.825737806466908L208.13203125,28.748073412821846L208.828125,27.661583441954388L209.52421875,28.360076060661896L210.2203125,28.360076060661896L210.91640625,26.575012317070588L211.6125,27.273504935778092L212.30859375,26.652595556699303L213.00468750000002,25.798855304718018L213.70078124999998,26.109350571265576L214.396875,25.10036268601049L215.09296874999998,24.94511505273671L215.7890625,24.246622434029206L216.48515625,23.936208321497993L217.18125,23.315298942419183L217.87734375,23.548129815321698L218.5734375,22.84963719661419L219.26953125,23.00488482988797L219.96562500000002,22.383975450809178L220.66171875,22.383975450809178L221.35781250000002,22.2287278175354L222.05390624999998,21.840649311359105L222.75,21.60781843845661L223.44609375,21.06457345302288L224.1421875,20.986990213394165L224.83828125,20.986990213394165L225.534375,20.59891170721787L226.23046875,20.59891170721787L226.9265625,20.521328467589154L227.62265625,20.055585567767796L228.31875,19.35709294906029L229.01484375,19.124262076157773L229.7109375,18.192938584547772L230.40703125000002,18.969095596900342L231.10312499999998,18.34818621782155L231.79921875,17.339198332566465L232.49531249999998,17.572029205468983L233.19140625,16.79595334713276L233.8875,15.942213095151452L234.58359375,16.09746072842523L235.2796875,16.019796334780168L235.97578125,15.63179898262024L236.671875,14.855641970267651L237.36796875000002,14.778058730638934L238.0640625,13.536239972481352L238.76015625000002,13.148161466305059L239.45624999999998,12.837747353773846L240.15234375,12.13925473506634L240.8484375,11.440762116358831L241.54453125,12.449668847597552L242.240625,11.207931243456317L242.93671875,10.97510037055382" style="fill: none;" fill="none"></path></g></g></g></g></g></g><g transform="translate(51, 177)" clip-path="url(#clip_1)"><clipPath id="clip_1"><rect width="278" height="23"></rect></clipPath><g><g><line x1="0" y1="0" x2="0" y2="5" style="visibility: inherit;" fill="rgb(0, 0, 0)" stroke="rgb(204, 204, 204)" stroke-width="1px"></line><line x1="34.8046875" y1="0" x2="34.8046875" y2="5" style="visibility: inherit;" fill="rgb(0, 0, 0)" stroke="rgb(204, 204, 204)" stroke-width="1px"></line><line x1="69.609375" y1="0" x2="69.609375" y2="5" style="visibility: inherit;" fill="rgb(0, 0, 0)" stroke="rgb(204, 204, 204)" stroke-width="1px"></line><line x1="104.4140625" y1="0" x2="104.4140625" y2="5" style="visibility: inherit;" fill="rgb(0, 0, 0)" stroke="rgb(204, 204, 204)" stroke-width="1px"></line><line x1="139.21875" y1="0" x2="139.21875" y2="5" style="visibility: inherit;" fill="rgb(0, 0, 0)" stroke="rgb(204, 204, 204)" stroke-width="1px"></line><line x1="174.0234375" y1="0" x2="174.0234375" y2="5" style="visibility: inherit;" fill="rgb(0, 0, 0)" stroke="rgb(204, 204, 204)" stroke-width="1px"></line><line x1="208.828125" y1="0" x2="208.828125" y2="5" style="visibility: inherit;" fill="rgb(0, 0, 0)" stroke="rgb(204, 204, 204)" stroke-width="1px"></line><line x1="243.6328125" y1="0" x2="243.6328125" y2="5" style="visibility: inherit;" fill="rgb(0, 0, 0)" stroke="rgb(204, 204, 204)" stroke-width="1px"></line><line x1="278.4375" y1="0" x2="278.4375" y2="5" style="visibility: inherit;" fill="rgb(0, 0, 0)" stroke="rgb(204, 204, 204)" stroke-width="1px"></line></g><g transform="translate(0, 8)"><text x="0" y="0" dx="0em" dy="0.95em" style="text-anchor: middle; visibility: hidden; font-family: Roboto, sans-serif; font-size: 12px; font-weight: 200;" fill="rgb(33, 33, 33)" stroke="none" stroke-width="1px">-50</text><text x="34.8046875" y="0" dx="0em" dy="0.95em" style="text-anchor: middle; visibility: inherit; font-family: Roboto, sans-serif; font-size: 12px; font-weight: 200;" fill="rgb(33, 33, 33)" stroke="none" stroke-width="1px">0</text><text x="69.609375" y="0" dx="0em" dy="0.95em" style="text-anchor: middle; visibility: inherit; font-family: Roboto, sans-serif; font-size: 12px; font-weight: 200;" fill="rgb(33, 33, 33)" stroke="none" stroke-width="1px">50</text><text x="104.4140625" y="0" dx="0em" dy="0.95em" style="text-anchor: middle; visibility: inherit; font-family: Roboto, sans-serif; font-size: 12px; font-weight: 200;" fill="rgb(33, 33, 33)" stroke="none" stroke-width="1px">100</text><text x="139.21875" y="0" dx="0em" dy="0.95em" style="text-anchor: middle; visibility: inherit; font-family: Roboto, sans-serif; font-size: 12px; font-weight: 200;" fill="rgb(33, 33, 33)" stroke="none" stroke-width="1px">150</text><text x="174.0234375" y="0" dx="0em" dy="0.95em" style="text-anchor: middle; visibility: inherit; font-family: Roboto, sans-serif; font-size: 12px; font-weight: 200;" fill="rgb(33, 33, 33)" stroke="none" stroke-width="1px">200</text><text x="208.828125" y="0" dx="0em" dy="0.95em" style="text-anchor: middle; visibility: inherit; font-family: Roboto, sans-serif; font-size: 12px; font-weight: 200;" fill="rgb(33, 33, 33)" stroke="none" stroke-width="1px">250</text><text x="243.6328125" y="0" dx="0em" dy="0.95em" style="text-anchor: middle; visibility: inherit; font-family: Roboto, sans-serif; font-size: 12px; font-weight: 200;" fill="rgb(33, 33, 33)" stroke="none" stroke-width="1px">300</text><text x="278.4375" y="0" dx="0em" dy="0.95em" style="text-anchor: middle; visibility: hidden; font-family: Roboto, sans-serif; font-size: 12px; font-weight: 200;" fill="rgb(33, 33, 33)" stroke="none" stroke-width="1px">350</text></g><line x1="0" y1="0" x2="278.4375" y2="0" fill="rgb(0, 0, 0)" stroke="rgb(204, 204, 204)" stroke-width="1px"></line></g></g></g></g></svg>