<svg viewBox="0 0 330 200" xmlns="http://www.w3.org/2000/svg"><g><g><g><g><g><line x1="51.5625" y1="177" x2="46.5625" y2="177" style="visibility: inherit;" fill="rgb(0, 0, 0)" stroke="rgb(204, 204, 204)" stroke-width="1px"></line><line x1="51.5625" y1="157.33333333333331" x2="46.5625" y2="157.33333333333331" style="visibility: inherit;" fill="rgb(0, 0, 0)" stroke="rgb(204, 204, 204)" stroke-width="1px"></line><line x1="51.5625" y1="137.6666666666666" x2="46.5625" y2="137.6666666666666" style="visibility: inherit;" fill="rgb(0, 0, 0)" stroke="rgb(204, 204, 204)" stroke-width="1px"></line><line x1="51.5625" y1="117.99999999999993" x2="46.5625" y2="117.99999999999993" style="visibility: inherit;" fill="rgb(0, 0, 0)" stroke="rgb(204, 204, 204)" stroke-width="1px"></line><line x1="51.5625" y1="98.33333333333324" x2="46.5625" y2="98.33333333333324" style="visibility: inherit;" fill="rgb(0, 0, 0)" stroke="rgb(204, 204, 204)" stroke-width="1px"></line><line x1="51.5625" y1="78.66666666666654" x2="46.5625" y2="78.66666666666654" style="visibility: inherit;" fill="rgb(0, 0, 0)" stroke="rgb(204, 204, 204)" stroke-width="1px"></line><line x1="51.5625" y1="58.99999999999985" x2="46.5625" y2="58.99999999999985" style="visibility: inherit;" fill="rgb(0, 0, 0)" stroke="rgb(204, 204, 204)" stroke-width="1px"></line><line x1="51.5625" y1="39.33333333333315" x2="46.5625" y2="39.33333333333315" style="visibility: inherit;" fill="rgb(0, 0, 0)" stroke="rgb(204, 204, 204)" stroke-width="1px"></line><line x1="51.5625" y1="19.666666666666696" x2="46.5625" y2="19.666666666666696" style="visibility: inherit;" fill="rgb(0, 0, 0)" stroke="rgb(204, 204, 204)" stroke-width="1px"></line><line x1="51.5625" y1="0" x2="46.5625" y2="0" style="visibility: inherit;" fill="rgb(0, 0, 0)" stroke="rgb(204, 204, 204)" stroke-width="1px"></line></g><g transform="translate(41.5625, 0)"><text x="0" y="177" dx="0em" dy="0.3em" style="text-anchor: end; visibility: hidden; font-family: Roboto, sans-serif; font-size: 12px; font-weight: 200;" fill="rgb(33, 33, 33)" stroke="none" stroke-width="1px">0.74</text><text x="0" y="157.33333333333331" dx="0em" dy="0.3em" style="text-anchor: end; visibility: inherit; font-family: Roboto, sans-serif; font-size: 12px; font-weight: 200;" fill="rgb(33, 33, 33)" stroke="none" stroke-width="1px">0.75</text><text x="0" y="137.6666666666666" dx="0em" dy="0.3em" style="text-anchor: end; visibility: hidden; font-family: Roboto, sans-serif; font-size: 12px; font-weight: 200;" fill="rgb(33, 33, 33)" stroke="none" stroke-width="1px">0.76</text><text x="0" y="117.99999999999993" dx="0em" dy="0.3em" style="text-anchor: end; visibility: inherit; font-family: Roboto, sans-serif; font-size: 12px; font-weight: 200;" fill="rgb(33, 33, 33)" stroke="none" stroke-width="1px">0.77</text><text x="0" y="98.33333333333324" dx="0em" dy="0.3em" style="text-anchor: end; visibility: hidden; font-family: Roboto, sans-serif; font-size: 12px; font-weight: 200;" fill="rgb(33, 33, 33)" stroke="none" stroke-width="1px">0.78</text><text x="0" y="78.66666666666654" dx="0em" dy="0.3em" style="text-anchor: end; visibility: inherit; font-family: Roboto, sans-serif; font-size: 12px; font-weight: 200;" fill="rgb(33, 33, 33)" stroke="none" stroke-width="1px">0.79</text><text x="0" y="58.99999999999985" dx="0em" dy="0.3em" style="text-anchor: end; visibility: hidden; font-family: Roboto, sans-serif; font-size: 12px; font-weight: 200;" fill="rgb(33, 33, 33)" stroke="none" stroke-width="1px">0.8</text><text x="0" y="39.33333333333315" dx="0em" dy="0.3em" style="text-anchor: end; visibility: inherit; font-family: Roboto, sans-serif; font-size: 12px; font-weight: 200;" fill="rgb(33, 33, 33)" stroke="none" stroke-width="1px">0.81</text><text x="0" y="19.666666666666696" dx="0em" dy="0.3em" style="text-anchor: end; visibility: hidden; font-family: Roboto, sans-serif; font-size: 12px; font-weight: 200;" fill="rgb(33, 33, 33)" stroke="none" stroke-width="1px">0.82</text><text x="0" y="0" dx="0em" dy="0.3em" style="text-anchor: end; visibility: hidden; font-family: Roboto, sans-serif; font-size: 12px; font-weight: 200;" fill="rgb(33, 33, 33)" stroke="none" stroke-width="1px">0.83</text></g><line x1="51.5625" y1="0" x2="51.5625" y2="177" fill="rgb(0, 0, 0)" stroke="rgb(204, 204, 204)" stroke-width="1px"></line></g></g><g transform="translate(51, 0)" clip-path="url(#clip_0)"><clipPath id="clip_0"><rect width="278" height="177"></rect></clipPath><g><g><g><line x1="0" y1="0" x2="0" y2="177" fill="rgb(0, 0, 0)" stroke="rgb(66, 66, 66)" stroke-width="1px" opacity="0.25"></line><line x1="23.203125" y1="0" x2="23.203125" y2="177" fill="rgb(0, 0, 0)" stroke="rgb(66, 66, 66)" stroke-width="1px" opacity="0.25"></line><line x1="46.40625" y1="0" x2="46.40625" y2="177" fill="rgb(0, 0, 0)" stroke="rgb(66, 66, 66)" stroke-width="1px" opacity="0.25"></line><line x1="69.609375" y1="0" x2="69.609375" y2="177" fill="rgb(0, 0, 0)" stroke="rgb(66, 66, 66)" stroke-width="1px" opacity="0.25"></line><line x1="92.8125" y1="0" x2="92.8125" y2="177" fill="rgb(0, 0, 0)" stroke="rgb(66, 66, 66)" stroke-width="1px" opacity="0.25"></line><line x1="116.015625" y1="0" x2="116.015625" y2="177" fill="rgb(0, 0, 0)" stroke="rgb(66, 66, 66)" stroke-width="1px" opacity="0.25"></line><line x1="139.21875" y1="0" x2="139.21875" y2="177" fill="rgb(0, 0, 0)" stroke="rgb(66, 66, 66)" stroke-width="1px" opacity="0.25"></line><line x1="162.421875" y1="0" x2="162.421875" y2="177" fill="rgb(0, 0, 0)" stroke="rgb(66, 66, 66)" stroke-width="1px" opacity="0.25"></line><line x1="185.625" y1="0" x2="185.625" y2="177" fill="rgb(0, 0, 0)" stroke="rgb(66, 66, 66)" stroke-width="1px" opacity="0.25"></line><line x1="208.828125" y1="0" x2="208.828125" y2="177" fill="rgb(0, 0, 0)" stroke="rgb(66, 66, 66)" stroke-width="1px" opacity="0.25"></line><line x1="232.03125" y1="0" x2="232.03125" y2="177" fill="rgb(0, 0, 0)" stroke="rgb(66, 66, 66)" stroke-width="1px" opacity="0.25"></line><line x1="255.234375" y1="0" x2="255.234375" y2="177" fill="rgb(0, 0, 0)" stroke="rgb(66, 66, 66)" stroke-width="1px" opacity="0.25"></line><line x1="278.4375" y1="0" x2="278.4375" y2="177" fill="rgb(0, 0, 0)" stroke="rgb(66, 66, 66)" stroke-width="1px" opacity="0.25"></line></g><g><line x1="0" y1="177" x2="278.4375" y2="177" fill="rgb(0, 0, 0)" stroke="rgb(66, 66, 66)" stroke-width="1px" opacity="0.25"></line><line x1="0" y1="157.33333333333331" x2="278.4375" y2="157.33333333333331" fill="rgb(0, 0, 0)" stroke="rgb(66, 66, 66)" stroke-width="1px" opacity="0.25"></line><line x1="0" y1="137.6666666666666" x2="278.4375" y2="137.6666666666666" fill="rgb(0, 0, 0)" stroke="rgb(66, 66, 66)" stroke-width="1px" opacity="0.25"></line><line x1="0" y1="117.99999999999993" x2="278.4375" y2="117.99999999999993" fill="rgb(0, 0, 0)" stroke="rgb(66, 66, 66)" stroke-width="1px" opacity="0.25"></line><line x1="0" y1="98.33333333333324" x2="278.4375" y2="98.33333333333324" fill="rgb(0, 0, 0)" stroke="rgb(66, 66, 66)" stroke-width="1px" opacity="0.25"></line><line x1="0" y1="78.66666666666654" x2="278.4375" y2="78.66666666666654" fill="rgb(0, 0, 0)" stroke="rgb(66, 66, 66)" stroke-width="1px" opacity="0.25"></line><line x1="0" y1="58.99999999999985" x2="278.4375" y2="58.99999999999985" fill="rgb(0, 0, 0)" stroke="rgb(66, 66, 66)" stroke-width="1px" opacity="0.25"></line><line x1="0" y1="39.33333333333315" x2="278.4375" y2="39.33333333333315" fill="rgb(0, 0, 0)" stroke="rgb(66, 66, 66)" stroke-width="1px" opacity="0.25"></line><line x1="0" y1="19.666666666666696" x2="278.4375" y2="19.666666666666696" fill="rgb(0, 0, 0)" stroke="rgb(66, 66, 66)" stroke-width="1px" opacity="0.25"></line><line x1="0" y1="0" x2="278.4375" y2="0" fill="rgb(0, 0, 0)" stroke="rgb(66, 66, 66)" stroke-width="1px" opacity="0.25"></line></g></g></g><g><g><line x1="0" y1="1632.3333333333337" x2="278.4375" y2="1632.3333333333337" fill="rgb(0, 0, 0)" stroke="rgb(153, 153, 153)" stroke-width="1.5px"></line></g></g><g><g><line x1="23.203125" y1="0" x2="23.203125" y2="177" fill="rgb(0, 0, 0)" stroke="rgb(153, 153, 153)" stroke-width="1.5px"></line></g></g><g><g><g><g><g><path stroke="rgb(255, 112, 67)" stroke-width="2px" d="M27.84375,184.84878535257462L29.00390625,172.751292362505L30.1640625,165.8644291061551L31.32421875,161.85780331983077L32.484375,159.49733570072007L33.64453125,158.096372113252L34.8046875,157.26123519972057L35.96484375000001,156.762096387187L37.125,156.46330937964896L38.28515625,156.284287122399L39.4453125,156.1769635954335L40.60546875,156.11260178399064L41.765625,156.07399631968389L42.92578125,156.0508372236788L44.0859375,156.03694327147076L45.24609375,156.0286074420162L46.40625,156.02360613940147L47.56640625,156.02060542804966L48.7265625,156.01880502651662L49.88671875,156.01772479469622L51.04687499999999,156.01707665887983L52.20703125,156.01668777856955L53.36718750000001,156.01645445080814L54.52734375,156.0163144543039L55.6875,156.0162304564564L56.84765625,156.01618005776777L58.0078125,156.01614981856176L59.16796875,156.01613167504058L60.328125,156.01612078892853L61.48828125,156.0161142572621L62.6484375,156.01611033826205L63.80859375,156.0161079868622L64.96875,156.0161065760222L66.12890625,156.01610572951833L67.2890625,156.01610522161602L68.44921875,156.01610491687438L69.609375,156.01610473402974L70.76953125,156.01610462432285L71.92968750000001,156.0161045584985L73.08984375,156.01610451900424L74.25,156.01610449530762L75.41015625,156.01610448108949L76.5703125,156.0161044725588L77.73046875,156.01610446744039L78.890625,156.01610446436916L80.05078125,156.01610446252636L81.2109375,156.01610446142087L82.37109375,156.01610446075776L83.53125,156.0161044603595L84.69140624999999,156.01610446012086L85.8515625,156.0161044599774L87.01171875,156.01610445989138L88.171875,156.01610445983985L89.33203125000001,156.01610445980884L90.4921875,156.01610445979026L91.65234375,156.01610445977914L92.8125,156.01610445977258L93.97265625,156.01610445976843L95.1328125,156.01610445976627L96.29296875,156.0161044597645L97.453125,156.01610445976365L98.61328125,156.016104459763L99.7734375,156.01610445976274L100.93359375,156.01610445976274L102.09374999999999,156.01610445976274L103.25390625,156.01610445976254L104.4140625,156.01610445976232L105.57421875,156.01610445976232L106.73437500000001,156.01610445976232L107.89453125,156.01610445976254L109.0546875,156.01610445976254L110.21484375,156.01610445976254L111.375,156.01610445976254L112.53515625,156.01610445976254L113.6953125,156.01610445976254L114.85546875,156.01610445976254L116.015625,156.01610445976254L117.17578125,156.01610445976254L118.3359375,156.01610445976254L119.49609374999999,156.01610445976254L120.65625,156.01610445976254L121.81640625,156.01610445976254L122.9765625,156.01610445976254L124.13671875000001,156.01610445976254L125.296875,156.01610445976254L126.45703125,156.01610445976254L127.6171875,156.01610445976254L128.77734375,156.01610445976254L129.9375,156.01610445976254L131.09765625,156.01610445976254L132.2578125,156.01610445976254L133.41796875,156.01610445976254L134.578125,156.01610445976254L135.73828125,156.01610445976254L136.8984375,156.01610445976254L138.05859375,156.01610445976254L139.21875,156.01610445976254L140.37890625,156.01610445976254L141.5390625,156.01610445976254L142.69921875,156.01610445976254L143.85937500000003,156.01610445976254L145.01953125,156.01610445976254L146.1796875,156.01610445976254L147.33984375,155.97127858797725L148.5,155.9443830649058L149.66015625,155.88341987927762L150.8203125,155.8019692071281L151.98046874999997,155.66344706026732L153.140625,155.44576237881992L154.30078125,155.3151515699515L155.4609375,155.14713334105934L156.62109375,154.86692513860785L157.78125,154.38492533666414L158.94140625,153.96120095115424L160.1015625,153.30339280681721L161.26171875000003,152.54996027896937L162.421875,151.82885175357325L163.58203125,150.9926131253047L164.7421875,149.63885016150886L165.90234375,148.15396986151296L167.0625,146.8145954077118L168.22265625,145.20382370936917L169.38281249999997,143.0266401512704L170.54296875,140.46473671654562L171.703125,138.03074899709046L172.86328125,135.85290797191368L174.0234375,133.78388220253092L175.18359375,131.60074832150846L176.34375,128.85592431689992L177.50390625,125.9983093750419L178.66406250000003,123.02814711006128L179.82421875,119.81110607507802L180.984375,116.31141327374971L182.14453125,112.68695528439962L183.3046875,109.43603756705286L184.46484375,105.82636701273519L185.625,102.22557411516274L186.78515624999997,98.5853288288389L187.9453125,94.69718897236217L189.10546875,91.6916825367579L190.265625,88.58791261475695L191.42578125,85.29070698556151L192.5859375,82.59493521454037L193.74609375,79.36313121081658L194.90625,76.03393100437286L196.06640625000003,72.82569034141345L197.2265625,70.13842478936157L198.38671875,67.62921979951007L199.546875,64.86810350573344L200.70703125,61.95588731858888L201.8671875,59.446236452025616L203.02734375,57.447173786498624L204.18749999999997,55.66476540903506L205.34765625,54.05722236518226L206.5078125,52.509772649710236L207.66796875,50.415408153119664L208.828125,48.261943796545076L209.98828125,46.34206853266747L211.1484375,44.06907457881871L212.30859375,42.12235431734946L213.46875000000003,39.653856099829596L214.62890625,37.85888228884475L215.7890625,36.378324489222855L216.94921875,34.951891792074946L218.109375,34.00633354122802L219.26953125,32.7663760690015L220.4296875,31.93270295310747L221.58984374999997,31.163450074883617L222.75,29.939577193672818L223.91015625,28.98103032804444L225.0703125,28.136853199980123L226.23046875,27.406123786239796L227.390625,26.78833576186628L228.55078125,26.238312571113124L229.7109375,25.594376887201122L230.87109375000003,25.028665100724876L232.03125,24.778936661397136L233.19140625,24.62909959780062L234.3515625,24.404672855299115L235.51171875,23.642220159865065L236.671875,23.408924790519336L237.83203125,22.865374055881084L238.99218749999997,23.032515760687318L240.15234375,22.729227270539877L241.3125,22.502428304666203L242.47265625,22.18695166002526L243.6328125,22.132190177584558L244.79296875,22.00968154454915L245.953125,21.667080467053363L247.11328125,21.55121845311425L248.27343750000003,21.705924381652366L249.43359375,21.170951288842385L250.59375,21.20871507440199L251.75390625,20.738101200148662L252.9140625,20.321208371252986L254.07421875,20.160771306473737" style="fill: none;" fill="none"></path></g></g></g></g><g opacity="0.2"><g><g><g><path stroke="rgb(255, 112, 67)" stroke-width="2px" d="M24.36328125,219.01942992210388L25.523437499999996,159.8277102311452L26.683593750000004,155.90403978029883L27.84375,156.01610445976254L29.00390625,156.01610445976254L30.1640625,156.01610445976254L31.32421875,156.01610445976254L32.484375,156.01610445976254L33.64453125,156.01610445976254L34.8046875,156.01610445976254L35.96484375000001,156.01610445976254L37.125,156.01610445976254L38.28515625,156.01610445976254L39.4453125,156.01610445976254L40.60546875,156.01610445976254L41.765625,156.01610445976254L42.92578125,156.01610445976254L44.0859375,156.01610445976254L45.24609375,156.01610445976254L46.40625,156.01610445976254L47.56640625,156.01610445976254L48.7265625,156.01610445976254L49.88671875,156.01610445976254L51.04687499999999,156.01610445976254L52.20703125,156.01610445976254L53.36718750000001,156.01610445976254L54.52734375,156.01610445976254L55.6875,156.01610445976254L56.84765625,156.01610445976254L58.0078125,156.01610445976254L59.16796875,156.01610445976254L60.328125,156.01610445976254L61.48828125,156.01610445976254L62.6484375,156.01610445976254L63.80859375,156.01610445976254L64.96875,156.01610445976254L66.12890625,156.01610445976254L67.2890625,156.01610445976254L68.44921875,156.01610445976254L69.609375,156.01610445976254L70.76953125,156.01610445976254L71.92968750000001,156.01610445976254L73.08984375,156.01610445976254L74.25,156.01610445976254L75.41015625,156.01610445976254L76.5703125,156.01610445976254L77.73046875,156.01610445976254L78.890625,156.01610445976254L80.05078125,156.01610445976254L81.2109375,156.01610445976254L82.37109375,156.01610445976254L83.53125,156.01610445976254L84.69140624999999,156.01610445976254L85.8515625,156.01610445976254L87.01171875,156.01610445976254L88.171875,156.01610445976254L89.33203125000001,156.01610445976254L90.4921875,156.01610445976254L91.65234375,156.01610445976254L92.8125,156.01610445976254L93.97265625,156.01610445976254L95.1328125,156.01610445976254L96.29296875,156.01610445976254L97.453125,156.01610445976254L98.61328125,156.01610445976254L99.7734375,156.01610445976254L100.93359375,156.01610445976254L102.09374999999999,156.01610445976254L103.25390625,156.01610445976254L104.4140625,156.01610445976254L105.57421875,156.01610445976254L106.73437500000001,156.01610445976254L107.89453125,156.01610445976254L109.0546875,156.01610445976254L110.21484375,156.01610445976254L111.375,156.01610445976254L112.53515625,156.01610445976254L113.6953125,156.01610445976254L114.85546875,156.01610445976254L116.015625,156.01610445976254L117.17578125,156.01610445976254L118.3359375,156.01610445976254L119.49609374999999,156.01610445976254L120.65625,156.01610445976254L121.81640625,156.01610445976254L122.9765625,156.01610445976254L124.13671875000001,156.01610445976254L125.296875,156.01610445976254L126.45703125,156.01610445976254L127.6171875,156.01610445976254L128.77734375,156.01610445976254L129.9375,156.01610445976254L131.09765625,156.01610445976254L132.2578125,156.01610445976254L133.41796875,156.01610445976254L134.578125,156.01610445976254L135.73828125,156.01610445976254L136.8984375,156.01610445976254L138.05859375,156.01610445976254L139.21875,156.01610445976254L140.37890625,156.01610445976254L141.5390625,156.01610445976254L142.69921875,156.01610445976254L143.85937500000003,156.01610445976254L145.01953125,156.01610445976254L146.1796875,156.01610445976254L147.33984375,155.90403978029883L148.5,155.90403978029883L149.66015625,155.79197510083515L150.8203125,155.67979319890335L151.98046874999997,155.45566383997595L153.140625,155.11923535664874L154.30078125,155.11923535664874L155.4609375,154.89510599772134L156.62109375,154.4466128349304L157.78125,153.66192563374835L158.94140625,153.32561437288916L160.1015625,152.31668059031168L161.26171875000003,151.41981148719785L162.421875,150.7471889654795L163.58203125,149.738255182902L164.7421875,147.60820571581522L165.90234375,145.92664941151935L167.0625,144.80553372701007L168.22265625,142.78766616185501L169.38281249999997,139.76086481412247L170.54296875,136.6218815644582L171.703125,134.3797674179077L172.86328125,132.58614643414813L174.0234375,130.6803435484568L175.18359375,128.32604749997452L176.34375,124.73868830998735L177.50390625,121.71188696225481L178.66406250000003,118.57290371259049L179.82421875,114.9855445226033L180.984375,111.06187407175696L182.14453125,107.2502683003743L183.3046875,104.55966099103289L184.46484375,100.41186118125911L185.625,96.82438476880388L186.78515624999997,93.12496089935298L187.9453125,88.86497918764745L189.10546875,87.1834228833516L190.265625,83.93225773175551L191.42578125,80.34489854176834L192.5859375,78.55127755800878L193.74609375,74.51542520523067L194.90625,71.04013069470717L196.06640625000003,68.01332934697463L197.2265625,66.10752646128331L198.38671875,63.86541231473282L199.546875,60.72642906506851L200.70703125,57.587563037872265L201.8671875,55.68176015218092L203.02734375,54.44857978820795L204.18749999999997,52.991152842839504L205.34765625,51.645907799402806L206.5078125,50.188598076502416L207.66796875,47.27386140823357L208.828125,45.03174726168308L209.98828125,43.46225563685093L211.1484375,40.65958364804579L212.30859375,39.20227392514539L213.46875000000003,35.95110877354933L214.62890625,35.166421572367284L215.7890625,34.15748778978976L216.94921875,32.812242746353085L218.109375,32.587996164957616L219.26953125,30.906439860661763L220.4296875,30.682193279266293L221.58984374999997,30.009570757547944L222.75,28.103767871856626L223.91015625,27.54321002960198L225.0703125,26.87058750788363L226.23046875,26.310029665629006L227.390625,25.86165372530613L228.55078125,25.413277784983254L229.7109375,24.628473361333135L230.87109375000003,24.18009742101026L232.03125,24.404344002405733L233.19140625,24.404344002405733L234.3515625,24.06803274154656L235.51171875,22.498541116714414L236.671875,23.05898173650099L237.83203125,22.050047953923468L238.99218749999997,23.283228317896462L240.15234375,22.27429453531894L241.3125,22.162229855855237L242.47265625,21.713736693064295L243.6328125,22.050047953923468L244.79296875,21.825918594996065L245.953125,21.15317885080967L247.11328125,21.377425432205122L248.27343750000003,21.937983274459768L249.43359375,20.36849164962762L250.59375,21.26536075274142L251.75390625,20.032180388768445L252.9140625,19.695869127909273L254.07421875,19.920115709304746" style="fill: none;" fill="none"></path></g></g></g></g></g></g><g transform="translate(51, 177)" clip-path="url(#clip_1)"><clipPath id="clip_1"><rect width="278" height="23"></rect></clipPath><g><g><line x1="0" y1="0" x2="0" y2="5" style="visibility: inherit;" fill="rgb(0, 0, 0)" stroke="rgb(204, 204, 204)" stroke-width="1px"></line><line x1="23.203125" y1="0" x2="23.203125" y2="5" style="visibility: inherit;" fill="rgb(0, 0, 0)" stroke="rgb(204, 204, 204)" stroke-width="1px"></line><line x1="46.40625" y1="0" x2="46.40625" y2="5" style="visibility: inherit;" fill="rgb(0, 0, 0)" stroke="rgb(204, 204, 204)" stroke-width="1px"></line><line x1="69.609375" y1="0" x2="69.609375" y2="5" style="visibility: inherit;" fill="rgb(0, 0, 0)" stroke="rgb(204, 204, 204)" stroke-width="1px"></line><line x1="92.8125" y1="0" x2="92.8125" y2="5" style="visibility: inherit;" fill="rgb(0, 0, 0)" stroke="rgb(204, 204, 204)" stroke-width="1px"></line><line x1="116.015625" y1="0" x2="116.015625" y2="5" style="visibility: inherit;" fill="rgb(0, 0, 0)" stroke="rgb(204, 204, 204)" stroke-width="1px"></line><line x1="139.21875" y1="0" x2="139.21875" y2="5" style="visibility: inherit;" fill="rgb(0, 0, 0)" stroke="rgb(204, 204, 204)" stroke-width="1px"></line><line x1="162.421875" y1="0" x2="162.421875" y2="5" style="visibility: inherit;" fill="rgb(0, 0, 0)" stroke="rgb(204, 204, 204)" stroke-width="1px"></line><line x1="185.625" y1="0" x2="185.625" y2="5" style="visibility: inherit;" fill="rgb(0, 0, 0)" stroke="rgb(204, 204, 204)" stroke-width="1px"></line><line x1="208.828125" y1="0" x2="208.828125" y2="5" style="visibility: inherit;" fill="rgb(0, 0, 0)" stroke="rgb(204, 204, 204)" stroke-width="1px"></line><line x1="232.03125" y1="0" x2="232.03125" y2="5" style="visibility: inherit;" fill="rgb(0, 0, 0)" stroke="rgb(204, 204, 204)" stroke-width="1px"></line><line x1="255.234375" y1="0" x2="255.234375" y2="5" style="visibility: inherit;" fill="rgb(0, 0, 0)" stroke="rgb(204, 204, 204)" stroke-width="1px"></line><line x1="278.4375" y1="0" x2="278.4375" y2="5" style="visibility: inherit;" fill="rgb(0, 0, 0)" stroke="rgb(204, 204, 204)" stroke-width="1px"></line></g><g transform="translate(0, 8)"><text x="0" y="0" dx="0em" dy="0.95em" style="text-anchor: middle; visibility: hidden; font-family: Roboto, sans-serif; font-size: 12px; font-weight: 200;" fill="rgb(33, 33, 33)" stroke="none" stroke-width="1px">-20</text><text x="23.203125" y="0" dx="0em" dy="0.95em" style="text-anchor: middle; visibility: inherit; font-family: Roboto, sans-serif; font-size: 12px; font-weight: 200;" fill="rgb(33, 33, 33)" stroke="none" stroke-width="1px">0</text><text x="46.40625" y="0" dx="0em" dy="0.95em" style="text-anchor: middle; visibility: hidden; font-family: Roboto, sans-serif; font-size: 12px; font-weight: 200;" fill="rgb(33, 33, 33)" stroke="none" stroke-width="1px">20</text><text x="69.609375" y="0" dx="0em" dy="0.95em" style="text-anchor: middle; visibility: inherit; font-family: Roboto, sans-serif; font-size: 12px; font-weight: 200;" fill="rgb(33, 33, 33)" stroke="none" stroke-width="1px">40</text><text x="92.8125" y="0" dx="0em" dy="0.95em" style="text-anchor: middle; visibility: hidden; font-family: Roboto, sans-serif; font-size: 12px; font-weight: 200;" fill="rgb(33, 33, 33)" stroke="none" stroke-width="1px">60</text><text x="116.015625" y="0" dx="0em" dy="0.95em" style="text-anchor: middle; visibility: inherit; font-family: Roboto, sans-serif; font-size: 12px; font-weight: 200;" fill="rgb(33, 33, 33)" stroke="none" stroke-width="1px">80</text><text x="139.21875" y="0" dx="0em" dy="0.95em" style="text-anchor: middle; visibility: hidden; font-family: Roboto, sans-serif; font-size: 12px; font-weight: 200;" fill="rgb(33, 33, 33)" stroke="none" stroke-width="1px">100</text><text x="162.421875" y="0" dx="0em" dy="0.95em" style="text-anchor: middle; visibility: inherit; font-family: Roboto, sans-serif; font-size: 12px; font-weight: 200;" fill="rgb(33, 33, 33)" stroke="none" stroke-width="1px">120</text><text x="185.625" y="0" dx="0em" dy="0.95em" style="text-anchor: middle; visibility: hidden; font-family: Roboto, sans-serif; font-size: 12px; font-weight: 200;" fill="rgb(33, 33, 33)" stroke="none" stroke-width="1px">140</text><text x="208.828125" y="0" dx="0em" dy="0.95em" style="text-anchor: middle; visibility: inherit; font-family: Roboto, sans-serif; font-size: 12px; font-weight: 200;" fill="rgb(33, 33, 33)" stroke="none" stroke-width="1px">160</text><text x="232.03125" y="0" dx="0em" dy="0.95em" style="text-anchor: middle; visibility: hidden; font-family: Roboto, sans-serif; font-size: 12px; font-weight: 200;" fill="rgb(33, 33, 33)" stroke="none" stroke-width="1px">180</text><text x="255.234375" y="0" dx="0em" dy="0.95em" style="text-anchor: middle; visibility: inherit; font-family: Roboto, sans-serif; font-size: 12px; font-weight: 200;" fill="rgb(33, 33, 33)" stroke="none" stroke-width="1px">200</text><text x="278.4375" y="0" dx="0em" dy="0.95em" style="text-anchor: middle; visibility: hidden; font-family: Roboto, sans-serif; font-size: 12px; font-weight: 200;" fill="rgb(33, 33, 33)" stroke="none" stroke-width="1px">220</text></g><line x1="0" y1="0" x2="278.4375" y2="0" fill="rgb(0, 0, 0)" stroke="rgb(204, 204, 204)" stroke-width="1px"></line></g></g></g></g></svg>