<svg viewBox="0 0 330 200" xmlns="http://www.w3.org/2000/svg"><g><g><g><g><g><line x1="51.5625" y1="177" x2="46.5625" y2="177" style="visibility: inherit;" fill="rgb(0, 0, 0)" stroke="rgb(204, 204, 204)" stroke-width="1px"></line><line x1="51.5625" y1="159.29999999999998" x2="46.5625" y2="159.29999999999998" style="visibility: inherit;" fill="rgb(0, 0, 0)" stroke="rgb(204, 204, 204)" stroke-width="1px"></line><line x1="51.5625" y1="141.59999999999997" x2="46.5625" y2="141.59999999999997" style="visibility: inherit;" fill="rgb(0, 0, 0)" stroke="rgb(204, 204, 204)" stroke-width="1px"></line><line x1="51.5625" y1="123.89999999999995" x2="46.5625" y2="123.89999999999995" style="visibility: inherit;" fill="rgb(0, 0, 0)" stroke="rgb(204, 204, 204)" stroke-width="1px"></line><line x1="51.5625" y1="106.19999999999992" x2="46.5625" y2="106.19999999999992" style="visibility: inherit;" fill="rgb(0, 0, 0)" stroke="rgb(204, 204, 204)" stroke-width="1px"></line><line x1="51.5625" y1="88.4999999999999" x2="46.5625" y2="88.4999999999999" style="visibility: inherit;" fill="rgb(0, 0, 0)" stroke="rgb(204, 204, 204)" stroke-width="1px"></line><line x1="51.5625" y1="70.79999999999988" x2="46.5625" y2="70.79999999999988" style="visibility: inherit;" fill="rgb(0, 0, 0)" stroke="rgb(204, 204, 204)" stroke-width="1px"></line><line x1="51.5625" y1="53.09999999999987" x2="46.5625" y2="53.09999999999987" style="visibility: inherit;" fill="rgb(0, 0, 0)" stroke="rgb(204, 204, 204)" stroke-width="1px"></line><line x1="51.5625" y1="35.400000000000034" x2="46.5625" y2="35.400000000000034" style="visibility: inherit;" fill="rgb(0, 0, 0)" stroke="rgb(204, 204, 204)" stroke-width="1px"></line><line x1="51.5625" y1="17.700000000000017" x2="46.5625" y2="17.700000000000017" style="visibility: inherit;" fill="rgb(0, 0, 0)" stroke="rgb(204, 204, 204)" stroke-width="1px"></line><line x1="51.5625" y1="0" x2="46.5625" y2="0" style="visibility: inherit;" fill="rgb(0, 0, 0)" stroke="rgb(204, 204, 204)" stroke-width="1px"></line></g><g transform="translate(41.5625, 0)"><text x="0" y="177" dx="0em" dy="0.3em" style="text-anchor: end; visibility: hidden; font-family: Roboto, sans-serif; font-size: 12px; font-weight: 200;" fill="rgb(33, 33, 33)" stroke="none" stroke-width="1px">0.74</text><text x="0" y="159.29999999999998" dx="0em" dy="0.3em" style="text-anchor: end; visibility: inherit; font-family: Roboto, sans-serif; font-size: 12px; font-weight: 200;" fill="rgb(33, 33, 33)" stroke="none" stroke-width="1px">0.75</text><text x="0" y="141.59999999999997" dx="0em" dy="0.3em" style="text-anchor: end; visibility: hidden; font-family: Roboto, sans-serif; font-size: 12px; font-weight: 200;" fill="rgb(33, 33, 33)" stroke="none" stroke-width="1px">0.76</text><text x="0" y="123.89999999999995" dx="0em" dy="0.3em" style="text-anchor: end; visibility: inherit; font-family: Roboto, sans-serif; font-size: 12px; font-weight: 200;" fill="rgb(33, 33, 33)" stroke="none" stroke-width="1px">0.77</text><text x="0" y="106.19999999999992" dx="0em" dy="0.3em" style="text-anchor: end; visibility: hidden; font-family: Roboto, sans-serif; font-size: 12px; font-weight: 200;" fill="rgb(33, 33, 33)" stroke="none" stroke-width="1px">0.78</text><text x="0" y="88.4999999999999" dx="0em" dy="0.3em" style="text-anchor: end; visibility: inherit; font-family: Roboto, sans-serif; font-size: 12px; font-weight: 200;" fill="rgb(33, 33, 33)" stroke="none" stroke-width="1px">0.79</text><text x="0" y="70.79999999999988" dx="0em" dy="0.3em" style="text-anchor: end; visibility: hidden; font-family: Roboto, sans-serif; font-size: 12px; font-weight: 200;" fill="rgb(33, 33, 33)" stroke="none" stroke-width="1px">0.8</text><text x="0" y="53.09999999999987" dx="0em" dy="0.3em" style="text-anchor: end; visibility: inherit; font-family: Roboto, sans-serif; font-size: 12px; font-weight: 200;" fill="rgb(33, 33, 33)" stroke="none" stroke-width="1px">0.81</text><text x="0" y="35.400000000000034" dx="0em" dy="0.3em" style="text-anchor: end; visibility: hidden; font-family: Roboto, sans-serif; font-size: 12px; font-weight: 200;" fill="rgb(33, 33, 33)" stroke="none" stroke-width="1px">0.82</text><text x="0" y="17.700000000000017" dx="0em" dy="0.3em" style="text-anchor: end; visibility: inherit; font-family: Roboto, sans-serif; font-size: 12px; font-weight: 200;" fill="rgb(33, 33, 33)" stroke="none" stroke-width="1px">0.83</text><text x="0" y="0" dx="0em" dy="0.3em" style="text-anchor: end; visibility: hidden; font-family: Roboto, sans-serif; font-size: 12px; font-weight: 200;" fill="rgb(33, 33, 33)" stroke="none" stroke-width="1px">0.84</text></g><line x1="51.5625" y1="0" x2="51.5625" y2="177" fill="rgb(0, 0, 0)" stroke="rgb(204, 204, 204)" stroke-width="1px"></line></g></g><g transform="translate(51, 0)" clip-path="url(#clip_0)"><clipPath id="clip_0"><rect width="278" height="177"></rect></clipPath><g><g><g><line x1="0" y1="0" x2="0" y2="177" fill="rgb(0, 0, 0)" stroke="rgb(66, 66, 66)" stroke-width="1px" opacity="0.25"></line><line x1="34.8046875" y1="0" x2="34.8046875" y2="177" fill="rgb(0, 0, 0)" stroke="rgb(66, 66, 66)" stroke-width="1px" opacity="0.25"></line><line x1="69.609375" y1="0" x2="69.609375" y2="177" fill="rgb(0, 0, 0)" stroke="rgb(66, 66, 66)" stroke-width="1px" opacity="0.25"></line><line x1="104.4140625" y1="0" x2="104.4140625" y2="177" fill="rgb(0, 0, 0)" stroke="rgb(66, 66, 66)" stroke-width="1px" opacity="0.25"></line><line x1="139.21875" y1="0" x2="139.21875" y2="177" fill="rgb(0, 0, 0)" stroke="rgb(66, 66, 66)" stroke-width="1px" opacity="0.25"></line><line x1="174.0234375" y1="0" x2="174.0234375" y2="177" fill="rgb(0, 0, 0)" stroke="rgb(66, 66, 66)" stroke-width="1px" opacity="0.25"></line><line x1="208.828125" y1="0" x2="208.828125" y2="177" fill="rgb(0, 0, 0)" stroke="rgb(66, 66, 66)" stroke-width="1px" opacity="0.25"></line><line x1="243.6328125" y1="0" x2="243.6328125" y2="177" fill="rgb(0, 0, 0)" stroke="rgb(66, 66, 66)" stroke-width="1px" opacity="0.25"></line><line x1="278.4375" y1="0" x2="278.4375" y2="177" fill="rgb(0, 0, 0)" stroke="rgb(66, 66, 66)" stroke-width="1px" opacity="0.25"></line></g><g><line x1="0" y1="177" x2="278.4375" y2="177" fill="rgb(0, 0, 0)" stroke="rgb(66, 66, 66)" stroke-width="1px" opacity="0.25"></line><line x1="0" y1="159.29999999999998" x2="278.4375" y2="159.29999999999998" fill="rgb(0, 0, 0)" stroke="rgb(66, 66, 66)" stroke-width="1px" opacity="0.25"></line><line x1="0" y1="141.59999999999997" x2="278.4375" y2="141.59999999999997" fill="rgb(0, 0, 0)" stroke="rgb(66, 66, 66)" stroke-width="1px" opacity="0.25"></line><line x1="0" y1="123.89999999999995" x2="278.4375" y2="123.89999999999995" fill="rgb(0, 0, 0)" stroke="rgb(66, 66, 66)" stroke-width="1px" opacity="0.25"></line><line x1="0" y1="106.19999999999992" x2="278.4375" y2="106.19999999999992" fill="rgb(0, 0, 0)" stroke="rgb(66, 66, 66)" stroke-width="1px" opacity="0.25"></line><line x1="0" y1="88.4999999999999" x2="278.4375" y2="88.4999999999999" fill="rgb(0, 0, 0)" stroke="rgb(66, 66, 66)" stroke-width="1px" opacity="0.25"></line><line x1="0" y1="70.79999999999988" x2="278.4375" y2="70.79999999999988" fill="rgb(0, 0, 0)" stroke="rgb(66, 66, 66)" stroke-width="1px" opacity="0.25"></line><line x1="0" y1="53.09999999999987" x2="278.4375" y2="53.09999999999987" fill="rgb(0, 0, 0)" stroke="rgb(66, 66, 66)" stroke-width="1px" opacity="0.25"></line><line x1="0" y1="35.400000000000034" x2="278.4375" y2="35.400000000000034" fill="rgb(0, 0, 0)" stroke="rgb(66, 66, 66)" stroke-width="1px" opacity="0.25"></line><line x1="0" y1="17.700000000000017" x2="278.4375" y2="17.700000000000017" fill="rgb(0, 0, 0)" stroke="rgb(66, 66, 66)" stroke-width="1px" opacity="0.25"></line><line x1="0" y1="0" x2="278.4375" y2="0" fill="rgb(0, 0, 0)" stroke="rgb(66, 66, 66)" stroke-width="1px" opacity="0.25"></line></g></g></g><g><g><line x1="0" y1="1486.8000000000004" x2="278.4375" y2="1486.8000000000004" fill="rgb(0, 0, 0)" stroke="rgb(153, 153, 153)" stroke-width="1.5px"></line></g></g><g><g><line x1="34.8046875" y1="0" x2="34.8046875" y2="177" fill="rgb(0, 0, 0)" stroke="rgb(153, 153, 153)" stroke-width="1.5px"></line></g></g><g><g><g><g><g><path stroke="rgb(255, 112, 67)" stroke-width="2px" d="M43.1578125,179.14645034973805L43.85390625,170.6463201901967L44.550000000000004,165.5908694379918L45.24609375,162.5994753631634L45.9421875,160.80517910899619L46.638281250000006,159.72879575346522L47.334375,159.08303570757639L48.03046875,158.69560486497474L48.7265625,158.46315542526753L49.422656249999996,158.32368902499425L50.11875,158.24001035967552L50.81484375,158.18980358342088L51.5109375,158.1596796699238L52.20703125,158.1416053766374L52.903125,158.13076082039734L53.59921875,158.1242540937573L54.2953125,158.1203500603306L54.991406250000004,158.11800764119494L55.6875,158.116602190045L56.38359375,158.11575891947453L57.0796875,158.11525295717487L57.775781249999994,158.11494937981075L58.471875,158.11476723339769L59.16796875,158.11465794555198L59.864062499999996,158.11459237284535L60.56015625,158.1145530292215L61.25625,158.11452942304737L61.952343750000004,158.1145152593428L62.6484375,158.11450676112017L63.34453125,158.11450166218643L64.040625,158.1144986028263L64.73671875000001,158.11449676721045L65.4328125,158.11449566584088L66.12890625,158.1144950050188L66.825,158.11449460852577L67.52109374999999,158.11449437063L68.2171875,158.1144942278924L68.91328125,158.11449414224984L69.609375,158.11449409086458L70.30546875,158.11449406003322L71.0015625,158.1144940415344L71.69765625000001,158.11449403043517L72.39375,158.11449402377565L73.08984375,158.11449401977984L73.7859375,158.1144940173824L74.48203125,158.11449401594396L75.17812500000001,158.1144940150807L75.87421875000001,158.07415072995613L76.5703125,157.96921598957906L77.26640625,157.8255685761389L77.9625,157.69899464337925L78.65859375,157.5827069991165L79.3546875,157.4322056432565L80.05078125,157.2208327758312L80.74687499999999,156.89220823216445L81.44296874999999,156.49327488284118L82.1390625,155.89065651143082L82.83515625,155.16586932685667L83.53125,154.40816633907951L84.22734375,153.38852756147386L84.92343749999999,152.17134182527536L85.61953125,150.83567011401001L86.315625,149.46925010231087L87.01171875,147.64047837941035L87.7078125,145.45352466039768L88.40390625,142.9306318898971L89.10000000000001,140.2061334884151L89.79609375,136.99749774670514L90.4921875,134.34588397822324L91.18828125,130.9387927084062L91.884375,127.68377520733432L92.58046875000001,124.43931539829576L93.27656250000001,120.91870281205183L93.97265625,117.59557252112387L94.66875,114.39097380747404L95.36484375,111.05569321697938L96.0609375,107.60161801568252L96.75703125,103.55163454766007L97.453125,99.5880510506327L98.14921874999999,95.63592205150692L98.84531249999999,91.60997918190809L99.54140625,87.86257866705809L100.2375,85.00877808860157L100.93359375,81.88397637922294L101.6296875,78.83871809910953L102.32578124999999,76.08332998437419L103.021875,73.46152068425845L103.71796875,71.48483345776575L104.4140625,69.37058797520261L105.11015625,66.93166343117876L105.80625,65.42796542015752L106.50234375000001,63.678200036091155L107.1984375,62.10370930540712L107.89453125,60.83614198987573L108.590625,59.02629639998011L109.28671875,56.93142713007281L109.98281250000001,55.95703516064259L110.67890625000001,54.444166832316895L111.375,52.56782720395853L112.07109375,50.87704864209251L112.7671875,49.94326807418669L113.46328125,48.696910694594436L114.159375,47.50515133580873L114.85546875,46.346192989595615L115.55156249999999,45.81223332038406L116.24765624999999,45.24971341103833L116.94375,44.50859981900755L117.63984375,44.18500371769848L118.3359375,43.829430718396814L119.03203125,43.41428609560418L119.72812499999999,43.205584806624124L120.42421875,42.878563210024254L121.1203125,42.72269353667123L121.81640625,42.548485163445704L122.5125,42.00001520847996L123.20859375,41.711276520107525L123.90468750000001,40.85194426823531L124.60078125,40.538145740323486L125.296875,40.228794569667095L125.99296875,40.04318386727318L126.6890625,39.81074539192768L127.38515625000001,39.38875271420611L128.08125,39.458429984694455L128.77734375,39.21774895456177L129.47343750000002,39.113683621089166L130.16953125,38.849443597793936L130.865625,38.85235712242142L131.56171874999998,38.49088907547016L132.2578125,38.47576687042253L132.95390625,38.426350262786904L133.65,38.39670029820553L134.34609375,37.93496538842655L135.04218749999998,37.94045403507304L135.73828125,38.02443379227496L136.434375,37.95374959268669L137.13046875,37.70958044981048L137.8265625,37.522693479389524L138.52265625,37.289489243227486L139.21875,37.068837932228014L139.91484375,36.97683263032376L140.6109375,36.88124396448582L141.30703125,36.70281871107371L142.003125,36.353619451207685L142.69921875,36.1844853799837L143.39531250000002,35.96193288333993L144.09140624999998,35.82840138535359L144.7875,35.586824947957126L145.48359374999998,35.56295113942851L146.1796875,35.4275548004022L146.87578125,35.02344411986532L147.571875,34.6195623730268L148.26796875,34.49830537883315L148.9640625,34.3044791284075L149.66015625,34.14784009354549L150.35625000000002,33.8117125648096L151.05234375,33.69072261678193L151.74843750000002,33.69885741726767L152.44453124999998,33.542322959042785L153.140625,33.488745568714876L153.83671875,33.37587036521584L154.5328125,33.1467299046001L155.22890625,33.170660966746816L155.925,33.023604265518806L156.62109375,33.05644229869107L157.3171875,32.99541634929209L158.01328125,32.67631338722725L158.709375,32.60592366389745L159.40546875,32.52330434520425L160.1015625,32.35266070007919L160.79765625000002,32.12920245909469L161.49374999999998,32.03551299919955L162.18984375,31.817841784657528L162.88593749999998,31.646895771325344L163.58203125,31.665400217235494L164.278125,31.515087546265267L164.97421875,31.061683781955384L165.6703125,31.07212891579499L166.36640625,30.957323942189415L167.0625,30.68664013481428L167.75859375000002,30.847102727510368L168.4546875,30.70123617530914L169.15078125000002,30.41191542077697L169.84687499999998,30.399780506662406L170.54296875,30.231042019588852L171.2390625,30.049070158042273L171.93515625,30.020615810416693L172.63125,30.04388648644828L173.32734375,29.93677683815785L174.0234375,29.87251104918371L174.71953125,29.470735414071402L175.415625,29.391127571608635L176.11171875,29.343362866131052L176.8078125,29.112903219632756L177.50390625,28.893898662431525L178.20000000000002,28.923953466715602L178.89609374999998,28.69984224146725L179.5921875,28.888206183350864L180.28828124999998,28.638008386752972L180.984375,28.487889708794317L181.68046875,28.19601767880749L182.3765625,28.020894460815317L183.07265625,27.79474847611075L183.76875,27.780132939197312L184.46484375,27.529219509230487L185.16093750000002,27.58047227446222L185.85703125,27.28835105648037L186.55312500000002,26.870934217872612L187.24921874999998,26.98370027643571L187.9453125,26.728529234541057L188.64140625,26.535041124708947L189.3375,26.338261689595893L190.03359375,25.89732115140705L190.7296875,25.794172167009823L191.42578125,25.530481953159935L192.121875,25.37226782485016L192.81796875,25.115924009348017L193.5140625,24.80070238153034L194.21015625,24.16762447380958L194.90625,24.27206594481425L195.60234375000002,24.01185795029616L196.29843749999998,23.613589045766624L196.99453125,23.293898933746416L197.69062499999998,23.061741581927595L198.38671875,22.761031832319908L199.0828125,22.701678036464756L199.77890625,22.50460822034677L200.475,22.386366330676136L201.17109375,22.15400585835752L201.8671875,21.853174236450116L202.56328125000002,21.672675263305674L203.259375,21.56437587941885L203.95546875000002,21.337938710482177L204.65156249999998,21.28280517842262L205.34765625,21.088267520581994L206.04375,20.850472871968314L206.73984375,20.828868136709488L207.4359375,20.37200256461234L208.13203125,20.057497736658775L208.828125,19.828451555279464L209.52421875,19.892824669663707L210.2203125,19.648918945780213L210.91640625,19.341160172933648L211.6125,18.99504737062113L212.30859375,19.069909281747695L213.00468750000002,18.630538212786348L213.70078124999998,18.851203787046828L214.396875,18.499314915965748L215.09296874999998,18.207452824014695L215.7890625,18.274479676662864L216.48515625,18.032208395826306L217.18125,17.927188911931186L217.87734375,17.70276188307788L218.5734375,17.81024977358446L219.26953125,17.228996753646385L219.96562500000002,17.08204576489541L220.66171875,17.034218456251754L221.35781250000002,16.521233855428196L222.05390624999998,16.657388025964377L222.75,16.456550935772047L223.44609375,15.972832519928822L224.1421875,16.04581763215071L224.83828125,15.80712130705839L225.534375,15.462102688791287L226.23046875,15.255091517830945L226.9265625,15.050198246040834L227.62265625,14.604389405845836L228.31875,14.1754465631241L229.01484375,14.119881680702807L229.7109375,13.844398643431349L230.40703125000002,13.477307997856883L231.10312499999998,13.378125664421583L231.79921875,13.359001749055917L232.49531249999998,12.580709591685194L233.19140625,12.234806351172061L233.8875,12.148336460773328L234.58359375,12.17718329583669L235.2796875,11.629474411934819L235.97578125,11.421921135503311L236.671875,10.853444238614054L237.36796875000002,10.59308686978287L238.0640625,10.073656286756057L238.76015625000002,10.00414204475873L239.45624999999998,9.357073230013786L240.15234375,9.372391387501578L240.8484375,9.058709404873284L241.54453125,8.70908487678003L242.240625,8.418581390621947L242.93671875,8.284664783622414" style="fill: none;" fill="none"></path></g></g></g></g><g opacity="0.2"><g><g><g><path stroke="rgb(255, 112, 67)" stroke-width="2px" d="M39.67734375,202.7100705385208L40.373437499999994,161.1414008617401L41.06953125,154.98672895431517L41.765625,155.99573307037352L42.461718749999996,156.80291526317595L43.1578125,157.40827553272246L43.85390625,157.91277759075163L44.550000000000004,158.01363580226896L45.24609375,158.1144940137863L45.9421875,158.1144940137863L46.638281250000006,158.1144940137863L47.334375,158.1144940137863L48.03046875,158.1144940137863L48.7265625,158.1144940137863L49.422656249999996,158.1144940137863L50.11875,158.1144940137863L50.81484375,158.1144940137863L51.5109375,158.1144940137863L52.20703125,158.1144940137863L52.903125,158.1144940137863L53.59921875,158.1144940137863L54.2953125,158.1144940137863L54.991406250000004,158.1144940137863L55.6875,158.1144940137863L56.38359375,158.1144940137863L57.0796875,158.1144940137863L57.775781249999994,158.1144940137863L58.471875,158.1144940137863L59.16796875,158.1144940137863L59.864062499999996,158.1144940137863L60.56015625,158.1144940137863L61.25625,158.1144940137863L61.952343750000004,158.1144940137863L62.6484375,158.1144940137863L63.34453125,158.1144940137863L64.040625,158.1144940137863L64.73671875000001,158.1144940137863L65.4328125,158.1144940137863L66.12890625,158.1144940137863L66.825,158.1144940137863L67.52109374999999,158.1144940137863L68.2171875,158.1144940137863L68.91328125,158.1144940137863L69.609375,158.1144940137863L70.30546875,158.1144940137863L71.0015625,158.1144940137863L71.69765625000001,158.1144940137863L72.39375,158.1144940137863L73.08984375,158.1144940137863L73.7859375,158.1144940137863L74.48203125,158.1144940137863L75.17812500000001,158.1144940137863L75.87421875000001,158.01363580226896L76.5703125,157.81181387901304L77.26640625,157.61009745597838L77.9625,157.5091337442398L78.65859375,157.40827553272246L79.3546875,157.20645360946654L80.05078125,156.90377347469328L80.74687499999999,156.3992714166641L81.44296874999999,155.89487485885618L82.1390625,154.98672895431517L82.83515625,154.0786885499954L83.53125,153.27161185741423L84.22734375,151.8590693950653L84.92343749999999,150.34556322097777L85.61953125,148.8321625471115L86.315625,147.41962008476256L87.01171875,144.8973207950592L87.7078125,142.17309408187865L88.40390625,139.1462927341461L89.10000000000001,136.1193858861923L89.79609375,132.18454413414L90.4921875,130.36846332550047L91.18828125,125.8281558036804L91.884375,122.8012489557266L92.58046875000001,119.57262568473814L93.27656250000001,115.63778393268583L93.97265625,112.61087708473204L94.66875,109.58407573699948L95.36484375,106.05277233123776L96.0609375,102.42050521373746L96.75703125,97.4766593456268L97.453125,93.64267580509183L98.14921874999999,89.70772855281827L98.84531249999999,85.57106487751004L99.54140625,82.24147789478299L100.2375,80.72807722091672L100.93359375,77.196773815155L101.6296875,74.27083067893979L102.32578124999999,71.95024781227109L103.021875,69.52880673408505L103.71796875,68.5198026180267L104.4140625,66.199219751358L105.11015625,63.273276615142784L105.80625,63.17241840362545L106.50234375000001,61.05355195999142L107.1984375,59.741973209381065L107.89453125,58.934791016578636L108.590625,56.31152801513668L109.28671875,53.78912322521206L109.98281250000001,54.495447206497154L110.67890625000001,52.17486433982845L111.375,49.753317761421165L112.07109375,48.34088079929348L112.7671875,48.54259722232815L113.46328125,46.827374625205955L114.159375,45.71751229763027L114.85546875,44.60775547027584L115.55156249999999,45.01129381656643L116.24765624999999,44.40593354701992L116.94375,43.396929430961556L117.63984375,43.69960956573481L118.3359375,43.29607121944422L119.03203125,42.79156916141505L119.72812499999999,42.892532873153634L120.42421875,42.38803081512446L121.1203125,42.48888902664179L121.81640625,42.287172603607125L122.5125,41.17731027603144L123.20859375,41.278168487548776L123.90468750000001,39.56294589042658L124.60078125,40.06744794845576L125.296875,39.764767813682504L125.99296875,39.764767813682504L126.6890625,39.46208767890925L127.38515625000001,38.755763697624154L128.08125,39.56294589042658L128.77734375,38.85672740936274L129.47343750000002,38.957585620880074L130.16953125,38.4530835628509L130.865625,38.85672740936274L131.56171874999998,37.94868700504298L132.2578125,38.4530835628509L132.95390625,38.352225351333566L133.65,38.352225351333566L134.34609375,37.24236302375788L135.04218749999998,37.94868700504298L135.73828125,38.150403428077645L136.434375,37.84772329330439L137.13046875,37.34332673549647L137.8265625,37.24236302375788L138.52265625,36.93968288898463L139.21875,36.73786096572871L139.91484375,36.838824677467294L140.6109375,36.73786096572871L141.30703125,36.43518083095545L142.003125,35.829820561408944L142.69921875,35.93078427314753L143.39531250000002,35.628104138374276L144.09140624999998,35.628104138374276L144.7875,35.224460291862435L145.48359374999998,35.52714042663569L146.1796875,35.224460291862435L146.87578125,34.417278099060006L147.571875,34.01373975276942L148.26796875,34.31641988754267L148.9640625,34.01373975276942L149.66015625,33.912881541252084L150.35625000000002,33.307521271705575L151.05234375,33.50923769474024L151.74843750000002,33.71105961799616L152.44453124999998,33.307521271705575L153.140625,33.40837948322291L153.83671875,33.20655755996699L154.5328125,32.8030192136764L155.22890625,33.20655755996699L155.925,32.8030192136764L156.62109375,33.105699348449654L157.3171875,32.903877425193734L158.01328125,32.19765894412989L158.709375,32.500339078903146L159.40546875,32.39937536716456L160.1015625,32.096695232391305L160.79765625000002,31.794015097618047L161.49374999999998,31.894978809356633L162.18984375,31.491334962844792L162.88593749999998,31.39047675132746L163.58203125,31.693156886100713L164.278125,31.289618539810125L164.97421875,30.38157813549036L165.6703125,31.087796616554204L166.36640625,30.78511648178095L167.0625,30.280614423751775L167.75859375000002,31.087796616554204L168.4546875,30.482436347007695L169.15078125000002,29.97793428897852L169.84687499999998,30.38157813549036L170.54296875,29.97793428897852L171.2390625,29.7761123657226L171.93515625,29.97793428897852L172.63125,30.078792500495855L173.32734375,29.7761123657226L174.0234375,29.7761123657226L174.71953125,28.868071961402837L175.415625,29.271715807914678L176.11171875,29.271715807914678L176.8078125,28.767213749885503L177.50390625,28.565391826629583L178.20000000000002,28.969035673141423L178.89609374999998,28.363675403594915L179.5921875,29.17075209617609L180.28828124999998,28.262711691856328L180.984375,28.262711691856328L181.68046875,27.758209633827153L182.3765625,27.758209633827153L183.07265625,27.4555294990539L183.76875,27.758209633827153L184.46484375,27.152849364280645L185.16093750000002,27.65735142230982L185.85703125,26.85016922950739L186.55312500000002,26.24480895996088L187.24921874999998,27.152849364280645L187.9453125,26.345772671699468L188.64140625,26.24480895996088L189.3375,26.043092536926213L190.03359375,25.235910344123784L190.7296875,25.639448690414373L191.42578125,25.134946632385198L192.121875,25.134946632385198L192.81796875,24.73140828609461L193.5140625,24.32786993980402L194.21015625,23.218007612228337L194.90625,24.428728151321355L195.60234375000002,23.621545958518926L196.29843749999998,23.016185688972417L196.99453125,22.814363765716497L197.69062499999998,22.713505554199163L198.38671875,22.309967207908574L199.0828125,22.61264734268183L199.77890625,22.209003496169988L200.475,22.209003496169988L201.17109375,21.8054651498794L201.8671875,21.40192680358881L202.56328125000002,21.40192680358881L203.259375,21.40192680358881L203.95546875000002,20.99828295707697L204.65156249999998,21.20010488033289L205.34765625,20.79646103382105L206.04375,20.493780899047795L206.73984375,20.79646103382105L207.4359375,19.68670420646662L208.13203125,19.585740494728032L208.828125,19.4848822832107L209.52421875,19.989384341239873L210.2203125,19.283060359954778L210.91640625,18.87952201366419L211.6125,18.47587816715235L212.30859375,19.182202148437444L213.00468750000002,17.971481609344426L213.70078124999998,19.182202148437444L214.396875,17.971481609344426L215.09296874999998,17.769659686088506L215.7890625,18.375019955635015L216.48515625,17.668801474571172L217.18125,17.769659686088506L217.87734375,17.366121339797917L218.5734375,17.971481609344426L219.26953125,16.357117223739568L219.96562500000002,16.861619281768743L220.66171875,16.962477493286077L221.35781250000002,15.75175695419306L222.05390624999998,16.861619281768743L222.75,16.155295300483647L223.44609375,15.247254896163886L224.1421875,16.155295300483647L224.83828125,15.449076819419806L225.534375,14.944574761390632L226.23046875,14.944574761390632L226.9265625,14.742858338355964L227.62265625,13.935676145553535L228.31875,13.532032299041694L229.01484375,14.036534357070868L229.7109375,13.43117408752436L230.40703125000002,12.926672029495185L231.10312499999998,13.22935216426844L231.79921875,13.330315876007026L232.49531249999998,11.413271355628913L233.19140625,11.715951490402167L233.8875,12.018631625175422L234.58359375,12.220453548431342L235.2796875,10.807911086082404L235.97578125,11.110591220855659L236.671875,10.000728893279975L237.36796875000002,10.202550816535895L238.0640625,9.294510412216132L238.76015625000002,9.899870681762641L239.45624999999998,8.386470007896369L240.15234375,9.395368623733466L240.8484375,8.588186430931037L241.54453125,8.184648084640449L242.240625,7.982826161384527L242.93671875,8.083789873123115" style="fill: none;" fill="none"></path></g></g></g></g></g></g><g transform="translate(51, 177)" clip-path="url(#clip_1)"><clipPath id="clip_1"><rect width="278" height="23"></rect></clipPath><g><g><line x1="0" y1="0" x2="0" y2="5" style="visibility: inherit;" fill="rgb(0, 0, 0)" stroke="rgb(204, 204, 204)" stroke-width="1px"></line><line x1="34.8046875" y1="0" x2="34.8046875" y2="5" style="visibility: inherit;" fill="rgb(0, 0, 0)" stroke="rgb(204, 204, 204)" stroke-width="1px"></line><line x1="69.609375" y1="0" x2="69.609375" y2="5" style="visibility: inherit;" fill="rgb(0, 0, 0)" stroke="rgb(204, 204, 204)" stroke-width="1px"></line><line x1="104.4140625" y1="0" x2="104.4140625" y2="5" style="visibility: inherit;" fill="rgb(0, 0, 0)" stroke="rgb(204, 204, 204)" stroke-width="1px"></line><line x1="139.21875" y1="0" x2="139.21875" y2="5" style="visibility: inherit;" fill="rgb(0, 0, 0)" stroke="rgb(204, 204, 204)" stroke-width="1px"></line><line x1="174.0234375" y1="0" x2="174.0234375" y2="5" style="visibility: inherit;" fill="rgb(0, 0, 0)" stroke="rgb(204, 204, 204)" stroke-width="1px"></line><line x1="208.828125" y1="0" x2="208.828125" y2="5" style="visibility: inherit;" fill="rgb(0, 0, 0)" stroke="rgb(204, 204, 204)" stroke-width="1px"></line><line x1="243.6328125" y1="0" x2="243.6328125" y2="5" style="visibility: inherit;" fill="rgb(0, 0, 0)" stroke="rgb(204, 204, 204)" stroke-width="1px"></line><line x1="278.4375" y1="0" x2="278.4375" y2="5" style="visibility: inherit;" fill="rgb(0, 0, 0)" stroke="rgb(204, 204, 204)" stroke-width="1px"></line></g><g transform="translate(0, 8)"><text x="0" y="0" dx="0em" dy="0.95em" style="text-anchor: middle; visibility: hidden; font-family: Roboto, sans-serif; font-size: 12px; font-weight: 200;" fill="rgb(33, 33, 33)" stroke="none" stroke-width="1px">-50</text><text x="34.8046875" y="0" dx="0em" dy="0.95em" style="text-anchor: middle; visibility: inherit; font-family: Roboto, sans-serif; font-size: 12px; font-weight: 200;" fill="rgb(33, 33, 33)" stroke="none" stroke-width="1px">0</text><text x="69.609375" y="0" dx="0em" dy="0.95em" style="text-anchor: middle; visibility: inherit; font-family: Roboto, sans-serif; font-size: 12px; font-weight: 200;" fill="rgb(33, 33, 33)" stroke="none" stroke-width="1px">50</text><text x="104.4140625" y="0" dx="0em" dy="0.95em" style="text-anchor: middle; visibility: inherit; font-family: Roboto, sans-serif; font-size: 12px; font-weight: 200;" fill="rgb(33, 33, 33)" stroke="none" stroke-width="1px">100</text><text x="139.21875" y="0" dx="0em" dy="0.95em" style="text-anchor: middle; visibility: inherit; font-family: Roboto, sans-serif; font-size: 12px; font-weight: 200;" fill="rgb(33, 33, 33)" stroke="none" stroke-width="1px">150</text><text x="174.0234375" y="0" dx="0em" dy="0.95em" style="text-anchor: middle; visibility: inherit; font-family: Roboto, sans-serif; font-size: 12px; font-weight: 200;" fill="rgb(33, 33, 33)" stroke="none" stroke-width="1px">200</text><text x="208.828125" y="0" dx="0em" dy="0.95em" style="text-anchor: middle; visibility: inherit; font-family: Roboto, sans-serif; font-size: 12px; font-weight: 200;" fill="rgb(33, 33, 33)" stroke="none" stroke-width="1px">250</text><text x="243.6328125" y="0" dx="0em" dy="0.95em" style="text-anchor: middle; visibility: inherit; font-family: Roboto, sans-serif; font-size: 12px; font-weight: 200;" fill="rgb(33, 33, 33)" stroke="none" stroke-width="1px">300</text><text x="278.4375" y="0" dx="0em" dy="0.95em" style="text-anchor: middle; visibility: hidden; font-family: Roboto, sans-serif; font-size: 12px; font-weight: 200;" fill="rgb(33, 33, 33)" stroke="none" stroke-width="1px">350</text></g><line x1="0" y1="0" x2="278.4375" y2="0" fill="rgb(0, 0, 0)" stroke="rgb(204, 204, 204)" stroke-width="1px"></line></g></g></g></g></svg>