<svg viewBox="0 0 330 200" xmlns="http://www.w3.org/2000/svg"><g><g><g><g><g><line x1="51.5625" y1="177" x2="46.5625" y2="177" style="visibility: inherit;" fill="rgb(0, 0, 0)" stroke="rgb(204, 204, 204)" stroke-width="1px"></line><line x1="51.5625" y1="159.29999999999998" x2="46.5625" y2="159.29999999999998" style="visibility: inherit;" fill="rgb(0, 0, 0)" stroke="rgb(204, 204, 204)" stroke-width="1px"></line><line x1="51.5625" y1="141.59999999999997" x2="46.5625" y2="141.59999999999997" style="visibility: inherit;" fill="rgb(0, 0, 0)" stroke="rgb(204, 204, 204)" stroke-width="1px"></line><line x1="51.5625" y1="123.89999999999995" x2="46.5625" y2="123.89999999999995" style="visibility: inherit;" fill="rgb(0, 0, 0)" stroke="rgb(204, 204, 204)" stroke-width="1px"></line><line x1="51.5625" y1="106.19999999999992" x2="46.5625" y2="106.19999999999992" style="visibility: inherit;" fill="rgb(0, 0, 0)" stroke="rgb(204, 204, 204)" stroke-width="1px"></line><line x1="51.5625" y1="88.4999999999999" x2="46.5625" y2="88.4999999999999" style="visibility: inherit;" fill="rgb(0, 0, 0)" stroke="rgb(204, 204, 204)" stroke-width="1px"></line><line x1="51.5625" y1="70.79999999999988" x2="46.5625" y2="70.79999999999988" style="visibility: inherit;" fill="rgb(0, 0, 0)" stroke="rgb(204, 204, 204)" stroke-width="1px"></line><line x1="51.5625" y1="53.09999999999987" x2="46.5625" y2="53.09999999999987" style="visibility: inherit;" fill="rgb(0, 0, 0)" stroke="rgb(204, 204, 204)" stroke-width="1px"></line><line x1="51.5625" y1="35.400000000000034" x2="46.5625" y2="35.400000000000034" style="visibility: inherit;" fill="rgb(0, 0, 0)" stroke="rgb(204, 204, 204)" stroke-width="1px"></line><line x1="51.5625" y1="17.700000000000017" x2="46.5625" y2="17.700000000000017" style="visibility: inherit;" fill="rgb(0, 0, 0)" stroke="rgb(204, 204, 204)" stroke-width="1px"></line><line x1="51.5625" y1="0" x2="46.5625" y2="0" style="visibility: inherit;" fill="rgb(0, 0, 0)" stroke="rgb(204, 204, 204)" stroke-width="1px"></line></g><g transform="translate(41.5625, 0)"><text x="0" y="177" dx="0em" dy="0.3em" style="text-anchor: end; visibility: hidden; font-family: Roboto, sans-serif; font-size: 12px; font-weight: 200;" fill="rgb(33, 33, 33)" stroke="none" stroke-width="1px">0.74</text><text x="0" y="159.29999999999998" dx="0em" dy="0.3em" style="text-anchor: end; visibility: inherit; font-family: Roboto, sans-serif; font-size: 12px; font-weight: 200;" fill="rgb(33, 33, 33)" stroke="none" stroke-width="1px">0.75</text><text x="0" y="141.59999999999997" dx="0em" dy="0.3em" style="text-anchor: end; visibility: hidden; font-family: Roboto, sans-serif; font-size: 12px; font-weight: 200;" fill="rgb(33, 33, 33)" stroke="none" stroke-width="1px">0.76</text><text x="0" y="123.89999999999995" dx="0em" dy="0.3em" style="text-anchor: end; visibility: inherit; font-family: Roboto, sans-serif; font-size: 12px; font-weight: 200;" fill="rgb(33, 33, 33)" stroke="none" stroke-width="1px">0.77</text><text x="0" y="106.19999999999992" dx="0em" dy="0.3em" style="text-anchor: end; visibility: hidden; font-family: Roboto, sans-serif; font-size: 12px; font-weight: 200;" fill="rgb(33, 33, 33)" stroke="none" stroke-width="1px">0.78</text><text x="0" y="88.4999999999999" dx="0em" dy="0.3em" style="text-anchor: end; visibility: inherit; font-family: Roboto, sans-serif; font-size: 12px; font-weight: 200;" fill="rgb(33, 33, 33)" stroke="none" stroke-width="1px">0.79</text><text x="0" y="70.79999999999988" dx="0em" dy="0.3em" style="text-anchor: end; visibility: hidden; font-family: Roboto, sans-serif; font-size: 12px; font-weight: 200;" fill="rgb(33, 33, 33)" stroke="none" stroke-width="1px">0.8</text><text x="0" y="53.09999999999987" dx="0em" dy="0.3em" style="text-anchor: end; visibility: inherit; font-family: Roboto, sans-serif; font-size: 12px; font-weight: 200;" fill="rgb(33, 33, 33)" stroke="none" stroke-width="1px">0.81</text><text x="0" y="35.400000000000034" dx="0em" dy="0.3em" style="text-anchor: end; visibility: hidden; font-family: Roboto, sans-serif; font-size: 12px; font-weight: 200;" fill="rgb(33, 33, 33)" stroke="none" stroke-width="1px">0.82</text><text x="0" y="17.700000000000017" dx="0em" dy="0.3em" style="text-anchor: end; visibility: inherit; font-family: Roboto, sans-serif; font-size: 12px; font-weight: 200;" fill="rgb(33, 33, 33)" stroke="none" stroke-width="1px">0.83</text><text x="0" y="0" dx="0em" dy="0.3em" style="text-anchor: end; visibility: hidden; font-family: Roboto, sans-serif; font-size: 12px; font-weight: 200;" fill="rgb(33, 33, 33)" stroke="none" stroke-width="1px">0.84</text></g><line x1="51.5625" y1="0" x2="51.5625" y2="177" fill="rgb(0, 0, 0)" stroke="rgb(204, 204, 204)" stroke-width="1px"></line></g></g><g transform="translate(51, 0)" clip-path="url(#clip_0)"><clipPath id="clip_0"><rect width="278" height="177"></rect></clipPath><g><g><g><line x1="0" y1="0" x2="0" y2="177" fill="rgb(0, 0, 0)" stroke="rgb(66, 66, 66)" stroke-width="1px" opacity="0.25"></line><line x1="34.8046875" y1="0" x2="34.8046875" y2="177" fill="rgb(0, 0, 0)" stroke="rgb(66, 66, 66)" stroke-width="1px" opacity="0.25"></line><line x1="69.609375" y1="0" x2="69.609375" y2="177" fill="rgb(0, 0, 0)" stroke="rgb(66, 66, 66)" stroke-width="1px" opacity="0.25"></line><line x1="104.4140625" y1="0" x2="104.4140625" y2="177" fill="rgb(0, 0, 0)" stroke="rgb(66, 66, 66)" stroke-width="1px" opacity="0.25"></line><line x1="139.21875" y1="0" x2="139.21875" y2="177" fill="rgb(0, 0, 0)" stroke="rgb(66, 66, 66)" stroke-width="1px" opacity="0.25"></line><line x1="174.0234375" y1="0" x2="174.0234375" y2="177" fill="rgb(0, 0, 0)" stroke="rgb(66, 66, 66)" stroke-width="1px" opacity="0.25"></line><line x1="208.828125" y1="0" x2="208.828125" y2="177" fill="rgb(0, 0, 0)" stroke="rgb(66, 66, 66)" stroke-width="1px" opacity="0.25"></line><line x1="243.6328125" y1="0" x2="243.6328125" y2="177" fill="rgb(0, 0, 0)" stroke="rgb(66, 66, 66)" stroke-width="1px" opacity="0.25"></line><line x1="278.4375" y1="0" x2="278.4375" y2="177" fill="rgb(0, 0, 0)" stroke="rgb(66, 66, 66)" stroke-width="1px" opacity="0.25"></line></g><g><line x1="0" y1="177" x2="278.4375" y2="177" fill="rgb(0, 0, 0)" stroke="rgb(66, 66, 66)" stroke-width="1px" opacity="0.25"></line><line x1="0" y1="159.29999999999998" x2="278.4375" y2="159.29999999999998" fill="rgb(0, 0, 0)" stroke="rgb(66, 66, 66)" stroke-width="1px" opacity="0.25"></line><line x1="0" y1="141.59999999999997" x2="278.4375" y2="141.59999999999997" fill="rgb(0, 0, 0)" stroke="rgb(66, 66, 66)" stroke-width="1px" opacity="0.25"></line><line x1="0" y1="123.89999999999995" x2="278.4375" y2="123.89999999999995" fill="rgb(0, 0, 0)" stroke="rgb(66, 66, 66)" stroke-width="1px" opacity="0.25"></line><line x1="0" y1="106.19999999999992" x2="278.4375" y2="106.19999999999992" fill="rgb(0, 0, 0)" stroke="rgb(66, 66, 66)" stroke-width="1px" opacity="0.25"></line><line x1="0" y1="88.4999999999999" x2="278.4375" y2="88.4999999999999" fill="rgb(0, 0, 0)" stroke="rgb(66, 66, 66)" stroke-width="1px" opacity="0.25"></line><line x1="0" y1="70.79999999999988" x2="278.4375" y2="70.79999999999988" fill="rgb(0, 0, 0)" stroke="rgb(66, 66, 66)" stroke-width="1px" opacity="0.25"></line><line x1="0" y1="53.09999999999987" x2="278.4375" y2="53.09999999999987" fill="rgb(0, 0, 0)" stroke="rgb(66, 66, 66)" stroke-width="1px" opacity="0.25"></line><line x1="0" y1="35.400000000000034" x2="278.4375" y2="35.400000000000034" fill="rgb(0, 0, 0)" stroke="rgb(66, 66, 66)" stroke-width="1px" opacity="0.25"></line><line x1="0" y1="17.700000000000017" x2="278.4375" y2="17.700000000000017" fill="rgb(0, 0, 0)" stroke="rgb(66, 66, 66)" stroke-width="1px" opacity="0.25"></line><line x1="0" y1="0" x2="278.4375" y2="0" fill="rgb(0, 0, 0)" stroke="rgb(66, 66, 66)" stroke-width="1px" opacity="0.25"></line></g></g></g><g><g><line x1="0" y1="1486.8000000000004" x2="278.4375" y2="1486.8000000000004" fill="rgb(0, 0, 0)" stroke="rgb(153, 153, 153)" stroke-width="1.5px"></line></g></g><g><g><line x1="34.8046875" y1="0" x2="34.8046875" y2="177" fill="rgb(0, 0, 0)" stroke="rgb(153, 153, 153)" stroke-width="1.5px"></line></g></g><g><g><g><g><g><path stroke="rgb(255, 112, 67)" stroke-width="2px" d="M34.8046875,158.1144940137863L35.50078125,158.1144940137861L36.196875,158.1144940137861L36.89296875,158.1144940137861L37.589062500000004,158.1144940137863L38.28515625,158.1144940137861L38.98125,158.1144940137863L39.67734375,158.1144940137861L40.373437499999994,158.1144940137863L41.06953125,158.1144940137861L41.765625,158.1144940137863L42.461718749999996,158.1144940137861L43.1578125,158.1144940137863L43.85390625,158.1144940137863L44.550000000000004,158.1144940137863L45.24609375,158.1144940137863L45.9421875,158.1144940137863L46.638281250000006,158.1144940137863L47.334375,158.1144940137863L48.03046875,158.1144940137861L48.7265625,158.1144940137861L49.422656249999996,158.1144940137861L50.11875,158.1144940137863L50.81484375,158.1144940137861L51.5109375,158.1144940137859L52.20703125,158.1144940137861L52.903125,158.1144940137861L53.59921875,158.1144940137861L54.2953125,158.1144940137861L54.991406250000004,158.1144940137861L55.6875,158.1144940137861L56.38359375,158.1144940137863L57.0796875,158.1144940137863L57.775781249999994,158.1144940137861L58.471875,158.1144940137863L59.16796875,158.1144940137863L59.864062499999996,158.1144940137861L60.56015625,158.1144940137861L61.25625,158.1144940137863L61.952343750000004,158.1144940137861L62.6484375,158.1144940137863L63.34453125,158.1144940137861L64.040625,158.1144940137861L64.73671875000001,158.1144940137861L65.4328125,158.1144940137861L66.12890625,158.1144940137861L66.825,158.1144940137861L67.52109374999999,158.1144940137863L68.2171875,158.1144940137863L68.91328125,158.1144940137863L69.609375,158.1144940137863L70.30546875,158.1144940137863L71.0015625,158.1144940137861L71.69765625000001,158.1144940137861L72.39375,158.1144940137861L73.08984375,158.1144940137863L73.7859375,158.1144940137863L74.48203125,158.1144940137863L75.17812500000001,158.1144940137861L75.87421875000001,158.1144940137863L76.5703125,158.1144940137863L77.26640625,158.1144940137861L77.9625,158.1144940137861L78.65859375,158.1144940137861L79.3546875,158.1144940137861L80.05078125,158.1144940137861L80.74687499999999,158.1144940137863L81.44296874999999,158.1144940137865L82.1390625,158.1144940137865L82.83515625,158.1144940137863L83.53125,158.1144940137861L84.22734375,158.1144940137861L84.92343749999999,158.1144940137861L85.61953125,158.1144940137863L86.315625,158.1144940137863L87.01171875,158.1144940137863L87.7078125,158.1144940137863L88.40390625,158.1144940137863L89.10000000000001,158.1144940137863L89.79609375,158.1144940137863L90.4921875,158.1144940137863L91.18828125,158.1144940137863L91.884375,158.1144940137863L92.58046875000001,158.1144940137863L93.27656250000001,158.1144940137863L93.97265625,158.1144940137863L94.66875,158.1144940137863L95.36484375,158.1144940137863L96.0609375,158.1144940137863L96.75703125,158.1144940137863L97.453125,158.1144940137863L98.14921874999999,158.1144940137863L98.84531249999999,158.1144940137863L99.54140625,158.1144940137863L100.2375,158.1144940137863L100.93359375,158.1144940137863L101.6296875,158.1144940137863L102.32578124999999,158.1144940137863L103.021875,158.1144940137863L103.71796875,158.1144940137863L104.4140625,158.03380744457235L105.11015625,157.94501001834863L105.80625,157.81104499340069L106.50234375000001,157.69028049373628L107.1984375,157.53709302463545L107.89453125,157.4451805431748L108.590625,157.1882744311752L109.28671875,156.71125788685453L109.98281250000001,156.34431919095968L110.67890625000001,155.96274063490654L111.375,155.37057733954677L112.07109375,154.57133443130073L112.7671875,153.76891580923225L113.46328125,153.00497724356538L114.159375,152.22374122704443L114.85546875,150.94783852437374L115.55156249999999,149.41547909461988L116.24765624999999,147.76963111331193L116.94375,145.93461794716188L117.63984375,143.90537690080444L118.3359375,141.8402856955363L119.03203125,139.47123920258483L119.72812499999999,137.52513760648134L120.42421875,135.38890021754491L121.1203125,133.21926792212255L121.81640625,130.54531046717125L122.5125,128.17416038613763L123.20859375,125.8232371908499L123.90468750000001,123.28264930379834L124.60078125,120.30538972456716L125.296875,117.02582604550999L125.99296875,114.12985469140816L126.6890625,110.77794969343078L127.38515625000001,107.23317107834168L128.08125,103.97631213949752L128.77734375,100.81143403700982L129.47343750000002,97.58071458251467L130.16953125,94.10864729351502L130.865625,90.97610171953865L131.56171874999998,88.08765465927146L132.2578125,85.66849738426237L132.95390625,83.49057069580078L133.65,81.05378071284467L134.34609375,78.58274480710132L135.04218749999998,76.61583504801803L135.73828125,74.99174426153793L136.434375,73.49265828940557L137.13046875,71.70531684406554L137.8265625,70.31003909974078L138.52265625,69.14999957602487L139.21875,66.75896710706506L139.91484375,65.12254680247767L140.6109375,63.09138941914833L141.30703125,60.863733073180796L142.003125,58.96212228066063L142.69921875,57.65974046663241L143.39531250000002,56.0308070008504L144.09140624999998,54.44804445174619L144.7875,53.094827475948826L145.48359374999998,52.16182523656114L146.1796875,51.480951839019035L146.87578125,50.66882615407051L147.571875,49.697262527464225L148.26796875,48.58969285125635L148.9640625,47.68300693771307L149.66015625,47.01788113558909L150.35625000000002,46.336318261889254L151.05234375,45.96772382227636L151.74843750000002,45.544808535385535L152.44453124999998,45.1699873093417L153.140625,45.02578114292934L153.83671875,44.85857087386786L154.5328125,44.35464306600756L155.22890625,43.93121432738229L155.925,43.55608503029784L156.62109375,43.00813457492604L157.3171875,41.791516639730915L158.01328125,41.14223244782794L158.709375,40.38944577095794L159.40546875,40.01850253413846L160.1015625,39.594135768835024L160.79765625000002,39.29917242504603L161.49374999999998,39.12219441877268L162.18984375,38.81420679179699L162.88593749999998,38.42761339239991L163.58203125,38.11497078354783L164.278125,37.88699973354127L164.97421875,37.387000941809234L165.6703125,37.1273449513771L166.36640625,36.890864787903915L167.0625,36.58751915121519L167.75859375000002,36.36516848459506L168.4546875,36.23175808462298L169.15078125000002,36.11136856003276L169.84687499999998,36.16020689918789L170.54296875,36.06843784877163L171.2390625,35.811575595310316L171.93515625,35.41531413541501L172.63125,35.298629313387L173.32734375,34.86540225844237L174.0234375,34.605466025475636L174.71953125,34.449504285695475L175.415625,34.19446970322272L176.11171875,33.92037689982973L176.8078125,33.75592121779378L177.50390625,33.737976577874655L178.20000000000002,33.44472240149772L178.89609374999998,33.22838441097605L179.5921875,32.85643750884459L180.28828124999998,32.552540598263356L180.984375,32.45093122121683L181.68046875,32.02674943326104L182.3765625,31.73189707588079L183.07265625,31.433913607543225L183.76875,31.134051472631302L184.46484375,30.671604599170113L185.16093750000002,30.636280582912157L185.85703125,30.090454672913165L186.55312500000002,30.08578980394628L187.24921874999998,30.042647597959217L187.9453125,30.0167622743669L188.64140625,29.880159026302245L189.3375,29.596396254251747L190.03359375,29.426138591021406L190.7296875,29.00115331605089L191.42578125,28.988306258886947L192.121875,28.536653093558385L192.81796875,28.225275709665855L193.5140625,27.836690656207086L194.21015625,27.522810854829576L194.90625,27.25375420470074L195.60234375000002,27.09232021462344L196.29843749999998,26.83404448206071L196.99453125,26.679079042523302L197.69062499999998,26.182498132377283L198.38671875,25.763477532380527L199.0828125,25.592793941684764L199.77890625,25.248239679448783L200.475,25.081850406714047L201.17109375,25.062745612375494L201.8671875,24.68806657404446L202.56328125000002,24.261458327834166L203.259375,24.368709541835976L203.95546875000002,24.150572877811605L204.65156249999998,24.261834987215426L205.34765625,24.086448145039274L206.04375,23.779415216521755L206.73984375,23.55485217480431L207.4359375,22.814754080227374L208.13203125,22.57245384660438L208.828125,21.983170975488694L209.52421875,21.468143714214744L210.2203125,20.83625448032924L210.91640625,20.77999381711903L211.6125,20.58482208067671L212.30859375,20.023774107781083L213.00468750000002,19.767874093346034L213.70078124999998,19.45287654608015L214.396875,19.102462679204386L215.09296874999998,19.053629697595163L215.7890625,18.661113746901723L216.48515625,18.465947461092632L217.18125,18.227775635697878L217.87734375,17.923457201944984L218.5734375,17.82159491099554L219.26953125,17.51833342860711L219.96562500000002,17.417063108388L220.66171875,17.154542293133286L221.35781250000002,16.795228980768865L222.05390624999998,16.781441816561884L222.75,16.652055264039813L223.44609375,16.211207170798588L224.1421875,16.067770368763465L224.83828125,16.02209377223767L225.534375,15.631471652594447L226.23046875,15.356712896112999L226.9265625,15.312929696133354L227.62265625,15.084901153022397L228.31875,14.705897719248641L229.01484375,14.317080320468309L229.7109375,14.164518650502437L230.40703125000002,13.951909594613536L231.10312499999998,13.58220005326163L231.79921875,13.118230220631883L232.49531249999998,12.839848321054191L233.19140625,12.592090412005051L233.8875,12.201291558757042L234.58359375,11.966812246808237L235.2796875,11.664667121034139L235.97578125,10.716604437506819L236.671875,10.309182165906739L237.36796875000002,9.862927979734904L238.0640625,9.595175468031803L238.76015625000002,8.990621230068406L239.45624999999998,8.547159917988L240.15234375,8.281083130739756L240.8484375,7.798564181269759L241.54453125,7.589781580890208L242.240625,7.1416391435415445L242.93671875,6.87275368113219" style="fill: none;" fill="none"></path></g></g></g></g><g opacity="0.2"><g><g><g><path stroke="rgb(255, 112, 67)" stroke-width="2px" d="M34.8046875,158.1144940137863L35.50078125,158.1144940137863L36.196875,158.1144940137863L36.89296875,158.1144940137863L37.589062500000004,158.1144940137863L38.28515625,158.1144940137863L38.98125,158.1144940137863L39.67734375,158.1144940137863L40.373437499999994,158.1144940137863L41.06953125,158.1144940137863L41.765625,158.1144940137863L42.461718749999996,158.1144940137863L43.1578125,158.1144940137863L43.85390625,158.1144940137863L44.550000000000004,158.1144940137863L45.24609375,158.1144940137863L45.9421875,158.1144940137863L46.638281250000006,158.1144940137863L47.334375,158.1144940137863L48.03046875,158.1144940137863L48.7265625,158.1144940137863L49.422656249999996,158.1144940137863L50.11875,158.1144940137863L50.81484375,158.1144940137863L51.5109375,158.1144940137863L52.20703125,158.1144940137863L52.903125,158.1144940137863L53.59921875,158.1144940137863L54.2953125,158.1144940137863L54.991406250000004,158.1144940137863L55.6875,158.1144940137863L56.38359375,158.1144940137863L57.0796875,158.1144940137863L57.775781249999994,158.1144940137863L58.471875,158.1144940137863L59.16796875,158.1144940137863L59.864062499999996,158.1144940137863L60.56015625,158.1144940137863L61.25625,158.1144940137863L61.952343750000004,158.1144940137863L62.6484375,158.1144940137863L63.34453125,158.1144940137863L64.040625,158.1144940137863L64.73671875000001,158.1144940137863L65.4328125,158.1144940137863L66.12890625,158.1144940137863L66.825,158.1144940137863L67.52109374999999,158.1144940137863L68.2171875,158.1144940137863L68.91328125,158.1144940137863L69.609375,158.1144940137863L70.30546875,158.1144940137863L71.0015625,158.1144940137863L71.69765625000001,158.1144940137863L72.39375,158.1144940137863L73.08984375,158.1144940137863L73.7859375,158.1144940137863L74.48203125,158.1144940137863L75.17812500000001,158.1144940137863L75.87421875000001,158.1144940137863L76.5703125,158.1144940137863L77.26640625,158.1144940137863L77.9625,158.1144940137863L78.65859375,158.1144940137863L79.3546875,158.1144940137863L80.05078125,158.1144940137863L80.74687499999999,158.1144940137863L81.44296874999999,158.1144940137863L82.1390625,158.1144940137863L82.83515625,158.1144940137863L83.53125,158.1144940137863L84.22734375,158.1144940137863L84.92343749999999,158.1144940137863L85.61953125,158.1144940137863L86.315625,158.1144940137863L87.01171875,158.1144940137863L87.7078125,158.1144940137863L88.40390625,158.1144940137863L89.10000000000001,158.1144940137863L89.79609375,158.1144940137863L90.4921875,158.1144940137863L91.18828125,158.1144940137863L91.884375,158.1144940137863L92.58046875000001,158.1144940137863L93.27656250000001,158.1144940137863L93.97265625,158.1144940137863L94.66875,158.1144940137863L95.36484375,158.1144940137863L96.0609375,158.1144940137863L96.75703125,158.1144940137863L97.453125,158.1144940137863L98.14921874999999,158.1144940137863L98.84531249999999,158.1144940137863L99.54140625,158.1144940137863L100.2375,158.1144940137863L100.93359375,158.1144940137863L101.6296875,158.1144940137863L102.32578124999999,158.1144940137863L103.021875,158.1144940137863L103.71796875,158.1144940137863L104.4140625,157.91277759075163L105.11015625,157.81181387901304L105.80625,157.61009745597838L106.50234375000001,157.5091337442398L107.1984375,157.30731182098387L107.89453125,157.30731182098387L108.590625,156.80291526317595L109.28671875,155.99573307037352L109.98281250000001,155.7939111471176L110.67890625000001,155.390372800827L111.375,154.48233239650725L112.07109375,153.37247006893156L112.7671875,152.56528787612913L113.46328125,151.8590693950653L114.159375,151.05188720226286L114.85546875,149.03398447036741L115.55156249999999,147.1169399499893L116.24765624999999,145.30085914134978L116.94375,143.182098197937L117.63984375,140.8615153312683L118.3359375,138.74264888763426L119.03203125,135.91766946315764L119.72812499999999,134.60598521232603L120.42421875,132.18454413414L121.1203125,129.96481947898863L121.81640625,126.53437428474425L122.5125,124.61743526458739L123.20859375,122.29685239791868L123.90468750000001,119.47176747322081L124.60078125,115.8395003557205L125.296875,112.10648052692412L125.99296875,109.7858976602554L126.6890625,105.75009219646451L127.38515625000001,101.91600315570828L128.08125,99.09102373123166L128.77734375,96.06411688327786L129.47343750000002,92.73463540077206L130.16953125,88.90054636001584L130.865625,86.27728335857388L131.56171874999998,83.75498406887051L132.2578125,82.03976147174832L132.95390625,80.2236806631088L133.65,77.39859573841092L134.34609375,74.8761909484863L135.04218749999998,73.66547040939328L135.73828125,72.5556080818176L136.434375,71.24402933120724L137.13046875,69.02430467605588L137.8265625,68.21712248325345L138.52265625,67.40994029045102L139.21875,63.17241840362545L139.91484375,62.667916345596275L140.6109375,60.04465334415432L141.30703125,57.5222485542297L142.003125,56.10970609188076L142.69921875,55.70616774559017L143.39531250000002,53.58740680217739L144.09140624999998,52.073900628089866L144.7875,51.06500201225277L145.48359374999998,50.762321877479515L146.1796875,50.45964174270626L146.87578125,49.45063762664791L147.571875,48.23991708755489L148.26796875,46.92833833694454L148.9640625,46.32297806739803L149.66015625,46.020192432403526L150.35625000000002,45.31397395133968L151.05234375,45.41483216285702L151.74843750000002,44.910435605049095L152.44453124999998,44.60775547027584L153.140625,44.80947189331051L153.83671875,44.60775547027584L154.5328125,43.59875135421748L155.22890625,43.29607121944422L155.925,42.99339108467097L156.62109375,42.18620889186854L157.3171875,39.966589736938424L158.01328125,40.16830615997309L158.709375,39.26026575565333L159.40546875,39.46208767890925L160.1015625,38.957585620880074L160.79765625000002,38.85672740936274L161.49374999999998,38.85672740936274L162.18984375,38.352225351333566L162.88593749999998,37.84772329330439L163.58203125,37.64600687026972L164.278125,37.545043158531136L164.97421875,36.63700275421137L165.6703125,36.73786096572871L166.36640625,36.53614454269404L167.0625,36.1325006961822L167.75859375000002,36.031642484664864L168.4546875,36.031642484664864L169.15078125000002,35.93078427314753L169.84687499999998,36.233464407920785L170.54296875,35.93078427314753L171.2390625,35.426282215118356L171.93515625,34.82092194557185L172.63125,35.1236020803451L173.32734375,34.21556167602534L174.0234375,34.21556167602534L174.71953125,34.21556167602534L175.415625,33.8119178295135L176.11171875,33.50923769474024L176.8078125,33.50923769474024L177.50390625,33.71105961799616L178.20000000000002,33.00484113693232L178.89609374999998,32.903877425193734L179.5921875,32.298517155647225L180.28828124999998,32.096695232391305L180.984375,32.298517155647225L181.68046875,31.39047675132746L182.3765625,31.289618539810125L183.07265625,30.98693840503687L183.76875,30.684258270263616L184.46484375,29.97793428897852L185.16093750000002,30.58329455852503L185.85703125,29.271715807914678L186.55312500000002,30.078792500495855L187.24921874999998,29.97793428897852L187.9453125,29.97793428897852L188.64140625,29.675254154205266L189.3375,29.17075209617609L190.03359375,29.17075209617609L190.7296875,28.363675403594915L191.42578125,28.969035673141423L192.121875,27.85917334556574L192.81796875,27.758209633827153L193.5140625,27.25381307601923L194.21015625,27.05199115276331L194.90625,26.85016922950739L195.60234375000002,26.85016922950739L196.29843749999998,26.446630883216802L196.99453125,26.446630883216802L197.69062499999998,25.437626767158452L198.38671875,25.134946632385198L199.0828125,25.336768555641118L199.77890625,24.73140828609461L200.475,24.832266497611943L201.17109375,25.034088420867864L201.8671875,24.1260480165481L202.56328125000002,23.621545958518926L203.259375,24.52958636283869L203.95546875000002,23.823367881774846L204.65156249999998,24.428728151321355L205.34765625,23.823367881774846L206.04375,23.31886582374567L206.73984375,23.218007612228337L207.4359375,21.704606938362065L208.13203125,22.209003496169988L208.828125,21.099246668815557L209.52421875,20.695602822303716L210.2203125,19.888420629501287L210.91640625,20.695602822303716L211.6125,20.292064476013127L212.30859375,19.182202148437444L213.00468750000002,19.384024071693364L213.70078124999998,18.980380225181523L214.396875,18.576841878890935L215.09296874999998,18.980380225181523L215.7890625,18.07233982086176L216.48515625,18.173198032379094L217.18125,17.87051789760584L217.87734375,17.46697955131525L218.5734375,17.668801474571172L219.26953125,17.063441205024663L219.96562500000002,17.26515762805933L220.66171875,16.76076107025141L221.35781250000002,16.256259012222234L222.05390624999998,16.76076107025141L222.75,16.457975435256902L223.44609375,15.54993503093714L224.1421875,15.852615165710395L224.83828125,15.953578877448981L225.534375,15.045538473129218L226.23046875,14.944574761390632L226.9265625,15.247254896163886L227.62265625,14.742858338355964L228.31875,14.137392568588202L229.01484375,13.733854222297614L229.7109375,13.935676145553535L230.40703125000002,13.63299601078028L231.10312499999998,13.027635741233771L231.79921875,12.422275471687263L232.49531249999998,12.422275471687263L233.19140625,12.220453548431342L233.8875,11.615093278884833L234.58359375,11.615093278884833L235.2796875,11.211449432372993L235.97578125,9.294510412216132L236.671875,9.69804875850672L237.36796875000002,9.193546700477546L238.0640625,9.193546700477546L238.76015625000002,8.083789873123115L239.45624999999998,7.881967949867193L240.15234375,7.881967949867193L240.8484375,7.074785757064764L241.54453125,7.2766076803206845L242.240625,6.469425487518255L242.93671875,6.469425487518255" style="fill: none;" fill="none"></path></g></g></g></g></g></g><g transform="translate(51, 177)" clip-path="url(#clip_1)"><clipPath id="clip_1"><rect width="278" height="23"></rect></clipPath><g><g><line x1="0" y1="0" x2="0" y2="5" style="visibility: inherit;" fill="rgb(0, 0, 0)" stroke="rgb(204, 204, 204)" stroke-width="1px"></line><line x1="34.8046875" y1="0" x2="34.8046875" y2="5" style="visibility: inherit;" fill="rgb(0, 0, 0)" stroke="rgb(204, 204, 204)" stroke-width="1px"></line><line x1="69.609375" y1="0" x2="69.609375" y2="5" style="visibility: inherit;" fill="rgb(0, 0, 0)" stroke="rgb(204, 204, 204)" stroke-width="1px"></line><line x1="104.4140625" y1="0" x2="104.4140625" y2="5" style="visibility: inherit;" fill="rgb(0, 0, 0)" stroke="rgb(204, 204, 204)" stroke-width="1px"></line><line x1="139.21875" y1="0" x2="139.21875" y2="5" style="visibility: inherit;" fill="rgb(0, 0, 0)" stroke="rgb(204, 204, 204)" stroke-width="1px"></line><line x1="174.0234375" y1="0" x2="174.0234375" y2="5" style="visibility: inherit;" fill="rgb(0, 0, 0)" stroke="rgb(204, 204, 204)" stroke-width="1px"></line><line x1="208.828125" y1="0" x2="208.828125" y2="5" style="visibility: inherit;" fill="rgb(0, 0, 0)" stroke="rgb(204, 204, 204)" stroke-width="1px"></line><line x1="243.6328125" y1="0" x2="243.6328125" y2="5" style="visibility: inherit;" fill="rgb(0, 0, 0)" stroke="rgb(204, 204, 204)" stroke-width="1px"></line><line x1="278.4375" y1="0" x2="278.4375" y2="5" style="visibility: inherit;" fill="rgb(0, 0, 0)" stroke="rgb(204, 204, 204)" stroke-width="1px"></line></g><g transform="translate(0, 8)"><text x="0" y="0" dx="0em" dy="0.95em" style="text-anchor: middle; visibility: hidden; font-family: Roboto, sans-serif; font-size: 12px; font-weight: 200;" fill="rgb(33, 33, 33)" stroke="none" stroke-width="1px">-50</text><text x="34.8046875" y="0" dx="0em" dy="0.95em" style="text-anchor: middle; visibility: inherit; font-family: Roboto, sans-serif; font-size: 12px; font-weight: 200;" fill="rgb(33, 33, 33)" stroke="none" stroke-width="1px">0</text><text x="69.609375" y="0" dx="0em" dy="0.95em" style="text-anchor: middle; visibility: inherit; font-family: Roboto, sans-serif; font-size: 12px; font-weight: 200;" fill="rgb(33, 33, 33)" stroke="none" stroke-width="1px">50</text><text x="104.4140625" y="0" dx="0em" dy="0.95em" style="text-anchor: middle; visibility: inherit; font-family: Roboto, sans-serif; font-size: 12px; font-weight: 200;" fill="rgb(33, 33, 33)" stroke="none" stroke-width="1px">100</text><text x="139.21875" y="0" dx="0em" dy="0.95em" style="text-anchor: middle; visibility: inherit; font-family: Roboto, sans-serif; font-size: 12px; font-weight: 200;" fill="rgb(33, 33, 33)" stroke="none" stroke-width="1px">150</text><text x="174.0234375" y="0" dx="0em" dy="0.95em" style="text-anchor: middle; visibility: inherit; font-family: Roboto, sans-serif; font-size: 12px; font-weight: 200;" fill="rgb(33, 33, 33)" stroke="none" stroke-width="1px">200</text><text x="208.828125" y="0" dx="0em" dy="0.95em" style="text-anchor: middle; visibility: inherit; font-family: Roboto, sans-serif; font-size: 12px; font-weight: 200;" fill="rgb(33, 33, 33)" stroke="none" stroke-width="1px">250</text><text x="243.6328125" y="0" dx="0em" dy="0.95em" style="text-anchor: middle; visibility: inherit; font-family: Roboto, sans-serif; font-size: 12px; font-weight: 200;" fill="rgb(33, 33, 33)" stroke="none" stroke-width="1px">300</text><text x="278.4375" y="0" dx="0em" dy="0.95em" style="text-anchor: middle; visibility: hidden; font-family: Roboto, sans-serif; font-size: 12px; font-weight: 200;" fill="rgb(33, 33, 33)" stroke="none" stroke-width="1px">350</text></g><line x1="0" y1="0" x2="278.4375" y2="0" fill="rgb(0, 0, 0)" stroke="rgb(204, 204, 204)" stroke-width="1px"></line></g></g></g></g></svg>