<svg viewBox="0 0 330 200" xmlns="http://www.w3.org/2000/svg"><g><g><g><g><g><line x1="51.5625" y1="177" x2="46.5625" y2="177" style="visibility: inherit;" fill="rgb(0, 0, 0)" stroke="rgb(204, 204, 204)" stroke-width="1px"></line><line x1="51.5625" y1="163.3846153846154" x2="46.5625" y2="163.3846153846154" style="visibility: inherit;" fill="rgb(0, 0, 0)" stroke="rgb(204, 204, 204)" stroke-width="1px"></line><line x1="51.5625" y1="149.76923076923075" x2="46.5625" y2="149.76923076923075" style="visibility: inherit;" fill="rgb(0, 0, 0)" stroke="rgb(204, 204, 204)" stroke-width="1px"></line><line x1="51.5625" y1="136.15384615384613" x2="46.5625" y2="136.15384615384613" style="visibility: inherit;" fill="rgb(0, 0, 0)" stroke="rgb(204, 204, 204)" stroke-width="1px"></line><line x1="51.5625" y1="122.53846153846158" x2="46.5625" y2="122.53846153846158" style="visibility: inherit;" fill="rgb(0, 0, 0)" stroke="rgb(204, 204, 204)" stroke-width="1px"></line><line x1="51.5625" y1="108.92307692307693" x2="46.5625" y2="108.92307692307693" style="visibility: inherit;" fill="rgb(0, 0, 0)" stroke="rgb(204, 204, 204)" stroke-width="1px"></line><line x1="51.5625" y1="95.30769230769232" x2="46.5625" y2="95.30769230769232" style="visibility: inherit;" fill="rgb(0, 0, 0)" stroke="rgb(204, 204, 204)" stroke-width="1px"></line><line x1="51.5625" y1="81.69230769230768" x2="46.5625" y2="81.69230769230768" style="visibility: inherit;" fill="rgb(0, 0, 0)" stroke="rgb(204, 204, 204)" stroke-width="1px"></line><line x1="51.5625" y1="68.07692307692305" x2="46.5625" y2="68.07692307692305" style="visibility: inherit;" fill="rgb(0, 0, 0)" stroke="rgb(204, 204, 204)" stroke-width="1px"></line><line x1="51.5625" y1="54.461538461538424" x2="46.5625" y2="54.461538461538424" style="visibility: inherit;" fill="rgb(0, 0, 0)" stroke="rgb(204, 204, 204)" stroke-width="1px"></line><line x1="51.5625" y1="40.846153846153875" x2="46.5625" y2="40.846153846153875" style="visibility: inherit;" fill="rgb(0, 0, 0)" stroke="rgb(204, 204, 204)" stroke-width="1px"></line><line x1="51.5625" y1="27.23076923076925" x2="46.5625" y2="27.23076923076925" style="visibility: inherit;" fill="rgb(0, 0, 0)" stroke="rgb(204, 204, 204)" stroke-width="1px"></line><line x1="51.5625" y1="13.615384615384626" x2="46.5625" y2="13.615384615384626" style="visibility: inherit;" fill="rgb(0, 0, 0)" stroke="rgb(204, 204, 204)" stroke-width="1px"></line><line x1="51.5625" y1="0" x2="46.5625" y2="0" style="visibility: inherit;" fill="rgb(0, 0, 0)" stroke="rgb(204, 204, 204)" stroke-width="1px"></line></g><g transform="translate(41.5625, 0)"><text x="0" y="177" dx="0em" dy="0.3em" style="text-anchor: end; visibility: hidden; font-family: Roboto, sans-serif; font-size: 12px; font-weight: 200;" fill="rgb(33, 33, 33)" stroke="none" stroke-width="1px">0.74</text><text x="0" y="163.3846153846154" dx="0em" dy="0.3em" style="text-anchor: end; visibility: inherit; font-family: Roboto, sans-serif; font-size: 12px; font-weight: 200;" fill="rgb(33, 33, 33)" stroke="none" stroke-width="1px">0.76</text><text x="0" y="149.76923076923075" dx="0em" dy="0.3em" style="text-anchor: end; visibility: hidden; font-family: Roboto, sans-serif; font-size: 12px; font-weight: 200;" fill="rgb(33, 33, 33)" stroke="none" stroke-width="1px">0.78</text><text x="0" y="136.15384615384613" dx="0em" dy="0.3em" style="text-anchor: end; visibility: inherit; font-family: Roboto, sans-serif; font-size: 12px; font-weight: 200;" fill="rgb(33, 33, 33)" stroke="none" stroke-width="1px">0.8</text><text x="0" y="122.53846153846158" dx="0em" dy="0.3em" style="text-anchor: end; visibility: hidden; font-family: Roboto, sans-serif; font-size: 12px; font-weight: 200;" fill="rgb(33, 33, 33)" stroke="none" stroke-width="1px">0.82</text><text x="0" y="108.92307692307693" dx="0em" dy="0.3em" style="text-anchor: end; visibility: inherit; font-family: Roboto, sans-serif; font-size: 12px; font-weight: 200;" fill="rgb(33, 33, 33)" stroke="none" stroke-width="1px">0.84</text><text x="0" y="95.30769230769232" dx="0em" dy="0.3em" style="text-anchor: end; visibility: hidden; font-family: Roboto, sans-serif; font-size: 12px; font-weight: 200;" fill="rgb(33, 33, 33)" stroke="none" stroke-width="1px">0.86</text><text x="0" y="81.69230769230768" dx="0em" dy="0.3em" style="text-anchor: end; visibility: inherit; font-family: Roboto, sans-serif; font-size: 12px; font-weight: 200;" fill="rgb(33, 33, 33)" stroke="none" stroke-width="1px">0.88</text><text x="0" y="68.07692307692305" dx="0em" dy="0.3em" style="text-anchor: end; visibility: hidden; font-family: Roboto, sans-serif; font-size: 12px; font-weight: 200;" fill="rgb(33, 33, 33)" stroke="none" stroke-width="1px">0.9</text><text x="0" y="54.461538461538424" dx="0em" dy="0.3em" style="text-anchor: end; visibility: inherit; font-family: Roboto, sans-serif; font-size: 12px; font-weight: 200;" fill="rgb(33, 33, 33)" stroke="none" stroke-width="1px">0.92</text><text x="0" y="40.846153846153875" dx="0em" dy="0.3em" style="text-anchor: end; visibility: hidden; font-family: Roboto, sans-serif; font-size: 12px; font-weight: 200;" fill="rgb(33, 33, 33)" stroke="none" stroke-width="1px">0.94</text><text x="0" y="27.23076923076925" dx="0em" dy="0.3em" style="text-anchor: end; visibility: inherit; font-family: Roboto, sans-serif; font-size: 12px; font-weight: 200;" fill="rgb(33, 33, 33)" stroke="none" stroke-width="1px">0.96</text><text x="0" y="13.615384615384626" dx="0em" dy="0.3em" style="text-anchor: end; visibility: hidden; font-family: Roboto, sans-serif; font-size: 12px; font-weight: 200;" fill="rgb(33, 33, 33)" stroke="none" stroke-width="1px">0.98</text><text x="0" y="0" dx="0em" dy="0.3em" style="text-anchor: end; visibility: hidden; font-family: Roboto, sans-serif; font-size: 12px; font-weight: 200;" fill="rgb(33, 33, 33)" stroke="none" stroke-width="1px">1</text></g><line x1="51.5625" y1="0" x2="51.5625" y2="177" fill="rgb(0, 0, 0)" stroke="rgb(204, 204, 204)" stroke-width="1px"></line></g></g><g transform="translate(51, 0)" clip-path="url(#clip_0)"><clipPath id="clip_0"><rect width="278" height="177"></rect></clipPath><g><g><g><line x1="0" y1="0" x2="0" y2="177" fill="rgb(0, 0, 0)" stroke="rgb(66, 66, 66)" stroke-width="1px" opacity="0.25"></line><line x1="34.8046875" y1="0" x2="34.8046875" y2="177" fill="rgb(0, 0, 0)" stroke="rgb(66, 66, 66)" stroke-width="1px" opacity="0.25"></line><line x1="69.609375" y1="0" x2="69.609375" y2="177" fill="rgb(0, 0, 0)" stroke="rgb(66, 66, 66)" stroke-width="1px" opacity="0.25"></line><line x1="104.4140625" y1="0" x2="104.4140625" y2="177" fill="rgb(0, 0, 0)" stroke="rgb(66, 66, 66)" stroke-width="1px" opacity="0.25"></line><line x1="139.21875" y1="0" x2="139.21875" y2="177" fill="rgb(0, 0, 0)" stroke="rgb(66, 66, 66)" stroke-width="1px" opacity="0.25"></line><line x1="174.0234375" y1="0" x2="174.0234375" y2="177" fill="rgb(0, 0, 0)" stroke="rgb(66, 66, 66)" stroke-width="1px" opacity="0.25"></line><line x1="208.828125" y1="0" x2="208.828125" y2="177" fill="rgb(0, 0, 0)" stroke="rgb(66, 66, 66)" stroke-width="1px" opacity="0.25"></line><line x1="243.6328125" y1="0" x2="243.6328125" y2="177" fill="rgb(0, 0, 0)" stroke="rgb(66, 66, 66)" stroke-width="1px" opacity="0.25"></line><line x1="278.4375" y1="0" x2="278.4375" y2="177" fill="rgb(0, 0, 0)" stroke="rgb(66, 66, 66)" stroke-width="1px" opacity="0.25"></line></g><g><line x1="0" y1="177" x2="278.4375" y2="177" fill="rgb(0, 0, 0)" stroke="rgb(66, 66, 66)" stroke-width="1px" opacity="0.25"></line><line x1="0" y1="163.3846153846154" x2="278.4375" y2="163.3846153846154" fill="rgb(0, 0, 0)" stroke="rgb(66, 66, 66)" stroke-width="1px" opacity="0.25"></line><line x1="0" y1="149.76923076923075" x2="278.4375" y2="149.76923076923075" fill="rgb(0, 0, 0)" stroke="rgb(66, 66, 66)" stroke-width="1px" opacity="0.25"></line><line x1="0" y1="136.15384615384613" x2="278.4375" y2="136.15384615384613" fill="rgb(0, 0, 0)" stroke="rgb(66, 66, 66)" stroke-width="1px" opacity="0.25"></line><line x1="0" y1="122.53846153846158" x2="278.4375" y2="122.53846153846158" fill="rgb(0, 0, 0)" stroke="rgb(66, 66, 66)" stroke-width="1px" opacity="0.25"></line><line x1="0" y1="108.92307692307693" x2="278.4375" y2="108.92307692307693" fill="rgb(0, 0, 0)" stroke="rgb(66, 66, 66)" stroke-width="1px" opacity="0.25"></line><line x1="0" y1="95.30769230769232" x2="278.4375" y2="95.30769230769232" fill="rgb(0, 0, 0)" stroke="rgb(66, 66, 66)" stroke-width="1px" opacity="0.25"></line><line x1="0" y1="81.69230769230768" x2="278.4375" y2="81.69230769230768" fill="rgb(0, 0, 0)" stroke="rgb(66, 66, 66)" stroke-width="1px" opacity="0.25"></line><line x1="0" y1="68.07692307692305" x2="278.4375" y2="68.07692307692305" fill="rgb(0, 0, 0)" stroke="rgb(66, 66, 66)" stroke-width="1px" opacity="0.25"></line><line x1="0" y1="54.461538461538424" x2="278.4375" y2="54.461538461538424" fill="rgb(0, 0, 0)" stroke="rgb(66, 66, 66)" stroke-width="1px" opacity="0.25"></line><line x1="0" y1="40.846153846153875" x2="278.4375" y2="40.846153846153875" fill="rgb(0, 0, 0)" stroke="rgb(66, 66, 66)" stroke-width="1px" opacity="0.25"></line><line x1="0" y1="27.23076923076925" x2="278.4375" y2="27.23076923076925" fill="rgb(0, 0, 0)" stroke="rgb(66, 66, 66)" stroke-width="1px" opacity="0.25"></line><line x1="0" y1="13.615384615384626" x2="278.4375" y2="13.615384615384626" fill="rgb(0, 0, 0)" stroke="rgb(66, 66, 66)" stroke-width="1px" opacity="0.25"></line><line x1="0" y1="0" x2="278.4375" y2="0" fill="rgb(0, 0, 0)" stroke="rgb(66, 66, 66)" stroke-width="1px" opacity="0.25"></line></g></g></g><g><g><line x1="0" y1="680.7692307692307" x2="278.4375" y2="680.7692307692307" fill="rgb(0, 0, 0)" stroke="rgb(153, 153, 153)" stroke-width="1.5px"></line></g></g><g><g><line x1="34.8046875" y1="0" x2="34.8046875" y2="177" fill="rgb(0, 0, 0)" stroke="rgb(153, 153, 153)" stroke-width="1.5px"></line></g></g><g><g><g><g><g><path stroke="rgb(255, 112, 67)" stroke-width="2px" d="M37.589062500000004,178.5713721933555L38.28515625,174.8644087711703L38.98125,172.7541078843803L39.67734375,171.52638117699715L40.373437499999994,170.80307700724242L41.06953125,170.3737879984519L41.765625,170.0867356262466L42.461718749999996,169.79071938173087L43.1578125,169.0539814413035L43.85390625,167.02804713490343L44.550000000000004,163.12688595078674L45.24609375,157.04543232524148L45.9421875,149.36116964205573L46.638281250000006,143.04382308932136L47.334375,137.03399833905334L48.03046875,132.357260468316L48.7265625,128.94593740044445L49.422656249999996,126.52665715412445L50.11875,124.88884321667766L50.81484375,124.12347838690759L51.5109375,123.43143027522076L52.20703125,122.3642588803917L52.903125,121.58425854182926L53.59921875,120.96102735182149L54.2953125,120.41634076944985L54.991406250000004,120.01192946088345L55.6875,119.31913757537421L56.38359375,119.02762815777591L57.0796875,118.4957097562987L57.775781249999994,117.95926073126915L58.471875,117.35797804299858L59.16796875,116.81094373640832L59.864062499999996,116.17227658000625L60.56015625,115.30788166237386L61.25625,114.52536431370349L61.952343750000004,113.85407255909952L62.6484375,113.15636758046284L63.34453125,112.73774459363905L64.040625,112.05195858239782L64.73671875000001,111.36107369744518L65.4328125,110.63609619238021L66.12890625,110.1390268668794L66.825,109.3440739991203L67.52109374999999,108.64978805350226L68.2171875,108.09351796239804L68.91328125,107.29407793112823L69.609375,106.51950021696042L70.30546875,105.63564178643304L71.0015625,104.91906202979591L71.69765625000001,104.24076665498602L72.39375,103.39916098014669L73.08984375,102.66136670234079L73.7859375,102.01689255860639L74.48203125,101.2421457969929L75.17812500000001,100.63759921628328L75.87421875000001,100.07308992160982L76.5703125,99.02035884736912L77.26640625,98.0006579274518L77.9625,97.0007751001283L78.65859375,95.87308460461966L79.3546875,95.18095365938885L80.05078125,94.25344717186482L80.74687499999999,93.40201335313847L81.44296874999999,92.22369373904657L82.1390625,90.98894117147685L82.83515625,90.2791391575897L83.53125,89.27893097556249L84.22734375,88.39940901886315L84.92343749999999,87.63886497194108L85.61953125,86.6702943925991L86.315625,85.67005647376935L87.01171875,84.8681161454205L87.7078125,84.20068725008919L88.40390625,83.56739903998788L89.10000000000001,82.56653296565149L89.79609375,82.01257949563023L90.4921875,81.41632701406019L91.18828125,80.76364559890618L91.884375,80.07712305440509L92.58046875000001,79.49446147730818L93.27656250000001,78.8965007794184L93.97265625,78.2738439611274L94.66875,77.65190234932452L95.36484375,76.99934033475975L96.0609375,76.46808837147613L96.75703125,75.963072495184L97.453125,75.33409974734514L98.14921874999999,74.92566657198708L98.84531249999999,74.07524639722574L99.54140625,73.72020946403615L100.2375,73.0570422062431L100.93359375,72.3486952774295L101.6296875,72.01681946930245L102.32578124999999,71.2278503628054L103.021875,70.76998554683291L103.71796875,70.23138625769212L104.4140625,69.65987916337946L105.11015625,69.41010725595281L105.80625,68.7635328390371L106.50234375000001,68.25140631307187L107.1984375,67.5871176487745L107.89453125,66.90914740271309L108.590625,66.4402662017667L109.28671875,65.77089143662914L109.98281250000001,65.08985329926031L110.67890625000001,64.63466424225857L111.375,64.11320328722925L112.07109375,63.6140457850864L112.7671875,62.8178400113409L113.46328125,62.153851848771595L114.159375,61.80202512581048L114.85546875,61.31153204455085L115.55156249999999,60.76887244416351L116.24765624999999,59.93104876354564L116.94375,59.242089856852914L117.63984375,58.78214833825673L118.3359375,57.90080692674932L119.03203125,57.41856825442534L119.72812499999999,56.834311355622184L120.42421875,56.56135668677232L121.1203125,55.90087261300264L121.81640625,55.489065520815046L122.5125,54.9160018126358L123.20859375,54.52559741314768L123.90468750000001,54.089573427207014L124.60078125,53.51751246150491L125.296875,53.096660180848374L125.99296875,52.62683458747768L126.6890625,52.06554218397228L127.38515625000001,51.89951479226529L128.08125,51.365269907287534L128.77734375,50.56352835176696L129.47343750000002,50.26876434757987L130.16953125,50.340253465895884L130.865625,49.99508466151242L131.56171874999998,49.88111572804341L132.2578125,49.39363879673743L132.95390625,49.05458646337331L133.65,48.58727466379758L134.34609375,48.291370936126434L135.04218749999998,47.896514474547004L135.73828125,47.442286372622554L136.434375,47.03005098772641L137.13046875,46.62747835431817L137.8265625,46.54116617674376L138.52265625,45.713254319453135L139.21875,45.83740035335425L139.91484375,45.21339535498739L140.6109375,44.807942829312545L141.30703125,44.331840441005156L142.003125,44.108261830526956L142.69921875,44.09829654005575L143.39531250000002,44.0768007178473L144.09140624999998,43.474043372098144L144.7875,42.972690440907165L145.48359374999998,42.74949438342785L146.1796875,42.631093396866056L146.87578125,42.35827145868129L147.571875,42.11696259453511L148.26796875,41.72382975521912L148.9640625,41.410334350394294L149.66015625,40.86522435878106L150.35625000000002,40.69337353548045L151.05234375,40.38848169525227L151.74843750000002,40.36076176278263L152.44453124999998,40.11129893039841L153.140625,39.66669130475582L153.83671875,39.16709585646773L154.5328125,38.91390476207536L155.22890625,38.69990728293371L155.925,38.804339668351254L156.62109375,37.889093202607974L157.3171875,37.88322277020229L158.01328125,37.351939711644356L158.709375,37.01765322858384L159.40546875,36.97231274121805L160.1015625,36.49494712011605L160.79765625000002,36.30167632741919L161.49374999999998,36.030482449330435L162.18984375,35.82119994789673L162.88593749999998,35.58698144994976L163.58203125,35.43091747245254L164.278125,35.0268325118165L164.97421875,34.89304676332488L165.6703125,34.50232874009209L166.36640625,34.50072879905492L167.0625,34.251405082801135L167.75859375000002,33.993161855962214L168.4546875,33.63641834280778L169.15078125000002,33.5155208148794L169.84687499999998,33.02387049609458L170.54296875,32.68231413024323L171.2390625,32.477380310732386L171.93515625,31.950841095727153L172.63125,31.80566561712019L173.32734375,31.423630403744102L174.0234375,31.27202497695362L174.71953125,31.103446019644068L175.415625,30.92469917482641L176.11171875,30.646703017539558L176.8078125,30.30915727277119L177.50390625,30.230811701725795L178.20000000000002,30.013056308702417L178.89609374999998,29.82030401957888L179.5921875,29.642569823598528L180.28828124999998,29.116833734785782L180.984375,29.00317342774581L181.68046875,28.671096843964627L182.3765625,28.223503372867697L183.07265625,28.03254676064151L183.76875,28.011121373270115L184.46484375,27.936167087537758L185.16093750000002,27.937760690678775L185.85703125,27.6282702784256L186.55312500000002,27.489142205654264L187.24921874999998,26.92447073745742L187.9453125,27.035829185221854L188.64140625,27.07159472722576L189.3375,26.580809901239245L190.03359375,26.550219405204686L190.7296875,26.438732758422983L191.42578125,26.014828021635594L192.121875,25.88466705537896L192.81796875,25.589256250648223L193.5140625,25.505142116970823L194.21015625,25.066611361391324L194.90625,24.741410085537336L195.60234375000002,24.484206497518674L196.29843749999998,24.236751995546516L196.99453125,24.010663593128044L197.69062499999998,24.154407599159956L198.38671875,24.163038301543814L199.0828125,23.68703832924335L199.77890625,23.370388819208333L200.475,23.149349586532516L201.17109375,23.26508979855858L201.8671875,23.44318292286096L202.56328125000002,22.913629001241134L203.259375,22.595896648269253L203.95546875000002,22.40525723648608L204.65156249999998,22.33743976399667L205.34765625,22.35883210300935L206.04375,21.96808858311815L206.73984375,21.531861124935688L207.4359375,21.766835922485946L208.13203125,21.50424187771734L208.828125,21.08280505129892L209.52421875,21.062773828350398L210.2203125,21.081804621236003L210.91640625,21.062173570312638L211.6125,21.003828765178127L212.30859375,20.798073831701203L213.00468750000002,20.674620871614962L213.70078124999998,20.50741674640225L214.396875,20.345011448768354L215.09296874999998,20.511448669745256L215.7890625,20.099066851142656L216.48515625,20.03790245830315L217.18125,19.90807147343838L217.87734375,19.612858657542766L218.5734375,19.66857807171123L219.26953125,19.57782784439649L219.96562500000002,19.39919583219189L220.66171875,19.18336762778244L221.35781250000002,19.10043687971726L222.05390624999998,18.926496555062343L222.75,18.527202434057383L223.44609375,18.76882058598842L224.1421875,18.618877781738306L224.83828125,18.69964391878123L225.534375,18.297958503127745L226.23046875,18.382926706602426L226.9265625,18.30972575287141L227.62265625,18.095057130236665L228.31875,18.152520654977742L229.01484375,17.92311837026515L229.7109375,17.785476999437616L230.40703125000002,17.702892176941063L231.10312499999998,17.839605981765143L231.79921875,17.50253869343505L232.49531249999998,17.564178719994295L233.19140625,17.337282336372606L233.8875,17.371892556595824L234.58359375,17.29952633956871L235.2796875,17.287139905203976L235.97578125,17.01584387583107L236.671875,16.651268681156388L237.36796875000002,16.556705440167327L238.0640625,17.213992993010418L238.76015625000002,17.00298902436649L239.45624999999998,16.98505187107013L240.15234375,16.772492002041268L240.8484375,16.42764185564729L241.54453125,16.313864116971878L242.240625,16.245597473766587L242.93671875,16.344336011584943" style="fill: none;" fill="none"></path></g></g></g></g><g opacity="0.2"><g><g><g><path stroke="rgb(255, 112, 67)" stroke-width="2px" d="M34.8046875,327.5593186800296L35.50078125,169.34830592228815L36.196875,169.73634385145627L36.89296875,169.73634385145627L37.589062500000004,169.73634385145627L38.28515625,169.73634385145627L38.98125,169.73634385145627L39.67734375,169.73634385145627L40.373437499999994,169.73634385145627L41.06953125,169.73634385145627L41.765625,169.65876061182755L42.461718749999996,169.34830592228815L43.1578125,167.95128010786496L43.85390625,163.99311469151422L44.550000000000004,157.27972984313965L45.24609375,147.92754099919244L45.9421875,137.8380273397152L46.638281250000006,133.56940723382507L47.334375,128.020176749963L48.03046875,125.34258113457605L48.7265625,123.82913988370163L49.422656249999996,122.8978163920916L50.11875,122.43215464628659L50.81484375,122.97544020872849L51.5109375,122.39336302647224L52.20703125,120.76350633914655L52.903125,120.41426002979279L53.59921875,120.02618152361649L54.2953125,119.59931139762585L54.991406250000004,119.40531272154587L55.6875,118.2799499768477L56.38359375,118.59036408937894L57.0796875,117.69783221758328L57.775781249999994,117.15458723214957L58.471875,116.45605403643387L59.16796875,115.99039229062888L59.864062499999996,115.21427585528447L60.56015625,114.01128929394943L61.25625,113.35158829505627L61.952343750000004,112.84713492943689L62.6484375,112.10981011390686L63.34453125,112.10981011390686L64.040625,111.02327956603123L64.73671875000001,110.32474637031555L65.4328125,109.54862993497116L66.12890625,109.39342287870554L66.825,108.15164469755612L67.52109374999999,107.60835913511423L68.2171875,107.25911282576047L68.91328125,106.09491788423978L69.609375,105.35763364571793L70.30546875,104.30985414064847L71.0015625,103.84419239484346L71.69765625000001,103.22332359277284L72.39375,102.13675246788904L73.08984375,101.55467528563278L73.7859375,101.05018134300524L74.48203125,100.0800256545727L75.17812500000001,99.73077934521896L75.87421875000001,99.22632597959958L76.5703125,97.44126223600827L77.26640625,96.47110654757573L77.9625,95.50095085914319L78.65859375,94.18154886135689L79.3546875,94.14275724154251L80.05078125,92.86218744057877L80.74687499999999,92.1248626250487L81.44296874999999,90.45621431790865L82.1390625,89.13681232012235L82.83515625,89.21443613675925L83.53125,87.77861870252168L84.22734375,87.08012608381418L84.92343749999999,86.49804890155792L85.61953125,85.21743852358597L86.315625,84.16969959552472L87.01171875,83.66520565289719L87.7078125,83.19954390709216L88.40390625,82.61746672483591L89.10000000000001,81.06523385414711L89.79609375,81.18164929059834L90.4921875,80.5219482917052L91.18828125,79.78462347617516L91.884375,79.04733923765329L92.58046875000001,78.62046911166264L93.27656250000001,77.99955973258385L93.97265625,77.33985873369069L94.66875,76.71898993162007L95.36484375,76.02049731291257L96.0609375,75.67121042655064L96.75703125,75.20554868074564L97.453125,74.39064062558687L98.14921874999999,74.31301680894998L98.84531249999999,72.79961613508371L99.54140625,73.18765406425183L100.2375,72.06229131955368L100.93359375,71.28617488420926L101.6296875,71.51900575711177L102.32578124999999,70.04439670305985L103.021875,70.08318832287422L103.71796875,69.42348732398106L104.4140625,68.80261852191045L105.11015625,69.03544939481294L105.80625,67.79367121366353L106.50234375000001,67.48321652412415L107.1984375,66.59068465232849L107.89453125,65.89219203362099L108.590625,65.73694440034718L109.28671875,64.76682928892282L109.98281250000001,64.06829609320714L110.67890625000001,63.951880656755876L111.375,63.33101185468526L112.07109375,62.86530953187209L112.7671875,61.623531350722686L113.46328125,61.15786960491768L114.159375,61.27428504136891L114.85546875,60.57579242266141L115.55156249999999,59.95488304358262L116.24765624999999,58.67431324261886L116.94375,58.20865149681385L117.63984375,58.092236060362595L118.3359375,56.578794809488144L119.03203125,56.69521024593941L119.72812499999999,55.95792600741753L120.42421875,56.151924683497505L121.1203125,54.9101465023481L121.81640625,54.87135488253373L122.5125,54.05640625036679L123.20859375,53.93999081391555L123.90468750000001,53.435537448296174L124.60078125,52.659421012951775L125.296875,52.46538175986363L125.99296875,51.92209619742173L126.6890625,51.22360357871422L127.38515625000001,51.650473704704865L128.08125,50.56390257982106L128.77734375,49.36091601848602L129.47343750000002,49.82661834129921L130.16953125,50.44748714336983L130.865625,49.47733145493728L131.56171874999998,49.710162327839775L132.2578125,48.66242339977852L132.95390625,48.546007963327256L133.65,47.8863069644341L134.34609375,47.84751534461975L135.04218749999998,47.30422978217785L135.73828125,46.76094421973595L136.434375,46.411697910382195L137.13046875,46.0236194042059L137.8265625,46.411697910382195L138.52265625,44.471386533517105L139.21875,46.0236194042059L139.91484375,44.277387857437134L140.6109375,44.19976404080025L141.30703125,43.617686858543976L142.003125,43.7728939148096L142.69921875,44.083348604348984L143.39531250000002,44.04455698453464L144.09140624999998,42.56990735347454L144.7875,42.22066104412079L145.48359374999998,42.41470029720894L146.1796875,42.453491917023285L146.87578125,41.94903855140392L147.571875,41.75499929831578L148.26796875,41.13413049624516L148.9640625,40.94009124315701L149.66015625,40.04755937136136L150.35625000000002,40.43559730052948L151.05234375,39.93114393491012L151.74843750000002,40.319181864078224L152.44453124999998,39.737104681821975L153.140625,38.999779866291924L153.83671875,38.417702684035675L154.5328125,38.534118120486916L155.22890625,38.378911064221306L155.925,38.960988246477555L156.62109375,36.51622350399311L157.3171875,37.87441712159377L158.01328125,36.55501512380746L158.709375,36.51622350399311L159.40546875,36.9043020101694L160.1015625,35.77889868846306L160.79765625000002,36.01177013837375L161.49374999999998,35.623691632197456L162.18984375,35.5072761957462L162.88593749999998,35.235653703029335L163.58203125,35.19682150620681L164.278125,34.4207050708624L164.97421875,34.69236814058743L165.6703125,33.916251705243035L166.36640625,34.498328887499284L167.0625,33.877419508420495L167.75859375000002,33.60579701570363L168.4546875,33.101303073076096L169.15078125000002,33.334174522986785L169.84687499999998,32.286395017917336L170.54296875,32.169979581466094L171.2390625,32.169979581466094L171.93515625,31.161032273219185L172.63125,31.587902399209828L173.32734375,30.85057758367978L174.0234375,31.044616836767926L174.71953125,30.85057758367978L175.415625,30.656578907599823L176.11171875,30.229708781609162L176.8078125,29.80283865561852L177.50390625,30.113293345157924L178.20000000000002,29.68642321916726L178.89609374999998,29.531175585893482L179.5921875,29.375968529627876L180.28828124999998,28.328229601566616L180.984375,28.832682967185974L181.68046875,28.172981968292817L182.3765625,27.5521131662222L183.07265625,27.746111842302174L183.76875,27.97898329221286L184.46484375,27.82373565893906L185.16093750000002,27.94015109539032L185.85703125,27.164034660045925L186.55312500000002,27.280450096497162L187.24921874999998,26.07746353516212L187.9453125,27.202866856868443L188.64140625,27.125243040231556L189.3375,25.844632662259606L190.03359375,26.504333661152764L190.7296875,26.27150278825027L191.42578125,25.378970916454616L192.121875,25.689425605994L192.81796875,25.146140043552098L193.5140625,25.378970916454616L194.21015625,24.40881522802205L194.90625,24.253608171756444L195.60234375000002,24.098401115490837L196.29843749999998,23.865570242588344L196.99453125,23.671530989500194L197.69062499999998,24.370023608207703L198.38671875,24.175984355119557L199.0828125,22.97303837079269L199.77890625,22.895414554155778L200.475,22.81779073751889L201.17109375,23.43870011659768L201.8671875,23.710322609314545L202.56328125000002,22.119298118811383L203.259375,22.119298118811383L203.95546875000002,22.119298118811383L204.65156249999998,22.23571355526264L205.34765625,22.390920611528248L206.04375,21.381973303281335L206.73984375,20.877519937661976L207.4359375,22.119298118811383L208.13203125,21.11035081056449L208.828125,20.450649811671333L209.52421875,21.032726993927582L210.2203125,21.11035081056449L210.91640625,21.032726993927582L211.6125,20.916311557476345L212.30859375,20.48944143148568L213.00468750000002,20.48944143148568L213.70078124999998,20.256610558583183L214.396875,20.101403502317577L215.09296874999998,20.761104501210717L215.7890625,19.48049412323879L216.48515625,19.9461558690438L217.18125,19.713324996141285L217.87734375,19.170039433699383L218.5734375,19.752157192963825L219.26953125,19.44170250342442L219.96562500000002,19.131247813885036L220.66171875,18.85962532116817L221.35781250000002,18.97604075761941L222.05390624999998,18.665586068080025L222.75,17.928261252549976L223.44609375,19.131247813885036L224.1421875,18.39396357536316L224.83828125,18.82079312434563L225.534375,17.69543037964748L226.23046875,18.51037901181442L226.9265625,18.199924322275013L227.62265625,17.77305419628437L228.31875,18.23871594208938L229.01484375,17.57901494319622L229.7109375,17.57901494319622L230.40703125000002,17.57901494319622L231.10312499999998,18.044676689001232L231.79921875,16.99693776093997L232.49531249999998,17.65663875983311L233.19140625,16.99693776093997L233.8875,17.423807886930614L234.58359375,17.1909770140281L235.2796875,17.268560253656837L235.97578125,16.60889983177185L236.671875,16.104405889144317L237.36796875000002,16.414860578683705L238.0640625,18.199924322275013L238.76015625000002,16.686483071400566L239.45624999999998,16.958146141125603L240.15234375,16.453652198498073L240.8484375,15.910366636056171L241.54453125,16.143197508958668L242.240625,16.143197508958668L242.93671875,16.49244381831242" style="fill: none;" fill="none"></path></g></g></g></g></g></g><g transform="translate(51, 177)" clip-path="url(#clip_1)"><clipPath id="clip_1"><rect width="278" height="23"></rect></clipPath><g><g><line x1="0" y1="0" x2="0" y2="5" style="visibility: inherit;" fill="rgb(0, 0, 0)" stroke="rgb(204, 204, 204)" stroke-width="1px"></line><line x1="34.8046875" y1="0" x2="34.8046875" y2="5" style="visibility: inherit;" fill="rgb(0, 0, 0)" stroke="rgb(204, 204, 204)" stroke-width="1px"></line><line x1="69.609375" y1="0" x2="69.609375" y2="5" style="visibility: inherit;" fill="rgb(0, 0, 0)" stroke="rgb(204, 204, 204)" stroke-width="1px"></line><line x1="104.4140625" y1="0" x2="104.4140625" y2="5" style="visibility: inherit;" fill="rgb(0, 0, 0)" stroke="rgb(204, 204, 204)" stroke-width="1px"></line><line x1="139.21875" y1="0" x2="139.21875" y2="5" style="visibility: inherit;" fill="rgb(0, 0, 0)" stroke="rgb(204, 204, 204)" stroke-width="1px"></line><line x1="174.0234375" y1="0" x2="174.0234375" y2="5" style="visibility: inherit;" fill="rgb(0, 0, 0)" stroke="rgb(204, 204, 204)" stroke-width="1px"></line><line x1="208.828125" y1="0" x2="208.828125" y2="5" style="visibility: inherit;" fill="rgb(0, 0, 0)" stroke="rgb(204, 204, 204)" stroke-width="1px"></line><line x1="243.6328125" y1="0" x2="243.6328125" y2="5" style="visibility: inherit;" fill="rgb(0, 0, 0)" stroke="rgb(204, 204, 204)" stroke-width="1px"></line><line x1="278.4375" y1="0" x2="278.4375" y2="5" style="visibility: inherit;" fill="rgb(0, 0, 0)" stroke="rgb(204, 204, 204)" stroke-width="1px"></line></g><g transform="translate(0, 8)"><text x="0" y="0" dx="0em" dy="0.95em" style="text-anchor: middle; visibility: hidden; font-family: Roboto, sans-serif; font-size: 12px; font-weight: 200;" fill="rgb(33, 33, 33)" stroke="none" stroke-width="1px">-50</text><text x="34.8046875" y="0" dx="0em" dy="0.95em" style="text-anchor: middle; visibility: inherit; font-family: Roboto, sans-serif; font-size: 12px; font-weight: 200;" fill="rgb(33, 33, 33)" stroke="none" stroke-width="1px">0</text><text x="69.609375" y="0" dx="0em" dy="0.95em" style="text-anchor: middle; visibility: inherit; font-family: Roboto, sans-serif; font-size: 12px; font-weight: 200;" fill="rgb(33, 33, 33)" stroke="none" stroke-width="1px">50</text><text x="104.4140625" y="0" dx="0em" dy="0.95em" style="text-anchor: middle; visibility: inherit; font-family: Roboto, sans-serif; font-size: 12px; font-weight: 200;" fill="rgb(33, 33, 33)" stroke="none" stroke-width="1px">100</text><text x="139.21875" y="0" dx="0em" dy="0.95em" style="text-anchor: middle; visibility: inherit; font-family: Roboto, sans-serif; font-size: 12px; font-weight: 200;" fill="rgb(33, 33, 33)" stroke="none" stroke-width="1px">150</text><text x="174.0234375" y="0" dx="0em" dy="0.95em" style="text-anchor: middle; visibility: inherit; font-family: Roboto, sans-serif; font-size: 12px; font-weight: 200;" fill="rgb(33, 33, 33)" stroke="none" stroke-width="1px">200</text><text x="208.828125" y="0" dx="0em" dy="0.95em" style="text-anchor: middle; visibility: inherit; font-family: Roboto, sans-serif; font-size: 12px; font-weight: 200;" fill="rgb(33, 33, 33)" stroke="none" stroke-width="1px">250</text><text x="243.6328125" y="0" dx="0em" dy="0.95em" style="text-anchor: middle; visibility: inherit; font-family: Roboto, sans-serif; font-size: 12px; font-weight: 200;" fill="rgb(33, 33, 33)" stroke="none" stroke-width="1px">300</text><text x="278.4375" y="0" dx="0em" dy="0.95em" style="text-anchor: middle; visibility: hidden; font-family: Roboto, sans-serif; font-size: 12px; font-weight: 200;" fill="rgb(33, 33, 33)" stroke="none" stroke-width="1px">350</text></g><line x1="0" y1="0" x2="278.4375" y2="0" fill="rgb(0, 0, 0)" stroke="rgb(204, 204, 204)" stroke-width="1px"></line></g></g></g></g></svg>