<svg viewBox="0 0 330 200" xmlns="http://www.w3.org/2000/svg"><g><g><g><g><g><line x1="51.5625" y1="177" x2="46.5625" y2="177" style="visibility: inherit;" fill="rgb(0, 0, 0)" stroke="rgb(204, 204, 204)" stroke-width="1px"></line><line x1="51.5625" y1="154.87499999999997" x2="46.5625" y2="154.87499999999997" style="visibility: inherit;" fill="rgb(0, 0, 0)" stroke="rgb(204, 204, 204)" stroke-width="1px"></line><line x1="51.5625" y1="132.74999999999997" x2="46.5625" y2="132.74999999999997" style="visibility: inherit;" fill="rgb(0, 0, 0)" stroke="rgb(204, 204, 204)" stroke-width="1px"></line><line x1="51.5625" y1="110.62499999999996" x2="46.5625" y2="110.62499999999996" style="visibility: inherit;" fill="rgb(0, 0, 0)" stroke="rgb(204, 204, 204)" stroke-width="1px"></line><line x1="51.5625" y1="88.50000000000006" x2="46.5625" y2="88.50000000000006" style="visibility: inherit;" fill="rgb(0, 0, 0)" stroke="rgb(204, 204, 204)" stroke-width="1px"></line><line x1="51.5625" y1="66.37500000000004" x2="46.5625" y2="66.37500000000004" style="visibility: inherit;" fill="rgb(0, 0, 0)" stroke="rgb(204, 204, 204)" stroke-width="1px"></line><line x1="51.5625" y1="44.25000000000004" x2="46.5625" y2="44.25000000000004" style="visibility: inherit;" fill="rgb(0, 0, 0)" stroke="rgb(204, 204, 204)" stroke-width="1px"></line><line x1="51.5625" y1="22.12500000000002" x2="46.5625" y2="22.12500000000002" style="visibility: inherit;" fill="rgb(0, 0, 0)" stroke="rgb(204, 204, 204)" stroke-width="1px"></line><line x1="51.5625" y1="0" x2="46.5625" y2="0" style="visibility: inherit;" fill="rgb(0, 0, 0)" stroke="rgb(204, 204, 204)" stroke-width="1px"></line></g><g transform="translate(41.5625, 0)"><text x="0" y="177" dx="0em" dy="0.3em" style="text-anchor: end; visibility: hidden; font-family: Roboto, sans-serif; font-size: 12px; font-weight: 200;" fill="rgb(33, 33, 33)" stroke="none" stroke-width="1px">0.74</text><text x="0" y="154.87499999999997" dx="0em" dy="0.3em" style="text-anchor: end; visibility: inherit; font-family: Roboto, sans-serif; font-size: 12px; font-weight: 200;" fill="rgb(33, 33, 33)" stroke="none" stroke-width="1px">0.76</text><text x="0" y="132.74999999999997" dx="0em" dy="0.3em" style="text-anchor: end; visibility: hidden; font-family: Roboto, sans-serif; font-size: 12px; font-weight: 200;" fill="rgb(33, 33, 33)" stroke="none" stroke-width="1px">0.78</text><text x="0" y="110.62499999999996" dx="0em" dy="0.3em" style="text-anchor: end; visibility: inherit; font-family: Roboto, sans-serif; font-size: 12px; font-weight: 200;" fill="rgb(33, 33, 33)" stroke="none" stroke-width="1px">0.8</text><text x="0" y="88.50000000000006" dx="0em" dy="0.3em" style="text-anchor: end; visibility: hidden; font-family: Roboto, sans-serif; font-size: 12px; font-weight: 200;" fill="rgb(33, 33, 33)" stroke="none" stroke-width="1px">0.82</text><text x="0" y="66.37500000000004" dx="0em" dy="0.3em" style="text-anchor: end; visibility: inherit; font-family: Roboto, sans-serif; font-size: 12px; font-weight: 200;" fill="rgb(33, 33, 33)" stroke="none" stroke-width="1px">0.84</text><text x="0" y="44.25000000000004" dx="0em" dy="0.3em" style="text-anchor: end; visibility: hidden; font-family: Roboto, sans-serif; font-size: 12px; font-weight: 200;" fill="rgb(33, 33, 33)" stroke="none" stroke-width="1px">0.86</text><text x="0" y="22.12500000000002" dx="0em" dy="0.3em" style="text-anchor: end; visibility: inherit; font-family: Roboto, sans-serif; font-size: 12px; font-weight: 200;" fill="rgb(33, 33, 33)" stroke="none" stroke-width="1px">0.88</text><text x="0" y="0" dx="0em" dy="0.3em" style="text-anchor: end; visibility: hidden; font-family: Roboto, sans-serif; font-size: 12px; font-weight: 200;" fill="rgb(33, 33, 33)" stroke="none" stroke-width="1px">0.9</text></g><line x1="51.5625" y1="0" x2="51.5625" y2="177" fill="rgb(0, 0, 0)" stroke="rgb(204, 204, 204)" stroke-width="1px"></line></g></g><g transform="translate(51, 0)" clip-path="url(#clip_0)"><clipPath id="clip_0"><rect width="278" height="177"></rect></clipPath><g><g><g><line x1="0" y1="0" x2="0" y2="177" fill="rgb(0, 0, 0)" stroke="rgb(66, 66, 66)" stroke-width="1px" opacity="0.25"></line><line x1="23.203125" y1="0" x2="23.203125" y2="177" fill="rgb(0, 0, 0)" stroke="rgb(66, 66, 66)" stroke-width="1px" opacity="0.25"></line><line x1="46.40625" y1="0" x2="46.40625" y2="177" fill="rgb(0, 0, 0)" stroke="rgb(66, 66, 66)" stroke-width="1px" opacity="0.25"></line><line x1="69.609375" y1="0" x2="69.609375" y2="177" fill="rgb(0, 0, 0)" stroke="rgb(66, 66, 66)" stroke-width="1px" opacity="0.25"></line><line x1="92.8125" y1="0" x2="92.8125" y2="177" fill="rgb(0, 0, 0)" stroke="rgb(66, 66, 66)" stroke-width="1px" opacity="0.25"></line><line x1="116.015625" y1="0" x2="116.015625" y2="177" fill="rgb(0, 0, 0)" stroke="rgb(66, 66, 66)" stroke-width="1px" opacity="0.25"></line><line x1="139.21875" y1="0" x2="139.21875" y2="177" fill="rgb(0, 0, 0)" stroke="rgb(66, 66, 66)" stroke-width="1px" opacity="0.25"></line><line x1="162.421875" y1="0" x2="162.421875" y2="177" fill="rgb(0, 0, 0)" stroke="rgb(66, 66, 66)" stroke-width="1px" opacity="0.25"></line><line x1="185.625" y1="0" x2="185.625" y2="177" fill="rgb(0, 0, 0)" stroke="rgb(66, 66, 66)" stroke-width="1px" opacity="0.25"></line><line x1="208.828125" y1="0" x2="208.828125" y2="177" fill="rgb(0, 0, 0)" stroke="rgb(66, 66, 66)" stroke-width="1px" opacity="0.25"></line><line x1="232.03125" y1="0" x2="232.03125" y2="177" fill="rgb(0, 0, 0)" stroke="rgb(66, 66, 66)" stroke-width="1px" opacity="0.25"></line><line x1="255.234375" y1="0" x2="255.234375" y2="177" fill="rgb(0, 0, 0)" stroke="rgb(66, 66, 66)" stroke-width="1px" opacity="0.25"></line><line x1="278.4375" y1="0" x2="278.4375" y2="177" fill="rgb(0, 0, 0)" stroke="rgb(66, 66, 66)" stroke-width="1px" opacity="0.25"></line></g><g><line x1="0" y1="177" x2="278.4375" y2="177" fill="rgb(0, 0, 0)" stroke="rgb(66, 66, 66)" stroke-width="1px" opacity="0.25"></line><line x1="0" y1="154.87499999999997" x2="278.4375" y2="154.87499999999997" fill="rgb(0, 0, 0)" stroke="rgb(66, 66, 66)" stroke-width="1px" opacity="0.25"></line><line x1="0" y1="132.74999999999997" x2="278.4375" y2="132.74999999999997" fill="rgb(0, 0, 0)" stroke="rgb(66, 66, 66)" stroke-width="1px" opacity="0.25"></line><line x1="0" y1="110.62499999999996" x2="278.4375" y2="110.62499999999996" fill="rgb(0, 0, 0)" stroke="rgb(66, 66, 66)" stroke-width="1px" opacity="0.25"></line><line x1="0" y1="88.50000000000006" x2="278.4375" y2="88.50000000000006" fill="rgb(0, 0, 0)" stroke="rgb(66, 66, 66)" stroke-width="1px" opacity="0.25"></line><line x1="0" y1="66.37500000000004" x2="278.4375" y2="66.37500000000004" fill="rgb(0, 0, 0)" stroke="rgb(66, 66, 66)" stroke-width="1px" opacity="0.25"></line><line x1="0" y1="44.25000000000004" x2="278.4375" y2="44.25000000000004" fill="rgb(0, 0, 0)" stroke="rgb(66, 66, 66)" stroke-width="1px" opacity="0.25"></line><line x1="0" y1="22.12500000000002" x2="278.4375" y2="22.12500000000002" fill="rgb(0, 0, 0)" stroke="rgb(66, 66, 66)" stroke-width="1px" opacity="0.25"></line><line x1="0" y1="0" x2="278.4375" y2="0" fill="rgb(0, 0, 0)" stroke="rgb(66, 66, 66)" stroke-width="1px" opacity="0.25"></line></g></g></g><g><g><line x1="0" y1="995.6249999999999" x2="278.4375" y2="995.6249999999999" fill="rgb(0, 0, 0)" stroke="rgb(153, 153, 153)" stroke-width="1.5px"></line></g></g><g><g><line x1="23.203125" y1="0" x2="23.203125" y2="177" fill="rgb(0, 0, 0)" stroke="rgb(153, 153, 153)" stroke-width="1.5px"></line></g></g><g><g><g><g><g><path stroke="rgb(255, 112, 67)" stroke-width="2px" d="M29.00390625,184.32180310049296L30.1640625,176.45138399959959L31.32421875,171.87254702476307L32.484375,169.1749663200266L33.64453125,167.57392239508755L34.8046875,166.61951437630478L35.96484375000001,166.04909044048193L37.125,165.70763179905225L38.28515625,165.50304225799417L39.4453125,165.3803911895523L40.60546875,165.30683746686438L41.765625,165.26271851570053L42.92578125,165.23625192492096L44.0859375,165.22037369084353L45.24609375,165.21084736965523L46.40625,165.20513179985764L47.56640625,165.20170253822454L48.7265625,165.19964501013243L49.88671875,165.19841050367643L51.04687499999999,165.17245517898127L52.20703125,165.05599727272758L53.36718750000001,164.98612265611507L54.52734375,164.54060658767347L55.6875,163.99583143757758L56.84765625,163.03836513909403L58.0078125,161.07658377704115L59.16796875,158.86534912521688L60.328125,155.9495112882552L61.48828125,152.1568913318773L62.6484375,147.93908669600447L63.80859375,142.96169555447304L64.96875,137.35199788473446L66.12890625,132.01873204672296L67.2890625,126.37206416996324L68.44921875,120.66348058218801L69.609375,115.64923335051728L70.76953125,111.20292799816848L71.92968750000001,107.65231893643335L73.08984375,103.47883621491958L74.25,99.83966970190114L75.41015625,97.53007065487223L76.5703125,95.26145900021841L77.73046875,93.57239731982042L78.890625,92.0544846286253L80.05078125,90.58880585012888L81.2109375,89.81030954466708L82.37109375,88.88916518417612L83.53125,88.41214860157643L84.69140624999999,87.84849944517858L85.8515625,87.25805892232532L87.01171875,86.39931892563946L88.171875,85.83361944681421L89.33203125000001,85.26718965843921L90.4921875,84.624651650641L91.65234375,84.11300333145468L92.8125,83.78079978706366L93.97265625,83.58147766042907L95.1328125,83.53755441814158L96.29296875,82.98151023691582L97.453125,82.34520359340732L98.61328125,81.93817867936733L99.7734375,81.59307914437078L100.93359375,81.10855384147892L102.09374999999999,80.54037307785L103.25390625,79.8967844848993L104.4140625,79.5106313291288L105.57421875,79.07714388746601L106.73437500000001,78.564826768509L107.89453125,77.90430088154764L109.0546875,77.33140435404945L110.21484375,76.83632637016395L111.375,76.3627249595667L112.53515625,76.02810863239445L113.6953125,75.54987325419715L114.85546875,75.11159195989214L116.015625,74.67206856304324L117.17578125,74.08043346222591L118.3359375,73.64978236804222L119.49609374999999,72.96258606225143L120.65625,72.62593831247021L121.81640625,71.84380394593441L122.9765625,71.07184319123957L124.13671875000001,70.50778215185007L125.296875,69.6648698452426L126.45703125,69.2347924949713L127.6171875,68.371385815262L128.77734375,67.8785563603158L129.9375,67.45673317284077L131.09765625,67.10275467378305L132.2578125,66.25976637686739L133.41796875,65.52696329763796L134.578125,64.784601315327L135.73828125,64.46530964044774L136.8984375,63.87014353911914L138.05859375,63.2860337772419L139.21875,62.83465695848759L140.37890625,61.958470597688425L141.5390625,61.230963233008396L142.69921875,60.744029708441694L143.85937500000003,60.27528859838038L145.01953125,59.81748931207766L146.1796875,58.93742309569419L147.33984375,58.45983884667817L148.5,57.59314258060129L149.66015625,56.87132927275452L150.8203125,56.337356701473816L151.98046874999997,55.46204199491775L153.140625,54.48283296882415L154.30078125,53.81963751947464L155.4609375,53.24513925454368L156.62109375,52.2698654731592L157.78125,51.65946027639388L158.94140625,50.889652436988754L160.1015625,50.15030215145177L161.26171875000003,49.1517608163418L162.421875,47.92206119284996L163.58203125,47.00766042343358L164.7421875,46.03021431250322L165.90234375,45.54465760757297L167.0625,44.799277007399624L168.22265625,43.822358411442465L169.38281249999997,42.756946123773574L170.54296875,42.29427974649351L171.703125,41.285194136071674L172.86328125,40.35182170711076L174.0234375,39.99359379793473L175.18359375,39.6021024321632L176.34375,39.14019751162026L177.50390625,38.585588977400526L178.66406250000003,37.92490279416093L179.82421875,37.20059639656446L180.984375,36.33720690872611L182.14453125,35.89484324971641L183.3046875,35.22583395790934L184.46484375,34.67308831543849L185.625,34.038760795182824L186.78515624999997,33.48158328770798L187.9453125,33.29864322566511L189.10546875,32.96184271230411L190.265625,32.48232319744898L191.42578125,32.34595155592239L192.5859375,32.289343123885885L193.74609375,32.07882344439805L194.90625,31.775930641384026L196.06640625000003,31.4680694450684L197.2265625,30.829332525119046L198.38671875,30.521760406842848L199.546875,29.832741452903225L200.70703125,29.242775460273535L201.8671875,28.914010417574996L203.02734375,28.792421425649202L204.18749999999997,28.240233275454493L205.34765625,27.959349491096333L206.5078125,27.412469052014806L207.66796875,26.95821527405872L208.828125,26.55956386783301L209.98828125,26.16900658165569L211.1484375,25.682447555989956L212.30859375,25.113046558696535L213.46875000000003,24.79664688825516L214.62890625,24.455440643548485L215.7890625,23.922822209071796L216.94921875,23.67892118207916L218.109375,23.20465950317563L219.26953125,22.84443246214019L220.4296875,22.552626203825604L221.58984374999997,22.327113343078185L222.75,21.99001007842921L223.91015625,21.560738018559963L225.0703125,21.227504748944938L226.23046875,20.598759137895435L227.390625,20.57464738685292L228.55078125,20.08091920613289L229.7109375,19.683797711128197L230.87109375000003,19.01671916484491L232.03125,18.742571176526834L233.19140625,18.83033341255061L234.3515625,18.201960450925025L235.51171875,17.900606707643067L236.671875,17.4170879518452L237.83203125,17.1774321791805L238.99218749999997,17.00842416270242L240.15234375,16.680009251735697L241.3125,16.129824689568384L242.47265625,15.875383985961172L243.6328125,15.369583948209804L244.79296875,14.86430837735818L245.953125,14.460258448274756L247.11328125,14.470053144783936L248.27343750000003,13.971454279715527L249.43359375,13.319159345087266L250.59375,13.205247966204201L251.75390625,13.288241206260885L252.9140625,13.11102704921507L254.07421875,12.449793766255072" style="fill: none;" fill="none"></path></g></g></g></g><g opacity="0.2"><g><g><g><path stroke="rgb(255, 112, 67)" stroke-width="2px" d="M24.36328125,205.42840875685215L25.523437499999996,164.75517220795155L26.683593750000004,165.19655875861645L27.84375,165.19655875861645L29.00390625,165.19655875861645L30.1640625,165.19655875861645L31.32421875,165.19655875861645L32.484375,165.19655875861645L33.64453125,165.19655875861645L34.8046875,165.19655875861645L35.96484375000001,165.19655875861645L37.125,165.19655875861645L38.28515625,165.19655875861645L39.4453125,165.19655875861645L40.60546875,165.19655875861645L41.765625,165.19655875861645L42.92578125,165.19655875861645L44.0859375,165.19655875861645L45.24609375,165.19655875861645L46.40625,165.19655875861645L47.56640625,165.19655875861645L48.7265625,165.19655875861645L49.88671875,165.19655875861645L51.04687499999999,165.1335223764181L52.20703125,164.8813109099865L53.36718750000001,164.8813109099865L54.52734375,163.87233316898346L55.6875,163.17866921424866L56.84765625,161.60216622054577L58.0078125,158.13391238451004L59.16796875,155.5484975874424L60.328125,151.57575488090515L61.48828125,146.4679616689682L62.6484375,141.61237992346287L63.80859375,135.49560897052288L64.96875,128.937451466918L66.12890625,124.01883333921432L67.2890625,117.90206238627434L68.44921875,112.10060521960258L69.609375,108.12786251306534L70.76953125,104.53346997499466L71.92968750000001,102.32640534639359L73.08984375,97.21861213445663L74.25,94.38091993331909L75.41015625,94.06567208468914L76.5703125,91.85854151844978L77.73046875,91.03880479931831L78.890625,89.77761559188366L80.05078125,88.39028768241405L81.2109375,88.64256508648396L82.37109375,87.50744864344597L83.53125,87.69662372767925L84.69140624999999,87.00302571058273L85.8515625,86.37239813804626L87.01171875,85.11120893061161L88.171875,84.98507022857666L89.33203125000001,84.41754497587681L90.4921875,83.66084463894367L91.65234375,83.34553085267544L92.8125,83.2824944704771L93.97265625,83.2824944704771L95.1328125,83.47166955471039L96.29296875,82.1474439650774L97.453125,81.39074362814426L98.61328125,81.32764130830765L99.7734375,81.07542984187603L100.93359375,80.38176588714123L102.09374999999999,79.68810193240643L103.25390625,78.93140159547329L104.4140625,78.93140159547329L105.57421875,78.42691272497177L106.73437500000001,77.79635109007359L107.89453125,76.9135120511055L109.0546875,76.47205956280231L110.21484375,76.09370939433575L111.375,75.65232284367086L112.53515625,75.52618414163591L113.6953125,74.8325201869011L114.85546875,74.45417001843454L116.015625,74.01278346776964L117.17578125,73.19298081099988L118.3359375,73.0038057267666L119.49609374999999,71.93179160356523L120.65625,72.12096668779851L121.81640625,70.67060239613058L122.9765625,69.91390205919744L124.13671875000001,69.66169059276582L125.296875,68.40050138533117L126.45703125,68.58967646956445L127.6171875,67.07627579569818L128.77734375,67.13931217789651L129.9375,66.82399839162828L131.09765625,66.57178692519666L132.2578125,64.99528393149377L133.41796875,64.42775867879392L134.578125,63.67105834186079L135.73828125,63.98637212812903L136.8984375,62.97739438712599L138.05859375,62.40986913442614L139.21875,62.15759173035624L140.37890625,60.644191056489966L141.5390625,60.13970218598845L142.69921875,60.01362942159178L143.85937500000003,59.572176933288596L145.01953125,59.130790382623694L146.1796875,57.61732377111914L147.33984375,57.74346247315409L148.5,56.29309818148615L149.66015625,55.78860931098463L150.8203125,55.536397844553015L151.98046874999997,54.14906993508341L153.140625,53.01401942968371L154.30078125,52.82484434545042L155.4609375,52.38339185714724L156.62109375,50.80695480108263L157.78125,50.743852481246016L158.94140625,49.73494067788126L160.1015625,49.04127672314646L161.26171875000003,47.653948813676855L162.421875,46.07751175761225L163.58203125,45.636059269309065L164.7421875,44.564045146107695L165.90234375,44.816322550177595L167.0625,43.68120610713961L168.22265625,42.35698051750662L169.38281249999997,41.1588276922703L170.54296875,41.600280180573485L171.703125,39.77156572043898L172.86328125,38.951763063669226L174.0234375,39.456251934170744L175.18359375,39.01486538350584L176.34375,38.44734013080599L177.50390625,37.75367617607119L178.66406250000003,36.933873519301436L179.82421875,36.114136800169966L180.984375,35.042122676968596L182.14453125,35.23129776120188L183.3046875,34.22232002019884L184.46484375,33.843969851732275L185.625,33.08726951479914L186.78515624999997,32.645817026495955L187.9453125,33.024233132600806L189.10546875,32.45664194226267L190.265625,31.76304392516615L191.42578125,32.14139409363272L192.5859375,32.20443047583105L193.74609375,31.76304392516615L194.90625,31.321591436862967L196.06640625000003,31.006277650594733L197.2265625,29.87122714519503L198.38671875,30.060402229428313L199.546875,28.79921302199366L200.70703125,28.357826471328757L201.8671875,28.42086285352709L203.02734375,28.610037937760374L204.18749999999997,27.411951050162337L205.34765625,27.538023814559004L206.5078125,26.592148393392584L207.66796875,26.27683460712435L208.828125,25.9615867584944L209.98828125,25.583170652389548L211.1484375,24.952609017491362L212.30859375,24.25894506275656L213.46875000000003,24.322047382593176L214.62890625,23.943631276488325L215.7890625,23.123894557356856L216.94921875,23.31306964159014L218.109375,22.493266984820387L219.26953125,22.304091900587103L220.4296875,22.11491681635382L221.58984374999997,21.98884405195715L222.75,21.484355181455633L223.91015625,20.91682992875578L225.0703125,20.727654844522498L226.23046875,19.655640721321127L227.390625,20.538479760289214L228.55078125,19.340326935052893L229.7109375,19.088115468621275L230.87109375000003,18.016101345419905L232.03125,18.331349194049857L233.19140625,18.961976766586325L234.3515625,17.25940100848677L235.51171875,17.448576092720053L236.671875,16.691809818148634L237.83203125,16.817948520183585L238.99218749999997,16.75491213798525L240.15234375,16.1873868852854L241.3125,15.30454784631731L242.47265625,15.493722930550595L243.6328125,14.610883891582509L244.79296875,14.10639502108099L245.953125,13.854183554649373L247.11328125,14.484745189547558L248.27343750000003,13.223555982112904L249.43359375,12.340716943144818L250.59375,13.03438089787962L251.75390625,13.412731066346188L252.9140625,12.845205813646336L254.07421875,11.457943841815014" style="fill: none;" fill="none"></path></g></g></g></g></g></g><g transform="translate(51, 177)" clip-path="url(#clip_1)"><clipPath id="clip_1"><rect width="278" height="23"></rect></clipPath><g><g><line x1="0" y1="0" x2="0" y2="5" style="visibility: inherit;" fill="rgb(0, 0, 0)" stroke="rgb(204, 204, 204)" stroke-width="1px"></line><line x1="23.203125" y1="0" x2="23.203125" y2="5" style="visibility: inherit;" fill="rgb(0, 0, 0)" stroke="rgb(204, 204, 204)" stroke-width="1px"></line><line x1="46.40625" y1="0" x2="46.40625" y2="5" style="visibility: inherit;" fill="rgb(0, 0, 0)" stroke="rgb(204, 204, 204)" stroke-width="1px"></line><line x1="69.609375" y1="0" x2="69.609375" y2="5" style="visibility: inherit;" fill="rgb(0, 0, 0)" stroke="rgb(204, 204, 204)" stroke-width="1px"></line><line x1="92.8125" y1="0" x2="92.8125" y2="5" style="visibility: inherit;" fill="rgb(0, 0, 0)" stroke="rgb(204, 204, 204)" stroke-width="1px"></line><line x1="116.015625" y1="0" x2="116.015625" y2="5" style="visibility: inherit;" fill="rgb(0, 0, 0)" stroke="rgb(204, 204, 204)" stroke-width="1px"></line><line x1="139.21875" y1="0" x2="139.21875" y2="5" style="visibility: inherit;" fill="rgb(0, 0, 0)" stroke="rgb(204, 204, 204)" stroke-width="1px"></line><line x1="162.421875" y1="0" x2="162.421875" y2="5" style="visibility: inherit;" fill="rgb(0, 0, 0)" stroke="rgb(204, 204, 204)" stroke-width="1px"></line><line x1="185.625" y1="0" x2="185.625" y2="5" style="visibility: inherit;" fill="rgb(0, 0, 0)" stroke="rgb(204, 204, 204)" stroke-width="1px"></line><line x1="208.828125" y1="0" x2="208.828125" y2="5" style="visibility: inherit;" fill="rgb(0, 0, 0)" stroke="rgb(204, 204, 204)" stroke-width="1px"></line><line x1="232.03125" y1="0" x2="232.03125" y2="5" style="visibility: inherit;" fill="rgb(0, 0, 0)" stroke="rgb(204, 204, 204)" stroke-width="1px"></line><line x1="255.234375" y1="0" x2="255.234375" y2="5" style="visibility: inherit;" fill="rgb(0, 0, 0)" stroke="rgb(204, 204, 204)" stroke-width="1px"></line><line x1="278.4375" y1="0" x2="278.4375" y2="5" style="visibility: inherit;" fill="rgb(0, 0, 0)" stroke="rgb(204, 204, 204)" stroke-width="1px"></line></g><g transform="translate(0, 8)"><text x="0" y="0" dx="0em" dy="0.95em" style="text-anchor: middle; visibility: hidden; font-family: Roboto, sans-serif; font-size: 12px; font-weight: 200;" fill="rgb(33, 33, 33)" stroke="none" stroke-width="1px">-20</text><text x="23.203125" y="0" dx="0em" dy="0.95em" style="text-anchor: middle; visibility: inherit; font-family: Roboto, sans-serif; font-size: 12px; font-weight: 200;" fill="rgb(33, 33, 33)" stroke="none" stroke-width="1px">0</text><text x="46.40625" y="0" dx="0em" dy="0.95em" style="text-anchor: middle; visibility: hidden; font-family: Roboto, sans-serif; font-size: 12px; font-weight: 200;" fill="rgb(33, 33, 33)" stroke="none" stroke-width="1px">20</text><text x="69.609375" y="0" dx="0em" dy="0.95em" style="text-anchor: middle; visibility: inherit; font-family: Roboto, sans-serif; font-size: 12px; font-weight: 200;" fill="rgb(33, 33, 33)" stroke="none" stroke-width="1px">40</text><text x="92.8125" y="0" dx="0em" dy="0.95em" style="text-anchor: middle; visibility: hidden; font-family: Roboto, sans-serif; font-size: 12px; font-weight: 200;" fill="rgb(33, 33, 33)" stroke="none" stroke-width="1px">60</text><text x="116.015625" y="0" dx="0em" dy="0.95em" style="text-anchor: middle; visibility: inherit; font-family: Roboto, sans-serif; font-size: 12px; font-weight: 200;" fill="rgb(33, 33, 33)" stroke="none" stroke-width="1px">80</text><text x="139.21875" y="0" dx="0em" dy="0.95em" style="text-anchor: middle; visibility: hidden; font-family: Roboto, sans-serif; font-size: 12px; font-weight: 200;" fill="rgb(33, 33, 33)" stroke="none" stroke-width="1px">100</text><text x="162.421875" y="0" dx="0em" dy="0.95em" style="text-anchor: middle; visibility: inherit; font-family: Roboto, sans-serif; font-size: 12px; font-weight: 200;" fill="rgb(33, 33, 33)" stroke="none" stroke-width="1px">120</text><text x="185.625" y="0" dx="0em" dy="0.95em" style="text-anchor: middle; visibility: hidden; font-family: Roboto, sans-serif; font-size: 12px; font-weight: 200;" fill="rgb(33, 33, 33)" stroke="none" stroke-width="1px">140</text><text x="208.828125" y="0" dx="0em" dy="0.95em" style="text-anchor: middle; visibility: inherit; font-family: Roboto, sans-serif; font-size: 12px; font-weight: 200;" fill="rgb(33, 33, 33)" stroke="none" stroke-width="1px">160</text><text x="232.03125" y="0" dx="0em" dy="0.95em" style="text-anchor: middle; visibility: hidden; font-family: Roboto, sans-serif; font-size: 12px; font-weight: 200;" fill="rgb(33, 33, 33)" stroke="none" stroke-width="1px">180</text><text x="255.234375" y="0" dx="0em" dy="0.95em" style="text-anchor: middle; visibility: inherit; font-family: Roboto, sans-serif; font-size: 12px; font-weight: 200;" fill="rgb(33, 33, 33)" stroke="none" stroke-width="1px">200</text><text x="278.4375" y="0" dx="0em" dy="0.95em" style="text-anchor: middle; visibility: hidden; font-family: Roboto, sans-serif; font-size: 12px; font-weight: 200;" fill="rgb(33, 33, 33)" stroke="none" stroke-width="1px">220</text></g><line x1="0" y1="0" x2="278.4375" y2="0" fill="rgb(0, 0, 0)" stroke="rgb(204, 204, 204)" stroke-width="1px"></line></g></g></g></g></svg>