<svg viewBox="0 0 330 200" xmlns="http://www.w3.org/2000/svg"><g><g><g><g><g><line x1="51.5625" y1="177" x2="46.5625" y2="177" style="visibility: inherit;" fill="rgb(0, 0, 0)" stroke="rgb(204, 204, 204)" stroke-width="1px"></line><line x1="51.5625" y1="159.29999999999998" x2="46.5625" y2="159.29999999999998" style="visibility: inherit;" fill="rgb(0, 0, 0)" stroke="rgb(204, 204, 204)" stroke-width="1px"></line><line x1="51.5625" y1="141.59999999999997" x2="46.5625" y2="141.59999999999997" style="visibility: inherit;" fill="rgb(0, 0, 0)" stroke="rgb(204, 204, 204)" stroke-width="1px"></line><line x1="51.5625" y1="123.89999999999995" x2="46.5625" y2="123.89999999999995" style="visibility: inherit;" fill="rgb(0, 0, 0)" stroke="rgb(204, 204, 204)" stroke-width="1px"></line><line x1="51.5625" y1="106.20000000000002" x2="46.5625" y2="106.20000000000002" style="visibility: inherit;" fill="rgb(0, 0, 0)" stroke="rgb(204, 204, 204)" stroke-width="1px"></line><line x1="51.5625" y1="88.5" x2="46.5625" y2="88.5" style="visibility: inherit;" fill="rgb(0, 0, 0)" stroke="rgb(204, 204, 204)" stroke-width="1px"></line><line x1="51.5625" y1="70.79999999999998" x2="46.5625" y2="70.79999999999998" style="visibility: inherit;" fill="rgb(0, 0, 0)" stroke="rgb(204, 204, 204)" stroke-width="1px"></line><line x1="51.5625" y1="53.099999999999966" x2="46.5625" y2="53.099999999999966" style="visibility: inherit;" fill="rgb(0, 0, 0)" stroke="rgb(204, 204, 204)" stroke-width="1px"></line><line x1="51.5625" y1="35.399999999999935" x2="46.5625" y2="35.399999999999935" style="visibility: inherit;" fill="rgb(0, 0, 0)" stroke="rgb(204, 204, 204)" stroke-width="1px"></line><line x1="51.5625" y1="17.699999999999918" x2="46.5625" y2="17.699999999999918" style="visibility: inherit;" fill="rgb(0, 0, 0)" stroke="rgb(204, 204, 204)" stroke-width="1px"></line><line x1="51.5625" y1="0" x2="46.5625" y2="0" style="visibility: inherit;" fill="rgb(0, 0, 0)" stroke="rgb(204, 204, 204)" stroke-width="1px"></line></g><g transform="translate(41.5625, 0)"><text x="0" y="177" dx="0em" dy="0.3em" style="text-anchor: end; visibility: hidden; font-family: Roboto, sans-serif; font-size: 12px; font-weight: 200;" fill="rgb(33, 33, 33)" stroke="none" stroke-width="1px">0.74</text><text x="0" y="159.29999999999998" dx="0em" dy="0.3em" style="text-anchor: end; visibility: inherit; font-family: Roboto, sans-serif; font-size: 12px; font-weight: 200;" fill="rgb(33, 33, 33)" stroke="none" stroke-width="1px">0.76</text><text x="0" y="141.59999999999997" dx="0em" dy="0.3em" style="text-anchor: end; visibility: hidden; font-family: Roboto, sans-serif; font-size: 12px; font-weight: 200;" fill="rgb(33, 33, 33)" stroke="none" stroke-width="1px">0.78</text><text x="0" y="123.89999999999995" dx="0em" dy="0.3em" style="text-anchor: end; visibility: inherit; font-family: Roboto, sans-serif; font-size: 12px; font-weight: 200;" fill="rgb(33, 33, 33)" stroke="none" stroke-width="1px">0.8</text><text x="0" y="106.20000000000002" dx="0em" dy="0.3em" style="text-anchor: end; visibility: hidden; font-family: Roboto, sans-serif; font-size: 12px; font-weight: 200;" fill="rgb(33, 33, 33)" stroke="none" stroke-width="1px">0.82</text><text x="0" y="88.5" dx="0em" dy="0.3em" style="text-anchor: end; visibility: inherit; font-family: Roboto, sans-serif; font-size: 12px; font-weight: 200;" fill="rgb(33, 33, 33)" stroke="none" stroke-width="1px">0.84</text><text x="0" y="70.79999999999998" dx="0em" dy="0.3em" style="text-anchor: end; visibility: hidden; font-family: Roboto, sans-serif; font-size: 12px; font-weight: 200;" fill="rgb(33, 33, 33)" stroke="none" stroke-width="1px">0.86</text><text x="0" y="53.099999999999966" dx="0em" dy="0.3em" style="text-anchor: end; visibility: inherit; font-family: Roboto, sans-serif; font-size: 12px; font-weight: 200;" fill="rgb(33, 33, 33)" stroke="none" stroke-width="1px">0.88</text><text x="0" y="35.399999999999935" dx="0em" dy="0.3em" style="text-anchor: end; visibility: hidden; font-family: Roboto, sans-serif; font-size: 12px; font-weight: 200;" fill="rgb(33, 33, 33)" stroke="none" stroke-width="1px">0.9</text><text x="0" y="17.699999999999918" dx="0em" dy="0.3em" style="text-anchor: end; visibility: inherit; font-family: Roboto, sans-serif; font-size: 12px; font-weight: 200;" fill="rgb(33, 33, 33)" stroke="none" stroke-width="1px">0.92</text><text x="0" y="0" dx="0em" dy="0.3em" style="text-anchor: end; visibility: hidden; font-family: Roboto, sans-serif; font-size: 12px; font-weight: 200;" fill="rgb(33, 33, 33)" stroke="none" stroke-width="1px">0.94</text></g><line x1="51.5625" y1="0" x2="51.5625" y2="177" fill="rgb(0, 0, 0)" stroke="rgb(204, 204, 204)" stroke-width="1px"></line></g></g><g transform="translate(51, 0)" clip-path="url(#clip_0)"><clipPath id="clip_0"><rect width="278" height="177"></rect></clipPath><g><g><g><line x1="0" y1="0" x2="0" y2="177" fill="rgb(0, 0, 0)" stroke="rgb(66, 66, 66)" stroke-width="1px" opacity="0.25"></line><line x1="23.203125" y1="0" x2="23.203125" y2="177" fill="rgb(0, 0, 0)" stroke="rgb(66, 66, 66)" stroke-width="1px" opacity="0.25"></line><line x1="46.40625" y1="0" x2="46.40625" y2="177" fill="rgb(0, 0, 0)" stroke="rgb(66, 66, 66)" stroke-width="1px" opacity="0.25"></line><line x1="69.609375" y1="0" x2="69.609375" y2="177" fill="rgb(0, 0, 0)" stroke="rgb(66, 66, 66)" stroke-width="1px" opacity="0.25"></line><line x1="92.8125" y1="0" x2="92.8125" y2="177" fill="rgb(0, 0, 0)" stroke="rgb(66, 66, 66)" stroke-width="1px" opacity="0.25"></line><line x1="116.015625" y1="0" x2="116.015625" y2="177" fill="rgb(0, 0, 0)" stroke="rgb(66, 66, 66)" stroke-width="1px" opacity="0.25"></line><line x1="139.21875" y1="0" x2="139.21875" y2="177" fill="rgb(0, 0, 0)" stroke="rgb(66, 66, 66)" stroke-width="1px" opacity="0.25"></line><line x1="162.421875" y1="0" x2="162.421875" y2="177" fill="rgb(0, 0, 0)" stroke="rgb(66, 66, 66)" stroke-width="1px" opacity="0.25"></line><line x1="185.625" y1="0" x2="185.625" y2="177" fill="rgb(0, 0, 0)" stroke="rgb(66, 66, 66)" stroke-width="1px" opacity="0.25"></line><line x1="208.828125" y1="0" x2="208.828125" y2="177" fill="rgb(0, 0, 0)" stroke="rgb(66, 66, 66)" stroke-width="1px" opacity="0.25"></line><line x1="232.03125" y1="0" x2="232.03125" y2="177" fill="rgb(0, 0, 0)" stroke="rgb(66, 66, 66)" stroke-width="1px" opacity="0.25"></line><line x1="255.234375" y1="0" x2="255.234375" y2="177" fill="rgb(0, 0, 0)" stroke="rgb(66, 66, 66)" stroke-width="1px" opacity="0.25"></line><line x1="278.4375" y1="0" x2="278.4375" y2="177" fill="rgb(0, 0, 0)" stroke="rgb(66, 66, 66)" stroke-width="1px" opacity="0.25"></line></g><g><line x1="0" y1="177" x2="278.4375" y2="177" fill="rgb(0, 0, 0)" stroke="rgb(66, 66, 66)" stroke-width="1px" opacity="0.25"></line><line x1="0" y1="159.29999999999998" x2="278.4375" y2="159.29999999999998" fill="rgb(0, 0, 0)" stroke="rgb(66, 66, 66)" stroke-width="1px" opacity="0.25"></line><line x1="0" y1="141.59999999999997" x2="278.4375" y2="141.59999999999997" fill="rgb(0, 0, 0)" stroke="rgb(66, 66, 66)" stroke-width="1px" opacity="0.25"></line><line x1="0" y1="123.89999999999995" x2="278.4375" y2="123.89999999999995" fill="rgb(0, 0, 0)" stroke="rgb(66, 66, 66)" stroke-width="1px" opacity="0.25"></line><line x1="0" y1="106.20000000000002" x2="278.4375" y2="106.20000000000002" fill="rgb(0, 0, 0)" stroke="rgb(66, 66, 66)" stroke-width="1px" opacity="0.25"></line><line x1="0" y1="88.5" x2="278.4375" y2="88.5" fill="rgb(0, 0, 0)" stroke="rgb(66, 66, 66)" stroke-width="1px" opacity="0.25"></line><line x1="0" y1="70.79999999999998" x2="278.4375" y2="70.79999999999998" fill="rgb(0, 0, 0)" stroke="rgb(66, 66, 66)" stroke-width="1px" opacity="0.25"></line><line x1="0" y1="53.099999999999966" x2="278.4375" y2="53.099999999999966" fill="rgb(0, 0, 0)" stroke="rgb(66, 66, 66)" stroke-width="1px" opacity="0.25"></line><line x1="0" y1="35.399999999999935" x2="278.4375" y2="35.399999999999935" fill="rgb(0, 0, 0)" stroke="rgb(66, 66, 66)" stroke-width="1px" opacity="0.25"></line><line x1="0" y1="17.699999999999918" x2="278.4375" y2="17.699999999999918" fill="rgb(0, 0, 0)" stroke="rgb(66, 66, 66)" stroke-width="1px" opacity="0.25"></line><line x1="0" y1="0" x2="278.4375" y2="0" fill="rgb(0, 0, 0)" stroke="rgb(66, 66, 66)" stroke-width="1px" opacity="0.25"></line></g></g></g><g><g><line x1="0" y1="831.9000000000002" x2="278.4375" y2="831.9000000000002" fill="rgb(0, 0, 0)" stroke="rgb(153, 153, 153)" stroke-width="1.5px"></line></g></g><g><g><line x1="23.203125" y1="0" x2="23.203125" y2="177" fill="rgb(0, 0, 0)" stroke="rgb(153, 153, 153)" stroke-width="1.5px"></line></g></g><g><g><g><g><g><path stroke="rgb(255, 112, 67)" stroke-width="2px" d="M23.203125,167.55724700689316L24.36328125,167.55724700689305L25.523437499999996,167.55724700689305L26.683593750000004,167.55724700689305L27.84375,167.55724700689316L29.00390625,167.55724700689305L30.1640625,167.55724700689316L31.32421875,167.55724700689305L32.484375,167.55724700689316L33.64453125,167.55724700689305L34.8046875,167.55724700689316L35.96484375000001,167.55724700689305L37.125,167.55724700689316L38.28515625,167.55724700689316L39.4453125,167.55724700689316L40.60546875,167.55724700689316L41.765625,167.55724700689316L42.92578125,167.55724700689316L44.0859375,167.55724700689316L45.24609375,167.4159981463982L46.40625,167.0689095301514L47.56640625,165.7104404818852L48.7265625,163.09942604697622L49.88671875,159.13152866866326L51.04687499999999,153.72395012136377L52.20703125,147.2103985002729L53.36718750000001,140.39650017067612L54.52734375,133.78580149744943L55.6875,128.1445260620695L56.84765625,122.94365982094665L58.0078125,118.53167023238368L59.16796875,114.63339183047636L60.328125,112.01191648193239L61.48828125,110.03545079497951L62.6484375,108.44599086573284L63.80859375,107.25017081535589L64.96875,106.14926988657514L66.12890625,105.52909371846823L67.2890625,105.23769568851579L68.44921875,104.84088440514799L69.609375,104.44138229682113L70.76953125,103.95951582405077L71.92968750000001,103.48878785962043L73.08984375,103.28707985036563L74.25,103.06515463321871L75.41015625,102.42751854492909L76.5703125,101.88350045341419L77.73046875,101.31494549069402L78.890625,100.79220443220392L80.05078125,99.97407883912527L81.2109375,99.30159540241752L82.37109375,99.0999061636072L83.53125,98.53494768929026L84.69140624999999,98.01436452383673L85.8515625,97.50021380135303L87.01171875,96.92940761774094L88.171875,96.56675226527032L89.33203125000001,95.98592179201584L90.4921875,95.31457173098643L91.65234375,94.7503252558084L92.8125,94.29070531679226L93.97265625,93.5104523953976L95.1328125,92.63872009618176L96.29296875,91.99460866274293L97.453125,91.5072413910739L98.61328125,91.05340568955602L99.7734375,90.13535851440358L100.93359375,89.18097076297714L102.09374999999999,88.81011783528879L103.25390625,88.26473320155462L104.4140625,87.69535831349565L105.57421875,86.99051721893235L106.73437500000001,86.04295996190599L107.89453125,85.15155273056922L109.0546875,84.29385661469036L110.21484375,83.23439360252698L111.375,82.53817976827422L112.53515625,81.89850010225183L113.6953125,81.07074737160812L114.85546875,80.19068682914616L116.015625,79.23889831498646L117.17578125,78.70818959114183L118.3359375,77.90545504115356L119.49609374999999,77.04042650712921L120.65625,75.89585637482051L121.81640625,75.35035799164795L122.9765625,74.5589423884107L124.13671875000001,73.59980481083123L125.296875,72.33823322543454L126.45703125,71.05663767390817L127.6171875,70.08590061982494L128.77734375,68.89807701778423L129.9375,67.68090189857489L131.09765625,66.76898874618529L132.2578125,65.8787963353271L133.41796875,64.71914897696227L134.578125,63.78119535408047L135.73828125,63.077179484138696L136.8984375,61.86778051171885L138.05859375,60.859653735841434L139.21875,59.931904793194L140.37890625,59.375255427605474L141.5390625,58.63768526187324L142.69921875,57.993342339222394L143.85937500000003,57.18298439694924L145.01953125,56.232653058251586L146.1796875,55.19833768169935L147.33984375,54.86025694823774L148.5,54.516164811948045L149.66015625,53.805228572189264L150.8203125,52.753113816439686L151.98046874999997,52.1218449629901L153.140625,51.27896707758651L154.30078125,50.49073185387465L155.4609375,49.85635428108704L156.62109375,49.27394801424698L157.78125,48.5410953500673L158.94140625,47.49602348201299L160.1015625,47.07076008434784L161.26171875000003,46.23041341850576L162.421875,45.968349526819146L163.58203125,45.528623799381556L164.7421875,44.61904260867704L165.90234375,43.97241458269274L167.0625,43.03959242446605L168.22265625,42.54043515648477L169.38281249999997,41.615408883845944L170.54296875,41.32270887038467L171.703125,40.622436262019605L172.86328125,40.00049297383308L174.0234375,39.264089739149036L175.18359375,38.84244054068638L176.34375,38.38765019839706L177.50390625,37.65065941968983L178.66406250000003,37.2286576948132L179.82421875,36.57187611350806L180.984375,36.23834319167967L182.14453125,35.49337809594646L183.3046875,35.026227396203076L184.46484375,34.423064099236065L185.625,34.343674613525714L186.78515624999997,33.50907257168892L187.9453125,32.846874908026436L189.10546875,32.51009233678359L190.265625,32.14658635547737L191.42578125,31.7670463281333L192.5859375,30.873426015225544L193.74609375,30.3977898544357L194.90625,29.628098842280217L196.06640625000003,29.08557656572879L197.2265625,28.800427584449178L198.38671875,28.488073399424447L199.546875,27.71547226116645L200.70703125,27.27210432055943L201.8671875,26.562138625164984L203.02734375,26.196695234882906L204.18749999999997,25.43260495812182L205.34765625,24.812714353504763L206.5078125,24.501316017689042L207.66796875,24.677693177927594L208.828125,23.57277783493338L209.98828125,23.15197273695551L211.1484375,22.83895365121414L212.30859375,22.005417545571625L213.46875000000003,21.868512043914098L214.62890625,21.302080527282317L215.7890625,20.538469428620576L216.94921875,20.08030276942353L218.109375,19.583430308390167L219.26953125,19.00279833930042L220.4296875,18.77549121175587L221.58984374999997,18.11445433494073L222.75,17.596760154942366L223.91015625,17.366851316201465L225.0703125,17.06749067444073L226.23046875,16.20178525053541L227.390625,15.62182596923749L228.55078125,15.394922454368077L229.7109375,15.339488014704646L230.87109375000003,14.882475162223914L232.03125,14.487195396826271L233.19140625,14.310563564542237L234.3515625,13.619395837928874L235.51171875,13.285402871218913L236.671875,12.782326956419665L237.83203125,12.84369756926802L238.99218749999997,12.658547471461915L240.15234375,12.547457412778215L241.3125,12.339559681355265L242.47265625,11.871776523077134L243.6328125,11.550742243458973L244.79296875,10.934369487005442L245.953125,10.766346656345092L247.11328125,10.443560492433726L248.27343750000003,10.02791632857181L249.43359375,9.818894214905784L250.59375,9.592580535100451L251.75390625,9.154112192443879L252.9140625,8.689230363638227L254.07421875,9.0358542782491" style="fill: none;" fill="none"></path></g></g></g></g><g opacity="0.2"><g><g><g><path stroke="rgb(255, 112, 67)" stroke-width="2px" d="M23.203125,167.55724700689316L24.36328125,167.55724700689316L25.523437499999996,167.55724700689316L26.683593750000004,167.55724700689316L27.84375,167.55724700689316L29.00390625,167.55724700689316L30.1640625,167.55724700689316L31.32421875,167.55724700689316L32.484375,167.55724700689316L33.64453125,167.55724700689316L34.8046875,167.55724700689316L35.96484375000001,167.55724700689316L37.125,167.55724700689316L38.28515625,167.55724700689316L39.4453125,167.55724700689316L40.60546875,167.55724700689316L41.765625,167.55724700689316L42.92578125,167.55724700689316L44.0859375,167.55724700689316L45.24609375,167.20413776636124L46.40625,166.54829564094544L47.56640625,163.6727816104889L48.7265625,159.18295594453812L49.88671875,153.17972960472108L51.04687499999999,145.61262073516846L52.20703125,137.44009884595872L53.36718750000001,130.17567011117936L54.52734375,123.86976363658904L55.6875,119.68261810541152L56.84765625,115.14236333370208L58.0078125,111.91368731260299L59.16796875,108.78597500324247L60.328125,108.079703772068L61.48828125,107.07075240612028L62.6484375,106.06180104017255L63.80859375,105.45644077062605L64.96875,104.49791851043699L66.12890625,104.59882947206495L67.2890625,104.80059864521024L68.44921875,104.2456674814224L69.609375,103.84212913513181L70.76953125,103.23671611547468L71.92968750000001,102.7826959133148L73.08984375,102.98451783657072L74.25,102.73226680755613L75.41015625,101.47106441259382L76.5703125,101.0674733161926L77.73046875,100.4621130466461L78.890625,100.00809284448621L80.05078125,98.7468904495239L81.2109375,98.29287024736402L82.37109375,98.7973723053932L83.53125,97.68750997781751L84.69140624999999,97.23348977565763L85.8515625,96.72898771762846L87.01171875,96.07319834232328L88.171875,96.02276923656461L89.33203125000001,95.11467608213422L90.4921875,94.30754663944242L91.65234375,93.9039555430412L92.8125,93.60127540826795L93.97265625,92.34007301330564L95.1328125,91.33112164735792L96.29296875,91.02844151258466L97.453125,90.77619048357008L98.61328125,90.37265213727949L99.7734375,88.75828775167463L100.93359375,87.74938913583753L102.09374999999999,88.25383844375608L103.25390625,87.44665625095365L104.4140625,86.84129598140714L105.57421875,85.93325557708738L106.73437500000001,84.6216240763664L107.89453125,83.81444188356397L109.0546875,83.00731244087217L110.21484375,81.6451990842819L111.375,81.49385901689527L112.53515625,80.93898060321806L113.6953125,79.82911827564237L114.85546875,78.87059601545332L116.015625,77.81121554374693L117.17578125,77.91212650537489L118.3359375,76.70135321617124L119.49609374999999,75.74288370609281L120.65625,74.17900117635725L121.81640625,74.53211041688917L122.9765625,73.37181898355482L124.13671875000001,72.1610984444618L125.296875,70.44587584733961L126.45703125,69.13424434661863L127.6171875,68.62979503870008L128.77734375,67.11634161472318L129.9375,65.85513921976087L131.09765625,65.40111901760099L132.2578125,64.5435077190399L133.41796875,62.97967793941495L134.578125,62.37426491975781L135.73828125,62.02115567922589L136.8984375,60.05368205308911L138.05859375,59.34746357202527L139.21875,58.54028137922284L140.37890625,58.54028137922284L141.5390625,57.53133001327512L142.69921875,57.02682795524594L143.85937500000003,55.96744748353955L145.01953125,54.8071560502052L146.1796875,53.64686461687085L147.33984375,54.35313584804532L148.5,54.0000266075134L149.66015625,52.73882421255109L150.8203125,51.17494168281552L151.98046874999997,51.17494168281552L153.140625,50.01465024948117L154.30078125,49.3083790183067L155.4609375,48.90478792190549L156.62109375,48.40033861398694L157.78125,47.44181635379788L158.94140625,45.92841567993161L160.1015625,46.43286498785016L161.26171875000003,44.969893419742554L162.421875,45.57525368928906L163.58203125,44.86903520822522L164.7421875,43.25467082262035L165.90234375,43.00247254371639L167.0625,41.640359187126116L168.22265625,41.79169925451274L169.38281249999997,40.227869474887804L170.54296875,40.88365885019298L171.703125,39.572027349472L172.86328125,39.06757804155345L174.0234375,38.159484887123064L175.18359375,38.20996674299236L176.34375,37.70546468496318L177.50390625,36.54517325162883L178.66406250000003,36.595655107498125L179.82421875,35.5867037415504L180.984375,35.73804380893703L182.14453125,34.37593045234676L183.3046875,34.32550134658809L184.46484375,33.51831915378566L185.625,34.22459038496013L186.78515624999997,32.25716950893398L187.9453125,31.85357841253276L189.10546875,32.00491847991939L190.265625,31.60132738351817L191.42578125,31.197736287116957L192.5859375,29.532995545864058L193.74609375,29.684335613250685L194.90625,28.47356232404704L196.06640625000003,28.271793150901747L197.2265625,28.372704112529707L198.38671875,28.01954212188716L199.546875,26.556570553779554L200.70703125,26.607052409648848L201.8671875,25.497190082073164L203.02734375,25.64853014945979L204.18749999999997,24.286469542980146L205.34765625,23.882878446578932L206.5078125,24.03421851396556L207.66796875,24.942258918285322L208.828125,21.915404820442152L209.98828125,22.52076508998866L211.1484375,22.369425022602034L212.30859375,20.7551133871078L213.46875000000003,21.663153791427565L214.62890625,20.452433252334547L215.7890625,19.393052780628157L216.94921875,19.393052780628157L218.109375,18.838121616840315L219.26953125,18.131850385665846L220.4296875,18.4345305204391L221.58984374999997,17.122899019718123L222.75,16.820218884944868L223.91015625,17.021988058090162L225.0703125,16.618449711799574L226.23046875,14.903227114677382L227.390625,14.751887047290754L228.55078125,15.054567182064009L229.7109375,15.256336355209303L230.87109375000003,14.196955883502913L232.03125,13.894275748729658L233.19140625,14.045615816116285L234.3515625,12.58264424800868L235.51171875,12.784413421153975L236.671875,12.027713084220839L237.83203125,12.935753488540602L238.99218749999997,12.38082232475276L240.15234375,12.38082232475276L241.3125,12.027713084220839L242.47265625,11.170101785659742L243.6328125,11.069190824031782L244.79296875,10.009810352325392L245.953125,10.514312410354567L247.11328125,9.959381246566725L248.27343750000003,9.404450082778883L249.43359375,9.505361044406843L250.59375,9.253110015392256L251.75390625,8.49640967845912L252.9140625,7.991907620429945L254.07421875,9.55579015016551" style="fill: none;" fill="none"></path></g></g></g></g></g></g><g transform="translate(51, 177)" clip-path="url(#clip_1)"><clipPath id="clip_1"><rect width="278" height="23"></rect></clipPath><g><g><line x1="0" y1="0" x2="0" y2="5" style="visibility: inherit;" fill="rgb(0, 0, 0)" stroke="rgb(204, 204, 204)" stroke-width="1px"></line><line x1="23.203125" y1="0" x2="23.203125" y2="5" style="visibility: inherit;" fill="rgb(0, 0, 0)" stroke="rgb(204, 204, 204)" stroke-width="1px"></line><line x1="46.40625" y1="0" x2="46.40625" y2="5" style="visibility: inherit;" fill="rgb(0, 0, 0)" stroke="rgb(204, 204, 204)" stroke-width="1px"></line><line x1="69.609375" y1="0" x2="69.609375" y2="5" style="visibility: inherit;" fill="rgb(0, 0, 0)" stroke="rgb(204, 204, 204)" stroke-width="1px"></line><line x1="92.8125" y1="0" x2="92.8125" y2="5" style="visibility: inherit;" fill="rgb(0, 0, 0)" stroke="rgb(204, 204, 204)" stroke-width="1px"></line><line x1="116.015625" y1="0" x2="116.015625" y2="5" style="visibility: inherit;" fill="rgb(0, 0, 0)" stroke="rgb(204, 204, 204)" stroke-width="1px"></line><line x1="139.21875" y1="0" x2="139.21875" y2="5" style="visibility: inherit;" fill="rgb(0, 0, 0)" stroke="rgb(204, 204, 204)" stroke-width="1px"></line><line x1="162.421875" y1="0" x2="162.421875" y2="5" style="visibility: inherit;" fill="rgb(0, 0, 0)" stroke="rgb(204, 204, 204)" stroke-width="1px"></line><line x1="185.625" y1="0" x2="185.625" y2="5" style="visibility: inherit;" fill="rgb(0, 0, 0)" stroke="rgb(204, 204, 204)" stroke-width="1px"></line><line x1="208.828125" y1="0" x2="208.828125" y2="5" style="visibility: inherit;" fill="rgb(0, 0, 0)" stroke="rgb(204, 204, 204)" stroke-width="1px"></line><line x1="232.03125" y1="0" x2="232.03125" y2="5" style="visibility: inherit;" fill="rgb(0, 0, 0)" stroke="rgb(204, 204, 204)" stroke-width="1px"></line><line x1="255.234375" y1="0" x2="255.234375" y2="5" style="visibility: inherit;" fill="rgb(0, 0, 0)" stroke="rgb(204, 204, 204)" stroke-width="1px"></line><line x1="278.4375" y1="0" x2="278.4375" y2="5" style="visibility: inherit;" fill="rgb(0, 0, 0)" stroke="rgb(204, 204, 204)" stroke-width="1px"></line></g><g transform="translate(0, 8)"><text x="0" y="0" dx="0em" dy="0.95em" style="text-anchor: middle; visibility: hidden; font-family: Roboto, sans-serif; font-size: 12px; font-weight: 200;" fill="rgb(33, 33, 33)" stroke="none" stroke-width="1px">-20</text><text x="23.203125" y="0" dx="0em" dy="0.95em" style="text-anchor: middle; visibility: inherit; font-family: Roboto, sans-serif; font-size: 12px; font-weight: 200;" fill="rgb(33, 33, 33)" stroke="none" stroke-width="1px">0</text><text x="46.40625" y="0" dx="0em" dy="0.95em" style="text-anchor: middle; visibility: hidden; font-family: Roboto, sans-serif; font-size: 12px; font-weight: 200;" fill="rgb(33, 33, 33)" stroke="none" stroke-width="1px">20</text><text x="69.609375" y="0" dx="0em" dy="0.95em" style="text-anchor: middle; visibility: inherit; font-family: Roboto, sans-serif; font-size: 12px; font-weight: 200;" fill="rgb(33, 33, 33)" stroke="none" stroke-width="1px">40</text><text x="92.8125" y="0" dx="0em" dy="0.95em" style="text-anchor: middle; visibility: hidden; font-family: Roboto, sans-serif; font-size: 12px; font-weight: 200;" fill="rgb(33, 33, 33)" stroke="none" stroke-width="1px">60</text><text x="116.015625" y="0" dx="0em" dy="0.95em" style="text-anchor: middle; visibility: inherit; font-family: Roboto, sans-serif; font-size: 12px; font-weight: 200;" fill="rgb(33, 33, 33)" stroke="none" stroke-width="1px">80</text><text x="139.21875" y="0" dx="0em" dy="0.95em" style="text-anchor: middle; visibility: hidden; font-family: Roboto, sans-serif; font-size: 12px; font-weight: 200;" fill="rgb(33, 33, 33)" stroke="none" stroke-width="1px">100</text><text x="162.421875" y="0" dx="0em" dy="0.95em" style="text-anchor: middle; visibility: inherit; font-family: Roboto, sans-serif; font-size: 12px; font-weight: 200;" fill="rgb(33, 33, 33)" stroke="none" stroke-width="1px">120</text><text x="185.625" y="0" dx="0em" dy="0.95em" style="text-anchor: middle; visibility: hidden; font-family: Roboto, sans-serif; font-size: 12px; font-weight: 200;" fill="rgb(33, 33, 33)" stroke="none" stroke-width="1px">140</text><text x="208.828125" y="0" dx="0em" dy="0.95em" style="text-anchor: middle; visibility: inherit; font-family: Roboto, sans-serif; font-size: 12px; font-weight: 200;" fill="rgb(33, 33, 33)" stroke="none" stroke-width="1px">160</text><text x="232.03125" y="0" dx="0em" dy="0.95em" style="text-anchor: middle; visibility: hidden; font-family: Roboto, sans-serif; font-size: 12px; font-weight: 200;" fill="rgb(33, 33, 33)" stroke="none" stroke-width="1px">180</text><text x="255.234375" y="0" dx="0em" dy="0.95em" style="text-anchor: middle; visibility: inherit; font-family: Roboto, sans-serif; font-size: 12px; font-weight: 200;" fill="rgb(33, 33, 33)" stroke="none" stroke-width="1px">200</text><text x="278.4375" y="0" dx="0em" dy="0.95em" style="text-anchor: middle; visibility: hidden; font-family: Roboto, sans-serif; font-size: 12px; font-weight: 200;" fill="rgb(33, 33, 33)" stroke="none" stroke-width="1px">220</text></g><line x1="0" y1="0" x2="278.4375" y2="0" fill="rgb(0, 0, 0)" stroke="rgb(204, 204, 204)" stroke-width="1px"></line></g></g></g></g></svg>