<svg viewBox="0 0 330 200" xmlns="http://www.w3.org/2000/svg"><g><g><g><g><g><line x1="51.5625" y1="177" x2="46.5625" y2="177" style="visibility: inherit;" fill="rgb(0, 0, 0)" stroke="rgb(204, 204, 204)" stroke-width="1px"></line><line x1="51.5625" y1="160.90909090909088" x2="46.5625" y2="160.90909090909088" style="visibility: inherit;" fill="rgb(0, 0, 0)" stroke="rgb(204, 204, 204)" stroke-width="1px"></line><line x1="51.5625" y1="144.81818181818178" x2="46.5625" y2="144.81818181818178" style="visibility: inherit;" fill="rgb(0, 0, 0)" stroke="rgb(204, 204, 204)" stroke-width="1px"></line><line x1="51.5625" y1="128.7272727272727" x2="46.5625" y2="128.7272727272727" style="visibility: inherit;" fill="rgb(0, 0, 0)" stroke="rgb(204, 204, 204)" stroke-width="1px"></line><line x1="51.5625" y1="112.63636363636365" x2="46.5625" y2="112.63636363636365" style="visibility: inherit;" fill="rgb(0, 0, 0)" stroke="rgb(204, 204, 204)" stroke-width="1px"></line><line x1="51.5625" y1="96.54545454545456" x2="46.5625" y2="96.54545454545456" style="visibility: inherit;" fill="rgb(0, 0, 0)" stroke="rgb(204, 204, 204)" stroke-width="1px"></line><line x1="51.5625" y1="80.45454545454544" x2="46.5625" y2="80.45454545454544" style="visibility: inherit;" fill="rgb(0, 0, 0)" stroke="rgb(204, 204, 204)" stroke-width="1px"></line><line x1="51.5625" y1="64.36363636363635" x2="46.5625" y2="64.36363636363635" style="visibility: inherit;" fill="rgb(0, 0, 0)" stroke="rgb(204, 204, 204)" stroke-width="1px"></line><line x1="51.5625" y1="48.27272727272723" x2="46.5625" y2="48.27272727272723" style="visibility: inherit;" fill="rgb(0, 0, 0)" stroke="rgb(204, 204, 204)" stroke-width="1px"></line><line x1="51.5625" y1="32.18181818181813" x2="46.5625" y2="32.18181818181813" style="visibility: inherit;" fill="rgb(0, 0, 0)" stroke="rgb(204, 204, 204)" stroke-width="1px"></line><line x1="51.5625" y1="16.090909090909115" x2="46.5625" y2="16.090909090909115" style="visibility: inherit;" fill="rgb(0, 0, 0)" stroke="rgb(204, 204, 204)" stroke-width="1px"></line><line x1="51.5625" y1="0" x2="46.5625" y2="0" style="visibility: inherit;" fill="rgb(0, 0, 0)" stroke="rgb(204, 204, 204)" stroke-width="1px"></line></g><g transform="translate(41.5625, 0)"><text x="0" y="177" dx="0em" dy="0.3em" style="text-anchor: end; visibility: hidden; font-family: Roboto, sans-serif; font-size: 12px; font-weight: 200;" fill="rgb(33, 33, 33)" stroke="none" stroke-width="1px">0.74</text><text x="0" y="160.90909090909088" dx="0em" dy="0.3em" style="text-anchor: end; visibility: inherit; font-family: Roboto, sans-serif; font-size: 12px; font-weight: 200;" fill="rgb(33, 33, 33)" stroke="none" stroke-width="1px">0.76</text><text x="0" y="144.81818181818178" dx="0em" dy="0.3em" style="text-anchor: end; visibility: hidden; font-family: Roboto, sans-serif; font-size: 12px; font-weight: 200;" fill="rgb(33, 33, 33)" stroke="none" stroke-width="1px">0.78</text><text x="0" y="128.7272727272727" dx="0em" dy="0.3em" style="text-anchor: end; visibility: inherit; font-family: Roboto, sans-serif; font-size: 12px; font-weight: 200;" fill="rgb(33, 33, 33)" stroke="none" stroke-width="1px">0.8</text><text x="0" y="112.63636363636365" dx="0em" dy="0.3em" style="text-anchor: end; visibility: hidden; font-family: Roboto, sans-serif; font-size: 12px; font-weight: 200;" fill="rgb(33, 33, 33)" stroke="none" stroke-width="1px">0.82</text><text x="0" y="96.54545454545456" dx="0em" dy="0.3em" style="text-anchor: end; visibility: inherit; font-family: Roboto, sans-serif; font-size: 12px; font-weight: 200;" fill="rgb(33, 33, 33)" stroke="none" stroke-width="1px">0.84</text><text x="0" y="80.45454545454544" dx="0em" dy="0.3em" style="text-anchor: end; visibility: hidden; font-family: Roboto, sans-serif; font-size: 12px; font-weight: 200;" fill="rgb(33, 33, 33)" stroke="none" stroke-width="1px">0.86</text><text x="0" y="64.36363636363635" dx="0em" dy="0.3em" style="text-anchor: end; visibility: inherit; font-family: Roboto, sans-serif; font-size: 12px; font-weight: 200;" fill="rgb(33, 33, 33)" stroke="none" stroke-width="1px">0.88</text><text x="0" y="48.27272727272723" dx="0em" dy="0.3em" style="text-anchor: end; visibility: hidden; font-family: Roboto, sans-serif; font-size: 12px; font-weight: 200;" fill="rgb(33, 33, 33)" stroke="none" stroke-width="1px">0.9</text><text x="0" y="32.18181818181813" dx="0em" dy="0.3em" style="text-anchor: end; visibility: inherit; font-family: Roboto, sans-serif; font-size: 12px; font-weight: 200;" fill="rgb(33, 33, 33)" stroke="none" stroke-width="1px">0.92</text><text x="0" y="16.090909090909115" dx="0em" dy="0.3em" style="text-anchor: end; visibility: hidden; font-family: Roboto, sans-serif; font-size: 12px; font-weight: 200;" fill="rgb(33, 33, 33)" stroke="none" stroke-width="1px">0.94</text><text x="0" y="0" dx="0em" dy="0.3em" style="text-anchor: end; visibility: hidden; font-family: Roboto, sans-serif; font-size: 12px; font-weight: 200;" fill="rgb(33, 33, 33)" stroke="none" stroke-width="1px">0.96</text></g><line x1="51.5625" y1="0" x2="51.5625" y2="177" fill="rgb(0, 0, 0)" stroke="rgb(204, 204, 204)" stroke-width="1px"></line></g></g><g transform="translate(51, 0)" clip-path="url(#clip_0)"><clipPath id="clip_0"><rect width="278" height="177"></rect></clipPath><g><g><g><line x1="0" y1="0" x2="0" y2="177" fill="rgb(0, 0, 0)" stroke="rgb(66, 66, 66)" stroke-width="1px" opacity="0.25"></line><line x1="34.8046875" y1="0" x2="34.8046875" y2="177" fill="rgb(0, 0, 0)" stroke="rgb(66, 66, 66)" stroke-width="1px" opacity="0.25"></line><line x1="69.609375" y1="0" x2="69.609375" y2="177" fill="rgb(0, 0, 0)" stroke="rgb(66, 66, 66)" stroke-width="1px" opacity="0.25"></line><line x1="104.4140625" y1="0" x2="104.4140625" y2="177" fill="rgb(0, 0, 0)" stroke="rgb(66, 66, 66)" stroke-width="1px" opacity="0.25"></line><line x1="139.21875" y1="0" x2="139.21875" y2="177" fill="rgb(0, 0, 0)" stroke="rgb(66, 66, 66)" stroke-width="1px" opacity="0.25"></line><line x1="174.0234375" y1="0" x2="174.0234375" y2="177" fill="rgb(0, 0, 0)" stroke="rgb(66, 66, 66)" stroke-width="1px" opacity="0.25"></line><line x1="208.828125" y1="0" x2="208.828125" y2="177" fill="rgb(0, 0, 0)" stroke="rgb(66, 66, 66)" stroke-width="1px" opacity="0.25"></line><line x1="243.6328125" y1="0" x2="243.6328125" y2="177" fill="rgb(0, 0, 0)" stroke="rgb(66, 66, 66)" stroke-width="1px" opacity="0.25"></line><line x1="278.4375" y1="0" x2="278.4375" y2="177" fill="rgb(0, 0, 0)" stroke="rgb(66, 66, 66)" stroke-width="1px" opacity="0.25"></line></g><g><line x1="0" y1="177" x2="278.4375" y2="177" fill="rgb(0, 0, 0)" stroke="rgb(66, 66, 66)" stroke-width="1px" opacity="0.25"></line><line x1="0" y1="160.90909090909088" x2="278.4375" y2="160.90909090909088" fill="rgb(0, 0, 0)" stroke="rgb(66, 66, 66)" stroke-width="1px" opacity="0.25"></line><line x1="0" y1="144.81818181818178" x2="278.4375" y2="144.81818181818178" fill="rgb(0, 0, 0)" stroke="rgb(66, 66, 66)" stroke-width="1px" opacity="0.25"></line><line x1="0" y1="128.7272727272727" x2="278.4375" y2="128.7272727272727" fill="rgb(0, 0, 0)" stroke="rgb(66, 66, 66)" stroke-width="1px" opacity="0.25"></line><line x1="0" y1="112.63636363636365" x2="278.4375" y2="112.63636363636365" fill="rgb(0, 0, 0)" stroke="rgb(66, 66, 66)" stroke-width="1px" opacity="0.25"></line><line x1="0" y1="96.54545454545456" x2="278.4375" y2="96.54545454545456" fill="rgb(0, 0, 0)" stroke="rgb(66, 66, 66)" stroke-width="1px" opacity="0.25"></line><line x1="0" y1="80.45454545454544" x2="278.4375" y2="80.45454545454544" fill="rgb(0, 0, 0)" stroke="rgb(66, 66, 66)" stroke-width="1px" opacity="0.25"></line><line x1="0" y1="64.36363636363635" x2="278.4375" y2="64.36363636363635" fill="rgb(0, 0, 0)" stroke="rgb(66, 66, 66)" stroke-width="1px" opacity="0.25"></line><line x1="0" y1="48.27272727272723" x2="278.4375" y2="48.27272727272723" fill="rgb(0, 0, 0)" stroke="rgb(66, 66, 66)" stroke-width="1px" opacity="0.25"></line><line x1="0" y1="32.18181818181813" x2="278.4375" y2="32.18181818181813" fill="rgb(0, 0, 0)" stroke="rgb(66, 66, 66)" stroke-width="1px" opacity="0.25"></line><line x1="0" y1="16.090909090909115" x2="278.4375" y2="16.090909090909115" fill="rgb(0, 0, 0)" stroke="rgb(66, 66, 66)" stroke-width="1px" opacity="0.25"></line><line x1="0" y1="0" x2="278.4375" y2="0" fill="rgb(0, 0, 0)" stroke="rgb(66, 66, 66)" stroke-width="1px" opacity="0.25"></line></g></g></g><g><g><line x1="0" y1="772.3636363636365" x2="278.4375" y2="772.3636363636365" fill="rgb(0, 0, 0)" stroke="rgb(153, 153, 153)" stroke-width="1.5px"></line></g></g><g><g><line x1="34.8046875" y1="0" x2="34.8046875" y2="177" fill="rgb(0, 0, 0)" stroke="rgb(153, 153, 153)" stroke-width="1.5px"></line></g></g><g><g><g><g><g><path stroke="rgb(255, 112, 67)" stroke-width="2px" d="M34.8046875,168.4156790971756L35.50078125,168.4156790971755L36.196875,168.4156790971755L36.89296875,168.4156790971755L37.589062500000004,168.4156790971756L38.28515625,168.4156790971755L38.98125,168.4156790971756L39.67734375,168.4156790971755L40.373437499999994,168.4156790971756L41.06953125,168.4156790971755L41.765625,168.4156790971756L42.461718749999996,168.4156790971755L43.1578125,168.4156790971756L43.85390625,168.4156790971756L44.550000000000004,168.4156790971756L45.24609375,168.4156790971756L45.9421875,168.4156790971756L46.638281250000006,168.4156790971756L47.334375,168.4156790971756L48.03046875,168.4156790971755L48.7265625,168.4156790971755L49.422656249999996,168.4156790971755L50.11875,168.4156790971756L50.81484375,168.4156790971755L51.5109375,168.4156790971754L52.20703125,168.4156790971755L52.903125,168.26891854827622L53.59921875,167.92405543697936L54.2953125,167.2034857119906L54.991406250000004,165.61543682224516L55.6875,163.121671277077L56.38359375,159.95605325515433L57.0796875,156.13049783535334L57.775781249999994,150.9000525517573L58.471875,145.7989250545768L59.16796875,140.51854311620343L59.864062499999996,135.51587612954623L60.56015625,130.67981892155856L61.25625,126.91597925268758L61.952343750000004,123.24516176528225L62.6484375,119.97867277100748L63.34453125,117.50514675324015L64.040625,115.10379303764958L64.73671875000001,113.49788255337953L65.4328125,112.0023466018103L66.12890625,110.48130772288481L66.825,109.25682574155634L67.52109374999999,108.04517964342476L68.2171875,106.87792997034175L68.91328125,106.1225474147245L69.609375,105.2106988286424L70.30546875,104.35173102297276L71.0015625,103.24932792666458L71.69765625000001,102.55119117374343L72.39375,101.49025395730692L73.08984375,100.431767469869L73.7859375,99.72330496899018L74.48203125,98.78457566397223L75.17812500000001,98.01954493049335L75.87421875000001,97.30370058816077L76.5703125,95.88360445077595L77.26640625,94.9214620829328L77.9625,93.95894739978824L78.65859375,93.06957993587937L79.3546875,92.04066469154142L80.05078125,91.51504319185297L80.74687499999999,90.77774613446394L81.44296874999999,89.74832630526501L82.1390625,89.3141297015744L82.83515625,88.41155657467604L83.53125,87.55815404451494L84.22734375,86.55079857856724L84.92343749999999,85.61618878833676L85.61953125,84.72522640353681L86.315625,83.97051796554912L87.01171875,83.18747721023628L87.7078125,82.4241511415243L88.40390625,81.80105724496619L89.10000000000001,81.06030950123221L89.79609375,80.37737280938605L90.4921875,79.9676107942783L91.18828125,79.5566553298828L91.884375,79.27338715610807L92.58046875000001,78.4063383353824L93.27656250000001,78.14293494519215L93.97265625,77.56296875350199L94.66875,77.2333268951274L95.36484375,76.70534526944081L96.0609375,76.15008743028157L96.75703125,75.72520507987163L97.453125,75.45191863112775L98.14921874999999,75.2879467618815L98.84531249999999,74.63923612256421L99.54140625,74.06657362700336L100.2375,73.64958633939199L100.93359375,73.39939396682513L101.6296875,72.86404928084636L102.32578124999999,72.15761320682033L103.021875,71.75208941904431L103.71796875,71.17857863571693L104.4140625,70.70604962366865L105.11015625,70.33080456952527L105.80625,69.97725417684585L106.50234375000001,69.69175333282179L107.1984375,69.20859417238515L107.89453125,68.79027613407126L108.590625,68.46591470266647L109.28671875,67.92274429466394L109.98281250000001,67.56016633658336L110.67890625000001,66.88400050902149L111.375,66.45994397398644L112.07109375,66.0587688361325L112.7671875,65.6896412113683L113.46328125,65.26637148604146L114.159375,65.12249433625767L114.85546875,64.66927664058822L115.55156249999999,64.37898898468862L116.24765624999999,63.54442336982545L116.94375,63.465608158483576L117.63984375,63.12479823429573L118.3359375,62.62681066425879L119.03203125,62.199595580184805L119.72812499999999,62.01665632001527L120.42421875,61.173109952315194L121.1203125,60.81372334852804L121.81640625,60.561415672976814L122.5125,60.07981537512596L123.20859375,59.919277738467244L123.90468750000001,59.63949986264317L124.60078125,59.32489192031583L125.296875,59.08109440314244L125.99296875,58.58626234367884L126.6890625,57.959166597338886L127.38515625000001,57.931443516836204L128.08125,57.768049269843125L128.77734375,57.10134734723834L129.47343750000002,56.75635894545233L130.16953125,56.457638257466314L130.865625,56.241710949537286L131.56171874999998,55.74526315898076L132.2578125,55.41071877136778L132.95390625,55.06323174010868L133.65,54.94646716826759L134.34609375,54.472822124226326L135.04218749999998,54.115264489385154L135.73828125,53.58887125445811L136.434375,53.40143867369532L137.13046875,53.17891362168378L137.8265625,52.8069105448711L138.52265625,52.583708698783475L139.21875,52.33972208757699L139.91484375,52.046588904020176L140.6109375,51.76062430847374L141.30703125,51.093750785153304L142.003125,50.766997279577495L142.69921875,50.570945176231994L143.39531250000002,50.30657269739177L144.09140624999998,49.68933015737409L144.7875,49.465745032054805L145.48359374999998,49.148138663034544L146.1796875,48.71910597787496L146.87578125,48.31492596808786L147.571875,48.18248346576951L148.26796875,47.736126558579336L148.9640625,47.7251383165105L149.66015625,47.278283357053475L150.35625000000002,47.17526863671021L151.05234375,46.70987350356765L151.74843750000002,46.46733131881962L152.44453124999998,46.248416217695876L153.140625,46.025358691965664L153.83671875,45.6897310260592L154.5328125,45.433321674738345L155.22890625,45.24278116880835L155.925,44.871630963005124L156.62109375,44.61226512624415L157.3171875,44.273190330358794L158.01328125,43.94134209263415L158.709375,43.72387611150142L159.40546875,43.74015692151309L160.1015625,43.69489265574319L160.79765625000002,43.31918054712158L161.49374999999998,43.09375328194871L162.18984375,42.8300935626515L162.88593749999998,42.21327867835957L163.58203125,41.84318974778446L164.278125,41.290939878777706L164.97421875,41.32648136317283L165.6703125,41.109318208204066L166.36640625,40.90564970680639L167.0625,40.58165545549943L167.75859375000002,40.387258904715296L168.4546875,40.123860575553415L169.15078125000002,39.70901485766947L169.84687499999998,39.16658662955637L170.54296875,38.731064189134614L171.2390625,38.63484898021247L171.93515625,38.48539220794478L172.63125,38.24895774589277L173.32734375,37.88696606155375L174.0234375,37.83486930628119L174.71953125,37.36334923890207L175.415625,37.19050270202853L176.11171875,36.683208478967764L176.8078125,36.39718898362917L177.50390625,36.28061003820293L178.20000000000002,35.9354989120625L178.89609374999998,35.63670458946385L179.5921875,35.47576585254419L180.28828124999998,35.28749414533635L180.984375,34.91770521876636L181.68046875,34.56740932077255L182.3765625,34.43062157225121L183.07265625,34.22012638108652L183.76875,33.983763762833775L184.46484375,33.585120289636926L185.16093750000002,33.27256359730238L185.85703125,33.029996830124695L186.55312500000002,32.994522273371956L187.24921874999998,32.899847749045385L187.9453125,32.659606922479135L188.64140625,32.552157321676795L189.3375,31.974035756704897L190.03359375,31.755566177915103L190.7296875,31.34932067175653L191.42578125,31.25233376675272L192.121875,31.084076120196595L192.81796875,30.946426637125384L193.5140625,30.36854218129008L194.21015625,30.113519972844824L194.90625,29.79540839244679L195.60234375000002,29.586203587568427L196.29843749999998,29.51571345641845L196.99453125,29.143222867066754L197.69062499999998,28.828000866541284L198.38671875,28.657205522865535L199.0828125,28.132804159084L199.77890625,28.00161863464383L200.475,27.647743561094973L201.17109375,27.343690870051287L201.8671875,26.739335097848954L202.56328125000002,26.706918145189277L203.259375,26.320576567794298L203.95546875000002,26.015401012940732L204.65156249999998,25.612164672920844L205.34765625,25.150072679942713L206.04375,24.909512379293208L206.73984375,24.783533237401485L207.4359375,24.43276281152324L208.13203125,24.46078860160199L208.828125,24.092355631352124L209.52421875,23.871295849202344L210.2203125,23.48185325952552L210.91640625,23.394928922552374L211.6125,23.122643313260678L212.30859375,22.702446045440425L213.00468750000002,22.46868472324619L213.70078124999998,22.31007089143172L214.396875,21.903043938320753L215.09296874999998,21.84228306028301L215.7890625,21.47563002279864L216.48515625,21.14557269675412L217.18125,20.94753830112739L217.87734375,20.6269245132831L218.5734375,20.177730338331273L219.26953125,19.871518938222717L219.96562500000002,19.99965075217982L220.66171875,19.58123507456146L221.35781250000002,19.366861381269473L222.05390624999998,19.091495948461322L222.75,18.706126499810175L223.44609375,18.328163613786593L224.1421875,18.009658235257945L224.83828125,18.038686015248697L225.534375,17.98273207482657L226.23046875,17.490540657859817L226.9265625,17.250258559456757L227.62265625,17.05105654863793L228.31875,16.748080048317853L229.01484375,16.474585683069776L229.7109375,16.127033770092194L230.40703125000002,15.845132013889097L231.10312499999998,15.510892704836348L231.79921875,15.108555968936523L232.49531249999998,14.683698633567717L233.19140625,14.6489344213127L233.8875,14.389587848353958L234.58359375,14.362402446630584L235.2796875,14.144298055128258L235.97578125,13.646544014427672L236.671875,13.49465198869864L237.36796875000002,13.201723622792882L238.0640625,12.93423895633506L238.76015625000002,12.810443051597762L239.45624999999998,12.589405110064167L240.15234375,12.273327051315077L240.8484375,12.102037254563582L241.54453125,12.090971841568711L242.240625,11.478972324225305L242.93671875,10.983369253625796" style="fill: none;" fill="none"></path></g></g></g></g><g opacity="0.2"><g><g><g><path stroke="rgb(255, 112, 67)" stroke-width="2px" d="M34.8046875,168.4156790971756L35.50078125,168.4156790971756L36.196875,168.4156790971756L36.89296875,168.4156790971756L37.589062500000004,168.4156790971756L38.28515625,168.4156790971756L38.98125,168.4156790971756L39.67734375,168.4156790971756L40.373437499999994,168.4156790971756L41.06953125,168.4156790971756L41.765625,168.4156790971756L42.461718749999996,168.4156790971756L43.1578125,168.4156790971756L43.85390625,168.4156790971756L44.550000000000004,168.4156790971756L45.24609375,168.4156790971756L45.9421875,168.4156790971756L46.638281250000006,168.4156790971756L47.334375,168.4156790971756L48.03046875,168.4156790971756L48.7265625,168.4156790971756L49.422656249999996,168.4156790971756L50.11875,168.4156790971756L50.81484375,168.4156790971756L51.5109375,168.4156790971756L52.20703125,168.4156790971756L52.903125,168.0487781004472L53.59921875,167.40676129948008L54.2953125,166.12263178825378L54.991406250000004,163.2333643653176L55.6875,159.38102378628471L56.38359375,155.20762685212222L57.0796875,150.39216516234657L57.775781249999994,143.05438500100917L58.471875,138.14723402803594L59.16796875,132.59797034480354L59.864062499999996,128.01187572695991L60.56015625,123.42573315447027L61.25625,121.27021977034481L61.952343750000004,117.7389355464415L62.6484375,115.07893928614529L63.34453125,113.794857729565L64.040625,111.50176246599716L64.73671875000001,111.08901682766998L65.4328125,109.75904267484489L66.12890625,108.19974940473381L66.825,107.42010276967827L67.52109374999999,106.22771049629556L68.2171875,105.12705546075645L68.91328125,104.98947358131407L69.609375,103.84292594953016L70.30546875,103.06327931447461L71.0015625,101.59572328220712L71.69765625000001,101.50398604436353L72.39375,99.89884813265365L73.08984375,98.84403773871334L73.7859375,98.66061121767217L74.48203125,97.37648170644584L75.17812500000001,96.87199883027509L75.87421875000001,96.22993407466193L76.5703125,93.75346024469894L77.26640625,93.47824853116813L77.9625,92.51517537507141L78.65859375,91.73552874001587L79.3546875,90.4972918250344L80.05078125,90.72661094232038L80.74687499999999,89.67180054838005L81.44296874999999,88.20419656146655L82.1390625,88.66283479603851L82.83515625,87.05769688432866L83.53125,86.27805024927312L84.22734375,85.03976537964559L84.92343749999999,84.21427410299127L85.61953125,83.38878282633694L86.315625,82.83845530856738L87.01171875,82.01291607726702L87.7078125,81.27916203845629L88.40390625,80.86641640012914L89.10000000000001,79.94918788563119L89.79609375,79.35296777161682L90.4921875,79.35296777161682L91.18828125,78.94022213328967L91.884375,78.84848489544606L92.58046875000001,77.10576510429381L93.27656250000001,77.74782985990697L93.97265625,76.69301946596664L94.66875,76.73886410756542L95.36484375,75.9133728309111L96.0609375,75.31720067154275L96.75703125,75.08788155425677L97.453125,75.04198895801196L98.14921874999999,75.04198895801196L98.84531249999999,73.66617016358806L99.54140625,73.2075798836621L100.2375,73.02410540797491L100.93359375,73.02410540797491L101.6296875,72.0610322518782L102.32578124999999,71.09795909578148L103.021875,71.14380373738027L103.71796875,70.31831246072593L104.4140625,69.99725610559636L105.11015625,69.76793698831035L105.80625,69.4469285878268L106.50234375000001,69.26350206678563L107.1984375,68.48385543173009L107.89453125,68.16279907660049L108.590625,67.97937255555931L109.28671875,67.10798868266018L109.98281250000001,67.01629939946258L110.67890625000001,65.86975176767868L111.375,65.82385917143387L112.07109375,65.4570061293515L112.7671875,65.13594977422191L113.46328125,64.63146689805114L114.159375,64.90667861158195L114.85546875,63.989450097084024L115.55156249999999,63.94355750083921L116.24765624999999,62.29257494753054L116.94375,63.34738534147086L117.63984375,62.61358334801412L118.3359375,61.87982930920339L119.03203125,61.558772954073795L119.72812499999999,61.74224742976101L120.42421875,59.907790400765144L121.1203125,60.27464344284749L121.81640625,60.182954159649924L122.5125,59.35741492834957L123.20859375,59.678471283479155L123.90468750000001,59.21983304890717L124.60078125,58.85298000682482L125.296875,58.71539812738242L125.99296875,57.8440142544833L126.6890625,57.01852297782896L127.38515625000001,57.88985889608207L128.08125,57.522957899353706L128.77734375,56.101294463331016L129.47343750000002,56.238876342773416L130.16953125,56.009557225487434L130.865625,55.917819987643824L131.56171874999998,55.0005914731459L132.2578125,54.90890218994832L132.95390625,54.54200119321993L133.65,54.77132031050594L134.34609375,53.76235455816439L135.04218749999998,53.57892803712322L135.73828125,52.79928140206768L136.434375,53.12028980255125L137.13046875,52.84512604366647L137.8265625,52.2489059296521L138.52265625,52.2489059296521L139.21875,51.97374217076732L139.91484375,51.606889128684976L140.6109375,51.33167741515418L141.30703125,50.09344050017269L142.003125,50.27686702121386L142.69921875,50.27686702121386L143.39531250000002,49.91001397913149L144.09140624999998,48.76346634734759L144.7875,49.13036734407595L145.48359374999998,48.671729109503985L146.1796875,48.075556950135635L146.87578125,47.708655953407266L147.571875,47.983819712292046L148.26796875,47.066591197794104L148.9640625,47.708655953407266L149.66015625,46.608000917868154L150.35625000000002,47.020746556195334L151.05234375,46.01178080385378L151.74843750000002,46.10351804169739L152.44453124999998,45.9200435660102L153.140625,45.69077240337023L153.83671875,45.18628952719947L154.5328125,45.04870764775707L155.22890625,44.95697040991347L155.925,44.31490565430032L156.62109375,44.22321637110274L157.3171875,43.764578136530766L158.01328125,43.443569736047195L158.709375,43.39767713980238L159.40546875,43.764578136530766L160.1015625,43.626996257088386L160.79765625000002,42.755612384189234L161.49374999999998,42.755612384189234L162.18984375,42.434603983705664L162.88593749999998,41.28805635192176L163.58203125,41.28805635192176L164.278125,40.46256507526742L164.97421875,41.37979358976534L165.6703125,40.783573475751L166.36640625,40.6001469547098L167.0625,40.09566407853904L167.75859375000002,40.09566407853904L168.4546875,39.728763081810676L169.15078125000002,39.08674628084353L169.84687499999998,38.352944287386784L170.54296875,38.077780528502004L171.2390625,38.490526166829184L171.93515625,38.261207049543174L172.63125,37.89430605281481L173.32734375,37.34397853504525L174.0234375,37.75672417337241L174.71953125,36.65606913783332L175.415625,36.9312328967181L176.11171875,35.92226714437655L176.8078125,35.96815974062136L177.50390625,36.10574162006376L178.20000000000002,35.41783222285181L178.89609374999998,35.18851310556582L179.5921875,35.234357747164616L180.28828124999998,35.00508658452465L180.984375,34.363021828911506L181.68046875,34.041965473781914L182.3765625,34.225439949469106L183.07265625,33.904383594339514L183.76875,33.629219835454734L184.46484375,32.98715507984159L185.16093750000002,32.80372855880042L185.85703125,32.66614667935802L186.55312500000002,32.9413104382428L187.24921874999998,32.75783596255561L187.9453125,32.29924568262964L188.64140625,32.39098292047324L189.3375,31.106853409246938L190.03359375,31.42786180973051L190.7296875,30.739952412518555L191.42578125,31.106853409246938L192.121875,30.831689650362158L192.81796875,30.739952412518555L193.5140625,29.50171549753706L194.21015625,29.730986660177027L194.90625,29.318241021849868L195.60234375000002,29.272396380251074L196.29843749999998,29.409978259693474L196.99453125,28.584486983039138L197.69062499999998,28.355167865753153L198.38671875,28.40101250735193L199.0828125,27.34620211341163L199.77890625,27.804840347983596L200.475,27.11693095077166L201.17109375,26.887611833485657L201.8671875,25.832801439545356L202.56328125000002,26.65829271619967L203.259375,25.74106420170175L203.95546875000002,25.557637680660577L204.65156249999998,25.00731016289102L205.34765625,24.456934690475443L206.04375,24.54867192831903L206.73984375,24.594564524563843L207.4359375,23.906607172705886L208.13203125,24.502827286720255L208.828125,23.539706175977503L209.52421875,23.539706175977503L210.2203125,22.89768937501038L210.91640625,23.264542417092724L211.6125,22.71421489932319L212.30859375,22.072150143710026L213.00468750000002,22.118042739954838L213.70078124999998,22.072150143710026L214.396875,21.292503508654484L215.09296874999998,21.75114174322645L215.7890625,20.925650466572137L216.48515625,20.650486707687357L217.18125,20.650486707687357L217.87734375,20.146003831516595L218.5734375,19.503939075903432L219.26953125,19.412201838059826L219.96562500000002,20.191848473115368L220.66171875,18.953611558133876L221.35781250000002,19.04530084133146L222.05390624999998,18.678447799249096L222.75,18.12807232683352L223.44609375,17.761219284751174L224.1421875,17.53190016746519L224.83828125,18.082227685234727L225.534375,17.898801164193554L226.23046875,16.752253532409647L226.9265625,16.889835411852026L227.62265625,16.752253532409647L228.31875,16.293615297837658L229.01484375,16.064344135197693L229.7109375,15.605705900625722L230.40703125000002,15.42227937958455L231.10312499999998,15.009533741257371L231.79921875,14.505050865086607L232.49531249999998,14.046412630514638L233.19140625,14.596788102930214L233.8875,14.000567988915845L234.58359375,14.321624344045436L235.2796875,13.817141467874672L235.97578125,12.89991295337675L236.671875,13.266813950105115L237.36796875000002,12.762331073934352L238.0640625,12.533011956648366L238.76015625000002,12.624749194491972L239.45624999999998,12.257848197763588L240.15234375,11.799209963191618L240.8484375,11.84510255943643L241.54453125,12.074373722076396L242.240625,10.560973048210125L242.93671875,10.239964647726552" style="fill: none;" fill="none"></path></g></g></g></g></g></g><g transform="translate(51, 177)" clip-path="url(#clip_1)"><clipPath id="clip_1"><rect width="278" height="23"></rect></clipPath><g><g><line x1="0" y1="0" x2="0" y2="5" style="visibility: inherit;" fill="rgb(0, 0, 0)" stroke="rgb(204, 204, 204)" stroke-width="1px"></line><line x1="34.8046875" y1="0" x2="34.8046875" y2="5" style="visibility: inherit;" fill="rgb(0, 0, 0)" stroke="rgb(204, 204, 204)" stroke-width="1px"></line><line x1="69.609375" y1="0" x2="69.609375" y2="5" style="visibility: inherit;" fill="rgb(0, 0, 0)" stroke="rgb(204, 204, 204)" stroke-width="1px"></line><line x1="104.4140625" y1="0" x2="104.4140625" y2="5" style="visibility: inherit;" fill="rgb(0, 0, 0)" stroke="rgb(204, 204, 204)" stroke-width="1px"></line><line x1="139.21875" y1="0" x2="139.21875" y2="5" style="visibility: inherit;" fill="rgb(0, 0, 0)" stroke="rgb(204, 204, 204)" stroke-width="1px"></line><line x1="174.0234375" y1="0" x2="174.0234375" y2="5" style="visibility: inherit;" fill="rgb(0, 0, 0)" stroke="rgb(204, 204, 204)" stroke-width="1px"></line><line x1="208.828125" y1="0" x2="208.828125" y2="5" style="visibility: inherit;" fill="rgb(0, 0, 0)" stroke="rgb(204, 204, 204)" stroke-width="1px"></line><line x1="243.6328125" y1="0" x2="243.6328125" y2="5" style="visibility: inherit;" fill="rgb(0, 0, 0)" stroke="rgb(204, 204, 204)" stroke-width="1px"></line><line x1="278.4375" y1="0" x2="278.4375" y2="5" style="visibility: inherit;" fill="rgb(0, 0, 0)" stroke="rgb(204, 204, 204)" stroke-width="1px"></line></g><g transform="translate(0, 8)"><text x="0" y="0" dx="0em" dy="0.95em" style="text-anchor: middle; visibility: hidden; font-family: Roboto, sans-serif; font-size: 12px; font-weight: 200;" fill="rgb(33, 33, 33)" stroke="none" stroke-width="1px">-50</text><text x="34.8046875" y="0" dx="0em" dy="0.95em" style="text-anchor: middle; visibility: inherit; font-family: Roboto, sans-serif; font-size: 12px; font-weight: 200;" fill="rgb(33, 33, 33)" stroke="none" stroke-width="1px">0</text><text x="69.609375" y="0" dx="0em" dy="0.95em" style="text-anchor: middle; visibility: inherit; font-family: Roboto, sans-serif; font-size: 12px; font-weight: 200;" fill="rgb(33, 33, 33)" stroke="none" stroke-width="1px">50</text><text x="104.4140625" y="0" dx="0em" dy="0.95em" style="text-anchor: middle; visibility: inherit; font-family: Roboto, sans-serif; font-size: 12px; font-weight: 200;" fill="rgb(33, 33, 33)" stroke="none" stroke-width="1px">100</text><text x="139.21875" y="0" dx="0em" dy="0.95em" style="text-anchor: middle; visibility: inherit; font-family: Roboto, sans-serif; font-size: 12px; font-weight: 200;" fill="rgb(33, 33, 33)" stroke="none" stroke-width="1px">150</text><text x="174.0234375" y="0" dx="0em" dy="0.95em" style="text-anchor: middle; visibility: inherit; font-family: Roboto, sans-serif; font-size: 12px; font-weight: 200;" fill="rgb(33, 33, 33)" stroke="none" stroke-width="1px">200</text><text x="208.828125" y="0" dx="0em" dy="0.95em" style="text-anchor: middle; visibility: inherit; font-family: Roboto, sans-serif; font-size: 12px; font-weight: 200;" fill="rgb(33, 33, 33)" stroke="none" stroke-width="1px">250</text><text x="243.6328125" y="0" dx="0em" dy="0.95em" style="text-anchor: middle; visibility: inherit; font-family: Roboto, sans-serif; font-size: 12px; font-weight: 200;" fill="rgb(33, 33, 33)" stroke="none" stroke-width="1px">300</text><text x="278.4375" y="0" dx="0em" dy="0.95em" style="text-anchor: middle; visibility: hidden; font-family: Roboto, sans-serif; font-size: 12px; font-weight: 200;" fill="rgb(33, 33, 33)" stroke="none" stroke-width="1px">350</text></g><line x1="0" y1="0" x2="278.4375" y2="0" fill="rgb(0, 0, 0)" stroke="rgb(204, 204, 204)" stroke-width="1px"></line></g></g></g></g></svg>