<svg viewBox="0 0 330 200" xmlns="http://www.w3.org/2000/svg"><g><g><g><g><g><line x1="51.5625" y1="177" x2="46.5625" y2="177" style="visibility: inherit;" fill="rgb(0, 0, 0)" stroke="rgb(204, 204, 204)" stroke-width="1px"></line><line x1="51.5625" y1="160.90909090909088" x2="46.5625" y2="160.90909090909088" style="visibility: inherit;" fill="rgb(0, 0, 0)" stroke="rgb(204, 204, 204)" stroke-width="1px"></line><line x1="51.5625" y1="144.81818181818178" x2="46.5625" y2="144.81818181818178" style="visibility: inherit;" fill="rgb(0, 0, 0)" stroke="rgb(204, 204, 204)" stroke-width="1px"></line><line x1="51.5625" y1="128.7272727272727" x2="46.5625" y2="128.7272727272727" style="visibility: inherit;" fill="rgb(0, 0, 0)" stroke="rgb(204, 204, 204)" stroke-width="1px"></line><line x1="51.5625" y1="112.63636363636365" x2="46.5625" y2="112.63636363636365" style="visibility: inherit;" fill="rgb(0, 0, 0)" stroke="rgb(204, 204, 204)" stroke-width="1px"></line><line x1="51.5625" y1="96.54545454545456" x2="46.5625" y2="96.54545454545456" style="visibility: inherit;" fill="rgb(0, 0, 0)" stroke="rgb(204, 204, 204)" stroke-width="1px"></line><line x1="51.5625" y1="80.45454545454544" x2="46.5625" y2="80.45454545454544" style="visibility: inherit;" fill="rgb(0, 0, 0)" stroke="rgb(204, 204, 204)" stroke-width="1px"></line><line x1="51.5625" y1="64.36363636363635" x2="46.5625" y2="64.36363636363635" style="visibility: inherit;" fill="rgb(0, 0, 0)" stroke="rgb(204, 204, 204)" stroke-width="1px"></line><line x1="51.5625" y1="48.27272727272723" x2="46.5625" y2="48.27272727272723" style="visibility: inherit;" fill="rgb(0, 0, 0)" stroke="rgb(204, 204, 204)" stroke-width="1px"></line><line x1="51.5625" y1="32.18181818181813" x2="46.5625" y2="32.18181818181813" style="visibility: inherit;" fill="rgb(0, 0, 0)" stroke="rgb(204, 204, 204)" stroke-width="1px"></line><line x1="51.5625" y1="16.090909090909115" x2="46.5625" y2="16.090909090909115" style="visibility: inherit;" fill="rgb(0, 0, 0)" stroke="rgb(204, 204, 204)" stroke-width="1px"></line><line x1="51.5625" y1="0" x2="46.5625" y2="0" style="visibility: inherit;" fill="rgb(0, 0, 0)" stroke="rgb(204, 204, 204)" stroke-width="1px"></line></g><g transform="translate(41.5625, 0)"><text x="0" y="177" dx="0em" dy="0.3em" style="text-anchor: end; visibility: hidden; font-family: Roboto, sans-serif; font-size: 12px; font-weight: 200;" fill="rgb(33, 33, 33)" stroke="none" stroke-width="1px">0.74</text><text x="0" y="160.90909090909088" dx="0em" dy="0.3em" style="text-anchor: end; visibility: inherit; font-family: Roboto, sans-serif; font-size: 12px; font-weight: 200;" fill="rgb(33, 33, 33)" stroke="none" stroke-width="1px">0.76</text><text x="0" y="144.81818181818178" dx="0em" dy="0.3em" style="text-anchor: end; visibility: hidden; font-family: Roboto, sans-serif; font-size: 12px; font-weight: 200;" fill="rgb(33, 33, 33)" stroke="none" stroke-width="1px">0.78</text><text x="0" y="128.7272727272727" dx="0em" dy="0.3em" style="text-anchor: end; visibility: inherit; font-family: Roboto, sans-serif; font-size: 12px; font-weight: 200;" fill="rgb(33, 33, 33)" stroke="none" stroke-width="1px">0.8</text><text x="0" y="112.63636363636365" dx="0em" dy="0.3em" style="text-anchor: end; visibility: hidden; font-family: Roboto, sans-serif; font-size: 12px; font-weight: 200;" fill="rgb(33, 33, 33)" stroke="none" stroke-width="1px">0.82</text><text x="0" y="96.54545454545456" dx="0em" dy="0.3em" style="text-anchor: end; visibility: inherit; font-family: Roboto, sans-serif; font-size: 12px; font-weight: 200;" fill="rgb(33, 33, 33)" stroke="none" stroke-width="1px">0.84</text><text x="0" y="80.45454545454544" dx="0em" dy="0.3em" style="text-anchor: end; visibility: hidden; font-family: Roboto, sans-serif; font-size: 12px; font-weight: 200;" fill="rgb(33, 33, 33)" stroke="none" stroke-width="1px">0.86</text><text x="0" y="64.36363636363635" dx="0em" dy="0.3em" style="text-anchor: end; visibility: inherit; font-family: Roboto, sans-serif; font-size: 12px; font-weight: 200;" fill="rgb(33, 33, 33)" stroke="none" stroke-width="1px">0.88</text><text x="0" y="48.27272727272723" dx="0em" dy="0.3em" style="text-anchor: end; visibility: hidden; font-family: Roboto, sans-serif; font-size: 12px; font-weight: 200;" fill="rgb(33, 33, 33)" stroke="none" stroke-width="1px">0.9</text><text x="0" y="32.18181818181813" dx="0em" dy="0.3em" style="text-anchor: end; visibility: inherit; font-family: Roboto, sans-serif; font-size: 12px; font-weight: 200;" fill="rgb(33, 33, 33)" stroke="none" stroke-width="1px">0.92</text><text x="0" y="16.090909090909115" dx="0em" dy="0.3em" style="text-anchor: end; visibility: hidden; font-family: Roboto, sans-serif; font-size: 12px; font-weight: 200;" fill="rgb(33, 33, 33)" stroke="none" stroke-width="1px">0.94</text><text x="0" y="0" dx="0em" dy="0.3em" style="text-anchor: end; visibility: hidden; font-family: Roboto, sans-serif; font-size: 12px; font-weight: 200;" fill="rgb(33, 33, 33)" stroke="none" stroke-width="1px">0.96</text></g><line x1="51.5625" y1="0" x2="51.5625" y2="177" fill="rgb(0, 0, 0)" stroke="rgb(204, 204, 204)" stroke-width="1px"></line></g></g><g transform="translate(51, 0)" clip-path="url(#clip_0)"><clipPath id="clip_0"><rect width="278" height="177"></rect></clipPath><g><g><g><line x1="0" y1="0" x2="0" y2="177" fill="rgb(0, 0, 0)" stroke="rgb(66, 66, 66)" stroke-width="1px" opacity="0.25"></line><line x1="23.203125" y1="0" x2="23.203125" y2="177" fill="rgb(0, 0, 0)" stroke="rgb(66, 66, 66)" stroke-width="1px" opacity="0.25"></line><line x1="46.40625" y1="0" x2="46.40625" y2="177" fill="rgb(0, 0, 0)" stroke="rgb(66, 66, 66)" stroke-width="1px" opacity="0.25"></line><line x1="69.609375" y1="0" x2="69.609375" y2="177" fill="rgb(0, 0, 0)" stroke="rgb(66, 66, 66)" stroke-width="1px" opacity="0.25"></line><line x1="92.8125" y1="0" x2="92.8125" y2="177" fill="rgb(0, 0, 0)" stroke="rgb(66, 66, 66)" stroke-width="1px" opacity="0.25"></line><line x1="116.015625" y1="0" x2="116.015625" y2="177" fill="rgb(0, 0, 0)" stroke="rgb(66, 66, 66)" stroke-width="1px" opacity="0.25"></line><line x1="139.21875" y1="0" x2="139.21875" y2="177" fill="rgb(0, 0, 0)" stroke="rgb(66, 66, 66)" stroke-width="1px" opacity="0.25"></line><line x1="162.421875" y1="0" x2="162.421875" y2="177" fill="rgb(0, 0, 0)" stroke="rgb(66, 66, 66)" stroke-width="1px" opacity="0.25"></line><line x1="185.625" y1="0" x2="185.625" y2="177" fill="rgb(0, 0, 0)" stroke="rgb(66, 66, 66)" stroke-width="1px" opacity="0.25"></line><line x1="208.828125" y1="0" x2="208.828125" y2="177" fill="rgb(0, 0, 0)" stroke="rgb(66, 66, 66)" stroke-width="1px" opacity="0.25"></line><line x1="232.03125" y1="0" x2="232.03125" y2="177" fill="rgb(0, 0, 0)" stroke="rgb(66, 66, 66)" stroke-width="1px" opacity="0.25"></line><line x1="255.234375" y1="0" x2="255.234375" y2="177" fill="rgb(0, 0, 0)" stroke="rgb(66, 66, 66)" stroke-width="1px" opacity="0.25"></line><line x1="278.4375" y1="0" x2="278.4375" y2="177" fill="rgb(0, 0, 0)" stroke="rgb(66, 66, 66)" stroke-width="1px" opacity="0.25"></line></g><g><line x1="0" y1="177" x2="278.4375" y2="177" fill="rgb(0, 0, 0)" stroke="rgb(66, 66, 66)" stroke-width="1px" opacity="0.25"></line><line x1="0" y1="160.90909090909088" x2="278.4375" y2="160.90909090909088" fill="rgb(0, 0, 0)" stroke="rgb(66, 66, 66)" stroke-width="1px" opacity="0.25"></line><line x1="0" y1="144.81818181818178" x2="278.4375" y2="144.81818181818178" fill="rgb(0, 0, 0)" stroke="rgb(66, 66, 66)" stroke-width="1px" opacity="0.25"></line><line x1="0" y1="128.7272727272727" x2="278.4375" y2="128.7272727272727" fill="rgb(0, 0, 0)" stroke="rgb(66, 66, 66)" stroke-width="1px" opacity="0.25"></line><line x1="0" y1="112.63636363636365" x2="278.4375" y2="112.63636363636365" fill="rgb(0, 0, 0)" stroke="rgb(66, 66, 66)" stroke-width="1px" opacity="0.25"></line><line x1="0" y1="96.54545454545456" x2="278.4375" y2="96.54545454545456" fill="rgb(0, 0, 0)" stroke="rgb(66, 66, 66)" stroke-width="1px" opacity="0.25"></line><line x1="0" y1="80.45454545454544" x2="278.4375" y2="80.45454545454544" fill="rgb(0, 0, 0)" stroke="rgb(66, 66, 66)" stroke-width="1px" opacity="0.25"></line><line x1="0" y1="64.36363636363635" x2="278.4375" y2="64.36363636363635" fill="rgb(0, 0, 0)" stroke="rgb(66, 66, 66)" stroke-width="1px" opacity="0.25"></line><line x1="0" y1="48.27272727272723" x2="278.4375" y2="48.27272727272723" fill="rgb(0, 0, 0)" stroke="rgb(66, 66, 66)" stroke-width="1px" opacity="0.25"></line><line x1="0" y1="32.18181818181813" x2="278.4375" y2="32.18181818181813" fill="rgb(0, 0, 0)" stroke="rgb(66, 66, 66)" stroke-width="1px" opacity="0.25"></line><line x1="0" y1="16.090909090909115" x2="278.4375" y2="16.090909090909115" fill="rgb(0, 0, 0)" stroke="rgb(66, 66, 66)" stroke-width="1px" opacity="0.25"></line><line x1="0" y1="0" x2="278.4375" y2="0" fill="rgb(0, 0, 0)" stroke="rgb(66, 66, 66)" stroke-width="1px" opacity="0.25"></line></g></g></g><g><g><line x1="0" y1="772.3636363636365" x2="278.4375" y2="772.3636363636365" fill="rgb(0, 0, 0)" stroke="rgb(153, 153, 153)" stroke-width="1.5px"></line></g></g><g><g><line x1="23.203125" y1="0" x2="23.203125" y2="177" fill="rgb(0, 0, 0)" stroke="rgb(153, 153, 153)" stroke-width="1.5px"></line></g></g><g><g><g><g><g><path stroke="rgb(255, 112, 67)" stroke-width="2px" d="M27.84375,180.6538799583186L29.00390625,175.51902795898025L30.1640625,172.595858374169L31.32421875,170.8952225113174L32.484375,169.89330815738367L33.64453125,169.29866092890288L34.8046875,168.94418215766584L35.96484375000001,168.73231975513414L37.125,168.60549785374582L38.28515625,168.5111585662842L39.4453125,168.38119720770544L40.60546875,168.06470416666633L41.765625,167.15929941847116L42.92578125,165.20349750361328L44.0859375,161.99376921847278L45.24609375,156.9493760459373L46.40625,150.82256066805206L47.56640625,144.2113875811874L48.7265625,137.65814129625508L49.88671875,132.03852202005856L51.04687499999999,127.38265351610357L52.20703125,123.4150748748622L53.36718750000001,120.81440078920888L54.52734375,118.39181134009189L55.6875,117.0483241668571L56.84765625,115.82030792887431L58.0078125,114.97343284168001L59.16796875,113.91498029968837L60.328125,113.1331484227066L61.48828125,112.31549576126527L62.6484375,111.54974041577847L63.80859375,110.7600907028438L64.96875,110.1395404806961L66.12890625,109.4370138379774L67.2890625,108.2266822888831L68.44921875,107.13359195486261L69.609375,106.20255481442155L70.76953125,105.14863776440383L71.92968750000001,104.3511892793393L73.08984375,103.30403563208206L74.25,102.30885203800635L75.41015625,101.30815558066548L76.5703125,100.32250844384781L77.73046875,98.96066163688603L78.890625,97.66657746151061L80.05078125,96.61496319740958L81.2109375,95.65379812829114L82.37109375,94.39834902699957L83.53125,93.22315540865009L84.69140624999999,92.09611508006518L85.8515625,90.83286847000768L87.01171875,89.63465848975777L88.171875,88.05352714795788L89.33203125000001,86.44445532155447L90.4921875,85.16715357169038L91.65234375,83.81375010886501L92.8125,82.67149233864973L93.97265625,81.36243955033446L95.1328125,80.52195594370995L96.29296875,79.79753477262746L97.453125,79.12441320623059L98.61328125,78.26192121367886L99.7734375,77.50595715440062L100.93359375,76.42866141078919L102.09374999999999,76.03910986686759L103.25390625,75.34675988780097L104.4140625,75.1147860123314L105.57421875,74.31520866572625L106.73437500000001,73.90883286617961L107.89453125,73.49990913112084L109.0546875,72.77759798073242L110.21484375,72.12408028339154L111.375,71.45680590610225L112.53515625,70.8362910907625L113.6953125,70.04205804398251L114.85546875,69.51048546413756L116.015625,68.8613454055688L117.17578125,68.52689412220454L118.3359375,68.1427872402156L119.49609374999999,67.76556271233086L120.65625,67.02557619110948L121.81640625,66.80171528548446L122.9765625,66.15376611947737L124.13671875000001,65.5265085742674L125.296875,64.9483608966731L126.45703125,64.45471189142516L127.6171875,63.865020872752055L128.77734375,63.547901156685676L129.9375,63.027413634525715L131.09765625,62.62341265617371L132.2578125,62.05079637664241L133.41796875,61.41372499339928L134.578125,60.70126647093329L135.73828125,60.10869310212289L136.8984375,59.47798532195187L138.05859375,58.95280025515786L139.21875,58.3074927044198L140.37890625,57.60844951995466L141.5390625,56.69372884328303L142.69921875,56.34668958774836L143.85937500000003,55.64315208657655L145.01953125,54.76241053315978L146.1796875,54.1055622409163L147.33984375,53.58304990537683L148.5,53.39794586424666L149.66015625,52.57143848460963L150.8203125,52.18561874223976L151.98046874999997,51.97246475345736L153.140625,51.36761545083483L154.30078125,50.912978222347014L155.4609375,50.71358567552909L156.62109375,50.116974056226915L157.78125,49.64894158109163L158.94140625,49.12965323226311L160.1015625,48.68965768091419L161.26171875000003,48.095463839443106L162.421875,47.53715438409215L163.58203125,47.12879810246508L164.7421875,46.71868607815799L165.90234375,46.23413081796796L167.0625,45.759961549883634L168.22265625,45.45710295053504L169.38281249999997,45.05525678381812L170.54296875,44.6123559333197L171.703125,44.089808702633725L172.86328125,43.46442171019992L174.0234375,43.23593073157257L175.18359375,42.823672385511415L176.34375,42.41121912254387L177.50390625,41.90692126251811L178.66406250000003,41.09069074201218L179.82421875,40.65598518148545L180.984375,40.48688949208378L182.14453125,40.00020281600414L183.3046875,39.37799429969471L184.46484375,39.07803979832542L185.625,38.43944804479024L186.78515624999997,38.27644318163539L187.9453125,37.738359067668505L189.10546875,36.956889546574736L190.265625,36.34126661708563L191.42578125,35.770099708923794L192.5859375,35.262301308695896L193.74609375,34.92092737342169L194.90625,34.514309861788746L196.06640625000003,34.34372914508397L197.2265625,33.76442380570792L198.38671875,33.32511295516804L199.546875,32.529536783714065L200.70703125,32.14389954589759L201.8671875,31.508950084129488L203.02734375,31.072947655291706L204.18749999999997,30.939749558182463L205.34765625,30.73142733972354L206.5078125,30.166152812574044L207.66796875,30.083813998529596L208.828125,29.740909094578686L209.98828125,28.94814373930113L211.1484375,28.564192991190605L212.30859375,28.076996640079038L213.46875000000003,27.637937612579158L214.62890625,27.11767629383399L215.7890625,26.842195215865956L216.94921875,26.45677556197719L218.109375,26.097120409450568L219.26953125,25.38601337008361L220.4296875,24.904316394686358L221.58984374999997,24.98218961524719L222.75,24.496923886453725L223.91015625,24.169088735898583L225.0703125,23.935692750428057L226.23046875,23.135242955963943L227.390625,23.021864485084553L228.55078125,22.36681498964995L229.7109375,21.90041468397275L230.87109375000003,21.455476245235502L232.03125,20.968362993026982L233.19140625,21.09801919927801L234.3515625,20.515419901705105L235.51171875,20.257587970075775L236.671875,20.323019818205964L237.83203125,19.70186672390225L238.99218749999997,19.457597409371814L240.15234375,19.03587206176879L241.3125,18.30586076199559L242.47265625,17.317526464362114L243.6328125,17.47664655401974L244.79296875,17.48041014275841L245.953125,16.877288844596706L247.11328125,16.14852465990047L248.27343750000003,15.876364404413634L249.43359375,15.437904492236711L250.59375,14.881307747547883L251.75390625,15.739751565046477L252.9140625,15.759523089553067L254.07421875,14.982570440881737" style="fill: none;" fill="none"></path></g></g></g></g><g opacity="0.2"><g><g><g><path stroke="rgb(255, 112, 67)" stroke-width="2px" d="M23.203125,386.440494174307L24.36328125,168.2322525761344L25.523437499999996,168.4156790971756L26.683593750000004,168.4156790971756L27.84375,168.4156790971756L29.00390625,168.4156790971756L30.1640625,168.4156790971756L31.32421875,168.4156790971756L32.484375,168.4156790971756L33.64453125,168.4156790971756L34.8046875,168.4156790971756L35.96484375000001,168.4156790971756L37.125,168.4156790971756L38.28515625,168.3698344555768L39.4453125,168.18640793453562L40.60546875,167.59018782052127L41.765625,165.80157543312419L42.92578125,162.2702912092209L44.0859375,157.17966576056045L45.24609375,149.38324736465106L46.40625,141.63267361034045L47.56640625,134.29484549435702L48.7265625,127.82840125127271L49.88671875,123.60915967551144L51.04687499999999,120.39888385209167L52.20703125,117.46372383291069L53.36718750000001,116.91339631514114L54.52734375,114.75793088566171L55.6875,115.03309464454651L56.84765625,113.97828425060617L58.0078125,113.7031204917214L59.16796875,112.32730169729751L60.328125,111.96040070056914L61.48828125,111.08901682766998L62.6484375,110.40110743045805L63.80859375,109.57561615380371L64.96875,109.20871515707535L66.12890625,108.38322388042101L67.2890625,106.41118497198278L68.44921875,105.49395645748483L69.609375,104.80599910562688L70.76953125,103.56776219064537L71.92968750000001,103.1550165523182L73.08984375,101.73330516164953L74.25,100.81607664715158L75.41015625,99.80711089481005L76.5703125,98.84403773871334L77.73046875,96.9178914265199L78.890625,95.72545119849117L80.05078125,95.03754180127922L81.2109375,94.2120505246249L82.37109375,92.51517537507141L83.53125,91.46036498113111L84.69140624999999,90.40555458719078L85.8515625,88.93799855492331L87.01171875,87.8373435193842L88.171875,85.68183013525875L89.33203125000001,84.03084758195007L90.4921875,83.25120094689453L91.65234375,81.78364491462706L92.8125,80.9581056833267L93.97265625,79.39886036786163L95.1328125,79.26123053377324L96.29296875,78.71090301600368L97.453125,78.11473085663533L98.61328125,76.96818322485143L99.7734375,76.37201106548308L100.93359375,74.812717795372L102.09374999999999,75.45478255098516L103.25390625,74.30823491920123L104.4140625,74.76682519912718L105.57421875,73.11584264581853L106.73437500000001,73.2992691668597L107.89453125,72.88652352853252L109.0546875,71.69413125514983L110.21484375,71.14380373738027L111.375,70.45589434016833L112.53515625,69.90551886775275L113.6953125,68.85070847381243L114.85546875,68.71312659437004L116.015625,67.88763531771572L117.17578125,68.0252171971581L118.3359375,67.56662691723214L119.49609374999999,67.19972592050377L120.65625,65.91559640927746L121.81640625,66.46592392704702L122.9765625,65.18184237046673L124.13671875000001,64.58562225645235L125.296875,64.0811393802816L126.45703125,63.71423838355323L127.6171875,62.9804843447425L128.77734375,63.07222158258608L129.9375,62.24668235128573L131.09765625,62.01741118864578L132.2578125,61.19187195734543L133.41796875,60.4581179185347L134.578125,59.63257868723434L135.73828125,59.21983304890717L136.8984375,58.53192365169523L138.05859375,58.16502265496685L139.21875,57.33953137831253L140.37890625,56.55988474325699L141.5390625,55.321647828275474L142.69921875,55.82613070444626L143.85937500000003,54.58784583481873L145.01953125,53.44129820303482L146.1796875,53.12028980255125L147.33984375,52.79928140206768L148.5,53.12028980255125L149.66015625,51.33167741515418L150.8203125,51.606889128684976L151.98046874999997,51.652733770283774L153.140625,50.46034149690105L154.30078125,50.23102237961507L155.4609375,50.41449685530226L156.62109375,49.22205662727354L157.78125,48.94689286838876L158.94140625,48.35072070902041L160.1015625,48.02966435389082L161.26171875000003,47.204173077236504L162.421875,46.69969020106574L163.58203125,46.51626368002455L164.7421875,46.10351804169739L165.90234375,45.50729792768302L167.0625,45.04870764775707L168.22265625,45.00281505151226L169.38281249999997,44.4524875337427L170.54296875,43.948004657571936L171.703125,43.305987856604816L172.86328125,42.52634122154927L174.0234375,42.893194263631614L175.18359375,42.20528486641968L176.34375,41.79253922809252L177.50390625,41.15047447247936L178.66406250000003,39.866344961253056L179.82421875,40.003926840695456L180.984375,40.23324595798144L182.14453125,39.270172801884726L183.3046875,38.444681525230386L184.46484375,38.628108046271564L185.625,37.48156041448763L186.78515624999997,38.03193588690321L187.9453125,36.9312328967181L189.10546875,35.78468526493417L190.265625,35.41783222285181L191.42578125,34.913349346681045L192.5859375,34.500603708353886L193.74609375,34.408866470510276L194.90625,33.904383594339514L196.06640625000003,34.087858070026726L197.2265625,32.895465796644004L198.38671875,32.66614667935802L199.546875,31.336172526532923L200.70703125,31.565443689172888L201.8671875,30.55652589147738L203.02734375,30.418944012035002L204.18749999999997,30.739952412518555L205.34765625,30.418944012035002L206.5078125,29.318241021849868L207.66796875,29.960305777463013L208.828125,29.226551738652283L209.98828125,27.758995706384802L211.1484375,27.98826686902477L212.30859375,27.34620211341163L213.46875000000003,26.97934907132926L214.62890625,26.33728431571612L215.7890625,26.428973598913686L216.94921875,25.87864608114413L218.109375,25.557637680660577L219.26953125,24.319352811033045L220.4296875,24.181770931590666L221.58984374999997,25.098999446088587L222.75,23.76902529326349L223.91015625,23.677336010065922L225.0703125,23.585598772222315L226.23046875,21.934568264267625L227.390625,22.851796778765568L228.55078125,21.384240746498087L229.7109375,21.200814225456895L230.87109375000003,20.788068587129736L232.03125,20.237693114714162L233.19140625,21.292503508654484L234.3515625,19.64152095534581L235.51171875,19.870840072631815L236.671875,20.421167590401353L237.83203125,18.770137082446684L238.99218749999997,19.091193437576273L240.15234375,18.40328404036432L241.3125,17.2108438123356L242.47265625,15.835025017911708L243.6328125,17.715326688506362L244.79296875,17.486055525866398L245.953125,15.972606897354106L247.11328125,15.055378382856166L248.27343750000003,15.468124021183343L249.43359375,14.780214623971387L250.59375,14.046412630514638L251.75390625,17.027417291294427L252.9140625,15.789180376312913L254.07421875,13.817141467874672" style="fill: none;" fill="none"></path></g></g></g></g></g></g><g transform="translate(51, 177)" clip-path="url(#clip_1)"><clipPath id="clip_1"><rect width="278" height="23"></rect></clipPath><g><g><line x1="0" y1="0" x2="0" y2="5" style="visibility: inherit;" fill="rgb(0, 0, 0)" stroke="rgb(204, 204, 204)" stroke-width="1px"></line><line x1="23.203125" y1="0" x2="23.203125" y2="5" style="visibility: inherit;" fill="rgb(0, 0, 0)" stroke="rgb(204, 204, 204)" stroke-width="1px"></line><line x1="46.40625" y1="0" x2="46.40625" y2="5" style="visibility: inherit;" fill="rgb(0, 0, 0)" stroke="rgb(204, 204, 204)" stroke-width="1px"></line><line x1="69.609375" y1="0" x2="69.609375" y2="5" style="visibility: inherit;" fill="rgb(0, 0, 0)" stroke="rgb(204, 204, 204)" stroke-width="1px"></line><line x1="92.8125" y1="0" x2="92.8125" y2="5" style="visibility: inherit;" fill="rgb(0, 0, 0)" stroke="rgb(204, 204, 204)" stroke-width="1px"></line><line x1="116.015625" y1="0" x2="116.015625" y2="5" style="visibility: inherit;" fill="rgb(0, 0, 0)" stroke="rgb(204, 204, 204)" stroke-width="1px"></line><line x1="139.21875" y1="0" x2="139.21875" y2="5" style="visibility: inherit;" fill="rgb(0, 0, 0)" stroke="rgb(204, 204, 204)" stroke-width="1px"></line><line x1="162.421875" y1="0" x2="162.421875" y2="5" style="visibility: inherit;" fill="rgb(0, 0, 0)" stroke="rgb(204, 204, 204)" stroke-width="1px"></line><line x1="185.625" y1="0" x2="185.625" y2="5" style="visibility: inherit;" fill="rgb(0, 0, 0)" stroke="rgb(204, 204, 204)" stroke-width="1px"></line><line x1="208.828125" y1="0" x2="208.828125" y2="5" style="visibility: inherit;" fill="rgb(0, 0, 0)" stroke="rgb(204, 204, 204)" stroke-width="1px"></line><line x1="232.03125" y1="0" x2="232.03125" y2="5" style="visibility: inherit;" fill="rgb(0, 0, 0)" stroke="rgb(204, 204, 204)" stroke-width="1px"></line><line x1="255.234375" y1="0" x2="255.234375" y2="5" style="visibility: inherit;" fill="rgb(0, 0, 0)" stroke="rgb(204, 204, 204)" stroke-width="1px"></line><line x1="278.4375" y1="0" x2="278.4375" y2="5" style="visibility: inherit;" fill="rgb(0, 0, 0)" stroke="rgb(204, 204, 204)" stroke-width="1px"></line></g><g transform="translate(0, 8)"><text x="0" y="0" dx="0em" dy="0.95em" style="text-anchor: middle; visibility: hidden; font-family: Roboto, sans-serif; font-size: 12px; font-weight: 200;" fill="rgb(33, 33, 33)" stroke="none" stroke-width="1px">-20</text><text x="23.203125" y="0" dx="0em" dy="0.95em" style="text-anchor: middle; visibility: inherit; font-family: Roboto, sans-serif; font-size: 12px; font-weight: 200;" fill="rgb(33, 33, 33)" stroke="none" stroke-width="1px">0</text><text x="46.40625" y="0" dx="0em" dy="0.95em" style="text-anchor: middle; visibility: hidden; font-family: Roboto, sans-serif; font-size: 12px; font-weight: 200;" fill="rgb(33, 33, 33)" stroke="none" stroke-width="1px">20</text><text x="69.609375" y="0" dx="0em" dy="0.95em" style="text-anchor: middle; visibility: inherit; font-family: Roboto, sans-serif; font-size: 12px; font-weight: 200;" fill="rgb(33, 33, 33)" stroke="none" stroke-width="1px">40</text><text x="92.8125" y="0" dx="0em" dy="0.95em" style="text-anchor: middle; visibility: hidden; font-family: Roboto, sans-serif; font-size: 12px; font-weight: 200;" fill="rgb(33, 33, 33)" stroke="none" stroke-width="1px">60</text><text x="116.015625" y="0" dx="0em" dy="0.95em" style="text-anchor: middle; visibility: inherit; font-family: Roboto, sans-serif; font-size: 12px; font-weight: 200;" fill="rgb(33, 33, 33)" stroke="none" stroke-width="1px">80</text><text x="139.21875" y="0" dx="0em" dy="0.95em" style="text-anchor: middle; visibility: hidden; font-family: Roboto, sans-serif; font-size: 12px; font-weight: 200;" fill="rgb(33, 33, 33)" stroke="none" stroke-width="1px">100</text><text x="162.421875" y="0" dx="0em" dy="0.95em" style="text-anchor: middle; visibility: inherit; font-family: Roboto, sans-serif; font-size: 12px; font-weight: 200;" fill="rgb(33, 33, 33)" stroke="none" stroke-width="1px">120</text><text x="185.625" y="0" dx="0em" dy="0.95em" style="text-anchor: middle; visibility: hidden; font-family: Roboto, sans-serif; font-size: 12px; font-weight: 200;" fill="rgb(33, 33, 33)" stroke="none" stroke-width="1px">140</text><text x="208.828125" y="0" dx="0em" dy="0.95em" style="text-anchor: middle; visibility: inherit; font-family: Roboto, sans-serif; font-size: 12px; font-weight: 200;" fill="rgb(33, 33, 33)" stroke="none" stroke-width="1px">160</text><text x="232.03125" y="0" dx="0em" dy="0.95em" style="text-anchor: middle; visibility: hidden; font-family: Roboto, sans-serif; font-size: 12px; font-weight: 200;" fill="rgb(33, 33, 33)" stroke="none" stroke-width="1px">180</text><text x="255.234375" y="0" dx="0em" dy="0.95em" style="text-anchor: middle; visibility: inherit; font-family: Roboto, sans-serif; font-size: 12px; font-weight: 200;" fill="rgb(33, 33, 33)" stroke="none" stroke-width="1px">200</text><text x="278.4375" y="0" dx="0em" dy="0.95em" style="text-anchor: middle; visibility: hidden; font-family: Roboto, sans-serif; font-size: 12px; font-weight: 200;" fill="rgb(33, 33, 33)" stroke="none" stroke-width="1px">220</text></g><line x1="0" y1="0" x2="278.4375" y2="0" fill="rgb(0, 0, 0)" stroke="rgb(204, 204, 204)" stroke-width="1px"></line></g></g></g></g></svg>