<svg viewBox="0 0 330 200" xmlns="http://www.w3.org/2000/svg"><g><g><g><g><g><line x1="51.5625" y1="177" x2="46.5625" y2="177" style="visibility: inherit;" fill="rgb(0, 0, 0)" stroke="rgb(204, 204, 204)" stroke-width="1px"></line><line x1="51.5625" y1="157.33333333333331" x2="46.5625" y2="157.33333333333331" style="visibility: inherit;" fill="rgb(0, 0, 0)" stroke="rgb(204, 204, 204)" stroke-width="1px"></line><line x1="51.5625" y1="137.66666666666666" x2="46.5625" y2="137.66666666666666" style="visibility: inherit;" fill="rgb(0, 0, 0)" stroke="rgb(204, 204, 204)" stroke-width="1px"></line><line x1="51.5625" y1="117.99999999999997" x2="46.5625" y2="117.99999999999997" style="visibility: inherit;" fill="rgb(0, 0, 0)" stroke="rgb(204, 204, 204)" stroke-width="1px"></line><line x1="51.5625" y1="98.3333333333334" x2="46.5625" y2="98.3333333333334" style="visibility: inherit;" fill="rgb(0, 0, 0)" stroke="rgb(204, 204, 204)" stroke-width="1px"></line><line x1="51.5625" y1="78.66666666666673" x2="46.5625" y2="78.66666666666673" style="visibility: inherit;" fill="rgb(0, 0, 0)" stroke="rgb(204, 204, 204)" stroke-width="1px"></line><line x1="51.5625" y1="59.00000000000004" x2="46.5625" y2="59.00000000000004" style="visibility: inherit;" fill="rgb(0, 0, 0)" stroke="rgb(204, 204, 204)" stroke-width="1px"></line><line x1="51.5625" y1="39.33333333333335" x2="46.5625" y2="39.33333333333335" style="visibility: inherit;" fill="rgb(0, 0, 0)" stroke="rgb(204, 204, 204)" stroke-width="1px"></line><line x1="51.5625" y1="19.666666666666675" x2="46.5625" y2="19.666666666666675" style="visibility: inherit;" fill="rgb(0, 0, 0)" stroke="rgb(204, 204, 204)" stroke-width="1px"></line><line x1="51.5625" y1="0" x2="46.5625" y2="0" style="visibility: inherit;" fill="rgb(0, 0, 0)" stroke="rgb(204, 204, 204)" stroke-width="1px"></line></g><g transform="translate(41.5625, 0)"><text x="0" y="177" dx="0em" dy="0.3em" style="text-anchor: end; visibility: hidden; font-family: Roboto, sans-serif; font-size: 12px; font-weight: 200;" fill="rgb(33, 33, 33)" stroke="none" stroke-width="1px">0.74</text><text x="0" y="157.33333333333331" dx="0em" dy="0.3em" style="text-anchor: end; visibility: inherit; font-family: Roboto, sans-serif; font-size: 12px; font-weight: 200;" fill="rgb(33, 33, 33)" stroke="none" stroke-width="1px">0.76</text><text x="0" y="137.66666666666666" dx="0em" dy="0.3em" style="text-anchor: end; visibility: hidden; font-family: Roboto, sans-serif; font-size: 12px; font-weight: 200;" fill="rgb(33, 33, 33)" stroke="none" stroke-width="1px">0.78</text><text x="0" y="117.99999999999997" dx="0em" dy="0.3em" style="text-anchor: end; visibility: inherit; font-family: Roboto, sans-serif; font-size: 12px; font-weight: 200;" fill="rgb(33, 33, 33)" stroke="none" stroke-width="1px">0.8</text><text x="0" y="98.3333333333334" dx="0em" dy="0.3em" style="text-anchor: end; visibility: hidden; font-family: Roboto, sans-serif; font-size: 12px; font-weight: 200;" fill="rgb(33, 33, 33)" stroke="none" stroke-width="1px">0.82</text><text x="0" y="78.66666666666673" dx="0em" dy="0.3em" style="text-anchor: end; visibility: inherit; font-family: Roboto, sans-serif; font-size: 12px; font-weight: 200;" fill="rgb(33, 33, 33)" stroke="none" stroke-width="1px">0.84</text><text x="0" y="59.00000000000004" dx="0em" dy="0.3em" style="text-anchor: end; visibility: hidden; font-family: Roboto, sans-serif; font-size: 12px; font-weight: 200;" fill="rgb(33, 33, 33)" stroke="none" stroke-width="1px">0.86</text><text x="0" y="39.33333333333335" dx="0em" dy="0.3em" style="text-anchor: end; visibility: inherit; font-family: Roboto, sans-serif; font-size: 12px; font-weight: 200;" fill="rgb(33, 33, 33)" stroke="none" stroke-width="1px">0.88</text><text x="0" y="19.666666666666675" dx="0em" dy="0.3em" style="text-anchor: end; visibility: hidden; font-family: Roboto, sans-serif; font-size: 12px; font-weight: 200;" fill="rgb(33, 33, 33)" stroke="none" stroke-width="1px">0.9</text><text x="0" y="0" dx="0em" dy="0.3em" style="text-anchor: end; visibility: hidden; font-family: Roboto, sans-serif; font-size: 12px; font-weight: 200;" fill="rgb(33, 33, 33)" stroke="none" stroke-width="1px">0.92</text></g><line x1="51.5625" y1="0" x2="51.5625" y2="177" fill="rgb(0, 0, 0)" stroke="rgb(204, 204, 204)" stroke-width="1px"></line></g></g><g transform="translate(51, 0)" clip-path="url(#clip_0)"><clipPath id="clip_0"><rect width="278" height="177"></rect></clipPath><g><g><g><line x1="0" y1="0" x2="0" y2="177" fill="rgb(0, 0, 0)" stroke="rgb(66, 66, 66)" stroke-width="1px" opacity="0.25"></line><line x1="34.8046875" y1="0" x2="34.8046875" y2="177" fill="rgb(0, 0, 0)" stroke="rgb(66, 66, 66)" stroke-width="1px" opacity="0.25"></line><line x1="69.609375" y1="0" x2="69.609375" y2="177" fill="rgb(0, 0, 0)" stroke="rgb(66, 66, 66)" stroke-width="1px" opacity="0.25"></line><line x1="104.4140625" y1="0" x2="104.4140625" y2="177" fill="rgb(0, 0, 0)" stroke="rgb(66, 66, 66)" stroke-width="1px" opacity="0.25"></line><line x1="139.21875" y1="0" x2="139.21875" y2="177" fill="rgb(0, 0, 0)" stroke="rgb(66, 66, 66)" stroke-width="1px" opacity="0.25"></line><line x1="174.0234375" y1="0" x2="174.0234375" y2="177" fill="rgb(0, 0, 0)" stroke="rgb(66, 66, 66)" stroke-width="1px" opacity="0.25"></line><line x1="208.828125" y1="0" x2="208.828125" y2="177" fill="rgb(0, 0, 0)" stroke="rgb(66, 66, 66)" stroke-width="1px" opacity="0.25"></line><line x1="243.6328125" y1="0" x2="243.6328125" y2="177" fill="rgb(0, 0, 0)" stroke="rgb(66, 66, 66)" stroke-width="1px" opacity="0.25"></line><line x1="278.4375" y1="0" x2="278.4375" y2="177" fill="rgb(0, 0, 0)" stroke="rgb(66, 66, 66)" stroke-width="1px" opacity="0.25"></line></g><g><line x1="0" y1="177" x2="278.4375" y2="177" fill="rgb(0, 0, 0)" stroke="rgb(66, 66, 66)" stroke-width="1px" opacity="0.25"></line><line x1="0" y1="157.33333333333331" x2="278.4375" y2="157.33333333333331" fill="rgb(0, 0, 0)" stroke="rgb(66, 66, 66)" stroke-width="1px" opacity="0.25"></line><line x1="0" y1="137.66666666666666" x2="278.4375" y2="137.66666666666666" fill="rgb(0, 0, 0)" stroke="rgb(66, 66, 66)" stroke-width="1px" opacity="0.25"></line><line x1="0" y1="117.99999999999997" x2="278.4375" y2="117.99999999999997" fill="rgb(0, 0, 0)" stroke="rgb(66, 66, 66)" stroke-width="1px" opacity="0.25"></line><line x1="0" y1="98.3333333333334" x2="278.4375" y2="98.3333333333334" fill="rgb(0, 0, 0)" stroke="rgb(66, 66, 66)" stroke-width="1px" opacity="0.25"></line><line x1="0" y1="78.66666666666673" x2="278.4375" y2="78.66666666666673" fill="rgb(0, 0, 0)" stroke="rgb(66, 66, 66)" stroke-width="1px" opacity="0.25"></line><line x1="0" y1="59.00000000000004" x2="278.4375" y2="59.00000000000004" fill="rgb(0, 0, 0)" stroke="rgb(66, 66, 66)" stroke-width="1px" opacity="0.25"></line><line x1="0" y1="39.33333333333335" x2="278.4375" y2="39.33333333333335" fill="rgb(0, 0, 0)" stroke="rgb(66, 66, 66)" stroke-width="1px" opacity="0.25"></line><line x1="0" y1="19.666666666666675" x2="278.4375" y2="19.666666666666675" fill="rgb(0, 0, 0)" stroke="rgb(66, 66, 66)" stroke-width="1px" opacity="0.25"></line><line x1="0" y1="0" x2="278.4375" y2="0" fill="rgb(0, 0, 0)" stroke="rgb(66, 66, 66)" stroke-width="1px" opacity="0.25"></line></g></g></g><g><g><line x1="0" y1="904.6666666666664" x2="278.4375" y2="904.6666666666664" fill="rgb(0, 0, 0)" stroke="rgb(153, 153, 153)" stroke-width="1.5px"></line></g></g><g><g><line x1="34.8046875" y1="0" x2="34.8046875" y2="177" fill="rgb(0, 0, 0)" stroke="rgb(153, 153, 153)" stroke-width="1.5px"></line></g></g><g><g><g><g><g><path stroke="rgb(255, 112, 67)" stroke-width="2px" d="M34.8046875,166.5080522298813L35.50078125,166.50805222988117L36.196875,166.50805222988117L36.89296875,166.50805222988117L37.589062500000004,166.5080522298813L38.28515625,166.50805222988117L38.98125,166.5080522298813L39.67734375,166.50805222988117L40.373437499999994,166.5080522298813L41.06953125,166.50805222988117L41.765625,166.5080522298813L42.461718749999996,166.50805222988117L43.1578125,166.5080522298813L43.85390625,166.5080522298813L44.550000000000004,166.5080522298813L45.24609375,166.5080522298813L45.9421875,166.5080522298813L46.638281250000006,166.5080522298813L47.334375,166.5080522298813L48.03046875,166.50805222988117L48.7265625,166.50805222988117L49.422656249999996,166.50805222988117L50.11875,166.5080522298813L50.81484375,166.50805222988117L51.5109375,166.50805222988106L52.20703125,166.50805222988117L52.903125,166.50805222988117L53.59921875,166.50805222988117L54.2953125,166.50805222988117L54.991406250000004,166.50805222988117L55.6875,166.50805222988117L56.38359375,166.5080522298813L57.0796875,166.5080522298813L57.775781249999994,166.37352772168333L58.471875,166.02376400591882L59.16796875,165.4103322631147L59.864062499999996,164.39206363163183L60.56015625,162.39098464740417L61.25625,159.6881313301096L61.952343750000004,156.0709412671634L62.6484375,152.03967366158543L63.34453125,147.46847414078624L64.040625,142.43881441071818L64.73671875000001,136.97711767011745L65.4328125,131.72703448829444L66.12890625,127.0075163991134L66.825,122.53907511322146L67.52109374999999,118.40063028537948L68.2171875,114.32565882798735L68.91328125,110.55784384603263L69.609375,107.71420752322264L70.30546875,104.7972817459554L71.0015625,102.57629051439682L71.69765625000001,100.70557431359516L72.39375,98.97778432356871L73.08984375,97.69447425675874L73.7859375,96.52091470364195L74.48203125,95.7046674033211L75.17812500000001,95.1028074546778L75.87421875000001,94.47264247680447L76.5703125,94.07213055418782L77.26640625,93.5851873278232L77.9625,92.86701149858706L78.65859375,92.43610600104532L79.3546875,92.08788751445576L80.05078125,91.87895642250199L80.74687499999999,91.57422394670697L81.44296874999999,91.09992251664987L82.1390625,90.61353145760663L82.83515625,90.00779849721414L83.53125,89.59953284919311L84.22734375,89.22004895603685L84.92343749999999,88.8802470516922L85.61953125,88.47457915256994L86.315625,88.34328998154741L87.01171875,87.92818177358113L87.7078125,87.43250422050046L88.40390625,86.91087455175015L89.10000000000001,86.50822156243537L89.79609375,86.04240663194473L90.4921875,85.7853540540366L91.18828125,85.31722418232535L91.884375,85.01390987891223L92.58046875000001,84.49561003600519L93.27656250000001,84.0501056259173L93.97265625,83.85006523203629L94.66875,83.64036580764312L95.36484375,83.20064782804084L96.0609375,82.77985615554957L96.75703125,82.41529302809745L97.453125,82.15170583534707L98.14921874999999,81.65724225883758L98.84531249999999,81.18119029230915L99.54140625,80.850709796113L100.2375,80.22643504947159L100.93359375,79.82943382110035L101.6296875,79.34459701128316L102.32578124999999,79.25550512640189L103.021875,78.68636491399116L103.71796875,78.56908047895296L104.4140625,78.2072244288564L105.11015625,77.63138660204655L105.80625,77.15135940161696L106.50234375000001,76.79608082918725L107.1984375,76.53806436945037L107.89453125,76.15905480120007L108.590625,75.57290141900435L109.28671875,75.06427194945051L109.98281250000001,74.71424495143916L110.67890625000001,74.41453012007418L111.375,74.16743896908335L112.07109375,73.6604600817369L112.7671875,72.9302628559117L113.46328125,72.33520708018014L114.159375,71.88847498218301L114.85546875,71.39623603097648L115.55156249999999,70.83184365156525L116.24765624999999,70.67258204454122L116.94375,70.10616587063048L117.63984375,69.6093787260475L118.3359375,69.26645712301863L119.03203125,68.72439290034221L119.72812499999999,68.37674143084352L120.42421875,68.03360260030709L121.1203125,67.64836892585606L121.81640625,67.21544196466992L122.5125,66.79872490322818L123.20859375,66.34690790984762L123.90468750000001,65.8291816410247L124.60078125,65.29434618732272L125.296875,64.90618266292974L125.99296875,64.47147434728478L126.6890625,64.07612485355413L127.38515625000001,63.59230252901479L128.08125,63.12263531366844L128.77734375,62.63904822794516L129.47343750000002,62.10225990371653L130.16953125,61.71292465700763L130.865625,61.18783811990856L131.56171874999998,61.00731070199272L132.2578125,60.517833674105006L132.95390625,60.089622953028766L133.65,59.54123457580284L134.34609375,59.1897651690809L135.04218749999998,58.754683832639564L135.73828125,58.40395984271013L136.434375,57.78992849122794L137.13046875,57.33183449227405L137.8265625,56.72066683204245L138.52265625,56.37637917179629L139.21875,55.94560688324028L139.91484375,55.30598293296842L140.6109375,54.944621498698126L141.30703125,54.570867197899524L142.003125,54.05512922834668L142.69921875,53.70083713033586L143.39531250000002,53.19679992694922L144.09140624999998,52.87194122453099L144.7875,52.430413374778944L145.48359374999998,52.12064734864874L146.1796875,51.77782684824053L146.87578125,51.66183318055381L147.571875,51.21107640280354L148.26796875,50.738835579637836L148.9640625,49.91736962387011L149.66015625,49.693562503590464L150.35625000000002,49.357491474907256L151.05234375,48.77468828055901L151.74843750000002,48.08867165859727L152.44453124999998,47.52012424518382L153.140625,47.11173354496387L153.83671875,46.79943687266003L154.5328125,46.45509798454782L155.22890625,46.0691442755512L155.925,45.658198229530576L156.62109375,45.09773227695173L157.3171875,44.85112789346903L158.01328125,44.4789655709711L158.709375,43.98661916878508L159.40546875,43.39972593839972L160.1015625,43.24937675668401L160.79765625000002,42.531394042215375L161.49374999999998,42.01090578097601L162.18984375,41.45197675143778L162.88593749999998,41.18388158588674L163.58203125,40.82123773004059L164.278125,39.863766642642744L164.97421875,39.31169692609677L165.6703125,38.91319284399729L166.36640625,38.53956589039399L167.0625,38.113602961716424L167.75859375000002,37.790762952338056L168.4546875,37.552209630432L169.15078125000002,37.36422832100926L169.84687499999998,36.982390526668276L170.54296875,36.775724230450024L171.2390625,36.29297681147352L171.93515625,35.756692287293106L172.63125,35.56944607712851L173.32734375,35.21046227823519L174.0234375,34.882983874941836L174.71953125,34.125962435204805L175.415625,33.71659888764165L176.11171875,33.58306888306104L176.8078125,33.458125008527176L177.50390625,33.04684742294774L178.20000000000002,32.665532922762736L178.89609374999998,32.25739384652262L179.5921875,31.833136580155863L180.28828124999998,31.6458444725075L180.984375,31.30924607101667L181.68046875,30.7934121496494L182.3765625,30.797786677301765L183.07265625,30.486536513420486L183.76875,30.00830102601797L184.46484375,29.76620904985555L185.16093750000002,29.486429359814558L185.85703125,29.251299293618068L186.55312500000002,29.155047125685655L187.24921874999998,28.850659752131563L187.9453125,28.44382763559083L188.64140625,28.289403553731105L189.3375,28.084660980657937L190.03359375,27.782441616191214L190.7296875,27.48899842906015L191.42578125,27.245670264609778L192.121875,27.189348554004123L192.81796875,26.84168064716794L193.5140625,26.296745197713378L194.21015625,26.01463324431969L194.90625,25.890215388562716L195.60234375000002,25.456817033862915L196.29843749999998,25.353738905773042L196.99453125,25.403980152876514L197.69062499999998,24.940876200042954L198.38671875,24.842364204472005L199.0828125,24.648732502785677L199.77890625,24.465291229602137L200.475,23.68260394397365L201.17109375,23.43719126500473L201.8671875,23.26753072173076L202.56328125000002,23.120885079487284L203.259375,22.472386740873763L203.95546875000002,22.262638113834747L204.65156249999998,21.867739928924035L205.34765625,21.720499650535768L206.04375,21.45278166288009L206.73984375,21.26973793439387L207.4359375,20.958101496293065L208.13203125,20.524507005131643L208.828125,20.107389425704763L209.52421875,19.92438113022043L210.2203125,19.7921632170371L210.91640625,19.44378346043985L211.6125,19.145056973923218L212.30859375,18.85370951356233L213.00468750000002,18.65648810145297L213.70078124999998,18.426043685736488L214.396875,18.265364100413887L215.09296874999998,17.899907340532977L215.7890625,17.546108780260738L216.48515625,17.401091896269232L217.18125,16.932921188736138L217.87734375,16.58475651204439L218.5734375,16.308595453857496L219.26953125,15.806587558086164L219.96562500000002,15.79684476520357L220.66171875,15.701323901409252L221.35781250000002,15.150739237543474L222.05390624999998,14.842801375116894L222.75,14.702887973939953L223.44609375,14.327477988653756L224.1421875,13.990120429031055L224.83828125,13.451394632398216L225.534375,13.2626836587623L226.23046875,13.037345506129832L226.9265625,12.76761811020669L227.62265625,12.426407852029968L228.31875,12.28894394929581L229.01484375,12.049528167418883L229.7109375,11.81618006573461L230.40703125000002,11.295010627585716L231.10312499999998,11.094420533147277L231.79921875,10.906804224312316L232.49531249999998,10.592447682495989L233.19140625,10.157197684611507L233.8875,9.626998677193537L234.58359375,9.286466336849983L235.2796875,9.126972804429329L235.97578125,8.807076992568813L236.671875,8.368503432657894L237.36796875000002,8.03809704453942L238.0640625,8.153751536634777L238.76015625000002,7.976508159097295L239.45624999999998,7.152690294577423L240.15234375,7.039560153003897L240.8484375,6.881983435501447L241.54453125,6.540824776699032L242.240625,6.358542517310327L242.93671875,6.15949797361256" style="fill: none;" fill="none"></path></g></g></g></g><g opacity="0.2"><g><g><g><path stroke="rgb(255, 112, 67)" stroke-width="2px" d="M34.8046875,166.5080522298813L35.50078125,166.5080522298813L36.196875,166.5080522298813L36.89296875,166.5080522298813L37.589062500000004,166.5080522298813L38.28515625,166.5080522298813L38.98125,166.5080522298813L39.67734375,166.5080522298813L40.373437499999994,166.5080522298813L41.06953125,166.5080522298813L41.765625,166.5080522298813L42.461718749999996,166.5080522298813L43.1578125,166.5080522298813L43.85390625,166.5080522298813L44.550000000000004,166.5080522298813L45.24609375,166.5080522298813L45.9421875,166.5080522298813L46.638281250000006,166.5080522298813L47.334375,166.5080522298813L48.03046875,166.5080522298813L48.7265625,166.5080522298813L49.422656249999996,166.5080522298813L50.11875,166.5080522298813L50.81484375,166.5080522298813L51.5109375,166.5080522298813L52.20703125,166.5080522298813L52.903125,166.5080522298813L53.59921875,166.5080522298813L54.2953125,166.5080522298813L54.991406250000004,166.5080522298813L55.6875,166.5080522298813L56.38359375,166.5080522298813L57.0796875,166.5080522298813L57.775781249999994,166.1717409690221L58.471875,165.49911844730377L59.16796875,164.49018466472626L59.864062499999996,162.86466070016226L60.56015625,159.38936618963876L61.25625,155.633851369222L61.952343750000004,150.64515618483225L62.6484375,145.99277226130167L63.34453125,140.61167486508685L64.040625,134.89432481924695L64.73671875000001,128.7845725615819L65.4328125,123.85190971692403L66.12890625,119.92823926607768L66.825,115.83641318480176L67.52109374999999,112.19296304384869L68.2171875,108.21320164203644L68.91328125,104.90612137317657L69.609375,103.44875303904217L70.30546875,100.42189308007559L71.0015625,99.2448036670685L71.69765625000001,97.89950001239777L72.39375,96.3860993385315L73.08984375,95.76950915654501L73.7859375,94.76057537396751L74.48203125,94.48029645284018L75.17812500000001,94.20001753171286L75.87421875000001,93.52739500999454L76.5703125,93.47136267026268L77.26640625,92.85477248827618L77.9625,91.78974775473279L78.65859375,91.78974775473279L79.3546875,91.56555978457135L80.05078125,91.56555978457135L80.74687499999999,91.11712523301445L81.44296874999999,90.38847037156424L82.1390625,89.88394486904147L82.83515625,89.09919905662538L83.53125,88.98713437716168L84.22734375,88.6508231163025L84.92343749999999,88.37054419517517L85.61953125,87.86607730388643L86.315625,88.14635622501373L87.01171875,87.30551946163177L87.7078125,86.68898789087933L88.40390625,86.12843004862468L89.10000000000001,85.90424207846324L89.79609375,85.34368423620862L90.4921875,85.3997751871745L91.18828125,84.61502937475841L91.884375,84.55893842379254L92.58046875000001,83.7181602716446L93.27656250000001,83.38184901078544L93.97265625,83.55000464121501L94.66875,83.32581667105357L95.36484375,82.54107085863751L96.0609375,82.14866864681247L96.75703125,81.86844833691917L97.453125,81.75632504622143L98.14921874999999,80.9155468940735L98.84531249999999,80.4671123425166L99.54140625,80.35498905181886L100.2375,79.2900229295095L100.93359375,79.23393197854362L101.6296875,78.61734179655711L102.32578124999999,79.12186729907992L103.021875,77.83265459537509L103.71796875,78.39315382639568L104.4140625,77.66444035371146L105.11015625,76.7676298618317L105.80625,76.43131860097252L106.50234375000001,76.26316297054292L107.1984375,76.15103967984518L107.89453125,75.5905404488246L108.590625,74.69367134571077L109.28671875,74.30132774511976L109.98281250000001,74.18920445442203L110.67890625000001,73.96495787302655L111.375,73.79680224259695L112.07109375,72.89999175071719L112.7671875,71.8349670171738L113.46328125,71.44262341658276L114.159375,71.21837683518729L114.85546875,70.6578776041667L115.55156249999999,69.98525508244835L116.24765624999999,70.43368963400526L116.94375,69.25654160976413L117.63984375,68.8641980091731L118.3359375,68.75207471847536L119.03203125,67.91129656632744L119.72812499999999,67.8552642265956L120.42421875,67.51889435450238L121.1203125,67.0705184141795L121.81640625,66.56605152289076L122.5125,66.17364931106569L123.20859375,65.66918241977693L123.90468750000001,65.05259223779045L124.60078125,64.49209300676984L125.296875,64.32393737634025L125.99296875,63.81941187381746L126.6890625,63.4831006129583L127.38515625000001,62.86656904220583L128.08125,62.41813449064892L128.77734375,61.91366759936017L129.47343750000002,61.297077417373686L130.16953125,61.12892178694408L130.865625,60.400208314259864L131.56171874999998,60.73651957511904L132.2578125,59.783618132273375L132.95390625,59.447306871414206L133.65,58.71865200996402L134.34609375,58.66256105899814L135.04218749999998,58.10206182797753L135.73828125,57.87787385781609L136.434375,56.86888146400454L137.13046875,56.6446934938431L137.8265625,55.80391534169517L138.52265625,55.85994768142704L139.21875,55.29944845040642L139.91484375,54.346547007560766L140.6109375,54.4025793472926L141.30703125,54.01023574670159L142.003125,53.28152227401737L142.69921875,53.16939898331963L143.39531250000002,52.44074412186942L144.09140624999998,52.38465317090355L144.7875,51.7681216001511L145.48359374999998,51.65599830945336L146.1796875,51.26359609762831L146.87578125,51.487842679023764L147.571875,50.5349412361781L148.26796875,50.03047434488935L148.9640625,48.68517069021864L149.66015625,49.357851823171L150.35625000000002,48.85338493188225L151.05234375,47.900483489036596L151.74843750000002,47.05964672565464L152.44453124999998,46.6673031250636L153.140625,46.49914749463402L153.83671875,46.33099186420443L154.5328125,45.93858965237938L155.22890625,45.4902137120565L155.925,45.041779160499594L156.62109375,44.25703334808353L157.3171875,44.48122131824497L158.01328125,43.920722087224355L158.709375,43.24809956550601L159.40546875,42.51938609282178L160.1015625,43.02385298411053L160.79765625000002,41.454419970512426L161.49374999999998,41.23017338911695L162.18984375,40.61358320713047L162.88593749999998,40.78173883756004L163.58203125,40.27727194627129L164.278125,38.42756001154584L164.97421875,38.48359235127771L165.6703125,38.31543672084811L166.36640625,37.979125459988936L167.0625,37.474658568700185L167.75859375000002,37.30650293827059L168.4546875,37.19437964757287L169.15078125000002,37.082256356875135L169.84687499999998,36.40963383515679L170.54296875,36.465724786122664L171.2390625,35.56885568300886L171.93515625,34.95226550102238L172.63125,35.28857676188153L173.32734375,34.67198657989505L174.0234375,34.39176627000177L174.71953125,32.990430275599195L175.415625,33.10255356629693L176.11171875,33.382773876190214L176.8078125,33.27070919672651L177.50390625,32.42993104457859L178.20000000000002,32.09356117248538L178.89609374999998,31.6451852321625L179.5921875,31.196750680605593L180.28828124999998,31.36490631103519L180.984375,30.804348468780542L181.68046875,30.019661267598494L182.3765625,30.804348468780542L183.07265625,30.019661267598494L183.76875,29.29094779491427L184.46484375,29.40307108561201L185.16093750000002,29.066759824752832L185.85703125,28.898604194323255L186.55312500000002,29.01066887378696L187.24921874999998,28.394078691800473L187.9453125,27.83357946077986L188.64140625,28.057767430941297L189.3375,27.777547121048L190.03359375,27.32911256949111L190.7296875,27.04883364836378L191.42578125,26.8806780179342L192.121875,27.10486598809564L192.81796875,26.320178786913587L193.5140625,25.47934202353163L194.21015625,25.591465314229367L194.90625,25.703588604927102L195.60234375000002,24.806719501813284L196.29843749999998,25.19912171363833L196.99453125,25.47934202353163L197.69062499999998,24.246220270792673L198.38671875,24.69459621111555L199.0828125,24.358284950256373L199.77890625,24.190129319826795L200.475,22.508573015530928L201.17109375,23.06907224655154L201.8671875,23.0130399068197L202.56328125000002,22.90091661612196L203.259375,21.499639232953427L203.95546875000002,21.948015173276303L204.65156249999998,21.275392651557954L205.34765625,21.499639232953427L206.04375,21.051204681396516L206.73984375,20.995172341664656L207.4359375,20.49064683914187L208.13203125,19.874115268389417L208.828125,19.48171305656437L209.52421875,19.649868686993948L210.2203125,19.593836347262105L210.91640625,18.92121382554376L211.6125,18.696967244148286L212.30859375,18.416688323020974L213.00468750000002,18.360655983289114L213.70078124999998,18.0803770621618L214.396875,18.02434472242994L215.09296874999998,17.351722200711613L215.7890625,17.015410939852437L216.48515625,17.183566570282014L217.18125,16.230665127436353L217.87734375,16.06250949700678L218.5734375,15.89435386657718L219.26953125,15.053575714429257L219.96562500000002,15.782230575879446L220.66171875,15.558042605718008L221.35781250000002,14.324862241745034L222.05390624999998,14.380894581476875L222.75,14.493017872174612L223.44609375,13.764363010724423L224.1421875,13.48408408959711L224.83828125,12.643305937449165L225.534375,12.97961719830834L226.23046875,12.699338277181027L226.9265625,12.363027016321853L227.62265625,11.914592464764944L228.31875,12.08274809519454L229.01484375,11.690404494603506L229.7109375,11.466157913208054L230.40703125000002,10.513256470362373L231.10312499999998,10.793535391489707L231.79921875,10.62537976106011L232.49531249999998,10.12091286977136L233.19140625,9.504322687784873L233.8875,8.831700166066526L234.58359375,8.775667826334663L235.2796875,8.887732505798386L235.97578125,8.327233274777774L236.671875,7.710643092791268L237.36796875000002,7.542487462361691L238.0640625,8.327233274777774L238.76015625000002,7.710643092791268L239.45624999999998,5.916963497797683L240.15234375,6.869864940643343L240.8484375,6.645618359247872L241.54453125,6.029086788495419L242.240625,6.08511912822728L242.93671875,5.860931158065842" style="fill: none;" fill="none"></path></g></g></g></g></g></g><g transform="translate(51, 177)" clip-path="url(#clip_1)"><clipPath id="clip_1"><rect width="278" height="23"></rect></clipPath><g><g><line x1="0" y1="0" x2="0" y2="5" style="visibility: inherit;" fill="rgb(0, 0, 0)" stroke="rgb(204, 204, 204)" stroke-width="1px"></line><line x1="34.8046875" y1="0" x2="34.8046875" y2="5" style="visibility: inherit;" fill="rgb(0, 0, 0)" stroke="rgb(204, 204, 204)" stroke-width="1px"></line><line x1="69.609375" y1="0" x2="69.609375" y2="5" style="visibility: inherit;" fill="rgb(0, 0, 0)" stroke="rgb(204, 204, 204)" stroke-width="1px"></line><line x1="104.4140625" y1="0" x2="104.4140625" y2="5" style="visibility: inherit;" fill="rgb(0, 0, 0)" stroke="rgb(204, 204, 204)" stroke-width="1px"></line><line x1="139.21875" y1="0" x2="139.21875" y2="5" style="visibility: inherit;" fill="rgb(0, 0, 0)" stroke="rgb(204, 204, 204)" stroke-width="1px"></line><line x1="174.0234375" y1="0" x2="174.0234375" y2="5" style="visibility: inherit;" fill="rgb(0, 0, 0)" stroke="rgb(204, 204, 204)" stroke-width="1px"></line><line x1="208.828125" y1="0" x2="208.828125" y2="5" style="visibility: inherit;" fill="rgb(0, 0, 0)" stroke="rgb(204, 204, 204)" stroke-width="1px"></line><line x1="243.6328125" y1="0" x2="243.6328125" y2="5" style="visibility: inherit;" fill="rgb(0, 0, 0)" stroke="rgb(204, 204, 204)" stroke-width="1px"></line><line x1="278.4375" y1="0" x2="278.4375" y2="5" style="visibility: inherit;" fill="rgb(0, 0, 0)" stroke="rgb(204, 204, 204)" stroke-width="1px"></line></g><g transform="translate(0, 8)"><text x="0" y="0" dx="0em" dy="0.95em" style="text-anchor: middle; visibility: hidden; font-family: Roboto, sans-serif; font-size: 12px; font-weight: 200;" fill="rgb(33, 33, 33)" stroke="none" stroke-width="1px">-50</text><text x="34.8046875" y="0" dx="0em" dy="0.95em" style="text-anchor: middle; visibility: inherit; font-family: Roboto, sans-serif; font-size: 12px; font-weight: 200;" fill="rgb(33, 33, 33)" stroke="none" stroke-width="1px">0</text><text x="69.609375" y="0" dx="0em" dy="0.95em" style="text-anchor: middle; visibility: inherit; font-family: Roboto, sans-serif; font-size: 12px; font-weight: 200;" fill="rgb(33, 33, 33)" stroke="none" stroke-width="1px">50</text><text x="104.4140625" y="0" dx="0em" dy="0.95em" style="text-anchor: middle; visibility: inherit; font-family: Roboto, sans-serif; font-size: 12px; font-weight: 200;" fill="rgb(33, 33, 33)" stroke="none" stroke-width="1px">100</text><text x="139.21875" y="0" dx="0em" dy="0.95em" style="text-anchor: middle; visibility: inherit; font-family: Roboto, sans-serif; font-size: 12px; font-weight: 200;" fill="rgb(33, 33, 33)" stroke="none" stroke-width="1px">150</text><text x="174.0234375" y="0" dx="0em" dy="0.95em" style="text-anchor: middle; visibility: inherit; font-family: Roboto, sans-serif; font-size: 12px; font-weight: 200;" fill="rgb(33, 33, 33)" stroke="none" stroke-width="1px">200</text><text x="208.828125" y="0" dx="0em" dy="0.95em" style="text-anchor: middle; visibility: inherit; font-family: Roboto, sans-serif; font-size: 12px; font-weight: 200;" fill="rgb(33, 33, 33)" stroke="none" stroke-width="1px">250</text><text x="243.6328125" y="0" dx="0em" dy="0.95em" style="text-anchor: middle; visibility: inherit; font-family: Roboto, sans-serif; font-size: 12px; font-weight: 200;" fill="rgb(33, 33, 33)" stroke="none" stroke-width="1px">300</text><text x="278.4375" y="0" dx="0em" dy="0.95em" style="text-anchor: middle; visibility: hidden; font-family: Roboto, sans-serif; font-size: 12px; font-weight: 200;" fill="rgb(33, 33, 33)" stroke="none" stroke-width="1px">350</text></g><line x1="0" y1="0" x2="278.4375" y2="0" fill="rgb(0, 0, 0)" stroke="rgb(204, 204, 204)" stroke-width="1px"></line></g></g></g></g></svg>