<svg viewBox="0 0 330 200" xmlns="http://www.w3.org/2000/svg"><g><g><g><g><g><line x1="51.5625" y1="177" x2="46.5625" y2="177" style="visibility: inherit;" fill="rgb(0, 0, 0)" stroke="rgb(204, 204, 204)" stroke-width="1px"></line><line x1="51.5625" y1="160.90909090909088" x2="46.5625" y2="160.90909090909088" style="visibility: inherit;" fill="rgb(0, 0, 0)" stroke="rgb(204, 204, 204)" stroke-width="1px"></line><line x1="51.5625" y1="144.81818181818178" x2="46.5625" y2="144.81818181818178" style="visibility: inherit;" fill="rgb(0, 0, 0)" stroke="rgb(204, 204, 204)" stroke-width="1px"></line><line x1="51.5625" y1="128.7272727272727" x2="46.5625" y2="128.7272727272727" style="visibility: inherit;" fill="rgb(0, 0, 0)" stroke="rgb(204, 204, 204)" stroke-width="1px"></line><line x1="51.5625" y1="112.63636363636365" x2="46.5625" y2="112.63636363636365" style="visibility: inherit;" fill="rgb(0, 0, 0)" stroke="rgb(204, 204, 204)" stroke-width="1px"></line><line x1="51.5625" y1="96.54545454545456" x2="46.5625" y2="96.54545454545456" style="visibility: inherit;" fill="rgb(0, 0, 0)" stroke="rgb(204, 204, 204)" stroke-width="1px"></line><line x1="51.5625" y1="80.45454545454544" x2="46.5625" y2="80.45454545454544" style="visibility: inherit;" fill="rgb(0, 0, 0)" stroke="rgb(204, 204, 204)" stroke-width="1px"></line><line x1="51.5625" y1="64.36363636363635" x2="46.5625" y2="64.36363636363635" style="visibility: inherit;" fill="rgb(0, 0, 0)" stroke="rgb(204, 204, 204)" stroke-width="1px"></line><line x1="51.5625" y1="48.27272727272723" x2="46.5625" y2="48.27272727272723" style="visibility: inherit;" fill="rgb(0, 0, 0)" stroke="rgb(204, 204, 204)" stroke-width="1px"></line><line x1="51.5625" y1="32.18181818181813" x2="46.5625" y2="32.18181818181813" style="visibility: inherit;" fill="rgb(0, 0, 0)" stroke="rgb(204, 204, 204)" stroke-width="1px"></line><line x1="51.5625" y1="16.090909090909115" x2="46.5625" y2="16.090909090909115" style="visibility: inherit;" fill="rgb(0, 0, 0)" stroke="rgb(204, 204, 204)" stroke-width="1px"></line><line x1="51.5625" y1="0" x2="46.5625" y2="0" style="visibility: inherit;" fill="rgb(0, 0, 0)" stroke="rgb(204, 204, 204)" stroke-width="1px"></line></g><g transform="translate(41.5625, 0)"><text x="0" y="177" dx="0em" dy="0.3em" style="text-anchor: end; visibility: hidden; font-family: Roboto, sans-serif; font-size: 12px; font-weight: 200;" fill="rgb(33, 33, 33)" stroke="none" stroke-width="1px">0.74</text><text x="0" y="160.90909090909088" dx="0em" dy="0.3em" style="text-anchor: end; visibility: inherit; font-family: Roboto, sans-serif; font-size: 12px; font-weight: 200;" fill="rgb(33, 33, 33)" stroke="none" stroke-width="1px">0.76</text><text x="0" y="144.81818181818178" dx="0em" dy="0.3em" style="text-anchor: end; visibility: hidden; font-family: Roboto, sans-serif; font-size: 12px; font-weight: 200;" fill="rgb(33, 33, 33)" stroke="none" stroke-width="1px">0.78</text><text x="0" y="128.7272727272727" dx="0em" dy="0.3em" style="text-anchor: end; visibility: inherit; font-family: Roboto, sans-serif; font-size: 12px; font-weight: 200;" fill="rgb(33, 33, 33)" stroke="none" stroke-width="1px">0.8</text><text x="0" y="112.63636363636365" dx="0em" dy="0.3em" style="text-anchor: end; visibility: hidden; font-family: Roboto, sans-serif; font-size: 12px; font-weight: 200;" fill="rgb(33, 33, 33)" stroke="none" stroke-width="1px">0.82</text><text x="0" y="96.54545454545456" dx="0em" dy="0.3em" style="text-anchor: end; visibility: inherit; font-family: Roboto, sans-serif; font-size: 12px; font-weight: 200;" fill="rgb(33, 33, 33)" stroke="none" stroke-width="1px">0.84</text><text x="0" y="80.45454545454544" dx="0em" dy="0.3em" style="text-anchor: end; visibility: hidden; font-family: Roboto, sans-serif; font-size: 12px; font-weight: 200;" fill="rgb(33, 33, 33)" stroke="none" stroke-width="1px">0.86</text><text x="0" y="64.36363636363635" dx="0em" dy="0.3em" style="text-anchor: end; visibility: inherit; font-family: Roboto, sans-serif; font-size: 12px; font-weight: 200;" fill="rgb(33, 33, 33)" stroke="none" stroke-width="1px">0.88</text><text x="0" y="48.27272727272723" dx="0em" dy="0.3em" style="text-anchor: end; visibility: hidden; font-family: Roboto, sans-serif; font-size: 12px; font-weight: 200;" fill="rgb(33, 33, 33)" stroke="none" stroke-width="1px">0.9</text><text x="0" y="32.18181818181813" dx="0em" dy="0.3em" style="text-anchor: end; visibility: inherit; font-family: Roboto, sans-serif; font-size: 12px; font-weight: 200;" fill="rgb(33, 33, 33)" stroke="none" stroke-width="1px">0.92</text><text x="0" y="16.090909090909115" dx="0em" dy="0.3em" style="text-anchor: end; visibility: hidden; font-family: Roboto, sans-serif; font-size: 12px; font-weight: 200;" fill="rgb(33, 33, 33)" stroke="none" stroke-width="1px">0.94</text><text x="0" y="0" dx="0em" dy="0.3em" style="text-anchor: end; visibility: hidden; font-family: Roboto, sans-serif; font-size: 12px; font-weight: 200;" fill="rgb(33, 33, 33)" stroke="none" stroke-width="1px">0.96</text></g><line x1="51.5625" y1="0" x2="51.5625" y2="177" fill="rgb(0, 0, 0)" stroke="rgb(204, 204, 204)" stroke-width="1px"></line></g></g><g transform="translate(51, 0)" clip-path="url(#clip_0)"><clipPath id="clip_0"><rect width="278" height="177"></rect></clipPath><g><g><g><line x1="0" y1="0" x2="0" y2="177" fill="rgb(0, 0, 0)" stroke="rgb(66, 66, 66)" stroke-width="1px" opacity="0.25"></line><line x1="23.203125" y1="0" x2="23.203125" y2="177" fill="rgb(0, 0, 0)" stroke="rgb(66, 66, 66)" stroke-width="1px" opacity="0.25"></line><line x1="46.40625" y1="0" x2="46.40625" y2="177" fill="rgb(0, 0, 0)" stroke="rgb(66, 66, 66)" stroke-width="1px" opacity="0.25"></line><line x1="69.609375" y1="0" x2="69.609375" y2="177" fill="rgb(0, 0, 0)" stroke="rgb(66, 66, 66)" stroke-width="1px" opacity="0.25"></line><line x1="92.8125" y1="0" x2="92.8125" y2="177" fill="rgb(0, 0, 0)" stroke="rgb(66, 66, 66)" stroke-width="1px" opacity="0.25"></line><line x1="116.015625" y1="0" x2="116.015625" y2="177" fill="rgb(0, 0, 0)" stroke="rgb(66, 66, 66)" stroke-width="1px" opacity="0.25"></line><line x1="139.21875" y1="0" x2="139.21875" y2="177" fill="rgb(0, 0, 0)" stroke="rgb(66, 66, 66)" stroke-width="1px" opacity="0.25"></line><line x1="162.421875" y1="0" x2="162.421875" y2="177" fill="rgb(0, 0, 0)" stroke="rgb(66, 66, 66)" stroke-width="1px" opacity="0.25"></line><line x1="185.625" y1="0" x2="185.625" y2="177" fill="rgb(0, 0, 0)" stroke="rgb(66, 66, 66)" stroke-width="1px" opacity="0.25"></line><line x1="208.828125" y1="0" x2="208.828125" y2="177" fill="rgb(0, 0, 0)" stroke="rgb(66, 66, 66)" stroke-width="1px" opacity="0.25"></line><line x1="232.03125" y1="0" x2="232.03125" y2="177" fill="rgb(0, 0, 0)" stroke="rgb(66, 66, 66)" stroke-width="1px" opacity="0.25"></line><line x1="255.234375" y1="0" x2="255.234375" y2="177" fill="rgb(0, 0, 0)" stroke="rgb(66, 66, 66)" stroke-width="1px" opacity="0.25"></line><line x1="278.4375" y1="0" x2="278.4375" y2="177" fill="rgb(0, 0, 0)" stroke="rgb(66, 66, 66)" stroke-width="1px" opacity="0.25"></line></g><g><line x1="0" y1="177" x2="278.4375" y2="177" fill="rgb(0, 0, 0)" stroke="rgb(66, 66, 66)" stroke-width="1px" opacity="0.25"></line><line x1="0" y1="160.90909090909088" x2="278.4375" y2="160.90909090909088" fill="rgb(0, 0, 0)" stroke="rgb(66, 66, 66)" stroke-width="1px" opacity="0.25"></line><line x1="0" y1="144.81818181818178" x2="278.4375" y2="144.81818181818178" fill="rgb(0, 0, 0)" stroke="rgb(66, 66, 66)" stroke-width="1px" opacity="0.25"></line><line x1="0" y1="128.7272727272727" x2="278.4375" y2="128.7272727272727" fill="rgb(0, 0, 0)" stroke="rgb(66, 66, 66)" stroke-width="1px" opacity="0.25"></line><line x1="0" y1="112.63636363636365" x2="278.4375" y2="112.63636363636365" fill="rgb(0, 0, 0)" stroke="rgb(66, 66, 66)" stroke-width="1px" opacity="0.25"></line><line x1="0" y1="96.54545454545456" x2="278.4375" y2="96.54545454545456" fill="rgb(0, 0, 0)" stroke="rgb(66, 66, 66)" stroke-width="1px" opacity="0.25"></line><line x1="0" y1="80.45454545454544" x2="278.4375" y2="80.45454545454544" fill="rgb(0, 0, 0)" stroke="rgb(66, 66, 66)" stroke-width="1px" opacity="0.25"></line><line x1="0" y1="64.36363636363635" x2="278.4375" y2="64.36363636363635" fill="rgb(0, 0, 0)" stroke="rgb(66, 66, 66)" stroke-width="1px" opacity="0.25"></line><line x1="0" y1="48.27272727272723" x2="278.4375" y2="48.27272727272723" fill="rgb(0, 0, 0)" stroke="rgb(66, 66, 66)" stroke-width="1px" opacity="0.25"></line><line x1="0" y1="32.18181818181813" x2="278.4375" y2="32.18181818181813" fill="rgb(0, 0, 0)" stroke="rgb(66, 66, 66)" stroke-width="1px" opacity="0.25"></line><line x1="0" y1="16.090909090909115" x2="278.4375" y2="16.090909090909115" fill="rgb(0, 0, 0)" stroke="rgb(66, 66, 66)" stroke-width="1px" opacity="0.25"></line><line x1="0" y1="0" x2="278.4375" y2="0" fill="rgb(0, 0, 0)" stroke="rgb(66, 66, 66)" stroke-width="1px" opacity="0.25"></line></g></g></g><g><g><line x1="0" y1="772.3636363636365" x2="278.4375" y2="772.3636363636365" fill="rgb(0, 0, 0)" stroke="rgb(153, 153, 153)" stroke-width="1.5px"></line></g></g><g><g><line x1="23.203125" y1="0" x2="23.203125" y2="177" fill="rgb(0, 0, 0)" stroke="rgb(153, 153, 153)" stroke-width="1.5px"></line></g></g><g><g><g><g><g><path stroke="rgb(255, 112, 67)" stroke-width="2px" d="M29.00390625,177.6517265081899L30.1640625,173.85090897817597L31.32421875,171.63967681659275L32.484375,170.33694923630088L33.64453125,169.54531662432686L34.8046875,168.90771229174845L35.96484375000001,167.71769990212627L37.125,164.45213500982123L38.28515625,159.31943882422095L39.4453125,151.0117490100707L40.60546875,141.88259487052392L41.765625,133.04912720655662L42.92578125,125.98875752960554L44.0859375,120.30367858189315L45.24609375,116.21407805699253L46.40625,113.46690538421134L47.56640625,111.72691149612339L48.7265625,110.33439270092373L49.88671875,109.33377024242571L51.04687499999999,108.29313653589028L52.20703125,107.19180048248961L53.36718750000001,106.2558360122918L54.52734375,105.27233352658436L55.6875,104.18691829134393L56.84765625,103.24216772574383L58.0078125,101.81311205203721L59.16796875,100.38701334946205L60.328125,98.98100747464765L61.48828125,97.71547982306375L62.6484375,96.38747868927543L63.80859375,94.89359009996213L64.96875,93.5203000439309L66.12890625,92.38446736057107L67.2890625,90.91415218812182L68.44921875,89.07804926676737L69.609375,87.55446335761111L70.76953125,86.20004979847182L71.92968750000001,84.23169469389728L73.08984375,82.59206257872323L74.25,80.87450049812611L75.41015625,79.20190808515807L76.5703125,77.64802511965384L77.73046875,75.85348998671881L78.890625,74.46491025295728L80.05078125,73.28322804540828L81.2109375,71.93214437433953L82.37109375,70.84633041281687L83.53125,70.08477653235113L84.69140624999999,69.33434258854808L85.8515625,68.82904947048982L87.01171875,68.08559240358068L88.171875,67.49275776474403L89.33203125000001,66.84355536591778L90.4921875,66.52740453503857L91.65234375,66.11758302940336L92.8125,65.39473321666898L93.97265625,64.90599057725149L95.1328125,64.4659845949096L96.29296875,63.57826369746008L97.453125,63.045631158990325L98.61328125,62.12069136636194L99.7734375,61.32723944517925L100.93359375,60.70442707563668L102.09374999999999,60.055556713167896L103.25390625,59.446103488578736L104.4140625,58.64016953960964L105.57421875,57.89978326798303L106.73437500000001,57.16203070762427L107.89453125,56.70104131476951L109.0546875,55.96582862634306L110.21484375,55.26787511104194L111.375,54.9958634005527L112.53515625,54.392394360043475L113.6953125,53.60838877816173L114.85546875,53.027919925478884L116.015625,52.16598680937859L117.17578125,51.795587338409874L118.3359375,51.188099211531416L119.49609374999999,50.45673411146356L120.65625,50.366449418724144L121.81640625,49.853659550366956L122.9765625,49.19745126205136L124.13671875000001,48.748693537285035L125.296875,48.259307895317434L126.45703125,47.28692645031544L127.6171875,46.88693369528467L128.77734375,46.463501930295834L129.9375,46.15441011952555L131.09765625,45.52867383698942L132.2578125,45.171589105965566L133.41796875,44.792240012020414L134.578125,44.16104425471678L135.73828125,43.543838754728824L136.8984375,42.89835169585127L138.05859375,42.345961205193895L139.21875,41.592602753223325L140.37890625,41.25065318559486L141.5390625,40.953755798103316L142.69921875,40.62887614877555L143.85937500000003,40.067056953379684L145.01953125,39.76664114942126L146.1796875,39.237857299744874L147.33984375,38.902229951441136L148.5,38.49906039199058L149.66015625,37.96365704079592L150.8203125,37.60572013494172L151.98046874999997,37.04242362412804L153.140625,36.85118693447268L154.30078125,36.18611740291L155.4609375,35.677010180418435L156.62109375,35.2798182000091L157.78125,34.83970986129517L158.94140625,34.318818955821634L160.1015625,33.96960869925841L161.26171875000003,33.393191139521264L162.421875,32.71712491115879L163.58203125,32.14638691881052L164.7421875,31.437052717602356L165.90234375,31.121517700431355L167.0625,30.932196690128883L168.22265625,30.433374821508572L169.38281249999997,30.024016196782576L170.54296875,29.466542367924724L171.703125,29.113720213970517L172.86328125,28.571830410936244L174.0234375,28.466827536223484L175.18359375,28.293760307841936L176.34375,27.52950776763115L177.50390625,27.29108725061247L178.66406250000003,27.019631580207808L179.82421875,26.56323738058226L180.984375,26.179335357253052L182.14453125,25.655492527731326L183.3046875,25.04766603263554L184.46484375,24.664632278938587L185.625,24.269713771389533L186.78515624999997,23.50075382387168L187.9453125,23.057734893858864L189.10546875,22.4066750915541L190.265625,22.23618939913753L191.42578125,21.785344434527907L192.5859375,21.55153235089949L193.74609375,21.558005499413856L194.90625,21.37843409469363L196.06640625000003,20.940494741199846L197.2265625,20.82449152779481L198.38671875,19.929379141239092L199.546875,20.07106176912701L200.70703125,19.385593639123996L201.8671875,18.992669799620064L203.02734375,18.90365671275069L204.18749999999997,18.611779996881722L205.34765625,18.23486081689212L206.5078125,17.586785151322204L207.66796875,17.931722563578518L208.828125,17.478272807750507L209.98828125,17.151170202476752L211.1484375,16.84484313575852L212.30859375,16.606014143950606L213.46875000000003,16.38934614044941L214.62890625,16.094247083017795L215.7890625,15.642004707815769L216.94921875,15.389016321192493L218.109375,14.796942093144427L219.26953125,14.698523458560786L220.4296875,15.354917232769502L221.58984374999997,15.235101692804113L222.75,15.896995180423334L223.91015625,14.661467394467333L225.0703125,13.553259317094529L226.23046875,13.163498229555636L227.390625,15.13099001182733L228.55078125,15.137440255376331L229.7109375,13.728777530086044L230.87109375000003,14.186047262777638L232.03125,14.533779710809021L233.19140625,14.357189917189189L234.3515625,13.315660078950636L235.51171875,13.204393980498002L236.671875,14.219951500325983L237.83203125,13.54517568285498L238.99218749999997,12.755080929933596L240.15234375,11.93247052902114L241.3125,11.677392334079453L242.47265625,10.478703951493817L243.6328125,12.547861769644479L244.79296875,11.753106281070805L245.953125,11.00108922904172L247.11328125,11.191934162508195L248.27343750000003,10.003973754722265L249.43359375,11.052283930630068L250.59375,9.314823346048913L251.75390625,9.886653835329772L252.9140625,9.385903813746168L254.07421875,8.406703740974564" style="fill: none;" fill="none"></path></g></g></g></g><g opacity="0.2"><g><g><g><path stroke="rgb(255, 112, 67)" stroke-width="2px" d="M23.203125,453.26044998927557L24.36328125,167.36086870323527L25.523437499999996,168.4156790971756L26.683593750000004,168.4156790971756L27.84375,168.4156790971756L29.00390625,168.4156790971756L30.1640625,168.4156790971756L31.32421875,168.4156790971756L32.484375,168.4156790971756L33.64453125,168.3698344555768L34.8046875,167.95708881724963L35.96484375000001,165.93915731256658L37.125,159.56445030732587L38.28515625,151.6304500319741L39.4453125,138.5599796663631L40.60546875,128.1953022480011L41.765625,119.80266373807731L42.92578125,115.39999564127487L44.0859375,111.77692622488195L45.24609375,110.08005107532846L46.40625,109.34629703651773L47.56640625,109.11697791923174L48.7265625,108.24564200097862L49.88671875,107.83284840800543L51.04687499999999,106.73219337246634L52.20703125,105.53980109908362L53.36718750000001,104.8518917018717L54.52734375,103.79708130793136L55.6875,102.55879643830383L56.84765625,101.8250423994931L58.0078125,99.66952901536766L59.16796875,98.247865579345L60.328125,96.87199883027509L61.48828125,95.81718843633476L62.6484375,94.39547704566607L63.80859375,92.65275725451382L64.96875,91.46036498113111L66.12890625,90.68071834607557L67.2890625,88.70867943763731L68.44921875,86.32389489087188L69.609375,85.26908449693157L70.76953125,84.16842946139248L71.92968750000001,81.27916203845629L73.08984375,80.13261440667236L74.25,78.2981573776765L75.41015625,76.69301946596664L76.5703125,75.31720067154275L77.73046875,73.1616872874173L78.890625,72.38204065236175L80.05078125,71.51070473410864L81.2109375,69.90551886775275L82.37109375,69.21760947054082L83.53125,68.94244571165603L84.69140624999999,68.2086916728453L85.8515625,68.07110979340291L87.01171875,66.97040680321777L88.171875,66.60350580648941L89.33203125000001,65.86975176767868L90.4921875,66.05317828871985L91.65234375,65.5028507709503L92.8125,64.3104584975676L93.97265625,64.1728766181252L95.1328125,63.80597562139681L96.29296875,62.24668235128573L97.453125,62.24668235128573L98.61328125,60.733281677419455L99.7734375,60.13706156340511L100.93359375,59.77020852132274L102.09374999999999,59.08225116946479L103.25390625,58.53192365169523L104.4140625,57.43126861615612L105.57421875,56.789203860542976L106.73437500000001,56.0554018670862L107.89453125,56.009557225487434L109.0546875,54.86300959370351L110.21484375,54.22094483809036L111.375,54.58784583481873L112.53515625,53.48719079927963L113.6953125,52.432380405339316L114.85546875,52.157216646454536L116.015625,50.87308713522823L117.17578125,51.23998813195659L118.3359375,50.27686702121386L119.49609374999999,49.35968646136196L120.65625,50.23102237961507L121.81640625,49.08447474783114L122.9765625,48.21313882957803L124.13671875000001,48.075556950135635L125.296875,47.525229432366096L126.45703125,45.82835428281261L127.6171875,46.28694456273856L128.77734375,45.82835428281261L129.9375,45.69077240337023L131.09765625,44.5900694131851L132.2578125,44.63596200942991L133.41796875,44.22321637110274L134.578125,43.214250618761206L135.73828125,42.61803050474684L136.8984375,41.9301211075349L138.05859375,41.51737546920774L139.21875,40.46256507526742L140.37890625,40.7377288341522L141.5390625,40.50840971686622L142.69921875,40.14155667478385L143.85937500000003,39.22432816028593L145.01953125,39.316017443483496L146.1796875,38.444681525230386L147.33984375,38.398788928985574L148.5,37.89430605281481L149.66015625,37.16055201400408L150.8203125,37.06881477616048L151.98046874999997,36.19747885790735L153.140625,36.56433189998971L154.30078125,35.18851310556582L155.4609375,34.913349346681045L156.62109375,34.684030229395056L157.78125,34.179547353224294L158.94140625,33.53748259761115L160.1015625,33.445793314413564L161.26171875000003,32.52856479991564L162.421875,31.70302556861529L163.58203125,31.29027993028811L164.7421875,30.37305141579019L165.90234375,30.648215174674966L167.0625,30.648215174674966L168.22265625,29.685142018578254L169.38281249999997,29.409978259693474L170.54296875,28.630331624637932L171.703125,28.584486983039138L172.86328125,27.758995706384802L174.0234375,28.30932322415436L175.18359375,28.034159465269582L176.34375,26.38312895731489L177.50390625,26.933456475084448L178.66406250000003,26.6124480746009L179.82421875,25.87864608114413L180.984375,25.60348232225935L182.14453125,24.86972828344862L183.3046875,24.135926289991872L184.46484375,24.090081648393078L185.625,23.677336010065922L186.78515624999997,22.347313902594802L187.9453125,22.393206498839614L189.10546875,21.430085388096863L190.265625,21.980460860512437L191.42578125,21.10907698761331L192.5859375,21.200814225456895L193.74609375,21.567715222185278L194.90625,21.10907698761331L196.06640625000003,20.283585710958974L197.2265625,20.650486707687357L198.38671875,18.58671056140551L199.546875,20.283585710958974L200.70703125,18.357391444119507L201.8671875,18.40328404036432L203.02734375,18.770137082446684L204.18749999999997,18.173964923078334L205.34765625,17.669482046907568L206.5078125,16.61467165296725L207.66796875,18.44912868196311L208.828125,16.798098174008423L209.98828125,16.660516294566044L211.1484375,16.385352535681264L212.30859375,16.247770656238885L213.46875000000003,16.064344135197693L214.62890625,15.651598496870534L215.7890625,14.96364114501256L216.94921875,15.009533741257371L218.109375,13.908830751072259L219.26953125,14.550895506685402L220.4296875,16.33950789408247L221.58984374999997,15.055378382856166L222.75,16.889835411852026L223.91015625,12.808175715533144L225.0703125,11.890947201035203L226.23046875,12.57885659824716L227.390625,18.082227685234727L228.55078125,15.14711562069977L229.7109375,11.615783442150445L230.87109375000003,14.871951861814992L232.03125,15.055378382856166L233.19140625,14.09230522675945L234.3515625,11.753365321592824L235.51171875,13.03749483281913L236.671875,15.743287780068101L237.83203125,12.533011956648366L238.99218749999997,11.569938800551652L240.15234375,10.698554927652504L241.3125,11.294775041666872L242.47265625,8.680671377615468L243.6328125,15.651598496870534L244.79296875,10.560973048210125L245.953125,9.873063650998168L247.11328125,11.478201562708046L248.27343750000003,8.222033143043499L249.43359375,12.624749194491972L250.59375,6.7086324691772266L251.75390625,10.744399569251298L252.9140625,8.634778781370656L254.07421875,6.937903631817173" style="fill: none;" fill="none"></path></g></g></g></g></g></g><g transform="translate(51, 177)" clip-path="url(#clip_1)"><clipPath id="clip_1"><rect width="278" height="23"></rect></clipPath><g><g><line x1="0" y1="0" x2="0" y2="5" style="visibility: inherit;" fill="rgb(0, 0, 0)" stroke="rgb(204, 204, 204)" stroke-width="1px"></line><line x1="23.203125" y1="0" x2="23.203125" y2="5" style="visibility: inherit;" fill="rgb(0, 0, 0)" stroke="rgb(204, 204, 204)" stroke-width="1px"></line><line x1="46.40625" y1="0" x2="46.40625" y2="5" style="visibility: inherit;" fill="rgb(0, 0, 0)" stroke="rgb(204, 204, 204)" stroke-width="1px"></line><line x1="69.609375" y1="0" x2="69.609375" y2="5" style="visibility: inherit;" fill="rgb(0, 0, 0)" stroke="rgb(204, 204, 204)" stroke-width="1px"></line><line x1="92.8125" y1="0" x2="92.8125" y2="5" style="visibility: inherit;" fill="rgb(0, 0, 0)" stroke="rgb(204, 204, 204)" stroke-width="1px"></line><line x1="116.015625" y1="0" x2="116.015625" y2="5" style="visibility: inherit;" fill="rgb(0, 0, 0)" stroke="rgb(204, 204, 204)" stroke-width="1px"></line><line x1="139.21875" y1="0" x2="139.21875" y2="5" style="visibility: inherit;" fill="rgb(0, 0, 0)" stroke="rgb(204, 204, 204)" stroke-width="1px"></line><line x1="162.421875" y1="0" x2="162.421875" y2="5" style="visibility: inherit;" fill="rgb(0, 0, 0)" stroke="rgb(204, 204, 204)" stroke-width="1px"></line><line x1="185.625" y1="0" x2="185.625" y2="5" style="visibility: inherit;" fill="rgb(0, 0, 0)" stroke="rgb(204, 204, 204)" stroke-width="1px"></line><line x1="208.828125" y1="0" x2="208.828125" y2="5" style="visibility: inherit;" fill="rgb(0, 0, 0)" stroke="rgb(204, 204, 204)" stroke-width="1px"></line><line x1="232.03125" y1="0" x2="232.03125" y2="5" style="visibility: inherit;" fill="rgb(0, 0, 0)" stroke="rgb(204, 204, 204)" stroke-width="1px"></line><line x1="255.234375" y1="0" x2="255.234375" y2="5" style="visibility: inherit;" fill="rgb(0, 0, 0)" stroke="rgb(204, 204, 204)" stroke-width="1px"></line><line x1="278.4375" y1="0" x2="278.4375" y2="5" style="visibility: inherit;" fill="rgb(0, 0, 0)" stroke="rgb(204, 204, 204)" stroke-width="1px"></line></g><g transform="translate(0, 8)"><text x="0" y="0" dx="0em" dy="0.95em" style="text-anchor: middle; visibility: hidden; font-family: Roboto, sans-serif; font-size: 12px; font-weight: 200;" fill="rgb(33, 33, 33)" stroke="none" stroke-width="1px">-20</text><text x="23.203125" y="0" dx="0em" dy="0.95em" style="text-anchor: middle; visibility: inherit; font-family: Roboto, sans-serif; font-size: 12px; font-weight: 200;" fill="rgb(33, 33, 33)" stroke="none" stroke-width="1px">0</text><text x="46.40625" y="0" dx="0em" dy="0.95em" style="text-anchor: middle; visibility: hidden; font-family: Roboto, sans-serif; font-size: 12px; font-weight: 200;" fill="rgb(33, 33, 33)" stroke="none" stroke-width="1px">20</text><text x="69.609375" y="0" dx="0em" dy="0.95em" style="text-anchor: middle; visibility: inherit; font-family: Roboto, sans-serif; font-size: 12px; font-weight: 200;" fill="rgb(33, 33, 33)" stroke="none" stroke-width="1px">40</text><text x="92.8125" y="0" dx="0em" dy="0.95em" style="text-anchor: middle; visibility: hidden; font-family: Roboto, sans-serif; font-size: 12px; font-weight: 200;" fill="rgb(33, 33, 33)" stroke="none" stroke-width="1px">60</text><text x="116.015625" y="0" dx="0em" dy="0.95em" style="text-anchor: middle; visibility: inherit; font-family: Roboto, sans-serif; font-size: 12px; font-weight: 200;" fill="rgb(33, 33, 33)" stroke="none" stroke-width="1px">80</text><text x="139.21875" y="0" dx="0em" dy="0.95em" style="text-anchor: middle; visibility: hidden; font-family: Roboto, sans-serif; font-size: 12px; font-weight: 200;" fill="rgb(33, 33, 33)" stroke="none" stroke-width="1px">100</text><text x="162.421875" y="0" dx="0em" dy="0.95em" style="text-anchor: middle; visibility: inherit; font-family: Roboto, sans-serif; font-size: 12px; font-weight: 200;" fill="rgb(33, 33, 33)" stroke="none" stroke-width="1px">120</text><text x="185.625" y="0" dx="0em" dy="0.95em" style="text-anchor: middle; visibility: hidden; font-family: Roboto, sans-serif; font-size: 12px; font-weight: 200;" fill="rgb(33, 33, 33)" stroke="none" stroke-width="1px">140</text><text x="208.828125" y="0" dx="0em" dy="0.95em" style="text-anchor: middle; visibility: inherit; font-family: Roboto, sans-serif; font-size: 12px; font-weight: 200;" fill="rgb(33, 33, 33)" stroke="none" stroke-width="1px">160</text><text x="232.03125" y="0" dx="0em" dy="0.95em" style="text-anchor: middle; visibility: hidden; font-family: Roboto, sans-serif; font-size: 12px; font-weight: 200;" fill="rgb(33, 33, 33)" stroke="none" stroke-width="1px">180</text><text x="255.234375" y="0" dx="0em" dy="0.95em" style="text-anchor: middle; visibility: inherit; font-family: Roboto, sans-serif; font-size: 12px; font-weight: 200;" fill="rgb(33, 33, 33)" stroke="none" stroke-width="1px">200</text><text x="278.4375" y="0" dx="0em" dy="0.95em" style="text-anchor: middle; visibility: hidden; font-family: Roboto, sans-serif; font-size: 12px; font-weight: 200;" fill="rgb(33, 33, 33)" stroke="none" stroke-width="1px">220</text></g><line x1="0" y1="0" x2="278.4375" y2="0" fill="rgb(0, 0, 0)" stroke="rgb(204, 204, 204)" stroke-width="1px"></line></g></g></g></g></svg>